<svg width="49" height="58" viewBox="0 0 49 58" fill="none" xmlns="http://www.w3.org/2000/svg">
<path d="M48.3667 9.88883C48.3413 9.15256 47.7574 8.56863 47.0211 8.54324C39.0237 8.49246 31.2548 5.59817 25.2124 0.342745C24.7046 -0.114248 23.9176 -0.114248 23.3844 0.342745C17.3165 5.57278 9.54766 8.49246 1.55027 8.54324C1.14406 8.51785 0.763228 8.64479 0.458566 8.92406C0.179292 9.20334 0.0269611 9.58417 0.0523496 9.99038V12.8593V13.0116C-0.201536 29.8696 -0.480812 48.9871 23.8414 57.8985C23.8668 57.8985 23.9176 57.8985 23.9429 57.9239V58.0001L24.3238 57.8985C24.4761 57.8731 24.6031 57.797 24.73 57.7208C49.0268 48.8602 48.6714 29.6919 48.3413 12.7831V9.88883H48.3667ZM24.1968 55.0296C2.18498 46.753 2.51504 28.8033 2.8197 12.9355L2.92125 11.3106C10.6901 10.9805 18.2305 8.11163 24.273 3.23704C30.3155 8.13702 37.8812 11.0059 45.6501 11.336V12.9355C45.9802 28.8033 46.3356 46.8037 24.1968 55.0296Z" fill="#D2D9E3"/>
<path d="M34.8092 21.8214C34.4284 21.8214 34.0983 21.9737 33.819 22.2276L23.1558 32.8907L18.1289 27.8892C17.9004 27.5338 17.545 27.3307 17.1388 27.2799C16.7326 27.2291 16.3263 27.3814 16.0217 27.6607C15.717 27.94 15.5647 28.3462 15.5901 28.7524C15.6155 29.1586 15.8186 29.5395 16.1232 29.7426L22.1657 35.7596C22.4196 36.0135 22.775 36.1659 23.1305 36.1659H23.1558H23.1812C23.5113 36.1405 23.816 35.9881 24.0191 35.7596L35.7739 24.1825C36.0278 23.9286 36.1802 23.5732 36.1802 23.1923C36.1802 22.8115 36.0278 22.4815 35.7739 22.2276C35.5201 21.9483 35.19 21.8214 34.8092 21.8214Z" fill="#D2D9E3"/>
</svg>
