<svg width="154" height="123" viewBox="0 0 154 123" fill="none" xmlns="http://www.w3.org/2000/svg">
<path d="M72.669 47.9985C72.4212 47.7404 72.1459 47.5544 71.9881 47.2638C71.8321 46.9778 71.7973 46.5895 71.6927 46.185C70.2759 47.2615 68.9436 48.3519 67.5489 49.2959C67.0076 49.6632 66.3268 49.7051 65.7101 49.8934C65.6422 49.7981 65.5725 49.7004 65.5046 49.6051C65.6239 49.0262 65.6294 48.3426 65.8863 47.8869C66.4167 46.9453 67.0424 46.0804 67.6958 45.2666C68.9124 43.7507 70.1768 42.2952 71.4174 40.8096C71.5936 40.598 71.7477 40.3585 71.911 40.133C71.8762 40.0749 71.8413 40.0167 71.8064 39.9586C71.6082 40.1353 71.4156 40.3213 71.2119 40.4841C69.4813 41.8512 67.7435 43.2067 66.0148 44.5807C63.8108 46.3338 61.6178 48.1055 59.4175 49.8655C58.2265 50.8187 57.063 51.8348 55.828 52.6881C55.1545 53.1531 54.3691 53.4018 53.6111 53.6088C53.3194 53.6878 52.8826 53.4972 52.6532 53.2321C52.31 52.8345 52.3798 52.2626 52.6495 51.779C53.0386 51.0815 53.4533 50.4049 53.8314 49.6981C54.0919 49.2122 54.3709 48.7169 54.5305 48.1752C55.1178 46.1641 56.4262 45.0016 57.6521 43.7112C58.9752 42.3185 60.2396 40.8328 61.5316 39.3913C62.2913 38.5427 63.0565 37.6987 63.8181 36.8524C63.7723 36.771 63.7264 36.6873 63.6823 36.6059C63.1685 36.9942 62.629 37.336 62.1482 37.7801C60.8966 38.9356 59.6744 40.1493 58.4302 41.3164C57.7475 41.9581 57.0447 42.5673 56.34 43.1695C55.4004 43.9739 54.4425 44.7412 53.5065 45.5526C52.1192 46.757 50.7465 47.9869 49.3683 49.2052C48.2085 50.2282 47.0285 51.2163 45.8944 52.2835C44.6961 53.4135 43.5785 54.6806 42.36 55.771C41.3176 56.701 40.1964 57.4962 39.0769 58.2727C38.8659 58.4192 38.3117 58.3169 38.2364 58.1239C38.0841 57.7403 38.0272 57.1474 38.1575 56.7638C38.4034 56.0454 38.8163 55.4199 39.1467 54.7434C39.8073 53.3902 40.3689 51.9394 41.1396 50.6955C41.8131 49.6097 42.716 48.7495 43.5234 47.7962C43.6702 47.6242 43.8611 47.5126 44.0042 47.3382C46.9441 43.7158 49.873 40.0795 52.8239 36.4734C53.4386 35.7224 54.1452 35.09 54.793 34.3809C54.9471 34.2112 55.037 33.9508 55.0737 33.5788C54.7416 33.7624 54.3819 33.895 54.0809 34.1414C52.5174 35.4109 50.9686 36.7106 49.4142 37.9986C48.2893 38.931 47.1552 39.847 46.0376 40.7956C44.92 41.7442 43.8244 42.7323 42.7068 43.681C41.8498 44.4064 40.9671 45.0853 40.1064 45.8037C38.6108 47.0546 37.1188 48.3124 35.6342 49.5842C33.6082 51.3163 31.5896 53.0601 29.571 54.8038C28.3469 55.8594 27.1578 56.9847 25.8989 57.9682C25.1611 58.5448 24.328 58.9423 23.5114 59.3353C23.2985 59.4376 22.9572 59.2818 22.7388 59.1144C22.6544 59.0493 22.7094 58.6075 22.7608 58.3541C23.1425 56.4406 24.3023 55.1572 25.1685 53.6367C25.719 52.6695 26.2751 51.7092 26.8366 50.756C27.1468 50.2305 27.4661 49.712 27.7946 49.2052C28.8424 47.5893 29.8976 45.9804 30.9455 44.3645C31.0611 44.1855 31.151 43.9786 31.2519 43.7833C31.2061 43.7158 31.1602 43.6507 31.1143 43.5833C30.7858 43.8205 30.4518 44.0413 30.1307 44.2948C29.2737 44.9737 28.4001 45.6293 27.5743 46.3663C26.8274 47.0336 26.1503 47.8218 25.4144 48.5054C24.7427 49.1308 24.0325 49.6888 23.3425 50.2793C22.3387 51.1349 21.3166 51.958 20.3403 52.8578C19.263 53.8506 18.2574 54.9735 17.1618 55.9268C16.0974 56.8522 14.9395 57.6008 13.8586 58.4959C13.3301 58.933 12.8823 59.5306 12.3905 60.0421C12.2529 60.1839 12.0803 60.2676 11.9317 60.3932C11.0178 61.1651 10.1186 61.9625 9.19186 62.7089C7.83203 63.8086 6.50156 64.9897 5.07016 65.9151C3.99478 66.6102 2.9616 67.6146 1.58525 67.338C0.884233 67.1961 0.254784 66.7962 0.0676008 66.0918C-0.0957256 65.471 0.0510846 64.5015 0.355716 63.9435C1.0861 62.6066 1.95962 61.3906 2.82947 60.1886C3.65161 59.0539 4.49577 57.9263 5.41884 56.9266C6.80069 55.4269 8.1073 53.7924 9.79745 52.7927C10.3076 52.4904 10.8398 52.43 11.0655 52.9368C11.2472 53.3437 11.1499 54.1551 10.9352 54.6039C10.0085 56.5336 8.49451 57.8054 7.3549 59.5004C6.58965 60.6373 5.74182 61.5533 4.63891 62.0811C4.49393 62.1509 4.34161 62.295 4.20398 62.2764C2.9249 62.0997 2.46244 63.4622 1.77611 64.3666C1.64948 64.534 1.73573 64.9572 1.71371 65.457C2.51566 65.1618 3.26256 65.0362 3.89201 64.6247C5.31974 63.6947 6.71077 62.6693 8.07427 61.5975C9.08726 60.8024 10.0268 59.8631 11.0123 59.0098C11.9042 58.2402 12.8107 57.4962 13.7154 56.7522C14.4477 56.1523 15.1817 55.5548 15.9249 54.9782C16.7599 54.3318 17.6334 53.7599 18.4409 53.0601C19.1126 52.4788 19.6943 51.7348 20.3458 51.114C21.1367 50.3561 21.9515 49.6376 22.7681 48.9262C24.0803 47.7846 25.3979 46.657 26.721 45.5363C27.7267 44.683 28.7507 43.8693 29.7508 43.0067C31.0482 41.8837 32.3255 40.7259 33.6174 39.5889C34.7754 38.5706 35.9737 37.6196 37.0895 36.5339C37.7777 35.8643 38.3374 34.9901 38.9723 34.2274C39.1815 33.9763 39.4513 33.8136 39.6715 33.5764C40.2753 32.9278 40.8864 32.2837 41.4608 31.5932C43.1362 29.5867 44.7768 27.5337 46.4651 25.5482C47.647 24.1578 48.8802 22.8419 50.0969 21.5027C51.1044 20.3959 52.1137 19.2939 53.1377 18.2128C53.813 17.5013 54.4902 16.7875 55.2132 16.1574C56.4226 15.1065 57.6888 14.1579 58.8945 13.0977C60.091 12.0445 61.2233 10.8727 62.4179 9.81481C63.5007 8.8569 64.6164 7.95015 65.7432 7.07594C67.2902 5.87624 68.8409 4.6835 70.4301 3.57912C71.4284 2.88394 72.4909 2.33059 73.5425 1.76794C74.3573 1.33316 75.1831 0.910007 76.0309 0.607755C77.3632 0.131127 78.7047 -0.482676 80.0645 0.612405C80.7545 1.16808 80.9711 2.39104 80.4426 3.14899C79.0754 5.10666 77.3338 6.45284 75.6565 7.9083C74.2894 9.09405 72.9516 10.3356 71.5954 11.5446C71.377 11.7399 71.144 11.9282 70.898 12.0515C70.0154 12.4932 69.318 13.2907 68.5564 13.965C68.4647 14.0463 68.3509 14.0952 68.2426 14.1324C67.215 14.4718 66.4699 15.4251 65.5872 16.0761C64.3008 17.0224 62.9831 17.8942 61.6967 18.8428C61.1572 19.2404 60.6892 19.7914 60.1515 20.196C58.5972 21.3632 57.0208 22.4885 55.4573 23.6393C54.7086 24.1904 53.9745 24.7716 53.2276 25.3273C52.655 25.7528 52.0586 26.1318 51.4971 26.5805C50.3171 27.5221 49.1646 28.5219 47.981 29.4542C46.79 30.3912 45.5109 31.1631 44.3859 32.2117C42.7362 33.7485 40.7524 34.6692 39.3669 36.7106C38.8494 37.4732 38.0915 37.9637 37.4859 38.6403C36.8142 39.3936 36.2031 40.2283 35.548 41.0072C35.3369 41.2583 35.036 41.3931 34.8433 41.6582C33.6156 43.3508 32.3934 45.0504 31.195 46.7779C30.3747 47.9636 29.571 49.175 28.8094 50.4212C28.0258 51.6999 27.3046 53.0391 26.5467 54.3435C26.2824 54.7968 25.9943 55.227 25.8145 55.8454C25.9429 55.7873 26.0861 55.7594 26.1962 55.6664C27.6991 54.4248 29.2003 53.181 30.6941 51.9231C31.9988 50.8234 33.2999 49.7167 34.5864 48.5821C35.3278 47.9288 36.0233 47.1871 36.7647 46.5314C37.3813 45.985 38.0364 45.5084 38.675 44.9992C40.189 43.7879 41.7048 42.5766 43.217 41.3629C44.4263 40.3911 45.6412 39.4239 46.8395 38.4311C47.9645 37.4987 49.071 36.5339 50.1886 35.5876C51.0658 34.8459 51.8788 33.8485 52.8459 33.4393C54.1672 32.8813 55.215 31.7885 56.4189 31.0236C58.1971 29.8936 59.8359 28.4126 61.5371 27.0873C62.6033 26.255 63.6823 25.4459 64.7449 24.6042C66.0184 23.5975 67.2847 22.5722 68.5473 21.5445C70.1346 20.2518 71.722 18.9591 73.2984 17.6455C74.2912 16.8178 75.2565 15.9389 76.2475 15.1089C77.3118 14.2161 78.3725 13.3163 79.4644 12.4793C81.4042 10.9936 83.3384 9.48931 85.3295 8.11987C86.4031 7.38052 87.5775 6.86437 88.7337 6.34124C89.053 6.19709 89.5063 6.29009 89.8311 6.46911C90.1724 6.65512 90.4568 7.09222 89.965 7.527C89.1759 8.2245 88.374 8.9034 87.5665 9.56836C86.9077 10.1101 86.2452 10.6448 85.5607 11.1308C84.9405 11.5725 84.2798 11.9213 83.654 12.3514C81.4831 13.8417 79.3103 15.3321 77.1558 16.8643C76.4163 17.3897 75.7428 18.0686 75.0179 18.6313C73.0048 20.196 70.9604 21.6956 68.9675 23.2999C67.6627 24.3508 66.4295 25.5459 65.1596 26.6665C64.0035 27.6895 62.8217 28.6683 61.6875 29.7262C61.0342 30.3354 60.4709 31.098 59.8322 31.7374C59.0945 32.4744 58.3091 33.1393 57.5603 33.8601C56.7712 34.6204 55.9858 35.3876 55.2261 36.1944C54.2222 37.2616 53.2203 38.3381 52.2623 39.4704C51.5815 40.2748 51.0034 41.2188 50.3281 42.0325C49.0215 43.6089 47.6561 45.1085 46.3587 46.6965C45.4246 47.8404 44.6208 49.1633 43.6446 50.2421C42.7325 51.2512 42.1783 52.5811 41.4039 53.7018C41.2479 53.9296 41.1708 54.2458 41.1892 54.6155C42.0829 53.825 42.9747 53.0345 43.8684 52.244C45.0503 51.2024 46.2394 50.1747 47.4121 49.1145C49.0564 47.6265 50.6768 46.0966 52.3266 44.6203C53.1303 43.9018 53.9873 43.2811 54.8021 42.5812C56.2372 41.3443 57.6594 40.0818 59.0872 38.831C60.1387 37.9079 61.1921 36.9872 62.2454 36.0689C62.8363 35.5527 63.4199 35.0273 64.02 34.532C65.1027 33.6415 66.1965 32.7697 67.2865 31.8931C68.2114 31.1491 69.1363 30.4051 70.0649 29.6658C71.1183 28.8264 72.1826 28.0057 73.2268 27.1501C74.4784 26.1225 75.7134 25.0576 76.9613 24.0183C77.7651 23.3487 78.5781 22.6954 79.3855 22.0328C80.6463 21.0005 81.9015 19.9519 83.1714 18.9405C84.2119 18.1128 85.2579 17.2921 86.326 16.5248C88.2969 15.1065 90.2513 13.6464 92.2773 12.3677C93.5582 11.5586 94.9511 11.0261 96.3036 10.41C97.1606 10.0194 98.0304 9.66368 98.9113 9.37538C99.2985 9.24751 99.7334 9.26146 100.133 9.32888C100.299 9.35678 100.539 9.68693 100.55 9.89618C100.563 10.1612 100.434 10.5216 100.271 10.7053C98.9076 12.2282 97.1496 12.7908 95.5475 13.7255C93.9748 14.6415 92.3342 15.3669 90.7615 16.2853C89.4989 17.02 88.2987 17.9221 87.0655 18.7382C86.8325 18.894 86.5682 18.9777 86.3388 19.1404C84.801 20.2285 83.254 21.2981 81.7382 22.4327C80.4481 23.3999 79.169 24.3973 77.9358 25.4761C76.7686 26.4968 75.6786 27.6593 74.5298 28.7172C73.8453 29.3496 73.1039 29.882 72.4084 30.4935C71.6908 31.1236 70.9953 31.7932 70.2943 32.4558C69.663 33.0533 69.0336 33.6508 68.417 34.2693C67.6334 35.0552 66.8644 35.8643 66.0882 36.6594C65.4587 37.3058 64.8183 37.9358 64.1998 38.5985C63.8145 39.0123 63.4639 39.4797 63.0896 39.9121C62.2693 40.863 61.4398 41.8023 60.6213 42.7556C59.6487 43.8832 58.6064 44.9318 57.7365 46.1757C56.8446 47.4498 56.1253 48.9192 55.3307 50.3049C55.3967 50.4026 55.4628 50.5002 55.5289 50.5979C55.9142 50.377 56.318 50.198 56.6813 49.9306C57.353 49.4377 57.9953 48.875 58.6651 48.3728C59.2633 47.9264 59.8909 47.5451 60.4874 47.0918C61.1223 46.6105 61.7279 46.0711 62.3555 45.5735C63.7154 44.4924 65.0825 43.4229 66.4442 42.3464C67.2406 41.7163 68.0297 41.07 68.8317 40.4492C70.008 39.5401 71.2009 38.6636 72.3735 37.7429C73.1718 37.1151 73.9242 36.3967 74.7316 35.7945C75.7997 34.997 76.9191 34.3088 77.9835 33.5044C78.6166 33.0254 79.1892 32.4186 79.7856 31.8652C81.3968 30.3726 83.0136 28.8869 84.6156 27.378C85.625 26.4247 86.5957 25.404 87.6142 24.4694C88.4859 23.6696 89.398 22.9349 90.3045 22.1978C91.4735 21.2492 92.5966 20.1658 93.8445 19.4264C96.0613 18.1151 98.0947 16.369 100.346 15.1507C102.07 14.2207 103.787 13.2768 105.503 12.3258C107.259 11.3516 108.964 10.1868 110.774 9.42886C112.499 8.70578 114.15 7.52002 116.057 7.60837C116.16 7.61302 116.27 7.5456 116.371 7.49212C116.587 7.37819 116.918 7.07827 116.989 7.15964C117.222 7.42237 117.459 7.80367 117.501 8.17335C117.529 8.42213 117.279 8.82435 117.07 8.9964C116.262 9.66601 115.438 10.31 114.591 10.8913C113.941 11.3354 113.245 11.6678 112.57 12.0491C111.799 12.4839 111.025 12.9117 110.256 13.3535C109.405 13.8417 108.57 14.3904 107.7 14.8206C106.966 15.1856 106.191 15.4204 105.435 15.718C105.353 15.7506 105.253 15.7901 105.2 15.8668C104.556 16.8015 103.69 17.1293 102.78 17.4153C102.405 17.5315 102.093 17.9477 101.737 18.1872C101.156 18.5801 100.561 18.9382 99.9738 19.3125C99.0856 19.8775 98.1809 20.4122 97.3129 21.0237C96.5366 21.5701 95.7989 22.2025 95.0428 22.7954C94.9694 22.8535 94.8905 22.9442 94.8153 22.9418C93.8702 22.9093 93.2554 23.6998 92.5471 24.3136C91.8938 24.8809 91.1358 25.2482 90.4477 25.7574C89.732 26.2852 89.0603 26.913 88.341 27.4338C87.2729 28.2103 86.1645 28.8915 85.1056 29.6867C84.1624 30.3935 83.2705 31.2096 82.3474 31.9582C81.6574 32.5162 80.9344 33.0138 80.2572 33.595C79.5709 34.1856 78.8864 34.7971 78.2624 35.4899C76.6769 37.2523 75.1262 39.0635 73.5645 40.8584C72.7258 41.8209 71.8927 42.7905 71.0614 43.7647C70.8559 44.0041 70.6668 44.2692 70.4888 44.5389C70.4411 44.611 70.4246 44.776 70.4576 44.8504C70.4907 44.9225 70.6264 44.9899 70.6852 44.9597C70.8925 44.8551 71.0944 44.7202 71.2853 44.5714C72.513 43.6042 73.7333 42.6254 74.9629 41.6628C75.6474 41.1281 76.3282 40.5771 77.0421 40.1121C77.7779 39.6331 78.5891 39.3262 79.2956 38.7915C79.7067 38.4822 80.0737 38.1893 80.5435 38.3172C80.7637 38.3776 81.0628 38.5357 81.1326 38.7519C81.2023 38.9635 81.0977 39.4355 80.9472 39.5657C79.9122 40.4678 78.8405 41.2955 77.7926 42.172C76.7283 43.0625 75.6786 43.9762 74.627 44.89C74.5995 44.9132 74.6307 45.0481 74.6491 45.4131C75.8382 44.5714 76.9466 43.8274 78.022 43.0137C79.3231 42.0302 80.5802 40.9537 81.8831 39.9749C83.0778 39.0774 84.2871 38.2032 85.5295 37.4197C86.8031 36.6176 88.1152 35.9084 89.4347 35.2388C89.6677 35.1203 90.1082 35.2923 90.299 35.5295C90.4495 35.7155 90.4055 36.2153 90.3706 36.5618C90.3339 36.9221 90.2018 37.2639 90.0513 37.8428C90.734 37.615 91.301 37.4197 91.8717 37.2407C92.8444 36.9361 93.8188 36.6385 94.7914 36.3432C95.2465 36.2037 95.7016 35.9991 96.1641 35.9666C96.6541 35.9317 97.1844 35.9549 97.6359 36.1619C98.0836 36.3665 98.0965 37.2941 97.6194 37.9661C97.0927 38.7078 96.443 39.3099 95.876 40.0074C95.4466 40.5352 95.0575 41.1211 94.652 41.6814C94.6905 41.7651 94.729 41.8488 94.7676 41.9325C95.2594 41.8372 95.7512 41.7349 96.2448 41.6466C96.7055 41.5629 97.0541 41.7582 97.4065 42.179C97.7478 42.5859 98.1185 42.8579 98.7369 42.5812C99.4857 42.2441 100.359 42.3882 101.156 42.186C102.745 41.7814 104.316 41.2769 105.898 40.8212C107.202 40.4445 108.502 40.0446 109.816 39.7238C110.849 39.4727 111.908 39.382 112.937 39.1146C113.908 38.8635 114.844 38.3404 115.82 38.1846C116.62 38.0567 117.33 37.6127 118.112 37.4522C119.698 37.1267 121.274 36.7175 122.856 36.3641C124.199 36.0642 125.554 35.8271 126.891 35.4992C128.62 35.0761 130.338 34.5692 132.067 34.1461C132.509 34.0391 132.982 34.1461 133.439 34.1019C134.181 34.0298 134.922 33.9484 135.656 33.8066C136.339 33.6741 137.007 33.4346 137.688 33.2881C139.055 32.9929 140.424 32.6976 141.8 32.4604C143.153 32.2279 144.516 32.107 145.869 31.8722C147.129 31.6537 148.381 31.3305 149.64 31.084C150.35 30.9445 151.071 30.8841 151.785 30.7632C152.464 30.6469 153.137 30.4958 154 30.3238C153.804 30.5563 153.727 30.7283 153.629 30.7516C152.264 31.0515 150.888 31.2793 149.53 31.6281C147.981 32.0257 146.45 32.5488 144.905 32.9719C144.292 33.1393 143.654 33.1463 143.035 33.2881C141.74 33.5857 140.449 33.9275 139.156 34.2391C138.913 34.2972 138.656 34.2693 138.414 34.3321C136.862 34.732 135.313 35.1598 133.759 35.5481C133.256 35.6736 132.736 35.6783 132.232 35.7945C130.716 36.1456 129.207 36.5408 127.693 36.8849C126.713 37.1081 125.721 37.243 124.744 37.4778C123.935 37.6731 123.144 37.98 122.339 38.2032C121.77 38.359 121.192 38.4566 120.617 38.5822C119.316 38.8635 117.965 38.9658 116.734 39.5052C116.092 39.7866 115.464 40.1446 114.783 40.305C113.671 40.5654 112.554 40.7979 111.449 41.1002C109.904 41.5233 108.371 42.0116 106.828 42.451C105.969 42.6952 105.05 42.73 104.255 43.1555C102.541 44.0716 100.691 44.0553 98.926 44.6063C98.2983 44.8016 97.5056 44.4505 96.8541 44.1297C96.1861 43.8019 95.6007 43.7158 94.8703 43.8042C93.9216 43.9181 93.048 44.1018 92.2259 44.7016C91.6864 45.0946 91.1248 45.441 90.5835 45.8316C90.1944 46.1106 89.8384 46.471 89.4365 46.7104C89.2365 46.829 88.8181 46.8778 88.752 46.75C88.5612 46.378 88.2474 45.906 88.6786 45.4503C88.9355 45.1783 89.2108 44.9318 89.4806 44.6761C89.8035 44.3692 90.1522 44.0948 90.4477 43.7507C91.6735 42.3185 92.8755 40.8537 94.1032 39.4239C94.4629 39.0054 94.8777 38.6659 95.2686 38.2892C95.241 38.1753 95.2135 38.0637 95.186 37.9498C94.6171 38.066 94.0262 38.0916 93.4848 38.3172C91.791 39.0216 90.1118 39.7819 88.44 40.5678C88.1776 40.691 87.9758 41.0374 87.7629 41.3025C86.2397 43.1834 84.7257 45.076 83.2008 46.9546C82.5346 47.7753 81.8593 48.5821 81.1711 49.3726C79.67 51.1024 78.1615 52.8229 76.6475 54.5341C75.451 55.8873 74.2435 57.2242 73.0378 58.5634C71.9312 59.791 70.8045 60.9907 69.7126 62.2392C69.0794 62.9623 68.5197 63.7854 67.8884 64.5108C66.6736 65.9104 65.4239 67.2636 64.2017 68.6516C63.2786 69.7002 62.3831 70.7883 61.4545 71.8276C60.5204 72.8738 59.5533 73.8736 58.6137 74.9105C58.4192 75.1268 58.2944 75.443 58.1054 75.6708C57.4778 76.4311 56.8501 77.196 56.1913 77.9121C55.9473 78.1772 55.5766 78.2516 55.327 78.5097C54.9545 78.8956 54.6572 79.3955 54.292 79.7954C53.2496 80.937 52.1963 82.0646 51.1337 83.1783C50.0528 84.3129 48.9609 85.4312 47.8654 86.5426C46.9166 87.5028 45.9532 88.4398 44.9989 89.3954C44.8209 89.5744 44.6649 89.7906 44.4906 89.9766C43.1601 91.3926 41.8241 92.7992 40.4991 94.2221C39.8605 94.908 39.2329 95.6125 38.6108 96.3216C37.8162 97.2237 37.0546 98.177 36.2343 99.0395C35.3534 99.9649 34.4139 100.804 33.5091 101.695C33.0449 102.15 32.6081 102.648 32.1438 103.104C30.9198 104.31 29.6866 105.503 28.4589 106.707C28.0313 107.126 27.611 107.558 27.1926 107.993C26.3008 108.923 25.4144 109.862 24.5207 110.792C23.7646 111.578 23.0049 112.362 22.2396 113.134C21.6946 113.685 21.1312 114.206 20.5935 114.768C20.4467 114.922 20.3972 115.226 20.2485 115.368C19.1272 116.44 18.0739 117.702 16.8315 118.472C15.9818 118.997 15.3561 119.82 14.5596 120.381C13.4127 121.19 12.3281 122.143 11.172 122.927C10.9224 123.096 10.3627 122.952 10.1626 122.69C9.96628 122.429 9.94977 121.808 10.0177 121.39C10.2489 119.969 10.737 118.66 11.3518 117.447C12.2235 115.728 13.1337 114.041 14.0531 112.362C14.7817 111.032 15.5231 109.709 16.3085 108.433C16.7141 107.772 17.2407 107.235 17.694 106.621C18.5345 105.482 19.575 104.471 20.1421 103.141C20.8247 101.544 22.0102 100.604 22.7791 99.1488C23.3554 98.0584 24.2473 97.2376 24.9813 96.2774C26.9357 93.7199 28.8663 91.1322 30.8372 88.5932C31.6997 87.4819 32.6411 86.4705 33.5312 85.3917C34.2304 84.5431 34.88 83.6293 35.5939 82.8016C36.6252 81.6066 37.7134 80.4906 38.7411 79.2909C39.4274 78.4887 40.0459 77.5913 40.7028 76.7496C40.8386 76.5753 41.0313 76.4753 41.1763 76.3125C41.9617 75.4244 42.7325 74.5153 43.5234 73.6388C45.2081 71.7694 46.8872 69.8908 48.6012 68.0657C49.1793 67.4496 49.8565 66.9799 50.4878 66.4405C50.5446 66.3917 50.6199 66.3405 50.6382 66.2708C50.9208 65.185 51.8072 64.9897 52.4018 64.3689C53.2845 63.4436 54.2057 62.5717 55.1361 61.7254C55.7858 61.1372 56.4868 60.6419 57.1511 60.0793C57.6209 59.6817 58.054 59.219 58.5219 58.8145C59.2376 58.1983 59.9644 57.6008 60.6929 57.0103C62.2381 55.7571 63.7759 54.4899 65.3413 53.2763C66.2148 52.5997 67.1434 52.0417 68.0316 51.4C69.6043 50.2631 71.1641 49.1029 72.669 47.9985ZM11.7941 120.458C11.8711 120.513 11.9482 120.567 12.0271 120.623C12.2951 120.427 12.5795 120.262 12.8272 120.032C14.1577 118.804 15.4717 117.563 16.8957 116.486C18.2372 115.473 19.43 114.134 20.6577 112.892C21.1569 112.387 21.5441 111.711 22.0396 111.199C23.3811 109.816 24.7574 108.486 26.1099 107.124C26.9798 106.247 27.8221 105.331 28.6956 104.459C29.9306 103.227 31.1895 102.03 32.4209 100.793C33.0045 100.207 33.5458 99.551 34.1184 98.9465C35.381 97.6096 36.6546 96.289 37.9171 94.9522C38.4897 94.3453 39.0421 93.7083 39.6146 93.0968C40.9799 91.639 42.3508 90.1905 43.718 88.7327C44.7034 87.6818 45.6815 86.6193 46.6652 85.5661C47.1295 85.0685 47.5846 84.55 48.0746 84.0943C49.016 83.2225 50.0308 82.4692 50.919 81.5229C52.1045 80.2604 53.2019 78.8631 54.3324 77.5169C54.7489 77.0217 55.1361 76.4799 55.5766 76.0173C55.9473 75.6266 56.4024 75.3616 56.7676 74.9663C57.5438 74.127 58.2815 73.2296 59.0486 72.374C59.4028 71.9787 59.8065 71.6509 60.1497 71.2417C61.0746 70.1396 61.961 68.9864 62.8969 67.9006C63.6438 67.0334 64.4604 66.2592 65.2092 65.3919C65.9873 64.4922 66.6534 63.418 67.4902 62.6205C68.7216 61.4464 69.8649 60.1862 70.9219 58.7656C71.9019 57.4474 73.0066 56.2802 74.0545 55.041C74.5078 54.5039 74.939 53.9389 75.3996 53.4135C76.5814 52.065 77.7743 50.7327 78.9616 49.3912C79.0809 49.2563 79.1873 49.1029 79.3103 48.9704C80.2389 47.9683 81.1986 47.0104 82.0905 45.9571C82.8374 45.0736 83.5017 44.0809 84.2027 43.1346C84.166 43.0579 84.1312 42.9811 84.0945 42.9067C83.7348 43.1323 83.3806 43.3764 83.0136 43.5787C82.1529 44.053 81.2684 44.4598 80.426 44.9806C79.336 45.6549 78.2936 46.4524 77.2017 47.1197C76.2823 47.68 75.3005 48.0776 74.3848 48.6425C73.1993 49.3749 72.0303 50.1608 70.8889 51.0024C68.9895 52.4021 67.1195 53.8645 65.2348 55.2944C64.1796 56.0965 63.1079 56.8638 62.0656 57.6892C61.1866 58.3843 60.3295 59.1237 59.4762 59.8677C58.6816 60.5606 57.9237 61.3255 57.1126 61.9858C56.4574 62.5182 55.7436 62.9344 55.0646 63.4203C54.8517 63.5714 54.6608 63.7737 54.4681 63.9644C54.1837 64.2457 53.9103 64.548 53.6222 64.8223C53.446 64.9897 53.2294 65.0943 53.0624 65.2757C52.4238 65.9592 51.809 66.68 51.1649 67.3519C50.5648 67.9773 49.9134 68.5261 49.3261 69.1701C48.6618 69.8978 48.0672 70.7278 47.3974 71.4463C46.5643 72.3391 45.6907 73.1668 44.8612 74.0712C43.9033 75.1175 43.039 76.2683 42.1067 77.3332C41.3048 78.2493 40.49 79.1723 39.6587 80.0511C38.8934 80.8603 38.3172 81.946 37.4216 82.6645C36.6729 83.2666 36.082 84.192 35.4397 84.9965C34.3588 86.3473 33.3018 87.7283 32.2154 89.0699C31.4832 89.9743 30.6739 90.7834 29.971 91.7227C28.5616 93.6037 27.2091 95.5567 25.8163 97.4585C24.5133 99.2372 23.1443 100.941 21.8854 102.767C20.5972 104.636 19.364 106.57 18.1913 108.558C17.4609 109.8 16.4828 110.741 15.8148 112.057C14.7211 114.206 13.5118 116.256 12.4107 118.398C12.0895 118.997 11.9886 119.767 11.7941 120.458ZM44.2226 30.5167C44.274 30.5958 44.3272 30.6748 44.3786 30.7562C44.4887 30.6865 44.6062 30.6307 44.7089 30.547C45.6338 29.7937 46.5459 29.0124 47.4818 28.2824C48.6581 27.3663 49.8693 26.5224 51.0383 25.5947C52.6238 24.3368 54.1085 22.8907 55.8573 21.956C56.9254 21.3864 57.9145 20.5633 58.911 19.7938C61.0177 18.1686 63.1024 16.4946 65.2055 14.8578C65.6955 14.4765 66.2368 14.2021 66.7213 13.8115C68.4408 12.4258 70.1475 11.0168 71.8523 9.60323C72.7313 8.87318 73.603 8.12452 74.4655 7.36424C75.4106 6.52956 76.3594 5.69953 77.2751 4.81138C77.9725 4.1348 78.6331 3.38847 79.2736 2.62354C79.358 2.52124 79.2919 2.00509 79.1708 1.88884C78.9726 1.70051 78.6735 1.60751 78.4147 1.60286C77.1357 1.58194 75.9887 2.26549 74.8087 2.75839C74.1169 3.04669 73.4379 3.38382 72.7644 3.7349C72.19 4.0325 71.5972 4.31383 71.0724 4.7207C69.5052 5.93669 67.9618 7.20149 66.4203 8.4663C65.6294 9.11498 64.8623 9.80318 64.0824 10.4728C63.2291 11.2052 62.3702 11.9282 61.5242 12.6699C60.4727 13.593 59.4358 14.5439 58.3806 15.4623C57.353 16.3597 56.5143 17.5943 55.3178 18.1918C55.1141 18.2941 54.9306 18.4825 54.7636 18.6661C53.8057 19.7217 52.8514 20.7865 51.9026 21.8561C50.8805 23.0069 49.8638 24.1694 48.8435 25.3226C48.1663 26.0876 47.4836 26.8455 46.8046 27.6081C45.9458 28.58 45.0833 29.5495 44.2226 30.5167ZM93.4958 21.8026C95.2355 21.584 96.4118 20.2541 97.7625 19.4194C98.803 18.7754 99.8215 18.0709 100.849 17.3897C101.262 17.1177 101.666 16.8154 102.088 16.569C103.635 15.6715 105.189 14.7973 106.74 13.9068C107.63 13.3953 108.52 12.8792 109.403 12.3467C109.683 12.1793 109.942 11.9561 110.21 11.7585C110.17 11.6841 110.129 11.6097 110.089 11.5353C104.36 14.3021 98.8489 17.6338 93.4958 21.8026ZM81.7051 42.0162C81.7253 42.086 81.7473 42.1557 81.7675 42.2255C81.951 42.1743 82.1474 42.1581 82.3181 42.0651C83.4999 41.421 84.6578 40.6956 85.8617 40.126C86.6985 39.7308 87.3738 39.203 87.7941 37.8917C85.5259 38.9751 83.61 40.4841 81.7051 42.0162Z" fill="#4C566F"/>
</svg>
