<svg width="208" height="192" viewBox="0 0 208 192" fill="none" xmlns="http://www.w3.org/2000/svg">
<path d="M111.245 1.0063C111.648 0.857531 112.069 0.791899 112.489 0.739393C112.782 0.910037 113.001 0.726266 113.229 0.590627C114.232 0.358726 115.239 0.17058 116.281 0.205584C116.741 0.218711 117.192 0.0480669 117.661 0.039316C123.222 -0.0919484 128.407 1.20757 133.32 3.82848C135.724 5.1105 137.988 6.55878 140.099 8.26084C142.153 9.91915 144.031 11.7569 145.796 13.7258C147.911 16.0842 149.807 18.5957 151.541 21.2341C153.337 23.9601 154.935 26.7998 156.341 29.7445C157.431 32.0241 158.425 34.3475 159.336 36.7015C160.584 39.9262 161.639 43.2166 162.502 46.5638C163.448 50.2348 164.192 53.9452 164.731 57.7038C165.081 60.1409 165.37 62.5824 165.537 65.0371C165.756 68.2224 165.834 71.4121 165.738 74.6062C165.659 77.1572 165.51 79.6993 165.23 82.2371C165.064 83.7466 164.854 85.2518 164.622 86.7526C164.547 87.247 164.652 87.6846 164.775 88.1396C165.843 92.1301 166.548 96.1817 166.925 100.29C167.21 103.388 167.306 106.49 167.227 109.601C167.135 113.29 166.833 116.957 166.272 120.601C165.769 123.9 165.112 127.169 164.236 130.389C163.238 134.065 162.068 137.683 160.645 141.214C158.955 145.415 157.002 149.488 154.729 153.409C153.551 155.434 152.308 157.412 150.994 159.346C149.444 161.626 147.775 163.827 146.002 165.94C144.036 168.281 141.964 170.53 139.735 172.626C137.664 174.577 135.518 176.45 133.237 178.156C131.187 179.692 129.072 181.14 126.857 182.427C125.635 183.136 124.422 183.871 123.117 184.422C122.832 184.479 122.443 184.321 122.346 184.785C122.32 184.803 122.289 184.816 122.259 184.816C122.123 184.768 122.044 184.816 122.013 184.951C121.956 184.982 121.904 185.008 121.847 185.039C121.694 184.969 121.584 185.035 121.492 185.157C121.427 185.179 121.365 185.205 121.3 185.227C121.094 185.214 120.927 185.262 120.853 185.481C120.678 185.625 120.472 185.704 120.257 185.761C120.095 185.726 119.942 185.7 119.92 185.932C119.758 185.988 119.596 186.045 119.438 186.102C119.285 186.05 119.132 185.997 119.071 186.22C119.053 186.251 119.027 186.269 118.996 186.282C118.852 186.247 118.716 186.234 118.646 186.409C118.418 186.514 118.186 186.614 117.958 186.719C117.696 186.68 117.437 186.667 117.288 186.951C117.183 186.995 117.078 187.039 116.977 187.082C116.846 186.955 116.798 187.034 116.767 187.165C113.496 188.391 110.221 189.594 106.801 190.36C104.274 190.924 101.716 191.252 99.1416 191.506C96.9039 191.725 94.6706 191.76 92.4416 191.585C88.7676 191.292 85.1199 190.753 81.5685 189.716C79.0549 188.981 76.5939 188.089 74.1416 187.161C74.111 187.034 74.0584 186.955 73.9314 187.078C73.8263 187.034 73.7212 186.99 73.6205 186.947C73.4672 186.662 73.2133 186.671 72.9505 186.715C72.7535 186.623 72.552 186.535 72.3549 186.444C72.2893 186.172 72.0878 186.264 71.9127 186.277C71.882 186.264 71.8558 186.242 71.8382 186.216C71.7769 185.988 71.6237 186.041 71.4704 186.098C71.3084 186.041 71.1463 185.984 70.9887 185.927C70.9668 185.695 70.8136 185.717 70.6515 185.757C70.437 185.695 70.2311 185.621 70.0559 185.477C69.9815 185.258 69.8151 185.21 69.6093 185.223C69.5436 185.201 69.4823 185.175 69.4166 185.153C69.329 185.03 69.2196 184.965 69.0619 185.035C69.005 185.004 68.9525 184.978 68.8955 184.947C68.8649 184.807 68.786 184.763 68.6503 184.811C68.6196 184.807 68.589 184.798 68.5627 184.781C68.4664 184.317 68.081 184.475 67.792 184.418C66.5002 183.875 65.2959 183.158 64.0961 182.444C62.489 181.49 60.9169 180.484 59.393 179.399C56.7437 177.518 54.252 175.448 51.8567 173.247C49.5489 171.129 47.3944 168.863 45.3713 166.483C43.6284 164.435 42.0038 162.295 40.458 160.094C38.0977 156.73 35.9651 153.229 34.0821 149.58C32.2166 145.962 30.557 142.247 29.1995 138.405C28.3324 135.955 27.5442 133.483 26.8479 130.976C26.0465 128.092 25.416 125.178 24.8992 122.238C24.2643 118.641 23.9008 115.014 23.7388 111.36C23.6249 108.722 23.6118 106.088 23.7563 103.454C23.9052 100.767 24.1723 98.0982 24.5971 95.4379C25.0262 92.782 25.5736 90.1523 26.2918 87.562C26.4056 87.1551 26.283 86.757 26.2217 86.3675C25.6393 82.7753 25.3152 79.1568 25.1882 75.5207C25.0788 72.436 25.1269 69.3513 25.2933 66.2622C25.5167 62.193 26.0246 58.1632 26.7428 54.1596C27.5836 49.4822 28.7353 44.8749 30.2548 40.3681C31.3715 37.0603 32.6458 33.8224 34.1259 30.6633C35.4527 27.8192 36.9328 25.0539 38.6275 22.4068C39.858 20.4816 41.1148 18.5739 42.5336 16.7843C44.4648 14.3471 46.5142 12.015 48.8395 9.93665C51.283 7.75766 53.8622 5.7712 56.7655 4.2354C59.7083 2.67773 62.7386 1.32571 66.0316 0.673761C66.5965 0.564374 67.1527 0.39373 67.7351 0.415607C67.8402 0.533745 67.8971 0.454987 67.954 0.363102C68.0898 0.336849 68.2255 0.310596 68.3656 0.284343C68.589 0.371852 68.8167 0.498741 68.9963 0.20996C69.0619 0.201209 69.132 0.196833 69.1977 0.188082C69.4867 0.643132 69.7275 0.494366 69.9509 0.126826C70.2267 0.113699 70.507 0.100573 70.7829 0.0830708C70.8573 0.183707 70.923 0.17058 70.98 0.0699443C71.0544 0.0699443 71.1288 0.0655689 71.2033 0.0655689C71.4441 0.205584 71.685 0.192458 71.9258 0.0743198C72.7534 0.030565 73.5811 -0.0175653 74.4044 0.188082C74.816 0.293094 75.2583 0.148703 75.6962 0.218711C76.3618 0.328098 77.0406 0.384979 77.693 0.573125C77.9251 0.704389 78.1441 0.892535 78.4375 0.721891C78.8622 0.770021 79.2826 0.835653 79.6811 0.988795C79.8519 1.40447 79.506 1.35634 79.2914 1.42634C77.4172 1.06755 75.5429 0.730642 73.6336 0.612504C73.568 0.503117 73.4979 0.450611 73.4103 0.595002C72.7053 0.590627 72.0047 0.581876 71.2996 0.5775C71.0894 0.275592 70.9055 0.240588 70.761 0.630006C70.4851 0.651883 70.2093 0.673761 69.9334 0.691263C69.3159 0.507492 68.7203 0.62563 68.1423 0.857531C67.6869 0.936289 67.2358 1.01505 66.7804 1.09381C66.6053 0.975669 66.452 0.936289 66.3644 1.19007C63.2203 1.81576 60.2775 3.02339 57.4531 4.49356C54.2126 6.17811 51.2917 8.3396 48.6775 10.8993C47.6177 11.9362 46.4879 12.9164 45.5289 14.0365C44.3553 15.4104 43.2255 16.8237 42.1352 18.2719C40.9309 19.8777 39.8011 21.5361 38.7633 23.2425C37.4277 25.4477 36.2059 27.723 35.0805 30.0507C33.1143 34.1112 31.4984 38.3073 30.1716 42.6084C28.7396 47.2507 27.6493 51.9719 26.9224 56.7805C26.4582 59.8346 26.1166 62.9062 25.9327 65.9866C25.6699 70.3839 25.6656 74.7857 26.0378 79.1786C26.2523 81.7383 26.4582 84.2979 27.0493 86.8095C27.1019 87.037 27.0931 87.2514 27.0231 87.4789C25.8144 91.5262 25.0875 95.6698 24.6803 99.8659C24.3475 103.274 24.2511 106.687 24.3387 110.113C24.4788 115.526 25.197 120.864 26.3137 126.149C27.0318 129.545 27.9252 132.905 29.09 136.182C29.3702 136.97 29.6155 137.771 29.9132 138.55C30.9642 141.297 32.0677 144.023 33.3464 146.675C35.4265 150.98 37.8087 155.106 40.493 159.066C42.6957 162.308 45.1742 165.332 47.7491 168.272C48.9796 169.677 50.3196 170.985 51.6771 172.267C53.7571 174.236 55.9335 176.104 58.2282 177.819C61.2628 180.086 64.4595 182.116 67.8314 183.853C70.2136 185.083 72.7053 186.076 75.267 186.89C76.3486 187.235 77.4609 187.529 78.49 187.988C79.4184 188.399 80.3599 188.741 81.3233 189.012C85.0192 190.049 88.772 190.745 92.6124 190.937C94.7625 191.042 96.9127 191.047 99.054 190.911C101.463 190.758 103.845 190.368 106.209 189.87C108.158 189.458 110.098 188.968 111.968 188.312C113.676 187.712 115.383 187.087 117.091 186.479C119.342 185.673 121.523 184.715 123.634 183.599C124.728 183.022 125.779 182.37 126.839 181.727C127.886 181.092 128.945 180.48 129.948 179.78C131.678 178.572 133.386 177.329 135.015 175.986C136.473 174.787 137.909 173.562 139.262 172.254C140.918 170.657 142.529 169.007 144.044 167.266C146.54 164.4 148.896 161.425 150.985 158.244C151.944 156.787 152.872 155.316 153.766 153.816C155.404 151.059 156.888 148.224 158.219 145.305C159.761 141.923 161.127 138.471 162.261 134.927C163.251 131.833 164.074 128.696 164.74 125.515C165.405 122.334 165.918 119.127 166.237 115.893C166.631 111.947 166.745 107.987 166.548 104.023C166.303 99.0739 165.672 94.1822 164.433 89.3779C164.149 88.2709 163.82 87.2076 164.048 85.9781C164.902 81.3795 165.16 76.7196 165.165 72.0466C165.169 67.518 164.854 63.0156 164.245 58.5264C163.807 55.3104 163.22 52.125 162.48 48.9616C161.889 46.4282 161.193 43.9166 160.391 41.4445C159.432 38.491 158.364 35.577 157.085 32.7373C156.126 30.6064 155.123 28.4974 153.989 26.4497C153.144 24.927 152.259 23.4306 151.327 21.9561C150.328 20.3766 149.269 18.8364 148.126 17.3706C147.07 16.0186 145.997 14.6709 144.806 13.4195C143.782 12.3432 142.735 11.2887 141.627 10.3042C138.943 7.91956 136.066 5.81933 132.816 4.22665C130.644 3.16341 128.459 2.18768 126.117 1.56198C122.679 0.643132 119.198 0.419983 115.668 0.756895C114.306 0.888159 112.979 1.21194 111.635 1.41759C111.416 1.2557 111.315 1.42634 111.202 1.56636C110.965 1.61011 110.729 1.65387 110.492 1.69762C110.475 1.39571 110.689 1.32133 110.917 1.32133C111.171 1.34758 111.228 1.20757 111.245 1.0063Z" fill="#4C566F"/>
<path d="M87.813 4.46742C90.563 6.09072 92.9277 8.16032 94.9859 10.5887C95.4763 11.1663 95.4544 11.1707 95.9493 10.5887C97.8892 8.31784 100.074 6.327 102.64 4.77808C102.802 4.67744 102.96 4.57243 103.122 4.47179C103.284 4.44991 103.547 4.62493 103.529 4.25739C103.573 4.22676 103.613 4.19176 103.656 4.16113C103.924 4.21364 103.875 4.42804 103.893 4.61181C102.702 5.36877 101.511 6.12135 100.429 7.03145C100.341 7.10583 100.236 7.18897 100.101 7.12333C100.096 7.11021 100.092 7.09708 100.083 7.08395C100.079 7.07958 100.066 7.07958 100.057 7.0752C100.07 7.0927 100.087 7.10583 100.101 7.12333C100.127 7.33773 99.9386 7.41649 99.8247 7.52588C99.2905 8.02468 98.7431 8.50598 98.1957 8.99604C97.968 8.85165 98.0205 9.01792 98.0293 9.14043C97.2323 10.0287 96.3609 10.8556 95.7172 11.8707C95.5464 12.1376 95.3581 12.0239 95.2224 11.827C94.548 10.8512 93.716 10.0111 92.919 9.14043C92.9277 9.01792 92.9759 8.84727 92.7526 8.99604C92.5687 8.83415 92.3585 8.69851 92.2096 8.51036C91.8067 7.99843 91.1367 7.74903 90.8477 7.12333C90.8608 7.11896 90.874 7.11458 90.8871 7.10583C90.8915 7.10146 90.8915 7.08833 90.8959 7.07958C90.8827 7.09708 90.8652 7.11021 90.852 7.12771C90.7163 7.19334 90.6068 7.11021 90.5236 7.03582C89.442 6.12135 88.2509 5.36877 87.0598 4.61618C87.0773 4.43241 87.0291 4.21801 87.2962 4.16551C87.3357 4.19614 87.3795 4.23114 87.4189 4.26177C87.3882 4.62056 87.6554 4.44554 87.813 4.46742Z" fill="#4C566F"/>
<path d="M87.2832 4.15671C87.016 4.20922 87.0642 4.42362 87.0467 4.60739C86.8233 4.60739 86.6525 4.47175 86.473 4.37111C84.7433 3.38225 82.9172 2.62092 81.0343 1.98647C80.4606 1.78958 79.8344 1.76332 79.3002 1.44829C79.5191 1.37828 79.8606 1.42641 79.6899 1.01074C80.6095 1.18139 81.494 1.48329 82.3698 1.79395C83.9638 2.35839 85.5052 3.04534 86.9678 3.90293C87.0817 3.96419 87.1781 4.0692 87.2832 4.15671Z" fill="#4C566F"/>
<path d="M103.889 4.60742C103.871 4.42365 103.919 4.20925 103.652 4.15674C104.519 3.51792 105.452 3.01037 106.485 2.69971C106.481 2.89223 106.529 3.05412 106.717 3.14601C105.793 3.67106 104.869 4.18737 103.889 4.60742Z" fill="#4C566F"/>
<path d="M106.717 3.14577C106.529 3.05388 106.477 2.89199 106.485 2.69947C106.516 2.68634 106.551 2.67759 106.586 2.67759C106.717 2.72572 106.792 2.66884 106.827 2.54633C106.971 2.43257 107.133 2.36693 107.322 2.36256C107.457 2.40194 107.536 2.34943 107.558 2.20942C107.663 2.17004 107.768 2.13066 107.873 2.09565C107.983 2.22254 108.044 2.14816 108.092 2.03877C108.263 1.89001 108.469 1.855 108.684 1.8375C108.859 1.84188 109.078 1.96001 109.117 1.64935C109.507 1.53122 109.897 1.41308 110.286 1.29932C110.334 1.6056 110.212 1.78499 109.905 1.84188C109.787 1.86375 109.664 1.88563 109.647 2.03877C109.555 2.06065 109.459 2.0869 109.367 2.10878C108.71 2.10878 108.127 2.31443 107.655 2.7826C107.335 2.90074 107.028 3.02326 106.717 3.14577Z" fill="#4C566F"/>
<path d="M109.638 2.03865C109.656 1.88551 109.778 1.85926 109.897 1.84176C110.203 1.78487 110.33 1.60548 110.278 1.2992C110.593 1.17668 110.873 0.949157 111.241 1.00604C111.223 1.20731 111.166 1.3517 110.913 1.34733C110.685 1.34733 110.475 1.42171 110.488 1.72362C110.251 1.94677 109.945 1.99052 109.638 2.03865Z" fill="#4C566F"/>
<path d="M69.964 0.139697C69.7407 0.507238 69.4998 0.656004 69.2108 0.200954C69.4604 0.179077 69.7013 0.0478124 69.964 0.139697Z" fill="#4C566F"/>
<path d="M67.8052 184.426C68.0898 184.483 68.4795 184.326 68.5758 184.789C68.2693 184.776 68.0329 184.606 67.8052 184.426Z" fill="#4C566F"/>
<path d="M122.359 184.789C122.456 184.326 122.841 184.483 123.13 184.426C122.902 184.606 122.666 184.776 122.359 184.789Z" fill="#4C566F"/>
<path d="M78.4462 0.739164C78.1528 0.909808 77.9339 0.726038 77.7018 0.590398C77.9733 0.511639 78.2185 0.577272 78.4462 0.739164Z" fill="#4C566F"/>
<path d="M113.233 0.590398C113.001 0.721662 112.782 0.909808 112.493 0.739164C112.717 0.577272 112.962 0.511639 113.233 0.590398Z" fill="#4C566F"/>
<path d="M71.9346 0.0874251C71.6937 0.205563 71.4529 0.218689 71.212 0.0786741C71.4529 -0.0175865 71.6981 -0.0350884 71.9346 0.0874251Z" fill="#4C566F"/>
<path d="M69.0094 0.222839C68.8299 0.51162 68.6021 0.389107 68.3788 0.297222C68.5758 0.152831 68.7992 0.244716 69.0094 0.222839Z" fill="#4C566F"/>
<path d="M72.9593 186.724C73.2264 186.684 73.4804 186.671 73.6293 186.956C73.3753 186.973 73.1476 186.912 72.9593 186.724Z" fill="#4C566F"/>
<path d="M117.302 186.96C117.455 186.676 117.709 186.689 117.972 186.728C117.788 186.912 117.56 186.973 117.302 186.96Z" fill="#4C566F"/>
<path d="M109.113 1.64941C109.078 1.96007 108.855 1.84194 108.679 1.83756C108.771 1.64941 108.942 1.65817 109.113 1.64941Z" fill="#4C566F"/>
<path d="M71.9214 186.29C72.0925 186.277 72.2987 186.185 72.3645 186.456C72.1934 186.456 72.0136 186.491 71.9214 186.29Z" fill="#4C566F"/>
<path d="M120.87 185.485C120.945 185.266 121.112 185.218 121.318 185.231C121.23 185.424 121.068 185.481 120.87 185.485Z" fill="#4C566F"/>
<path d="M69.618 185.231C69.8242 185.218 69.9909 185.271 70.0655 185.485C69.8681 185.481 69.7058 185.424 69.618 185.231Z" fill="#4C566F"/>
<path d="M103.526 4.25293C103.548 4.62047 103.28 4.44108 103.118 4.46733C103.197 4.27918 103.368 4.27918 103.526 4.25293Z" fill="#4C566F"/>
<path d="M87.8137 4.46733C87.6514 4.44545 87.3882 4.62047 87.4057 4.25293C87.568 4.27918 87.7391 4.27918 87.8137 4.46733Z" fill="#4C566F"/>
<path d="M119.088 186.225C119.15 185.997 119.303 186.05 119.457 186.107C119.373 186.264 119.228 186.238 119.088 186.225Z" fill="#4C566F"/>
<path d="M119.938 185.936C119.96 185.704 120.113 185.726 120.276 185.766C120.21 185.914 120.087 185.954 119.938 185.936Z" fill="#4C566F"/>
<path d="M71.4791 186.107C71.6326 186.05 71.7862 186.002 71.8476 186.225C71.7073 186.238 71.5625 186.264 71.4791 186.107Z" fill="#4C566F"/>
<path d="M70.6603 185.766C70.8226 185.726 70.9761 185.704 70.998 185.936C70.8489 185.954 70.7261 185.914 70.6603 185.766Z" fill="#4C566F"/>
<path d="M118.663 186.417C118.734 186.242 118.87 186.255 119.014 186.29C118.944 186.456 118.817 186.47 118.663 186.417Z" fill="#4C566F"/>
<path d="M121.51 185.161C121.597 185.039 121.712 184.973 121.865 185.043C121.777 185.183 121.655 185.205 121.51 185.161Z" fill="#4C566F"/>
<path d="M69.0751 185.043C69.2286 184.973 69.3383 185.039 69.4304 185.161C69.2813 185.205 69.1584 185.183 69.0751 185.043Z" fill="#4C566F"/>
<path d="M107.554 2.21377C107.532 2.35379 107.453 2.40192 107.317 2.36692C107.361 2.25753 107.436 2.20065 107.554 2.21377Z" fill="#4C566F"/>
<path d="M70.9934 0.0829136C70.9364 0.18355 70.8706 0.201052 70.796 0.09604C70.853 0.00415491 70.9188 0.00415491 70.9934 0.0829136Z" fill="#4C566F"/>
<path d="M68.6635 184.82C68.7994 184.772 68.8784 184.82 68.9091 184.956C68.7862 184.987 68.7117 184.93 68.6635 184.82Z" fill="#4C566F"/>
<path d="M122.026 184.96C122.057 184.82 122.136 184.776 122.272 184.824C122.224 184.93 122.149 184.986 122.026 184.96Z" fill="#4C566F"/>
<path d="M106.827 2.54637C106.788 2.66888 106.713 2.72576 106.586 2.67763C106.625 2.56387 106.7 2.51136 106.827 2.54637Z" fill="#4C566F"/>
<path d="M67.9675 0.376413C67.9149 0.472674 67.8535 0.547057 67.7482 0.428919C67.8053 0.337034 67.8798 0.323907 67.9675 0.376413Z" fill="#4C566F"/>
<path d="M108.088 2.03889C108.04 2.15265 107.979 2.22266 107.869 2.09577C107.922 1.99951 108.001 1.99951 108.088 2.03889Z" fill="#4C566F"/>
<path d="M73.9445 187.087C74.0761 186.96 74.1244 187.039 74.1551 187.17C74.0674 187.192 73.9928 187.174 73.9445 187.087Z" fill="#4C566F"/>
<path d="M116.78 187.17C116.811 187.043 116.864 186.964 116.991 187.087C116.943 187.174 116.868 187.192 116.78 187.17Z" fill="#4C566F"/>
<path d="M69.9421 0.704397C69.3509 0.822535 68.7554 0.896918 68.1511 0.870665C68.7291 0.638764 69.3203 0.520627 69.9421 0.704397Z" fill="#4C566F"/>
<path d="M71.3093 0.590794C71.1426 0.722058 70.9583 0.717683 70.7697 0.6433C70.9145 0.258257 71.0987 0.288886 71.3093 0.590794Z" fill="#4C566F"/>
<path d="M66.7899 1.11151C66.6759 1.24715 66.5224 1.22964 66.3732 1.20777C66.4566 0.953989 66.6145 0.988993 66.7899 1.11151Z" fill="#4C566F"/>
<path d="M111.636 1.44374C111.509 1.54875 111.381 1.63626 111.202 1.5925C111.32 1.45249 111.421 1.28184 111.636 1.44374Z" fill="#4C566F"/>
<path d="M73.6384 0.630099C73.5594 0.704482 73.4849 0.68698 73.4147 0.612597C73.5024 0.468206 73.5726 0.520712 73.6384 0.630099Z" fill="#4C566F"/>
<path d="M98.1916 8.99151C98.1741 9.08339 98.1083 9.12277 98.0249 9.1359C98.0162 9.01338 97.9679 8.84274 98.1916 8.99151Z" fill="#4C566F"/>
<path d="M92.9105 9.1359C92.8228 9.12277 92.757 9.08339 92.7438 8.99151C92.9675 8.84274 92.9193 9.01338 92.9105 9.1359Z" fill="#4C566F"/>
<path d="M100.097 7.11957C100.084 7.10183 100.066 7.08853 100.052 7.0708C100.061 7.07523 100.075 7.07523 100.079 7.07967C100.088 7.08853 100.092 7.10627 100.097 7.11957Z" fill="#4C566F"/>
<path d="M90.8389 7.11957C90.8522 7.10183 90.8699 7.08853 90.8832 7.0708C90.8788 7.07967 90.8832 7.09297 90.8744 7.0974C90.8655 7.10627 90.8522 7.1107 90.8389 7.11957Z" fill="#4C566F"/>
<path d="M109.358 2.10889C108.815 2.40204 108.224 2.58144 107.646 2.78271C108.123 2.31453 108.701 2.10889 109.358 2.10889Z" fill="#4C566F"/>
<path d="M35.8337 72.449C36.1578 71.3857 36.4818 70.3225 36.8103 69.2592C37.2219 67.9291 37.7036 66.6296 38.1984 65.3301C38.6932 64.0349 39.1968 62.7398 39.8011 61.4884C40.2741 60.5083 40.6463 59.4844 41.1937 58.5393C41.3382 58.5087 41.3732 58.4168 41.3338 58.2855C41.3951 58.1586 41.452 58.0361 41.5133 57.9092C41.8418 57.8042 41.9031 57.5504 41.8724 57.2485C42.2403 56.5441 42.5906 55.8309 42.9759 55.1396C43.9262 53.4375 44.9728 51.8011 46.0763 50.1953C46.9477 48.922 47.8235 47.6531 48.8176 46.463C49.6365 45.4785 50.3984 44.4459 51.2261 43.4702C51.8435 42.7438 52.5179 42.0656 53.1835 41.3874C54.2257 40.3242 55.2636 39.2566 56.3452 38.2371C57.1246 37.502 57.9873 36.8544 58.8018 36.1587C60.0542 35.0867 61.3679 34.0891 62.7167 33.1484C63.6056 32.5315 64.4727 31.862 65.4842 31.4245C65.8477 31.2669 66.1937 30.9825 66.4915 30.7288C67.0739 30.2387 67.7658 29.9412 68.4051 29.5955C69.8546 28.8167 71.3259 28.0685 72.8454 27.4121C74.3824 26.7471 75.9283 26.1389 77.5135 25.6051C79.5059 24.9312 81.5247 24.3668 83.5741 23.8811C85.1593 23.5048 86.7708 23.3561 88.356 23.0498C90.6506 22.6122 92.9628 22.4941 95.2837 22.481C97.679 22.4678 100.083 22.5116 102.448 22.8791C103.976 23.1198 105.535 23.2379 107.024 23.6711C108.062 23.973 109.148 24.0649 110.159 24.4193C111.337 24.835 112.581 25.0231 113.715 25.5657C113.917 25.6619 114.149 25.7013 114.363 25.7626C115.554 26.0951 116.684 26.5939 117.818 27.0752C119.062 27.6003 120.284 28.1822 121.475 28.8167C122.999 29.6305 124.505 30.4837 125.976 31.3851C127.658 32.4177 129.243 33.5903 130.824 34.7673C131.906 35.5724 132.957 36.43 133.942 37.3489C135.698 38.9897 137.489 40.5998 139.078 42.4069C140.668 44.2184 142.205 46.0648 143.65 47.9988C144.776 49.5083 145.792 51.0835 146.799 52.663C147.412 53.6213 147.933 54.6451 148.485 55.6427C149.019 56.6097 149.562 57.5811 150.074 58.5612C150.63 59.6244 151.112 60.7183 151.576 61.8297C152.071 63.011 152.619 64.1749 153.07 65.3782C153.867 67.5178 154.624 69.6661 155.242 71.8714C155.806 73.906 156.319 75.9537 156.73 78.0233C157.409 81.4143 157.847 84.8403 158.084 88.2926C158.259 90.8391 158.338 93.3856 158.268 95.9322C158.162 99.9007 157.781 103.843 157.09 107.755C156.485 111.172 155.684 114.545 154.629 117.858C153.521 121.332 152.216 124.718 150.644 128.009C149.444 130.52 148.099 132.953 146.646 135.32C145.638 136.961 144.526 138.532 143.374 140.081C142.328 141.49 141.237 142.855 140.073 144.163C138.68 145.73 137.27 147.278 135.715 148.692C134.432 149.86 133.158 151.019 131.796 152.1C129.431 153.982 126.944 155.666 124.369 157.25C122.202 158.585 119.863 159.543 117.573 160.611C115.121 161.753 112.537 162.54 109.94 163.301C107.738 163.945 105.491 164.334 103.24 164.693C101.668 164.942 100.079 165.025 98.4891 165.087C97.8629 165.113 97.2367 165.227 96.6105 165.222C93.1073 165.214 89.6172 164.995 86.1665 164.4C84.7083 164.15 83.2325 163.932 81.8093 163.507C79.6943 162.873 77.5879 162.212 75.5035 161.459C74.4701 161.087 73.4716 160.632 72.46 160.204C71.2033 159.67 69.9815 159.044 68.7729 158.41C67.792 157.893 66.8286 157.342 65.8959 156.747C64.1486 155.631 62.4189 154.48 60.768 153.22C59.4105 152.179 58.0924 151.081 56.8181 149.939C55.4037 148.67 54.0462 147.327 52.7456 145.935C51.6464 144.763 50.5867 143.551 49.5795 142.304C48.5461 141.026 47.5608 139.704 46.6237 138.348C45.6384 136.922 44.6706 135.482 43.7861 133.99C42.3454 131.553 41.0229 129.055 39.8668 126.469C38.9297 124.368 38.0539 122.242 37.3138 120.063C36.4949 117.674 35.7549 115.259 35.2075 112.787C34.8966 111.378 34.5463 109.973 34.2879 108.551C33.9069 106.473 33.6135 104.386 33.3858 102.285C32.9742 98.4918 32.8735 94.6852 32.9742 90.8785C33.0705 87.1199 33.4165 83.3789 34.1959 79.6904C34.5813 77.8746 34.9316 76.05 35.3608 74.2473C35.4396 74.221 35.5228 74.1948 35.6016 74.1729C35.6148 74.1816 35.6279 74.1904 35.6454 74.1992C35.6323 74.1904 35.6148 74.186 35.6016 74.1773C35.5272 73.8754 35.7899 73.5953 35.6454 73.2891C35.6892 73.1709 35.7286 73.0484 35.7724 72.9303C35.9782 72.7946 35.895 72.6196 35.8337 72.449ZM73.0513 42.6257C73.5636 42.757 73.5636 42.757 73.6643 42.28C73.673 42.1356 73.6818 41.9869 73.6906 41.8425C73.8657 41.8118 74.0365 41.7856 74.2117 41.755C74.2248 41.93 74.238 42.105 74.2467 42.28C74.2555 42.3457 74.2905 42.3719 74.3562 42.3632C76.9267 43.3214 79.5935 43.8596 82.3173 44.0521C85.1593 44.2534 88.0013 44.1746 90.8083 43.6102C92.0913 43.352 93.3525 43.0107 94.5392 42.4288C94.9596 42.2231 95.1611 41.9869 95.1611 41.4749C95.1479 35.5374 95.161 29.6043 95.1785 23.6667C95.1785 23.3342 95.0735 23.2511 94.7538 23.2686C93.6196 23.3298 92.4854 23.3911 91.3513 23.4042C90.2477 23.4173 89.1355 23.4698 88.0714 23.7105C86.3767 24.0955 84.647 24.2705 82.9567 24.7125C81.2707 25.15 79.6023 25.6357 77.9295 26.1082C76.9311 26.3927 75.9852 26.874 74.9737 27.1496C74.7241 27.0971 74.5532 27.189 74.4525 27.4209C74.2686 27.5084 74.1942 27.6659 74.181 27.8584C73.9358 28.0335 73.765 27.5653 73.5154 27.7841C72.8279 28.1078 72.1141 28.3835 71.4573 28.7598C70.2092 29.4686 68.8999 30.0593 67.6606 30.7944C66.3031 31.5995 64.9806 32.4439 63.6669 33.319C62.3269 34.2116 61.0483 35.1655 59.8003 36.1806C58.8631 36.9419 57.9523 37.7383 57.037 38.5302C55.6445 39.7379 54.4096 41.0943 53.1003 42.3807C52.8419 42.6301 52.8507 42.7395 53.1923 42.8663C54.0943 43.2076 55.0227 43.4527 55.9598 43.6627C58.9201 44.319 61.9153 44.5465 64.95 44.3934C67.2972 44.2752 69.5962 43.9208 71.8295 43.177C71.9609 43.3433 72.0134 43.2645 72.0397 43.107C72.3856 42.9582 72.7184 42.792 73.0513 42.6257ZM117.161 42.28C116.929 42.4813 117.026 42.6169 117.271 42.6607C117.433 42.6869 117.612 42.6344 117.779 42.6169C117.845 42.6694 117.901 42.7351 117.976 42.7745C119.071 43.4045 120.297 43.632 121.51 43.8596C123.901 44.3102 126.327 44.4634 128.761 44.4503C128.853 44.5947 128.924 44.5421 128.985 44.424C129.221 44.4153 129.462 44.4065 129.699 44.3978C130.097 44.6734 130.583 44.6384 130.977 44.3059C133.014 44.0871 135.019 43.7283 136.972 43.1026C137.305 42.9976 137.633 42.8751 137.957 42.7482C138.076 42.7001 138.286 42.6169 138.111 42.4638C137.699 42.105 137.458 41.5887 137.038 41.2693C136.258 40.6786 135.619 39.9523 134.918 39.2872C133.775 38.2065 132.611 37.1651 131.367 36.2069C130.487 35.5287 129.602 34.8636 128.713 34.1985C127.33 33.1659 125.871 32.247 124.413 31.3369C123.445 30.7331 122.451 30.1643 121.44 29.648C120.24 29.0354 119.014 28.4798 117.788 27.9197C117.231 27.6659 117.218 27.6922 117.131 28.2872C116.82 28.4185 116.833 28.0597 116.667 27.9766C116.658 27.9197 116.649 27.8628 116.64 27.8016C116.877 27.6484 116.842 27.5434 116.588 27.4734C116.246 27.3903 116.01 27.1146 115.664 27.0227C114.521 26.7208 113.461 26.1608 112.309 25.8807C111.937 25.7888 111.552 25.7232 111.202 25.5744C109.914 25.0275 108.53 24.835 107.195 24.4806C105.898 24.1393 104.537 24.0561 103.21 23.8111C100.911 23.3867 98.5899 23.3473 96.269 23.2729C95.8573 23.2598 95.7829 23.3955 95.7872 23.7805C95.8091 25.5088 95.7916 27.2415 95.7872 28.9698C95.7785 33.214 95.7785 37.4539 95.761 41.6981C95.761 41.9956 95.8486 42.1881 96.0938 42.35C96.5405 42.6476 97.0309 42.8313 97.5432 42.967C98.6292 43.2514 99.6978 43.6714 100.797 43.7983C102.575 44.004 104.361 44.2009 106.166 44.144C108.123 44.0783 110.063 43.934 111.994 43.597C113.321 43.3651 114.595 42.932 115.905 42.6344C116.351 42.5338 116.649 42.2713 116.614 41.7593C116.789 41.79 116.96 41.8162 117.135 41.8469C117.122 41.8862 117.109 41.9212 117.096 41.9606C117.069 41.9781 117.048 41.9956 117.021 42.0087C117.048 42.0262 117.069 42.0437 117.096 42.0569C117.175 42.1138 117.175 42.1969 117.161 42.28ZM96.085 164.465C96.7463 164.465 97.4075 164.452 98.0688 164.47C99.2949 164.496 100.517 164.426 101.73 164.264C103.008 164.093 104.278 163.826 105.553 163.621C107.072 163.376 108.565 163.008 110.041 162.584C111.258 162.234 112.476 161.858 113.671 161.42C114.696 161.044 115.725 160.667 116.737 160.269C117.928 159.797 119.071 159.21 120.235 158.677C120.489 158.558 120.765 158.488 121.006 158.353C122.175 157.688 123.34 157.018 124.501 156.336C125.249 155.898 126.003 155.465 126.721 154.979C127.75 154.288 128.744 153.548 129.756 152.831C130.338 152.42 130.877 151.951 131.441 151.518C132.26 150.888 133.009 150.171 133.78 149.484C134.621 148.731 135.496 148.013 136.276 147.204C137.695 145.729 139.131 144.277 140.419 142.675C141.036 141.905 141.702 141.166 142.284 140.374C143.589 138.606 144.876 136.821 146.037 134.944C147.018 133.36 147.959 131.754 148.826 130.109C149.816 128.232 150.718 126.311 151.537 124.351C152.496 122.067 153.345 119.744 154.081 117.381C155.005 114.401 155.736 111.369 156.323 108.297C156.371 108.043 156.323 107.943 156.109 107.864C154.567 107.317 152.982 107.09 151.366 107.387C148.581 107.899 146.304 109.251 144.517 111.487C143.501 112.756 142.722 114.134 142.179 115.652C141.772 116.781 141.483 117.932 141.351 119.14C141.242 120.146 141.224 121.161 141.299 122.15C141.373 123.1 141.544 124.066 141.885 124.985C142.052 125.432 141.842 125.594 141.373 125.515C141.207 125.489 141.023 125.502 140.852 125.537C139.74 125.773 138.671 126.132 137.655 126.635C135.536 127.676 133.684 129.081 132.041 130.783C130.89 131.973 129.782 133.185 129.007 134.668C128.218 136.173 127.343 137.639 127.067 139.363C127.019 139.678 126.843 139.879 126.449 139.893C125.828 139.906 125.223 140.094 124.628 140.273C121.921 141.087 119.544 142.47 117.481 144.391C116.251 145.537 115.129 146.78 114.341 148.285C113.89 149.142 113.496 150.026 113.461 151.019C113.448 151.396 113.168 151.518 112.791 151.334C112.213 151.054 111.657 150.731 111.066 150.486C107.309 148.932 103.341 148.394 99.3299 148.197C95.5552 148.014 91.7892 148.189 88.0495 148.788C84.6382 149.335 81.2926 150.114 78.1441 151.58C77.8419 151.72 77.6493 151.693 77.6011 151.308C77.5223 150.669 77.3865 150.048 77.1544 149.444C76.3399 147.313 74.7941 145.73 73.1914 144.202C71.8995 142.973 70.3713 142.063 68.7598 141.315C67.3629 140.667 65.9309 140.107 64.3676 139.98C64.0917 139.958 64.0041 139.788 63.956 139.534C63.6757 138.007 63.0057 136.615 62.3094 135.25C61.473 133.614 60.2863 132.214 58.9989 130.914C56.8225 128.713 54.322 126.989 51.3837 125.952C50.8188 125.751 50.2233 125.554 49.6058 125.615C49.0103 125.677 48.9665 125.637 49.1373 125.042C49.5051 123.738 49.7503 122.408 49.7591 121.047C49.7635 120.129 49.6233 119.218 49.4788 118.308C48.9052 114.747 47.2543 111.811 44.4079 109.614C41.8856 107.663 39.0304 106.875 35.8556 107.685C34.8178 107.947 34.8222 107.956 35.0455 109.01C35.0893 109.216 35.098 109.426 35.1375 109.632C35.5272 111.583 36.0308 113.504 36.5563 115.425C37.2963 118.133 38.2203 120.785 39.2625 123.388C40.0332 125.309 40.8915 127.195 41.8374 129.041C43.1861 131.671 44.6444 134.231 46.2996 136.681C47.8017 138.908 49.4219 141.048 51.1385 143.117C52.6186 144.898 54.2432 146.535 55.9073 148.136C57.4925 149.663 59.1697 151.094 60.9038 152.446C62.1167 153.391 63.3998 154.257 64.6872 155.102C65.9703 155.942 67.2709 156.773 68.624 157.5C69.8283 158.143 71.0413 158.79 72.2849 159.346C74.019 160.12 75.7881 160.816 77.5792 161.455C79.9482 162.304 82.3742 162.956 84.8308 163.463C86.473 163.8 88.1546 163.923 89.8099 164.177C91.8987 164.492 93.9918 164.443 96.085 164.465ZM150.403 106.683C150.254 106.6 150.149 106.538 150.044 106.486C147.062 104.968 143.974 103.712 140.786 102.71C140.357 102.574 140.3 102.408 140.423 102.027C140.576 101.546 140.699 101.056 140.813 100.566C141.413 97.9624 141.785 95.3327 141.802 92.6549C141.811 91.1148 141.675 89.5965 141.496 88.0694C141.268 86.153 141.084 84.2321 140.633 82.3463C139.801 78.859 138.689 75.4593 137.204 72.1952C135.435 68.3141 132.926 64.9538 129.637 62.2147C128.7 61.4359 127.798 60.5739 126.664 60.0926C123.169 58.6006 119.539 58.4868 115.878 59.2788C113.5 59.7951 111.377 60.9239 109.59 62.5779C107.711 64.3149 106.056 66.2139 105.408 68.8261C105.005 70.4494 104.51 72.042 104.375 73.7222C104.226 75.5731 104.169 77.4195 104.572 79.2441C104.944 80.933 105.132 82.6438 104.756 84.3284C104.248 86.6168 102.986 88.4851 101.138 89.9334C99.2993 91.3773 97.1097 91.6967 94.8764 91.7973C93.3875 91.863 92.0169 91.3117 90.7601 90.5853C86.9416 88.3888 85.8819 84.7222 86.3066 80.8411C86.4643 79.406 86.8496 78.0014 86.7708 76.5357C86.7226 75.6124 86.7314 74.6892 86.6745 73.766C86.565 71.9414 86.2453 70.1781 85.6103 68.4629C84.2353 64.7481 81.7349 62.0747 78.1703 60.4076C75.394 59.1125 72.4688 58.5524 69.4079 58.9681C67.0563 59.2831 64.8756 60.097 62.9094 61.4359C61.311 62.5254 59.9841 63.908 58.6836 65.3344C56.9757 67.2071 55.5701 69.2811 54.3965 71.5126C52.9733 74.221 52.115 77.1351 51.3749 80.0842C50.8319 82.2457 50.5342 84.4553 50.2802 86.6693C50.1138 88.1263 49.9956 89.5833 49.9167 91.0404C49.8248 92.6593 49.978 94.2782 50.2014 95.8884C50.4904 97.9405 50.7487 99.9926 51.1253 102.027C51.1823 102.329 51.1034 102.447 50.7969 102.539C47.4557 103.576 44.2065 104.854 41.0711 106.411C40.9003 106.495 40.5456 106.582 40.655 106.775C40.7689 106.98 41.1061 107.081 41.4039 106.971C41.5177 106.928 41.6228 106.862 41.7323 106.81C43.4401 105.974 45.183 105.199 46.9652 104.539C50.486 103.235 54.0856 102.198 57.7815 101.52C60.5797 101.008 63.3954 100.631 66.2374 100.553C67.9321 100.505 69.6268 100.491 71.3215 100.614C73.3928 100.763 75.451 100.981 77.4916 101.367C79.9176 101.826 82.2823 102.482 84.5769 103.379C86.9722 104.32 89.2581 105.462 91.36 106.963C92.4811 107.763 93.5758 108.604 94.5304 109.601C94.7582 109.837 95.0253 110.104 94.9377 110.468C94.7932 111.08 94.9509 111.68 94.9465 112.288C94.9377 113.723 94.9421 115.162 94.9421 116.598C94.9421 118.663 94.9421 120.724 94.9465 122.789C94.9465 124.329 94.9465 125.865 94.9509 127.405C94.9509 127.633 94.9202 127.904 95.253 127.913C95.6208 127.921 95.5814 127.628 95.5902 127.383C95.5946 127.313 95.5902 127.243 95.5902 127.173C95.5902 125.965 95.5902 124.758 95.5858 123.555C95.5814 119.498 95.6296 115.438 95.5377 111.382C95.5158 110.415 95.8705 109.816 96.4792 109.216C97.5476 108.157 98.7475 107.247 99.9912 106.42C102.373 104.841 104.953 103.651 107.654 102.723C111.692 101.336 115.865 100.653 120.117 100.452C122.521 100.338 124.939 100.395 127.343 100.631C130.224 100.916 133.079 101.362 135.895 102.036C140.462 103.13 144.859 104.701 149.063 106.792C149.531 107.015 149.925 107.068 150.403 106.683ZM95.4588 134.366C95.4588 133.776 95.4632 133.373 95.4588 132.971C95.4588 132.822 95.4106 132.686 95.2399 132.66C95.0516 132.634 94.9465 132.761 94.8896 132.914C94.8545 133.006 94.8589 133.119 94.8545 133.224C94.8501 135.18 94.8458 137.136 94.8458 139.092C94.8458 139.179 94.8457 139.271 94.8676 139.35C94.9158 139.529 95.0078 139.665 95.2268 139.661C95.4413 139.656 95.4807 139.499 95.5113 139.346C95.542 139.175 95.5639 139 95.5595 138.829C95.5464 137.28 95.6033 135.727 95.4588 134.366Z" fill="#4C566F"/>
<path d="M35.6459 73.2891C35.795 73.591 35.5275 73.8754 35.6021 74.1773L35.6064 74.1729C35.5275 74.1992 35.4441 74.2254 35.3652 74.2473C35.4441 73.9235 35.4748 73.5866 35.6459 73.2891Z" fill="#4C566F"/>
<path d="M41.8687 57.2529C41.8994 57.5548 41.838 57.8086 41.509 57.9136C41.5441 57.6467 41.7195 57.4542 41.8687 57.2529Z" fill="#4C566F"/>
<path d="M35.8339 72.4492C35.8997 72.6199 35.9786 72.7949 35.7725 72.9305C35.7242 72.7599 35.7111 72.5936 35.8339 72.4492Z" fill="#4C566F"/>
<path d="M41.3296 58.2856C41.3691 58.4169 41.3384 58.5088 41.1893 58.5394C41.1805 58.4257 41.2331 58.3425 41.3296 58.2856Z" fill="#4C566F"/>
<path d="M150.403 106.683C149.925 107.068 149.531 107.02 149.054 106.783C144.85 104.692 140.454 103.117 135.886 102.027C133.066 101.353 130.215 100.907 127.334 100.623C124.93 100.386 122.517 100.33 120.108 100.443C115.861 100.645 111.683 101.332 107.646 102.714C104.944 103.642 102.365 104.832 99.9824 106.411C98.7344 107.238 97.5389 108.149 96.4704 109.207C95.8617 109.811 95.507 110.406 95.5289 111.373C95.6208 115.429 95.5727 119.485 95.577 123.546C95.577 124.754 95.577 125.961 95.5814 127.164C95.5814 127.234 95.5858 127.304 95.5814 127.374C95.5727 127.615 95.6121 127.913 95.2442 127.904C94.9158 127.895 94.9421 127.619 94.9421 127.396C94.9377 125.856 94.9377 124.32 94.9377 122.78C94.9377 120.715 94.9333 118.654 94.9333 116.589C94.9333 115.154 94.9333 113.714 94.9377 112.279C94.9421 111.675 94.7844 111.071 94.9289 110.459C95.0165 110.096 94.7494 109.829 94.5217 109.592C93.567 108.595 92.4723 107.755 91.3512 106.954C89.2493 105.453 86.9634 104.307 84.5681 103.371C82.2735 102.469 79.9044 101.813 77.4828 101.358C75.4422 100.973 73.384 100.754 71.3127 100.605C69.618 100.483 67.919 100.496 66.2286 100.544C63.3866 100.623 60.5709 100.999 57.7727 101.511C54.0768 102.189 50.4772 103.226 46.9565 104.53C45.1742 105.191 43.4357 105.965 41.7235 106.801C41.614 106.853 41.5089 106.919 41.3951 106.963C41.0973 107.077 40.7601 106.976 40.6463 106.766C40.5412 106.578 40.8915 106.49 41.0623 106.403C44.1977 104.845 47.4469 103.567 50.7881 102.53C51.0947 102.434 51.1735 102.32 51.1166 102.019C50.74 99.9839 50.4816 97.9274 50.1926 95.8797C49.9649 94.2695 49.816 92.6506 49.908 91.0317C49.9912 89.5747 50.105 88.1176 50.2714 86.6606C50.5254 84.4422 50.8232 82.237 51.3662 80.0755C52.1062 77.1264 52.9645 74.2123 54.3877 71.5039C55.5613 69.268 56.967 67.1984 58.6748 65.3257C59.971 63.8993 61.3022 62.5167 62.9006 61.4272C64.8668 60.0927 67.0475 59.2788 69.3991 58.9594C72.46 58.5481 75.3896 59.1038 78.1616 60.3989C81.7261 62.066 84.2265 64.7394 85.6016 68.4542C86.2365 70.1738 86.5562 71.9327 86.6657 73.7573C86.7226 74.6805 86.7138 75.6037 86.762 76.527C86.8365 77.9884 86.4511 79.3973 86.2979 80.8324C85.8775 84.7179 86.9372 88.3801 90.7513 90.5766C92.0125 91.303 93.3788 91.8543 94.8676 91.7886C97.1009 91.688 99.2905 91.3686 101.13 89.9247C102.978 88.472 104.243 86.6037 104.747 84.3197C105.119 82.6351 104.935 80.9243 104.563 79.2354C104.16 77.4108 104.217 75.5644 104.366 73.7135C104.502 72.0334 104.996 70.4407 105.399 68.8174C106.047 66.2052 107.703 64.3063 109.581 62.5692C111.368 60.9153 113.492 59.7864 115.87 59.2701C119.526 58.4781 123.161 58.5919 126.655 60.0839C127.789 60.5696 128.691 61.4272 129.629 62.206C132.917 64.9494 135.426 68.3054 137.196 72.1865C138.68 75.4462 139.788 78.846 140.624 82.3376C141.075 84.2234 141.259 86.1399 141.487 88.0607C141.666 89.5878 141.807 91.1061 141.794 92.6462C141.776 95.324 141.404 97.9537 140.804 100.557C140.69 101.047 140.567 101.542 140.414 102.019C140.291 102.399 140.348 102.57 140.778 102.701C143.965 103.703 147.057 104.959 150.035 106.477C150.149 106.538 150.254 106.6 150.403 106.683ZM50.6305 91.968C50.6568 92.5368 50.6655 93.3244 50.7049 94.1077C50.8276 96.6542 51.2698 99.157 51.6771 101.664C51.769 102.242 51.8304 102.277 52.3996 102.084C54.0899 101.515 55.8416 101.192 57.5844 100.868C59.2222 100.566 60.8731 100.312 62.5415 100.155C64.3939 99.9795 66.2506 99.857 68.1073 99.8045C69.4867 99.7651 70.8617 99.8964 72.2367 99.9752C74.435 100.102 76.6026 100.443 78.7571 100.885C81.2444 101.393 83.6398 102.202 85.9782 103.178C88.0276 104.031 89.9588 105.125 91.7804 106.385C92.9102 107.168 93.9874 108.035 94.9771 109.006C95.1698 109.194 95.3318 109.343 95.5814 109.072C96.1157 108.494 96.7463 108.017 97.3462 107.514C99.1066 106.044 101.06 104.871 103.1 103.839C104.773 102.994 106.525 102.36 108.298 101.765C110.124 101.152 111.998 100.754 113.886 100.417C115.467 100.137 117.061 99.9664 118.663 99.8614C120.489 99.7389 122.315 99.6339 124.142 99.7301C125.53 99.8045 126.918 99.9402 128.306 100.067C130.688 100.29 133.031 100.715 135.361 101.209C136.569 101.467 137.769 101.782 138.956 102.145C139.586 102.338 139.705 102.268 139.884 101.651C140.751 98.6538 141.132 95.5822 141.233 92.4756C141.268 91.4342 141.132 90.3885 141.04 89.3471C140.913 87.9601 140.808 86.5687 140.594 85.1948C140.217 82.8189 139.608 80.4955 138.829 78.2159C137.69 74.8905 136.486 71.6046 134.52 68.6467C132.891 66.1921 130.916 64.0787 128.661 62.2016C127.049 60.8584 125.219 60.0314 123.183 59.6376C121.737 59.3576 120.279 59.3488 118.808 59.4713C117.604 59.572 116.421 59.712 115.265 60.0752C113.019 60.7796 111.079 61.9785 109.384 63.593C108.237 64.6869 107.212 65.9208 106.586 67.3603C105.426 70.0381 104.869 72.8778 104.834 75.8006C104.817 77.1264 105.036 78.4347 105.285 79.7386C105.675 81.7819 105.75 83.8121 104.922 85.7942C104.125 87.7019 103.004 89.3778 101.296 90.5635C98.8613 92.2524 96.1332 92.6462 93.2518 92.1343C90.8608 91.7099 88.969 90.441 87.5152 88.5552C85.5972 86.0699 85.3432 83.1821 85.7636 80.1892C85.9387 78.9335 86.2147 77.6908 86.2365 76.4132C86.2672 74.7987 86.0439 73.2147 85.803 71.6308C85.3388 68.5811 84.0733 65.8814 81.875 63.7024C78.9366 60.7927 75.267 59.5676 71.2076 59.397C69.8983 59.3401 68.6109 59.6507 67.3497 60.0139C65.6025 60.5171 63.9953 61.3047 62.5546 62.416C61.0789 63.5537 59.8265 64.9101 58.6223 66.3233C56.7524 68.5198 55.1935 70.9176 54.1031 73.5866C51.7209 79.406 50.6436 85.4792 50.6305 91.968Z" fill="#D2D9E3"/>
<path d="M73.6906 41.8425C73.5636 41.1906 73.6249 40.5255 73.6249 39.8692C73.6161 36.08 73.6336 32.2909 73.6336 28.5017C73.6336 28.2611 73.6818 28.0073 73.5198 27.7929C73.7694 27.5741 73.9402 28.0423 74.1854 27.8673C74.3124 28.8211 74.2248 29.7794 74.2292 30.7332C74.2467 34.2336 74.2423 37.734 74.2467 41.2344C74.2467 41.405 74.2248 41.58 74.2116 41.7507C74.0409 41.7857 73.8657 41.8163 73.6906 41.8425Z" fill="#4C566F"/>
<path d="M117.131 28.2872C117.28 29.0967 117.183 29.9193 117.188 30.7331C117.21 34.1635 117.196 37.5939 117.188 41.0286C117.188 41.2999 117.302 41.5843 117.14 41.8468C116.964 41.8162 116.794 41.79 116.618 41.7593C116.522 40.613 116.588 39.4622 116.583 38.3114C116.57 35.0517 116.583 31.7964 116.592 28.5366C116.592 28.3485 116.548 28.1516 116.667 27.9766C116.833 28.0597 116.815 28.4185 117.131 28.2872Z" fill="#4C566F"/>
<path d="M95.4588 134.367C95.6033 135.727 95.5507 137.281 95.5595 138.83C95.5595 139 95.542 139.175 95.5113 139.346C95.4807 139.499 95.4413 139.657 95.2267 139.661C95.0034 139.665 94.9158 139.53 94.8676 139.35C94.8457 139.267 94.8458 139.18 94.8458 139.092C94.8458 137.136 94.8501 135.18 94.8545 133.225C94.8545 133.12 94.8501 133.01 94.8895 132.914C94.9465 132.761 95.0559 132.634 95.2398 132.66C95.4106 132.682 95.4588 132.818 95.4588 132.971C95.4588 133.373 95.4588 133.776 95.4588 134.367Z" fill="#D2D9E3"/>
<path d="M129.699 44.3979C130.128 44.3892 130.544 44.2316 130.977 44.306C130.583 44.6386 130.097 44.6736 129.699 44.3979Z" fill="#4C566F"/>
<path d="M117.161 42.2803C117.411 42.3109 117.608 42.4378 117.779 42.6172C117.608 42.6347 117.433 42.6916 117.271 42.6609C117.026 42.6216 116.934 42.4815 117.161 42.2803Z" fill="#4C566F"/>
<path d="M73.0513 42.6259C73.2089 42.429 73.4147 42.3153 73.6643 42.2803C73.5636 42.7572 73.5636 42.7572 73.0513 42.6259Z" fill="#4C566F"/>
<path d="M74.9789 27.1585C74.9043 27.4342 74.6762 27.4298 74.4569 27.4298C74.5578 27.1979 74.7288 27.1017 74.9789 27.1585Z" fill="#4C566F"/>
<path d="M116.64 27.8018C116.623 27.6924 116.605 27.583 116.588 27.4736C116.838 27.5436 116.877 27.6487 116.64 27.8018Z" fill="#4C566F"/>
<path d="M128.761 44.4502C128.827 44.3889 128.906 44.3846 128.985 44.4239C128.924 44.5421 128.854 44.5946 128.761 44.4502Z" fill="#4C566F"/>
<path d="M71.8383 43.1905C71.8865 43.103 71.9655 43.1074 72.0488 43.1205C72.0225 43.2824 71.9698 43.3568 71.8383 43.1905Z" fill="#4C566F"/>
<path d="M35.6016 74.1773C35.6149 74.1861 35.6326 74.1906 35.6459 74.1994C35.6326 74.1906 35.6193 74.1817 35.6016 74.1773C35.6016 74.1773 35.6061 74.1728 35.6016 74.1773Z" fill="#4C566F"/>
<path d="M74.2511 42.2847C74.2861 42.3108 74.3254 42.3412 74.3604 42.3673C74.2948 42.376 74.2598 42.3455 74.2511 42.2847Z" fill="#4C566F"/>
<path d="M117.096 41.9565C117.105 41.9917 117.105 42.0224 117.096 42.0575C117.07 42.04 117.048 42.0224 117.021 42.0092C117.048 41.9917 117.074 41.9741 117.096 41.9565Z" fill="#4C566F"/>
<path d="M50.6306 91.9681C50.6437 85.4792 51.7253 79.4061 54.0988 73.5867C55.1891 70.9176 56.7481 68.5199 58.6179 66.3234C59.8222 64.9101 61.0746 63.5493 62.5503 62.4161C63.991 61.3047 65.5981 60.5171 67.3454 60.0139C68.6065 59.6508 69.894 59.3445 71.2033 59.397C75.2583 59.5676 78.928 60.7928 81.8707 63.7025C84.0734 65.8815 85.3389 68.5811 85.7987 71.6308C86.0395 73.2104 86.2629 74.7987 86.2322 76.4132C86.2059 77.6953 85.9345 78.9335 85.7593 80.1893C85.3433 83.1821 85.5973 86.0656 87.5109 88.5552C88.9648 90.441 90.8521 91.7099 93.2475 92.1343C96.1332 92.6463 98.857 92.2525 101.292 90.5635C103.004 89.3778 104.121 87.702 104.918 85.7943C105.745 83.8122 105.671 81.782 105.281 79.7386C105.031 78.4347 104.812 77.1264 104.83 75.8007C104.865 72.8779 105.417 70.0338 106.582 67.3604C107.208 65.9208 108.233 64.687 109.38 63.5931C111.075 61.9785 113.014 60.7753 115.261 60.0752C116.417 59.712 117.604 59.572 118.804 59.4714C120.275 59.3489 121.733 59.3576 123.178 59.6377C125.214 60.0314 127.045 60.8584 128.656 62.2017C130.916 64.0831 132.887 66.1921 134.516 68.6468C136.482 71.609 137.686 74.8906 138.825 78.2159C139.604 80.4956 140.213 82.819 140.589 85.1948C140.808 86.5687 140.909 87.9601 141.036 89.3472C141.132 90.3885 141.264 91.4343 141.229 92.4756C141.128 95.5822 140.747 98.6538 139.88 101.651C139.7 102.268 139.582 102.338 138.952 102.145C137.765 101.782 136.569 101.467 135.356 101.209C133.022 100.71 130.684 100.29 128.302 100.067C126.914 99.9358 125.525 99.8002 124.137 99.7302C122.311 99.6339 120.485 99.7389 118.659 99.8614C117.056 99.9708 115.462 100.137 113.882 100.417C111.994 100.754 110.12 101.152 108.294 101.765C106.52 102.36 104.764 102.994 103.096 103.839C101.055 104.871 99.1022 106.044 97.3419 107.514C96.7375 108.017 96.1113 108.494 95.5771 109.072C95.3275 109.343 95.1655 109.194 94.9728 109.006C93.9875 108.039 92.9059 107.168 91.7761 106.385C89.9544 105.125 88.0276 104.036 85.9739 103.178C83.6354 102.202 81.2401 101.397 78.7528 100.885C76.5983 100.443 74.4351 100.102 72.2324 99.9752C70.8574 99.8965 69.478 99.7608 68.1029 99.8046C66.2462 99.8571 64.3939 99.9796 62.5372 100.155C60.8688 100.312 59.2179 100.562 57.5801 100.868C55.8372 101.187 54.0856 101.515 52.3953 102.084C51.826 102.277 51.7647 102.242 51.6727 101.664C51.2655 99.157 50.8232 96.6542 50.7006 94.1077C50.6656 93.3201 50.6568 92.5369 50.6306 91.9681Z" fill="#4C566F"/>
<path d="M78.201 143.323H72.4426V153.019H78.201V143.323Z" fill="#D2D9E3"/>
<path d="M83.9595 143.323H78.201V153.019H83.9595V143.323Z" fill="#D2D9E3"/>
<path d="M89.7179 143.323H83.9595V153.019H89.7179V143.323Z" fill="#D2D9E3"/>
<path d="M95.4764 143.323H89.7179V153.019H95.4764V143.323Z" fill="#D2D9E3"/>
<path d="M101.235 143.323H95.4764V153.019H101.235V143.323Z" fill="#D2D9E3"/>
<path d="M106.993 143.323H101.235V153.019H106.993V143.323Z" fill="#D2D9E3"/>
<path d="M112.752 143.323H106.993V153.019H112.752V143.323Z" fill="#D2D9E3"/>
<path d="M118.51 143.323H112.752V153.019H118.51V143.323Z" fill="#D2D9E3"/>
<path d="M116.934 145.769H74.3255C71.0018 145.769 68.265 143.174 67.8577 139.823H53.5733C49.6321 139.823 45.7391 140.694 42.1439 142.374C38.5488 144.058 34.6558 144.925 30.7146 144.925H0.893311V139.818V130.359V125.252H67.8577C68.2606 121.901 70.9975 119.306 74.3255 119.306H116.934C120.538 119.306 123.454 122.351 123.454 126.106V138.97C123.454 142.724 120.538 145.769 116.934 145.769Z" fill="#FF2C3B"/>
<path d="M177.82 33.9231L166.907 23.0194L177.82 12.1157" stroke="#4C566F" stroke-miterlimit="10" stroke-linecap="round" stroke-linejoin="round"/>
<path d="M166.907 23.0195H206.914" stroke="#4C566F" stroke-miterlimit="10" stroke-linecap="round" stroke-linejoin="round"/>
<path d="M196.002 12.1157L206.914 23.0194L196.002 33.9231" stroke="#4C566F" stroke-miterlimit="10" stroke-linecap="round" stroke-linejoin="round"/>
</svg>
