<svg width="559" height="294" viewBox="0 0 559 294" fill="none" xmlns="http://www.w3.org/2000/svg">
<path d="M259.128 177.308H239.225C239.102 177.308 239.001 177.207 239.001 177.082V151.262C239.001 147.809 241.787 145 245.211 145H253.141C256.566 145 259.351 147.809 259.351 151.262V177.082C259.351 177.207 259.251 177.308 259.127 177.308H259.128ZM239.449 176.857H258.905V151.262C258.905 148.058 256.319 145.451 253.142 145.451H245.212C242.034 145.451 239.449 148.058 239.449 151.262V176.857H239.449Z" fill="#231F20" stroke="black" stroke-width="0.75"/>
<path d="M259.128 176.213H258.904V198.103C258.904 198.872 258.284 199.497 257.522 199.497H240.831C240.068 199.497 239.449 198.872 239.449 198.103V176.213H239.225C239.101 176.213 239.001 176.314 239.001 176.439V198.103C239.001 199.121 239.822 199.948 240.83 199.948H257.522C258.53 199.948 259.351 199.12 259.351 198.103V176.439C259.351 176.314 259.251 176.213 259.127 176.213H259.128Z" fill="#231F20" stroke="black" stroke-width="0.75"/>
<path d="M251.896 147.835H243.981C243.827 147.835 243.681 147.901 243.58 148.018C243.478 148.134 243.432 148.289 243.452 148.443L243.64 149.875C243.676 150.148 243.909 150.354 244.182 150.354H244.588V156.56H245.035V150.129C245.035 150.005 244.936 149.903 244.811 149.903H244.182C244.133 149.903 244.09 149.866 244.084 149.816L243.896 148.383C243.891 148.35 243.907 148.326 243.917 148.315C243.926 148.304 243.947 148.286 243.981 148.286H251.896C252.68 148.286 253.318 148.929 253.318 149.719V156.56H253.765V149.719C253.765 148.68 252.927 147.835 251.896 147.835Z" fill="#231F20" stroke="black" stroke-width="0.75"/>
<path d="M258.604 170.667C258.439 170.667 258.304 170.531 258.304 170.365V167.888C258.304 167.641 258.129 167.434 257.897 167.386V167.382H257.875C257.875 167.382 257.875 167.382 257.874 167.382C257.849 167.378 257.823 167.376 257.797 167.376H257.273C257.24 167.376 257.213 167.349 257.213 167.316V165.159C257.213 164.877 256.985 164.647 256.706 164.647C256.673 164.647 256.645 164.62 256.645 164.586V160.229C256.645 159.947 256.418 159.717 256.138 159.717H255.789C255.756 159.717 255.728 159.69 255.728 159.656V156.619C255.728 156.337 255.501 156.107 255.221 156.107H243.131C242.851 156.107 242.623 156.337 242.623 156.619V159.656C242.623 159.69 242.596 159.717 242.563 159.717H242.214C241.934 159.717 241.706 159.947 241.706 160.229V164.586C241.706 164.62 241.679 164.647 241.646 164.647C241.603 164.647 241.561 164.652 241.521 164.663H241.518V164.664C241.3 164.721 241.139 164.922 241.139 165.159V167.316C241.139 167.349 241.112 167.376 241.079 167.376H240.555C240.275 167.376 240.048 167.606 240.048 167.888V170.365C240.048 170.531 239.913 170.667 239.747 170.667C239.335 170.667 239 171.005 239 171.421V177.093C239 177.217 239.1 177.319 239.224 177.319H259.127C259.25 177.319 259.351 177.218 259.351 177.093V171.421C259.351 171.006 259.016 170.667 258.603 170.667H258.604ZM241.587 167.316V165.159C241.587 165.142 241.595 165.125 241.607 165.115H256.746C256.758 165.125 256.766 165.141 256.766 165.159V167.316C256.766 167.339 256.767 167.361 256.77 167.382H241.583C241.586 167.36 241.587 167.339 241.587 167.316ZM243.072 156.621C243.072 156.587 243.098 156.56 243.132 156.56H255.222C255.255 156.56 255.282 156.587 255.282 156.621V159.658C255.282 159.677 255.283 159.696 255.285 159.715H243.069C243.072 159.696 243.072 159.677 243.072 159.658V156.621H243.072ZM242.149 164.663C242.153 164.639 242.155 164.613 242.155 164.587V160.23C242.155 160.197 242.182 160.169 242.215 160.169H242.564C242.59 160.169 242.614 160.167 242.638 160.164V160.165H255.729C255.729 160.165 255.729 160.165 255.73 160.165H255.732C255.751 160.168 255.77 160.169 255.789 160.169H256.138C256.171 160.169 256.199 160.196 256.199 160.229V164.587C256.199 164.613 256.201 164.638 256.205 164.663H242.149V164.663ZM240.497 170.365V167.888C240.497 167.855 240.523 167.827 240.557 167.827H240.813V167.833H257.822C257.843 167.843 257.857 167.864 257.857 167.888V170.364C257.857 170.463 257.876 170.556 257.91 170.643H240.443C240.477 170.557 240.496 170.463 240.496 170.364L240.497 170.365ZM258.905 176.867H239.449V171.421C239.449 171.254 239.584 171.118 239.749 171.118C239.813 171.118 239.876 171.11 239.935 171.094H258.418C258.478 171.11 258.54 171.118 258.604 171.118C258.77 171.118 258.905 171.254 258.905 171.421V176.867Z" fill="#231F20" stroke="black" stroke-width="0.75"/>
<path d="M363.468 102.225H351.82C351.701 102.225 351.603 102.126 351.603 102.004V95.1463C351.603 95.0244 351.701 94.9255 351.82 94.9255H363.468C363.588 94.9255 363.685 95.0244 363.685 95.1463V102.004C363.685 102.126 363.588 102.225 363.468 102.225ZM352.038 101.783H363.251V95.3676H352.038V101.783Z" fill="#212528" stroke="#212528" stroke-width="0.75"/>
<path d="M367.072 138H348.217C348.097 138 348 137.901 348 137.779V109.043C348 107.625 348.533 106.282 349.5 105.261C350.464 104.244 351.758 103.653 353.144 103.597C353.265 103.592 353.365 103.688 353.369 103.81C353.374 103.932 353.281 104.034 353.161 104.039C351.888 104.09 350.698 104.633 349.812 105.568C348.923 106.506 348.434 107.74 348.434 109.043V137.558H366.855V109.043C366.855 106.282 364.646 104.035 361.932 104.035H361.295C361.175 104.035 361.078 103.936 361.078 103.814C361.078 103.692 361.175 103.593 361.295 103.593H361.932C364.885 103.593 367.289 106.038 367.289 109.043V137.779C367.289 137.901 367.191 138 367.072 138H367.072Z" fill="#212528" stroke="#212528" stroke-width="0.75"/>
<path d="M362.428 95.3677H352.861C352.741 95.3677 352.644 95.2689 352.644 95.1469V92.544C352.644 92.4221 352.741 92.3232 352.861 92.3232H362.428C362.548 92.3232 362.645 92.4221 362.645 92.544V95.1469C362.645 95.2689 362.548 95.3677 362.428 95.3677ZM353.078 94.9261H362.211V92.7653H353.078V94.9261Z" fill="#212528" stroke="#212528" stroke-width="0.75"/>
<path d="M360.912 92.7647H354.378C354.258 92.7647 354.161 92.6659 354.161 92.5439V85.0368C354.161 84.9149 354.258 84.816 354.378 84.816H360.912C361.031 84.816 361.129 84.9149 361.129 85.0368V92.5439C361.129 92.6659 361.031 92.7647 360.912 92.7647ZM354.595 92.3231H360.694V85.2576H354.595V92.3231Z" fill="#212528" stroke="#212528" stroke-width="0.75"/>
<path d="M355.79 88.0383C355.67 88.0383 355.573 87.9394 355.573 87.8175V86.4641C355.573 86.3421 355.67 86.2433 355.79 86.2433C355.91 86.2433 356.007 86.3421 356.007 86.4641V87.8175C356.007 87.9394 355.91 88.0383 355.79 88.0383Z" fill="#212528" stroke="#212528" stroke-width="0.75"/>
<path d="M362.137 104.035C362.017 104.035 361.92 103.936 361.92 103.814V102.225H353.37V103.814C353.37 103.936 353.273 104.035 353.153 104.035C353.033 104.035 352.936 103.936 352.936 103.814V102.005C352.936 101.883 353.033 101.784 353.153 101.784H362.137C362.257 101.784 362.354 101.883 362.354 102.005V103.814C362.354 103.936 362.257 104.035 362.137 104.035H362.137Z" fill="#212528" stroke="#212528" stroke-width="0.75"/>
<path d="M362.423 92.7647C362.304 92.7647 362.206 92.6659 362.206 92.5439V83.4416H353.078V92.5439C353.078 92.6659 352.981 92.7647 352.861 92.7647C352.741 92.7647 352.644 92.6659 352.644 92.5439V83.2208C352.644 83.0989 352.741 83 352.861 83H362.424C362.544 83 362.641 83.0989 362.641 83.2208V92.5439C362.641 92.6659 362.544 92.7647 362.424 92.7647H362.423Z" fill="#212528" stroke="#212528" stroke-width="0.75"/>
<path d="M367.007 111.774H348.32C348.2 111.774 348.103 111.676 348.103 111.554C348.103 111.432 348.2 111.333 348.32 111.333H367.007C367.127 111.333 367.225 111.432 367.225 111.554C367.225 111.676 367.127 111.774 367.007 111.774Z" fill="#212528" stroke="#212528" stroke-width="0.75"/>
<path d="M367.007 132.034H348.32C348.2 132.034 348.103 131.936 348.103 131.814C348.103 131.692 348.2 131.593 348.32 131.593H367.007C367.127 131.593 367.225 131.692 367.225 131.814C367.225 131.936 367.127 132.034 367.007 132.034Z" fill="#212528" stroke="#212528" stroke-width="0.75"/>
<path d="M87.1463 155.217H67.2056C67.0857 155.217 66.9885 155.118 66.9885 154.996V146.22C66.9885 146.099 67.0857 146 67.2056 146H87.1458C87.2656 146 87.3628 146.099 87.3628 146.22V154.996C87.3628 155.118 87.2656 155.217 87.1458 155.217H87.1463ZM67.4231 154.776H86.9292V146.44H67.4231V154.776V154.776Z" fill="black" stroke="black" stroke-width="0.75"/>
<path d="M88.1604 201H66.1914C63.8799 201 62 199.092 62 196.747V164.004C62 162.142 62.6575 160.438 63.8518 159.206C65.1234 157.895 66.9224 157.166 69.0548 157.097C69.1752 157.093 69.2748 157.189 69.2788 157.31C69.2827 157.432 69.1885 157.534 69.0687 157.538C67.0502 157.602 65.3533 158.286 64.1615 159.515C63.0477 160.664 62.4341 162.258 62.4341 164.004V196.747C62.4341 198.849 64.1196 200.559 66.1914 200.559H88.1599C90.2317 200.559 91.9172 198.849 91.9172 196.747V164.004C91.9172 162.217 91.2676 160.593 90.0877 159.431C88.8273 158.189 87.056 157.533 84.9655 157.533H83.7456C83.6257 157.533 83.5286 157.434 83.5286 157.312C83.5286 157.191 83.6257 157.092 83.7456 157.092H84.9655C87.1714 157.092 89.0473 157.791 90.3905 159.114C91.6553 160.36 92.3518 162.097 92.3518 164.004V196.747C92.3518 199.092 90.4714 201 88.1604 201V201Z" fill="black" stroke="black" stroke-width="0.75"/>
<path d="M85.2979 157.533C85.1781 157.533 85.0809 157.434 85.0809 157.312V155.217H69.2709V157.092H70.6412C70.7611 157.092 70.8582 157.191 70.8582 157.312C70.8582 157.434 70.7611 157.533 70.6412 157.533H69.0538C68.934 157.533 68.8368 157.434 68.8368 157.312V154.996C68.8368 154.875 68.934 154.776 69.0538 154.776H85.2979C85.4178 154.776 85.515 154.875 85.515 154.996V157.312C85.515 157.434 85.4178 157.533 85.2979 157.533Z" fill="black" stroke="black" stroke-width="0.75"/>
<path d="M92.0327 164.082H62.3799C62.26 164.082 62.1628 163.983 62.1628 163.862C62.1628 163.74 62.26 163.642 62.3799 163.642H92.0327C92.1526 163.642 92.2498 163.74 92.2498 163.862C92.2498 163.983 92.1526 164.082 92.0327 164.082Z" fill="black" stroke="black" stroke-width="0.75"/>
<path d="M92.0327 194.185H62.3799C62.26 194.185 62.1628 194.086 62.1628 193.964C62.1628 193.843 62.26 193.744 62.3799 193.744H92.0327C92.1526 193.744 92.2498 193.843 92.2498 193.964C92.2498 194.086 92.1526 194.185 92.0327 194.185Z" fill="black" stroke="black" stroke-width="0.75"/>
<path d="M69.217 155.021C69.217 155.021 69.217 154.889 69.217 154.726V146.316C69.217 146.153 69.217 146.021 69.217 146.021C69.217 146.021 69.217 146.153 69.217 146.316V154.727C69.217 154.89 69.217 155.021 69.217 155.021V155.021Z" fill="black" stroke="black" stroke-width="1.1"/>
<path d="M71.217 155.021C71.217 155.021 71.217 154.889 71.217 154.726V146.316C71.217 146.153 71.217 146.021 71.217 146.021C71.217 146.021 71.217 146.153 71.217 146.316V154.727C71.217 154.89 71.217 155.021 71.217 155.021V155.021Z" fill="black" stroke="black" stroke-width="1.1"/>
<path d="M73.217 155.021C73.217 155.021 73.217 154.889 73.217 154.726V146.316C73.217 146.153 73.217 146.021 73.217 146.021C73.217 146.021 73.217 146.153 73.217 146.316V154.727C73.217 154.89 73.217 155.021 73.217 155.021V155.021Z" fill="black" stroke="black" stroke-width="1.1"/>
<path d="M75.217 155.021C75.217 155.021 75.217 154.889 75.217 154.726V146.316C75.217 146.153 75.217 146.021 75.217 146.021C75.217 146.021 75.217 146.153 75.217 146.316V154.727C75.217 154.89 75.217 155.021 75.217 155.021V155.021Z" fill="black" stroke="black" stroke-width="1.1"/>
<path d="M77.217 155.021C77.217 155.021 77.217 154.889 77.217 154.726V146.316C77.217 146.153 77.217 146.021 77.217 146.021C77.217 146.021 77.217 146.153 77.217 146.316V154.727C77.217 154.89 77.217 155.021 77.217 155.021V155.021Z" fill="black" stroke="black" stroke-width="1.1"/>
<path d="M79.217 155.021C79.217 155.021 79.217 154.889 79.217 154.726V146.316C79.217 146.153 79.217 146.021 79.217 146.021C79.217 146.021 79.217 146.153 79.217 146.316V154.727C79.217 154.89 79.217 155.021 79.217 155.021V155.021Z" fill="black" stroke="black" stroke-width="1.1"/>
<path d="M81.217 155.021C81.217 155.021 81.217 154.889 81.217 154.726V146.316C81.217 146.153 81.217 146.021 81.217 146.021C81.217 146.021 81.217 146.153 81.217 146.316V154.727C81.217 154.89 81.217 155.021 81.217 155.021V155.021Z" fill="black" stroke="black" stroke-width="1.1"/>
<path d="M83.217 155.021C83.217 155.021 83.217 154.889 83.217 154.726V146.316C83.217 146.153 83.217 146.021 83.217 146.021C83.217 146.021 83.217 146.153 83.217 146.316V154.727C83.217 154.89 83.217 155.021 83.217 155.021V155.021Z" fill="black" stroke="black" stroke-width="1.1"/>
<path d="M85.217 155.021C85.217 155.021 85.217 154.889 85.217 154.726V146.316C85.217 146.153 85.217 146.021 85.217 146.021C85.217 146.021 85.217 146.153 85.217 146.316V154.727C85.217 154.89 85.217 155.021 85.217 155.021V155.021Z" fill="black" stroke="black" stroke-width="1.1"/>
<path d="M148.03 201H121.934C120.034 201 118.488 199.452 118.488 197.549V158.451C118.488 156.548 120.034 155 121.934 155H148.03C149.93 155 151.475 156.548 151.475 158.451V197.549C151.475 199.452 149.93 201 148.03 201V201ZM121.934 155.384C120.245 155.384 118.871 156.76 118.871 158.451V197.549C118.871 199.24 120.245 200.616 121.934 200.616H148.03C149.718 200.616 151.092 199.24 151.092 197.549V158.451C151.092 156.76 149.718 155.384 148.03 155.384H121.934Z" fill="black" stroke="black" stroke-width="0.75"/>
<path d="M131.949 164.378H124.093C122.877 164.378 121.887 163.387 121.887 162.169C121.887 160.951 122.877 159.96 124.093 159.96H131.949C133.165 159.96 134.155 160.951 134.155 162.169C134.155 163.387 133.165 164.378 131.949 164.378ZM124.093 160.355C123.094 160.355 122.282 161.169 122.282 162.169C122.282 163.169 123.094 163.983 124.093 163.983H131.949C132.948 163.983 133.76 163.169 133.76 162.169C133.76 161.169 132.948 160.355 131.949 160.355H124.093Z" fill="black" stroke="black" stroke-width="0.75"/>
<path d="M131.949 172.293H124.093C122.877 172.293 121.887 171.302 121.887 170.084C121.887 168.866 122.877 167.875 124.093 167.875H131.949C133.165 167.875 134.155 168.866 134.155 170.084C134.155 171.302 133.165 172.293 131.949 172.293ZM124.093 168.27C123.094 168.27 122.282 169.084 122.282 170.084C122.282 171.085 123.094 171.898 124.093 171.898H131.949C132.948 171.898 133.76 171.085 133.76 170.084C133.76 169.084 132.948 168.27 131.949 168.27H124.093Z" fill="black" stroke="black" stroke-width="0.75"/>
<path d="M131.949 180.209H124.093C122.877 180.209 121.887 179.218 121.887 177.999C121.887 176.781 122.877 175.79 124.093 175.79H131.949C133.165 175.79 134.155 176.781 134.155 177.999C134.155 179.218 133.165 180.209 131.949 180.209ZM124.093 176.185C123.094 176.185 122.282 176.999 122.282 177.999C122.282 179 123.094 179.813 124.093 179.813H131.949C132.948 179.813 133.76 179 133.76 177.999C133.76 176.999 132.948 176.185 131.949 176.185H124.093Z" fill="black" stroke="black" stroke-width="0.75"/>
<path d="M131.949 188.124H124.093C122.877 188.124 121.887 187.133 121.887 185.915C121.887 184.697 122.877 183.706 124.093 183.706H131.949C133.165 183.706 134.155 184.697 134.155 185.915C134.155 187.133 133.165 188.124 131.949 188.124ZM124.093 184.101C123.094 184.101 122.282 184.915 122.282 185.915C122.282 186.916 123.094 187.729 124.093 187.729H131.949C132.948 187.729 133.76 186.916 133.76 185.915C133.76 184.915 132.948 184.101 131.949 184.101H124.093Z" fill="black" stroke="black" stroke-width="0.75"/>
<path d="M131.949 196.039H124.093C122.877 196.039 121.887 195.048 121.887 193.83C121.887 192.612 122.877 191.621 124.093 191.621H131.949C133.165 191.621 134.155 192.612 134.155 193.83C134.155 195.048 133.165 196.039 131.949 196.039ZM124.093 192.016C123.094 192.016 122.282 192.83 122.282 193.83C122.282 194.831 123.094 195.644 124.093 195.644H131.949C132.948 195.644 133.76 194.831 133.76 193.83C133.76 192.83 132.948 192.016 131.949 192.016H124.093Z" fill="black" stroke="black" stroke-width="0.75"/>
<path d="M145.87 164.378H138.015C136.798 164.378 135.809 163.387 135.809 162.169C135.809 160.951 136.798 159.96 138.015 159.96H145.87C147.086 159.96 148.076 160.951 148.076 162.169C148.076 163.387 147.086 164.378 145.87 164.378ZM138.015 160.355C137.016 160.355 136.203 161.169 136.203 162.169C136.203 163.169 137.016 163.983 138.015 163.983H145.87C146.869 163.983 147.681 163.169 147.681 162.169C147.681 161.169 146.869 160.355 145.87 160.355H138.015Z" fill="black" stroke="black" stroke-width="0.75"/>
<path d="M145.87 172.293H138.015C136.798 172.293 135.809 171.302 135.809 170.084C135.809 168.866 136.798 167.875 138.015 167.875H145.87C147.086 167.875 148.076 168.866 148.076 170.084C148.076 171.302 147.086 172.293 145.87 172.293ZM138.015 168.27C137.016 168.27 136.203 169.084 136.203 170.084C136.203 171.085 137.016 171.898 138.015 171.898H145.87C146.869 171.898 147.681 171.085 147.681 170.084C147.681 169.084 146.869 168.27 145.87 168.27H138.015Z" fill="black" stroke="black" stroke-width="0.75"/>
<path d="M145.87 180.209H138.015C136.798 180.209 135.809 179.218 135.809 177.999C135.809 176.781 136.798 175.79 138.015 175.79H145.87C147.086 175.79 148.076 176.781 148.076 177.999C148.076 179.218 147.086 180.209 145.87 180.209ZM138.015 176.185C137.016 176.185 136.203 176.999 136.203 177.999C136.203 179 137.016 179.813 138.015 179.813H145.87C146.869 179.813 147.681 179 147.681 177.999C147.681 176.999 146.869 176.185 145.87 176.185H138.015Z" fill="black" stroke="black" stroke-width="0.75"/>
<path d="M145.87 188.124H138.015C136.798 188.124 135.809 187.133 135.809 185.915C135.809 184.697 136.798 183.706 138.015 183.706H145.87C147.086 183.706 148.076 184.697 148.076 185.915C148.076 187.133 147.086 188.124 145.87 188.124ZM138.015 184.101C137.016 184.101 136.203 184.915 136.203 185.915C136.203 186.916 137.016 187.729 138.015 187.729H145.87C146.869 187.729 147.681 186.916 147.681 185.915C147.681 184.915 146.869 184.101 145.87 184.101H138.015Z" fill="black" stroke="black" stroke-width="0.75"/>
<path d="M145.87 196.039H138.015C136.798 196.039 135.809 195.048 135.809 193.83C135.809 192.612 136.798 191.621 138.015 191.621H145.87C147.086 191.621 148.076 192.612 148.076 193.83C148.076 195.048 147.086 196.039 145.87 196.039ZM138.015 192.016C137.016 192.016 136.203 192.83 136.203 193.83C136.203 194.831 137.016 195.644 138.015 195.644H145.87C146.869 195.644 147.681 194.831 147.681 193.83C147.681 192.83 146.869 192.016 145.87 192.016H138.015Z" fill="black" stroke="black" stroke-width="0.75"/>
<path d="M317.156 200.699H293.086C291.936 200.699 291 199.724 291 198.525V170.458C291 168.609 291.243 167.753 291.999 166.936C292.666 166.214 293.488 165.987 293.544 165.987C293.65 165.987 293.735 166.073 293.735 166.18C293.735 166.272 293.671 166.349 293.586 166.368C293.543 166.38 292.85 166.582 292.279 167.199C291.601 167.933 291.383 168.725 291.383 170.458V198.526C291.383 199.512 292.147 200.313 293.086 200.313H317.156C318.095 200.313 318.858 199.512 318.858 198.526V170.458C318.858 168.423 318.468 167.798 317.958 167.192C317.415 166.549 316.693 166.38 316.65 166.37C316.56 166.354 316.492 166.275 316.492 166.18C316.492 166.073 316.578 165.987 316.683 165.987C316.761 165.987 317.619 166.194 318.249 166.943C318.907 167.723 319.241 168.481 319.241 170.458V198.526C319.241 199.724 318.306 200.7 317.156 200.7L317.156 200.699Z" fill="black" stroke="black" stroke-width="0.75"/>
<path d="M319.05 196.311H291.191C291.085 196.311 291 196.225 291 196.118V172.109C291 172.002 291.086 171.916 291.191 171.916H319.05C319.155 171.916 319.241 172.003 319.241 172.109V196.118C319.241 196.225 319.155 196.311 319.05 196.311ZM291.383 195.925H318.858V172.302H291.383V195.925Z" fill="black" stroke="black" stroke-width="0.75"/>
<path d="M316.687 166.35H293.547C293.496 166.35 293.447 166.33 293.411 166.293C293.375 166.257 293.355 166.207 293.355 166.155C293.355 166.069 293.355 165.499 293.356 164.829C293.356 163.875 293.357 162.69 293.358 162.455C293.359 162.348 293.445 162.262 293.551 162.262H293.552C293.658 162.263 293.744 162.35 293.743 162.457C293.742 162.691 293.741 163.876 293.741 164.829C293.741 165.3 293.741 165.722 293.74 165.962H316.494C316.493 165.544 316.492 164.57 316.492 163.756C316.492 163.139 316.491 162.606 316.491 162.457C316.491 162.35 316.577 162.263 316.683 162.262C316.789 162.262 316.875 162.349 316.875 162.456C316.875 162.605 316.876 163.138 316.876 163.756C316.877 164.766 316.878 166.023 316.879 166.154C316.879 166.206 316.859 166.256 316.823 166.292C316.787 166.329 316.738 166.35 316.687 166.35H316.687Z" fill="black" stroke="black" stroke-width="0.75"/>
<path d="M315.963 162.656C315.947 162.656 315.932 162.654 315.916 162.65H293.542C293.491 162.65 293.442 162.629 293.406 162.593C293.37 162.556 293.35 162.507 293.35 162.455C293.353 162.205 293.355 160.611 293.355 159.897C293.355 158.851 294.259 158 295.37 158H314.871C315.983 158 316.887 158.851 316.887 159.897C316.887 160.157 316.887 160.537 316.888 160.926H317.03C317.87 160.926 318.554 161.615 318.554 162.463C318.554 162.57 318.468 162.656 318.363 162.656H315.964H315.963ZM316.01 162.269H318.154C318.063 161.727 317.594 161.312 317.03 161.312H316.697C316.591 161.312 316.505 161.225 316.505 161.119C316.505 160.666 316.504 160.2 316.504 159.896C316.504 159.063 315.772 158.385 314.872 158.385H295.37C294.471 158.385 293.739 159.063 293.739 159.896C293.739 160.504 293.737 161.75 293.735 162.263H315.964C315.98 162.263 315.996 162.265 316.011 162.269L316.01 162.269Z" fill="black" stroke="black" stroke-width="0.75"/>
<path d="M204.471 147.644C204.474 147.605 204.476 147.567 204.476 147.528V146.341C204.476 146.321 204.476 146.302 204.475 146.279C204.471 146.208 204.462 146.138 204.449 146.073C204.445 146.052 204.44 146.031 204.435 146.011C204.428 145.983 204.42 145.954 204.41 145.924C204.406 145.912 204.402 145.899 204.397 145.887C204.394 145.878 204.391 145.869 204.387 145.861C204.383 145.85 204.379 145.84 204.375 145.83C204.371 145.817 204.365 145.804 204.359 145.791C204.356 145.785 204.353 145.778 204.35 145.772C204.344 145.76 204.339 145.748 204.334 145.738C204.329 145.729 204.325 145.72 204.32 145.712C204.316 145.704 204.312 145.696 204.307 145.688C204.302 145.676 204.295 145.666 204.288 145.654C204.284 145.647 204.28 145.639 204.275 145.632C204.269 145.622 204.263 145.612 204.256 145.602C204.249 145.592 204.243 145.582 204.236 145.573C204.226 145.559 204.216 145.544 204.204 145.53C204.196 145.519 204.188 145.508 204.179 145.497C204.174 145.49 204.169 145.484 204.163 145.478C204.156 145.469 204.149 145.46 204.142 145.453C204.133 145.442 204.124 145.432 204.115 145.422C204.111 145.418 204.108 145.414 204.104 145.411C204.094 145.401 204.085 145.391 204.076 145.382C204.068 145.374 204.061 145.367 204.052 145.36C204.046 145.354 204.041 145.349 204.033 145.342C204.022 145.332 204.011 145.322 204 145.312C203.996 145.309 203.992 145.306 203.989 145.303C203.977 145.294 203.966 145.285 203.955 145.277C203.947 145.271 203.94 145.265 203.932 145.259C203.925 145.254 203.917 145.249 203.907 145.241C203.899 145.234 203.889 145.228 203.88 145.222C203.869 145.215 203.858 145.208 203.847 145.201C203.84 145.196 203.835 145.193 203.829 145.191C203.817 145.183 203.804 145.175 203.79 145.168C203.776 145.159 203.762 145.152 203.75 145.146C203.737 145.139 203.723 145.133 203.708 145.125C203.703 145.123 203.697 145.12 203.692 145.118C203.68 145.112 203.668 145.107 203.655 145.102C203.648 145.099 203.641 145.096 203.633 145.093C203.618 145.087 203.604 145.082 203.592 145.078C203.572 145.07 203.553 145.064 203.533 145.058C203.533 145.058 203.53 145.057 203.528 145.056C203.508 145.05 203.488 145.045 203.468 145.04C203.406 145.024 203.343 145.013 203.275 145.006C203.229 145.002 203.186 145 203.145 145H179.33C178.596 145 178 145.602 178 146.341V147.529C178 147.704 178.033 147.875 178.098 148.036C178.234 148.373 178.347 148.712 178.432 149.044C178.532 149.434 178.596 149.826 178.625 150.209L180.993 182.455L181.374 187.637C181.423 188.303 181.761 188.907 182.301 189.295C182.335 189.318 182.368 189.344 182.4 189.372C182.562 189.512 182.695 189.694 182.782 189.895C182.834 190.016 182.87 190.145 182.888 190.277C182.898 190.346 182.903 190.415 182.903 190.485V197.854C182.903 197.869 182.903 197.884 182.904 197.9C182.928 198.957 183.8 199.817 184.85 199.817H197.626C198.7 199.817 199.573 198.936 199.573 197.854V196.979C199.573 196.932 199.573 196.76 199.573 196.702V190.485C199.573 190.457 199.574 190.428 199.576 190.399C199.626 190.369 198.66 190.315 198.66 190.253C198.66 190.208 199.643 190.168 199.614 190.137C199.634 190.055 199.66 189.974 199.694 189.894C199.781 189.693 199.912 189.512 200.076 189.371C200.108 189.344 200.141 189.318 200.174 189.294C200.714 188.907 201.052 188.303 201.101 187.637L201.389 183.715L202.689 166.016L203.85 150.209C203.878 149.828 203.943 149.436 204.043 149.044C204.128 148.713 204.24 148.373 204.376 148.036C204.388 148.005 204.399 147.974 204.41 147.943C204.475 147.796 204.473 147.699 204.471 147.644ZM178.339 146.34C178.339 145.789 178.784 145.34 179.331 145.34H203.146C203.177 145.34 203.21 145.342 203.244 145.345C203.292 145.35 203.341 145.358 203.388 145.37C203.402 145.374 203.416 145.377 203.429 145.382L203.434 145.383C203.448 145.387 203.462 145.392 203.48 145.398C203.49 145.402 203.499 145.405 203.509 145.41C203.514 145.412 203.518 145.414 203.524 145.415C203.534 145.42 203.546 145.425 203.559 145.431L203.568 145.435C203.576 145.439 203.583 145.443 203.591 145.447C203.596 145.45 203.6 145.452 203.604 145.454C203.61 145.457 203.616 145.46 203.621 145.464C203.623 145.465 203.626 145.466 203.628 145.468C203.638 145.473 203.647 145.478 203.656 145.484C203.66 145.486 203.665 145.489 203.669 145.491C203.676 145.495 203.683 145.5 203.69 145.505C203.694 145.508 203.698 145.51 203.702 145.513C203.704 145.514 203.707 145.516 203.707 145.516L203.711 145.519L203.714 145.521C203.72 145.526 203.726 145.53 203.732 145.534L203.737 145.537L203.74 145.54C203.74 145.54 203.745 145.543 203.747 145.545C203.755 145.552 203.764 145.558 203.771 145.564C203.773 145.566 203.775 145.567 203.777 145.569L203.779 145.571C203.787 145.577 203.794 145.583 203.802 145.591C203.803 145.592 203.808 145.596 203.809 145.598C203.814 145.602 203.819 145.606 203.823 145.61C203.825 145.612 203.827 145.614 203.829 145.616C203.832 145.618 203.834 145.621 203.837 145.624C203.845 145.631 203.852 145.639 203.86 145.647C203.861 145.65 203.864 145.652 203.866 145.654C203.873 145.661 203.88 145.669 203.886 145.676C203.889 145.679 203.892 145.683 203.896 145.686C203.897 145.688 203.898 145.689 203.899 145.691C203.903 145.695 203.906 145.7 203.91 145.704C203.912 145.706 203.913 145.708 203.915 145.71C203.92 145.716 203.926 145.723 203.931 145.73C203.933 145.732 203.934 145.735 203.936 145.737C203.943 145.747 203.95 145.756 203.957 145.766C203.958 145.768 203.96 145.771 203.961 145.772C203.965 145.778 203.969 145.783 203.972 145.789C203.972 145.789 203.974 145.792 203.975 145.794C203.978 145.797 203.98 145.8 203.982 145.804C203.985 145.809 203.988 145.815 203.992 145.82C203.994 145.824 203.996 145.828 203.998 145.832C204.003 145.839 204.006 145.846 204.01 145.853C204.012 145.857 204.012 145.858 204.015 145.862L204.017 145.866C204.017 145.866 204.02 145.871 204.021 145.873C204.024 145.878 204.027 145.884 204.031 145.892C204.035 145.9 204.039 145.908 204.043 145.917L204.045 145.923C204.047 145.926 204.048 145.93 204.05 145.933C204.053 145.941 204.057 145.948 204.06 145.956L204.062 145.961C204.065 145.967 204.067 145.973 204.069 145.979C204.07 145.981 204.071 145.984 204.072 145.986C204.074 145.989 204.075 145.993 204.077 145.997C204.077 145.999 204.079 146.003 204.079 146.003C204.081 146.009 204.083 146.016 204.085 146.022C204.085 146.024 204.086 146.026 204.087 146.028C204.094 146.051 204.1 146.071 204.106 146.092C204.109 146.106 204.113 146.12 204.116 146.138C204.126 146.188 204.133 146.241 204.135 146.29C204.135 146.306 204.136 146.323 204.136 146.339V147.527C204.136 147.554 204.135 147.58 204.132 147.606H178.342C178.34 147.58 178.338 147.553 178.338 147.527V146.339L178.339 146.34ZM199.235 196.669H194.191C194.21 196.587 194.22 196.503 194.22 196.417C194.22 195.913 193.906 195.471 193.336 195.171C192.818 194.898 192.095 194.749 191.301 194.749C190.507 194.749 189.755 194.898 189.206 195.169C188.594 195.472 188.256 195.915 188.256 196.417C188.256 196.503 188.266 196.587 188.285 196.669H183.242V190.485C183.242 190.464 183.24 190.444 183.24 190.423H199.237C199.236 190.444 199.235 190.464 199.235 190.485L199.235 196.669ZM188.638 196.669C188.61 196.588 188.595 196.504 188.595 196.417C188.595 195.661 189.758 195.09 191.301 195.09C192.843 195.09 193.882 195.636 193.882 196.417C193.882 196.504 193.867 196.588 193.839 196.669H188.638ZM193.629 197.011C193.218 197.455 192.336 197.742 191.238 197.742C190.14 197.742 189.259 197.455 188.847 197.011H193.629ZM197.626 199.475H184.85C183.982 199.475 183.261 198.764 183.242 197.889C183.242 197.887 183.242 197.884 183.242 197.882C183.242 197.873 183.242 197.863 183.242 197.853V197.011H188.423C188.814 197.663 189.864 198.083 191.238 198.083C192.612 198.083 193.662 197.663 194.053 197.011H199.235V197.853C199.235 198.748 198.513 199.475 197.626 199.475ZM203.716 148.958C203.611 149.37 203.543 149.782 203.513 150.184L202.352 165.991L201.052 183.69L200.764 187.611C200.723 188.175 200.437 188.687 199.979 189.015C199.936 189.045 199.896 189.078 199.857 189.112C199.654 189.286 199.491 189.51 199.384 189.759C199.339 189.864 199.305 189.972 199.28 190.081H183.197C183.172 189.971 183.138 189.863 183.093 189.758C182.985 189.508 182.821 189.285 182.621 189.113C182.582 189.078 182.54 189.045 182.497 189.015C182.039 188.687 181.753 188.175 181.712 187.611L181.479 184.429L178.963 150.183C178.933 149.78 178.865 149.367 178.761 148.958C178.675 148.625 178.564 148.286 178.43 147.949H204.047C203.912 148.287 203.8 148.627 203.716 148.958Z" fill="black" stroke="black" stroke-width="0.75"/>
<path d="M79.4473 226.626C76.8784 226.626 74.7964 228.704 74.7964 231.268C74.7964 233.832 76.8784 235.911 79.4473 235.911C82.0161 235.911 84.0981 233.832 84.0981 231.268C84.0981 228.704 82.0161 226.626 79.4473 226.626Z" fill="#212528"/>
<path d="M177.912 226.626C175.343 226.626 173.261 228.704 173.261 231.268C173.261 233.832 175.343 235.911 177.912 235.911C180.481 235.911 182.563 233.832 182.563 231.268C182.563 228.704 180.481 226.626 177.912 226.626Z" fill="#212528"/>
<path d="M275.383 226.626C272.814 226.626 270.732 228.704 270.732 231.268C270.732 233.832 272.814 235.911 275.383 235.911C277.951 235.911 280.033 233.832 280.033 231.268C280.033 228.704 277.951 226.626 275.383 226.626Z" fill="#212528"/>
<path d="M372.863 226.626C370.295 226.626 368.213 228.704 368.213 231.268C368.213 233.832 370.295 235.911 372.863 235.911C375.432 235.911 377.514 233.832 377.514 231.268C377.514 228.704 375.432 226.626 372.863 226.626Z" fill="#212528"/>
<path d="M514.781 213.049C511.394 209.658 506.329 207.269 501.295 205.17H498.85C503.884 207.28 508.96 209.679 512.336 213.049H514.781Z" fill="#212528"/>
<path d="M508.96 213.049C505.593 209.679 500.528 207.28 495.494 205.17H493.049C498.063 207.259 503.138 209.658 506.515 213.049H508.96Z" fill="#212528"/>
<path d="M503.159 213.049C499.793 209.679 494.727 207.28 489.704 205.17H487.259C492.273 207.259 497.348 209.658 500.715 213.049H503.159Z" fill="#212528"/>
<path d="M497.348 213.049C493.982 209.679 488.917 207.28 483.914 205.17H481.469C486.472 207.259 491.537 209.658 494.904 213.049H497.348Z" fill="#212528"/>
<path d="M491.527 213.049C488.181 209.679 483.116 207.28 478.092 205.17H475.648C480.661 207.259 485.737 209.658 489.082 213.049H491.527Z" fill="#212528"/>
<path d="M485.716 213.049C482.381 209.658 477.305 207.28 472.302 205.17H469.857C474.86 207.259 479.926 209.658 483.271 213.049H485.716Z" fill="#212528"/>
<path d="M479.895 213.049C476.57 209.658 471.494 207.28 466.501 205.17H464.057C469.06 207.259 474.104 209.658 477.45 213.049H479.895Z" fill="#212528"/>
<path d="M344.969 67.6609C343.995 67.847 343.198 68.4674 342.773 69.3566C342.359 70.2458 342.4 71.2488 342.877 72.107C343.405 73.0583 344.441 73.6373 345.508 73.6373C345.684 73.6373 345.87 73.6166 346.046 73.5856C347.02 73.3995 347.817 72.7791 348.232 71.8795C348.646 70.9903 348.605 69.9873 348.128 69.1395C347.507 68.0331 346.212 67.4231 344.959 67.6609H344.969ZM346.647 71.1454C346.471 71.5176 346.139 71.7865 345.725 71.8692C345.217 71.9623 344.679 71.7038 344.43 71.2591C344.223 70.8973 344.213 70.4733 344.389 70.1114C344.565 69.7392 344.907 69.4807 345.311 69.398C345.383 69.3876 345.456 69.3773 345.518 69.3773C345.953 69.3773 346.388 69.6255 346.605 70.008C346.802 70.3699 346.823 70.7835 346.647 71.1557V71.1454Z" fill="#212528"/>
<path d="M335.201 83.698C334.02 83.9151 333.057 84.6596 332.549 85.7453C332.042 86.8309 332.094 88.051 332.684 89.0954C333.326 90.2431 334.58 90.9565 335.874 90.9565C336.092 90.9565 336.299 90.9359 336.517 90.8945C337.697 90.6774 338.671 89.9226 339.179 88.8472C339.686 87.7615 339.634 86.5414 339.044 85.4971C338.288 84.1633 336.724 83.4188 335.211 83.698H335.201ZM337.563 88.1027C337.304 88.6611 336.796 89.054 336.175 89.1677C335.408 89.3022 334.59 88.9299 334.207 88.2372C333.896 87.6892 333.875 87.0481 334.134 86.4897C334.393 85.9314 334.901 85.5385 335.512 85.4247C335.626 85.404 335.729 85.3937 335.843 85.3937C336.506 85.3937 337.148 85.7556 337.48 86.3553C337.791 86.9033 337.822 87.534 337.552 88.1027H337.563Z" fill="#212528"/>
<path d="M378.322 90.8945C378.529 90.9359 378.737 90.9462 378.944 90.9462C380.249 90.9462 381.502 90.2431 382.144 89.0954C382.735 88.051 382.787 86.8309 382.279 85.7453C381.772 84.6596 380.808 83.9151 379.617 83.698C378.105 83.4291 376.541 84.1736 375.805 85.4971C375.204 86.5518 375.163 87.7719 375.66 88.8576C376.168 89.9329 377.131 90.6774 378.333 90.9048L378.322 90.8945ZM377.338 86.345C377.659 85.7659 378.333 85.3937 378.996 85.3937C379.099 85.3937 379.203 85.3937 379.306 85.4247C379.928 85.5385 380.425 85.9314 380.694 86.4897C380.953 87.0481 380.932 87.6891 380.622 88.2372C380.249 88.9092 379.42 89.3022 378.654 89.1677C378.032 89.054 377.525 88.6714 377.266 88.1131C377.007 87.5547 377.027 86.9137 377.349 86.3553L377.338 86.345Z" fill="#212528"/>
<path d="M366.7 69.1395C366.214 69.9977 366.172 70.9903 366.576 71.8795C366.99 72.7791 367.798 73.3995 368.803 73.5959C368.979 73.627 369.145 73.6373 369.321 73.6373C370.409 73.6373 371.424 73.0583 371.962 72.107C372.439 71.2385 372.48 70.2252 372.056 69.3359C371.631 68.4467 370.833 67.8367 369.86 67.6609C368.596 67.4437 367.332 68.0435 366.711 69.1395H366.7ZM370.46 70.0804C370.636 70.4526 370.626 70.8766 370.419 71.2488C370.17 71.6934 369.632 71.9416 369.124 71.8589C368.699 71.7761 368.358 71.5176 368.182 71.1351C368.016 70.7628 368.026 70.3492 368.233 69.9977C368.451 69.6048 368.886 69.367 369.331 69.367C369.404 69.367 369.466 69.367 369.539 69.3876C369.942 69.46 370.274 69.7185 370.45 70.0804H370.46Z" fill="#212528"/>
<path d="M360.351 9.56133C356.29 7.86559 351.609 9.77846 349.91 13.8213C349.381 15.0931 349.195 16.4166 349.33 17.6988C349.609 20.5112 351.391 23.0858 354.177 24.2646C355.182 24.6885 356.228 24.885 357.254 24.885C357.399 24.885 357.533 24.8643 357.678 24.8539C357.834 24.8539 357.989 24.8333 358.145 24.8229C358.321 24.8022 358.497 24.7816 358.662 24.7505C358.818 24.7195 358.984 24.6885 359.139 24.6472C359.398 24.5851 359.657 24.5024 359.905 24.4197C360.03 24.3783 360.154 24.337 360.278 24.2853C360.32 24.2749 360.351 24.2542 360.382 24.2336C360.537 24.1715 360.682 24.0991 360.838 24.0268C361.014 23.944 361.179 23.8406 361.345 23.7476C361.469 23.6752 361.594 23.6028 361.718 23.5201C361.956 23.365 362.184 23.1892 362.402 23.0031C362.495 22.9204 362.599 22.8377 362.692 22.7446C362.868 22.5792 363.034 22.4137 363.189 22.238C363.261 22.1553 363.334 22.0829 363.406 22.0002C363.603 21.7623 363.779 21.5142 363.945 21.266C364.018 21.1523 364.09 21.0282 364.163 20.9041C364.287 20.6973 364.39 20.4802 364.494 20.2527C364.525 20.17 364.577 20.108 364.608 20.0252C365.033 19.0119 365.23 17.9676 365.23 16.9336C365.23 13.8317 363.386 10.8745 360.34 9.58201L360.351 9.56133ZM362.992 19.3015C362.35 20.8318 361.148 22.0208 359.615 22.6412C358.072 23.272 356.384 23.2616 354.851 22.6205C352.686 21.7106 351.298 19.7047 351.07 17.523C350.966 16.5304 351.111 15.4964 351.515 14.5141C352.52 12.1463 354.83 10.7091 357.264 10.7091C358.062 10.7091 358.88 10.8641 359.657 11.1847C362.226 12.26 363.686 14.8657 363.438 17.492C363.375 18.0917 363.23 18.7017 362.982 19.2911L362.992 19.3015Z" fill="#212528"/>
<path d="M360.827 13.4491C360.827 13.4491 360.796 13.4284 360.786 13.4077C360.579 13.201 360.361 13.0148 360.123 12.8494C360.071 12.808 360.019 12.777 359.968 12.746C359.76 12.6116 359.533 12.4875 359.305 12.3841C359.263 12.3634 359.222 12.3324 359.18 12.3117C359.129 12.291 359.066 12.2807 359.015 12.26C358.818 12.1876 358.621 12.1256 358.414 12.0739C358.269 12.0429 358.124 12.0119 357.979 11.9912C357.823 11.9705 357.668 11.9498 357.513 11.9498C357.316 11.9395 357.119 11.9498 356.922 11.9498C356.86 11.9498 356.798 11.9498 356.725 11.9498C356.674 11.9498 356.622 11.9809 356.57 11.9809C356.353 12.0119 356.135 12.0636 355.928 12.1153C355.824 12.1463 355.721 12.167 355.627 12.2083C355.41 12.2807 355.203 12.3738 354.996 12.4772C354.923 12.5185 354.84 12.5495 354.768 12.6012C354.55 12.7253 354.343 12.8804 354.136 13.0355C354.094 13.0665 354.053 13.0976 354.012 13.1389C353.794 13.325 353.597 13.5215 353.421 13.749C353.4 13.7696 353.38 13.7903 353.369 13.811C353.193 14.0385 353.028 14.2763 352.893 14.5451C352.883 14.5762 352.862 14.5968 352.851 14.6278C352.789 14.7416 352.717 14.8553 352.665 14.9691C352.603 15.1138 352.582 15.2689 352.53 15.4137C352.52 15.4654 352.499 15.5067 352.489 15.5584C352.416 15.8169 352.365 16.0754 352.334 16.3443C352.334 16.4166 352.323 16.4787 352.313 16.5511C352.292 16.8096 352.292 17.0577 352.313 17.3162C352.313 17.3679 352.313 17.4093 352.313 17.461C352.313 17.5023 352.334 17.5437 352.344 17.5954C352.375 17.8022 352.416 18.009 352.468 18.2158C352.499 18.3192 352.53 18.4329 352.561 18.5363C352.624 18.7224 352.696 18.8982 352.789 19.074C352.841 19.1774 352.893 19.2808 352.955 19.3842C353.048 19.5496 353.152 19.7151 353.266 19.8701C353.328 19.9632 353.4 20.0459 353.473 20.1286C353.597 20.2734 353.732 20.4182 353.867 20.5526C353.96 20.6353 354.053 20.718 354.146 20.7904C354.281 20.9041 354.416 21.0075 354.571 21.1006C354.737 21.2143 354.923 21.297 355.099 21.3901C355.172 21.4211 355.234 21.4728 355.317 21.5038C355.337 21.5038 355.348 21.5038 355.368 21.5245C355.959 21.7727 356.601 21.9071 357.264 21.9071C357.44 21.9071 357.627 21.9071 357.813 21.8761C360.548 21.5762 362.536 19.1153 362.236 16.3753C362.112 15.2276 361.583 14.2246 360.827 13.4491ZM356.663 20.0769C356.663 20.0769 356.611 20.0666 356.58 20.0563C356.415 20.0252 356.249 19.9735 356.083 19.9012C356.031 19.8805 355.969 19.8598 355.917 19.8391C355.793 19.7874 355.69 19.7254 355.576 19.653C355.482 19.6013 355.4 19.5393 355.317 19.4772C355.255 19.4255 355.192 19.3738 355.141 19.3221C355.037 19.2291 354.933 19.136 354.84 19.0326C354.809 18.9913 354.768 18.9499 354.737 18.9085C354.643 18.7845 354.55 18.6604 354.467 18.526C354.447 18.4846 354.426 18.4432 354.405 18.4019C354.333 18.2571 354.26 18.1124 354.208 17.9469C354.198 17.9056 354.188 17.8642 354.177 17.8229C354.126 17.6574 354.084 17.4816 354.063 17.2955C354.063 17.2645 354.063 17.2335 354.063 17.2025C354.043 17.006 354.043 16.8096 354.063 16.6234C354.063 16.6131 354.063 16.5924 354.063 16.5821C354.167 15.5274 354.788 14.6072 355.69 14.1005C355.71 14.1005 355.721 14.0798 355.741 14.0695C355.897 13.9868 356.073 13.9144 356.249 13.8524C356.29 13.842 356.321 13.8317 356.363 13.8213C356.518 13.7696 356.694 13.7386 356.86 13.7179C356.943 13.7076 357.026 13.6973 357.109 13.6973C357.171 13.6973 357.223 13.6973 357.285 13.6973C357.502 13.6973 357.72 13.7283 357.927 13.7696C358.124 13.811 358.31 13.8627 358.497 13.9454C358.497 13.9454 358.497 13.9454 358.507 13.9454C360.144 14.6485 360.91 16.5304 360.226 18.1537C359.709 19.3842 358.507 20.1183 357.254 20.1286C357.254 20.1286 357.254 20.1286 357.243 20.1286C357.047 20.1286 356.86 20.108 356.663 20.0769Z" fill="#212528"/>
<path d="M429.502 23.913C429.564 23.7269 429.637 23.5408 429.688 23.3443C429.73 23.1996 429.751 23.0652 429.792 22.9204C429.854 22.6619 429.927 22.4034 429.968 22.1449C429.989 22.0415 429.989 21.9381 430.01 21.8347C430.051 21.5349 430.103 21.235 430.124 20.9352C430.124 20.8421 430.124 20.7387 430.124 20.6456C430.144 20.3458 430.155 20.0356 430.155 19.7357C430.155 19.5703 430.134 19.4049 430.124 19.2394C430.113 19.0119 430.103 18.7741 430.082 18.5466C429.989 17.7401 429.823 16.944 429.575 16.1685C429.502 15.941 429.409 15.7239 429.326 15.5067C429.264 15.3516 429.222 15.1965 429.16 15.0518C429.036 14.7623 428.901 14.4831 428.756 14.2039C428.715 14.1212 428.684 14.0488 428.642 13.9661C428.487 13.6869 428.321 13.4181 428.145 13.1493C428.093 13.0769 428.062 13.0045 428.01 12.9321C427.845 12.6943 427.669 12.4565 427.482 12.229C427.41 12.1359 427.348 12.0429 427.265 11.9498C427.109 11.7637 426.933 11.5879 426.767 11.4122C426.654 11.2881 426.54 11.164 426.426 11.0399C426.301 10.9158 426.156 10.8021 426.032 10.6884C425.856 10.5229 425.68 10.3678 425.493 10.2127C425.483 10.2024 425.462 10.1921 425.452 10.1817C425.141 9.9439 424.831 9.70609 424.499 9.48895C422.044 7.89661 419.175 7.23486 416.295 7.56574C415.498 7.6588 414.7 7.82423 413.934 8.07239C413.675 8.15511 413.436 8.24817 413.188 8.35157C413.064 8.40327 412.939 8.43429 412.815 8.48598C412.504 8.6204 412.204 8.76516 411.904 8.92026C411.841 8.95128 411.79 8.97196 411.727 9.00298C411.427 9.16841 411.147 9.34419 410.868 9.51997C410.806 9.56133 410.743 9.59235 410.692 9.63371C410.443 9.79914 410.205 9.98526 409.967 10.1714C409.884 10.2438 409.79 10.2955 409.708 10.3678C409.521 10.5229 409.355 10.6884 409.179 10.8538C409.055 10.9779 408.92 11.0813 408.796 11.2054C408.703 11.3088 408.61 11.4122 408.516 11.5156C408.061 12.0119 407.626 12.5495 407.242 13.1389C406.838 13.7696 406.507 14.4211 406.227 15.0828C406.196 15.1655 406.144 15.2482 406.113 15.331C406.03 15.5378 405.968 15.7446 405.896 15.9513C405.834 16.1375 405.761 16.3132 405.709 16.4994C405.668 16.6441 405.637 16.7992 405.606 16.944C405.544 17.1921 405.481 17.4403 405.44 17.6884C405.419 17.8022 405.409 17.9159 405.399 18.0297C405.357 18.3192 405.316 18.5983 405.285 18.8879C405.285 19.0016 405.285 19.1257 405.274 19.2394C405.264 19.5186 405.243 19.8081 405.254 20.0873C405.254 20.2837 405.274 20.4905 405.295 20.687C405.305 20.8835 405.316 21.0799 405.336 21.2867C405.43 22.0932 405.595 22.8894 405.844 23.6649C405.916 23.882 405.999 24.0888 406.082 24.2956C406.144 24.461 406.196 24.6265 406.258 24.7816C406.383 25.0711 406.517 25.3399 406.662 25.6191C406.704 25.7018 406.735 25.7845 406.776 25.8569C406.932 26.1361 407.097 26.4153 407.273 26.6841C407.315 26.7565 407.356 26.8289 407.408 26.8909C407.574 27.1391 407.76 27.3665 407.936 27.6043C408.009 27.6974 408.071 27.7905 408.143 27.8732C408.299 28.0593 408.475 28.2454 408.651 28.4212C408.765 28.5453 408.869 28.6694 408.993 28.7831C409.127 28.9072 409.273 29.0312 409.407 29.145C409.583 29.3001 409.749 29.4552 409.935 29.6103C409.977 29.6413 410.018 29.6723 410.06 29.7033C410.339 29.9205 410.629 30.1376 410.93 30.3341C412.97 31.6576 415.301 32.34 417.683 32.34C418.553 32.34 419.434 32.2469 420.314 32.0608C420.449 32.0298 420.584 31.9884 420.708 31.9574C420.708 31.9574 420.718 31.9574 420.729 31.9574C421.215 31.8333 421.692 31.6886 422.158 31.5128C422.168 31.5128 422.179 31.5128 422.2 31.5025C423.619 30.9648 424.913 30.179 426.032 29.176C426.105 29.114 426.167 29.0519 426.239 28.9899C426.519 28.721 426.788 28.4522 427.047 28.1627C427.14 28.0593 427.234 27.9662 427.316 27.8628C427.575 27.5423 427.834 27.2114 428.062 26.8702C428.104 26.8082 428.155 26.7565 428.197 26.6944C428.601 26.0741 428.932 25.4226 429.212 24.7506C429.253 24.6678 429.295 24.5851 429.326 24.4921C429.409 24.2956 429.471 24.0888 429.533 23.882L429.502 23.913ZM428.373 20.8111C428.352 21.0282 428.321 21.2453 428.29 21.4521C428.269 21.5762 428.259 21.7106 428.238 21.8347C428.207 22.0208 428.155 22.207 428.114 22.3931C428.073 22.5482 428.052 22.7136 428 22.8687C427.959 22.9928 427.917 23.1169 427.876 23.2513C427.803 23.4581 427.741 23.6752 427.658 23.882C427.648 23.913 427.627 23.944 427.617 23.9751C427.368 24.5955 427.057 25.1952 426.685 25.7639C426.415 26.1775 426.115 26.56 425.794 26.9219C422.345 30.8821 416.399 31.8333 411.862 28.9072C411.355 28.5763 410.888 28.2041 410.453 27.8008C410.37 27.7284 410.277 27.656 410.205 27.5733C410.07 27.4492 409.956 27.3045 409.832 27.1804C409.718 27.0563 409.594 26.9323 409.48 26.7978C409.386 26.6944 409.314 26.5807 409.231 26.467C409.096 26.3015 408.962 26.1361 408.848 25.9603C408.786 25.8673 408.724 25.7639 408.661 25.6605C408.537 25.464 408.413 25.2675 408.299 25.0711C408.237 24.9573 408.185 24.8333 408.123 24.7092C408.03 24.5231 407.936 24.337 407.853 24.1405C407.76 23.913 407.677 23.6855 407.594 23.4477C407.563 23.3547 407.522 23.2616 407.491 23.1686C407.387 22.8377 407.294 22.4965 407.222 22.1449C407.149 21.7934 407.087 21.4521 407.056 21.1006C407.056 21.0179 407.056 20.9455 407.035 20.8628C407.014 20.6043 406.994 20.3354 406.983 20.0769C406.983 19.8908 406.983 19.6944 407.004 19.5083C407.004 19.3532 407.004 19.1981 407.025 19.0533C407.045 18.8465 407.077 18.6397 407.108 18.4329C407.128 18.2985 407.139 18.1641 407.159 18.0193C407.19 17.8332 407.242 17.6574 407.284 17.4713C407.325 17.3162 407.356 17.1508 407.398 16.9957C407.439 16.8613 407.481 16.7372 407.532 16.6028C407.605 16.396 407.667 16.1892 407.75 15.9824C407.771 15.941 407.791 15.8996 407.802 15.8583C408.05 15.2482 408.361 14.6589 408.724 14.1005C408.765 14.0281 408.827 13.9661 408.869 13.8937C409.055 13.6249 409.241 13.3664 409.449 13.1182C409.542 13.0045 409.645 12.8908 409.749 12.777C409.935 12.5702 410.122 12.3738 410.329 12.1876C410.433 12.0946 410.526 12.0015 410.629 11.9085C410.888 11.681 411.147 11.4742 411.417 11.2777C411.468 11.2364 411.52 11.195 411.572 11.164C411.914 10.9262 412.256 10.7194 412.618 10.5229C412.701 10.4816 412.784 10.4402 412.867 10.3989C413.146 10.2644 413.426 10.13 413.706 10.0163C413.84 9.96458 413.965 9.91288 414.099 9.87152C414.348 9.7888 414.597 9.70609 414.845 9.63371C414.99 9.59235 415.135 9.55099 415.291 9.51997C415.539 9.45793 415.798 9.41657 416.047 9.37521C416.202 9.35453 416.347 9.32351 416.503 9.30283C416.907 9.26147 417.31 9.23045 417.725 9.23045C418.709 9.23045 419.693 9.36487 420.667 9.64405C420.677 9.64405 420.698 9.64405 420.708 9.64405C421.184 9.77846 421.651 9.95424 422.106 10.161C422.117 10.161 422.137 10.1714 422.148 10.1817C422.624 10.3989 423.08 10.647 423.536 10.9365C424.043 11.2674 424.52 11.6396 424.955 12.0429C425.038 12.1153 425.121 12.1876 425.203 12.26C425.328 12.3841 425.452 12.5185 425.566 12.6529C425.68 12.777 425.815 12.9114 425.918 13.0355C426.001 13.1389 426.084 13.2527 426.156 13.356C426.291 13.5318 426.426 13.6973 426.55 13.8834C426.612 13.9764 426.664 14.0695 426.716 14.1626C426.84 14.3694 426.975 14.5658 427.089 14.7726C427.151 14.876 427.192 14.9897 427.244 15.0931C427.348 15.2896 427.451 15.4861 427.534 15.6929C427.627 15.8996 427.7 16.1168 427.772 16.3339C427.814 16.4373 427.855 16.5407 427.886 16.6545C427.99 16.9853 428.083 17.3265 428.155 17.6678C428.228 18.009 428.29 18.3605 428.321 18.7121C428.332 18.8155 428.332 18.9292 428.342 19.0326C428.363 19.2704 428.383 19.5083 428.383 19.7357C428.383 19.9425 428.383 20.1493 428.363 20.3458C428.363 20.4802 428.363 20.625 428.352 20.7594L428.373 20.8111Z" fill="#212528"/>
<path d="M423.09 14.6072C423.09 14.6072 423.049 14.5658 423.039 14.5451C422.893 14.4004 422.738 14.266 422.572 14.1315C422.541 14.1005 422.51 14.0695 422.469 14.0385C422.272 13.8834 422.065 13.7283 421.847 13.5835C418.346 11.3088 413.633 12.3014 411.354 15.8066C411.209 16.0237 411.085 16.2512 410.971 16.4787C410.971 16.4787 410.971 16.4787 410.971 16.489C410.857 16.7062 410.754 16.9336 410.66 17.1611C410.66 17.1714 410.66 17.1921 410.64 17.2025C410.557 17.4196 410.484 17.6471 410.412 17.8642C410.412 17.8642 410.412 17.8849 410.412 17.8952C410.35 18.1227 410.298 18.3605 410.257 18.588V18.6087C410.215 18.8362 410.184 19.074 410.163 19.3118C410.163 19.3428 410.163 19.3635 410.163 19.3945C410.153 19.6117 410.143 19.8184 410.143 20.0356C410.143 20.17 410.163 20.2941 410.163 20.4285C410.163 20.5422 410.163 20.6456 410.184 20.7594C410.236 21.2557 410.339 21.7417 410.495 22.2173C410.495 22.238 410.516 22.2586 410.516 22.2793C410.588 22.4861 410.661 22.6929 410.743 22.8997C410.785 22.9928 410.837 23.0858 410.878 23.1789C410.94 23.303 410.992 23.4374 411.064 23.5615C411.127 23.6649 411.189 23.7683 411.251 23.8613C411.313 23.9647 411.375 24.0785 411.448 24.1819C411.51 24.2646 411.572 24.3473 411.634 24.43C411.717 24.5438 411.81 24.6678 411.903 24.7816C411.945 24.8333 411.986 24.8746 412.028 24.916C412.473 25.4226 412.991 25.8776 413.582 26.2602C414.058 26.5704 414.555 26.7978 415.073 26.984C415.249 27.046 415.415 27.1287 415.591 27.1701C415.664 27.1908 415.736 27.2011 415.809 27.2218C416.43 27.3872 417.062 27.4803 417.704 27.4803C417.994 27.4803 418.294 27.4596 418.585 27.4286C418.667 27.4286 418.75 27.3975 418.843 27.3872C418.999 27.3665 419.144 27.3459 419.299 27.3148C419.351 27.3045 419.403 27.2838 419.444 27.2735C419.537 27.2528 419.62 27.2218 419.714 27.2011C419.91 27.1494 420.107 27.0874 420.294 27.015C420.376 26.984 420.449 26.9529 420.532 26.9219C420.76 26.8289 420.977 26.7358 421.195 26.6221C421.236 26.6014 421.267 26.591 421.309 26.5704C421.578 26.4256 421.827 26.2705 422.075 26.1051C422.086 26.0947 422.106 26.0844 422.117 26.074C422.334 25.919 422.552 25.7535 422.749 25.5674C422.8 25.5157 422.862 25.464 422.914 25.4123C423.08 25.2572 423.235 25.0918 423.391 24.9263C423.443 24.8643 423.494 24.8126 423.546 24.7505C423.733 24.5231 423.919 24.2853 424.085 24.0268C425.193 22.331 425.566 20.3148 425.141 18.3295C424.83 16.8819 424.126 15.5895 423.111 14.5658L423.09 14.6072ZM423.432 20.9662C423.432 20.9662 423.411 21.0489 423.401 21.0902C423.339 21.4211 423.246 21.752 423.121 22.0725C423.121 22.0932 423.101 22.1242 423.09 22.1449C422.956 22.4758 422.79 22.8067 422.583 23.1065C422.376 23.4271 422.148 23.7062 421.889 23.9751C421.878 23.9854 421.868 23.9957 421.858 24.0164C421.609 24.2749 421.329 24.5024 421.039 24.6989C421.019 24.7092 420.998 24.7299 420.988 24.7402C420.687 24.947 420.366 25.1124 420.035 25.2572C420.024 25.2572 420.014 25.2675 420.004 25.2779C419.651 25.4226 419.289 25.5364 418.916 25.6191C418.533 25.7018 418.149 25.7432 417.777 25.7432C417.404 25.7432 417.031 25.7122 416.668 25.6501C416.658 25.6501 416.648 25.6501 416.637 25.6501C415.902 25.5157 415.197 25.2365 414.555 24.8126C413.913 24.3887 413.364 23.8613 412.939 23.2409C412.939 23.2409 412.939 23.2409 412.929 23.2306C412.722 22.9204 412.535 22.5895 412.39 22.2483C412.245 21.8968 412.121 21.5349 412.048 21.1523C411.966 20.7801 411.924 20.3975 411.924 20.0252C411.924 20.0149 411.924 20.0046 411.924 19.9942C411.924 19.6323 411.955 19.2704 412.017 18.9189C412.017 18.8982 412.028 18.8672 412.038 18.8465C412.111 18.5053 412.204 18.1641 412.328 17.8332C412.328 17.8125 412.349 17.7918 412.349 17.7815C412.484 17.4506 412.649 17.1301 412.846 16.8199C412.846 16.8199 412.846 16.8096 412.846 16.7992C412.856 16.7785 412.877 16.7579 412.887 16.7372C413.001 16.5717 413.126 16.4063 413.25 16.2512C413.302 16.1892 413.354 16.1271 413.416 16.0754C413.519 15.9617 413.613 15.8583 413.727 15.7652C413.789 15.7032 413.851 15.6515 413.913 15.5998C414.027 15.4964 414.151 15.4033 414.265 15.3206C414.317 15.2793 414.379 15.2379 414.431 15.1965C414.607 15.0725 414.783 14.9691 414.969 14.8657C415.021 14.8346 415.073 14.814 415.125 14.7933C415.27 14.7209 415.415 14.6589 415.56 14.5968C415.632 14.5658 415.705 14.5451 415.777 14.5141C415.912 14.4624 416.047 14.4211 416.181 14.39C416.254 14.3694 416.326 14.3487 416.409 14.328C416.575 14.2866 416.741 14.266 416.906 14.2349C416.958 14.2349 417 14.2143 417.052 14.2143C417.259 14.1936 417.476 14.1729 417.694 14.1729C417.745 14.1729 417.797 14.1729 417.849 14.1729C418.046 14.1729 418.243 14.1936 418.439 14.2143C418.502 14.2143 418.564 14.2246 418.626 14.2349C418.864 14.2763 419.102 14.3177 419.341 14.39C419.372 14.39 419.403 14.4107 419.434 14.4211C419.641 14.4831 419.848 14.5658 420.045 14.6485C420.107 14.6795 420.169 14.7002 420.231 14.7312C420.459 14.845 420.687 14.9587 420.905 15.1035C421.216 15.3103 421.506 15.5378 421.775 15.7963C421.785 15.8066 421.806 15.8169 421.816 15.8273C422.065 16.0754 422.293 16.3443 422.49 16.6338C422.51 16.6545 422.531 16.6855 422.541 16.7062C422.738 16.9957 422.904 17.3059 423.049 17.6264C423.059 17.6471 423.07 17.6678 423.08 17.6988C423.225 18.04 423.339 18.3916 423.411 18.7534C423.411 18.7638 423.411 18.7741 423.411 18.7948C423.484 19.1567 423.525 19.5289 423.536 19.8908C423.536 19.9218 423.536 19.9632 423.536 19.9942C423.536 20.3354 423.505 20.6767 423.453 21.0075L423.432 20.9662Z" fill="#212528"/>
<path d="M550.278 117.344C556.524 110.158 559.59 100.976 558.907 91.4839C558.234 81.9919 553.893 73.3375 546.694 67.1025C545.338 65.9341 543.887 64.8691 542.396 63.9179C543.017 61.0847 543.452 58.2826 543.68 55.584C545.151 38.7197 539.029 25.5467 525.978 17.5023C516.469 11.6293 505.987 9.92322 495.67 12.5806C486.182 15.0208 477.875 21.0489 473.586 26.1464L468.438 23.1789L466.843 25.9396L426.975 3.41946C421.692 0.44159 415.28 0.183094 409.759 2.69567H388.898V9.9956H376.033V2.70601H357.699C349.785 2.70601 343.343 9.12705 343.343 17.0267C343.343 22.7653 346.844 27.9766 352.106 30.21V45.8852H351.567L351.329 46.0816C348.884 48.0876 347.476 51.0344 347.476 54.1674V60.8262H345.663V65.0035C345.29 65.0035 344.907 65.0449 344.534 65.1276C343.353 65.3965 342.328 66.0375 341.571 66.9888L329.328 82.4365C327.857 84.246 327.236 86.5931 327.629 88.8886C328.013 91.1116 329.318 93.0555 331.203 94.286L343.591 116.506L347.933 115.245C348.464 115.091 348.769 114.535 348.614 114.004L342.234 92.1663C342.607 91.6493 342.928 91.1013 343.156 90.5119L349.288 75.271H365.602L371.724 90.4809C371.952 91.0599 372.263 91.608 372.646 92.1456L367 111.5L366.5 115L371.289 116.506L383.688 94.2549C385.552 93.0452 386.837 91.122 387.23 88.9196C387.645 86.6138 387.033 84.246 385.552 82.4158L373.299 66.9578C372.553 66.0168 371.527 65.3654 370.336 65.0966C370.274 65.0863 370.222 65.0759 370.16 65.0656V60.7849H368.461L368.482 54.1674C368.482 50.9931 367.073 48.0359 364.629 46.0403L364.38 45.8335H364.287L364.277 31.3267H376.064V24.0164H388.929V31.3163H402.623C403.721 32.7432 404.984 34.0047 406.403 35.049L466.843 79.7171L468.438 77.2562L471.225 79.0554L473.317 75.819C474.902 77.949 475.855 80.048 476.135 82.0746C476.528 84.8767 475.617 87.5858 473.41 90.119C470.096 93.9448 463.933 97.481 457.417 101.234C445.019 108.358 430.952 116.434 428.363 130.424C427.234 136.493 428.363 142.945 431.812 150.142C431.46 151.403 431.18 152.706 430.952 154.081C420.594 154.412 412.017 158.052 406.103 164.669C397.205 174.606 395.351 186.796 400.686 199.99H31.2092C14.0043 199.99 0 213.959 0 231.134C0 248.308 13.9939 262.277 31.2092 262.277H67.266V293.979H91.6285V262.277H391.84V271.283H383.667V293.979H540.469V271.283H537.092V225.757H537.196L537.092 224.826V223.999H536.968C536.865 223.317 536.73 222.655 536.543 222.035C533.84 212.315 522.964 204.612 505.096 199.763L504.982 199.732H502.134V188.316H494.935V181.017L550.278 117.323V117.344ZM347.413 62.5944L368.368 62.5737V64.7967L347.413 64.8174V62.5944ZM344.43 114.438L333.823 95.413C333.989 95.4544 334.155 95.4647 334.31 95.4957C334.435 95.5164 334.549 95.5371 334.673 95.5578C334.89 95.5784 335.108 95.5888 335.336 95.5991C335.419 95.5991 335.512 95.6198 335.595 95.6198C335.605 95.6198 335.615 95.6198 335.626 95.6198C335.781 95.6198 335.926 95.5991 336.082 95.5991C336.237 95.5991 336.382 95.5888 336.527 95.5681C336.682 95.5474 336.827 95.5164 336.983 95.4957C337.128 95.475 337.283 95.444 337.428 95.413C337.573 95.382 337.718 95.3303 337.863 95.2889C338.008 95.2476 338.153 95.2062 338.298 95.1545C338.443 95.1028 338.578 95.0408 338.713 94.9891C338.858 94.927 339.003 94.8753 339.137 94.803C339.272 94.7409 339.396 94.6685 339.531 94.5962C339.666 94.5238 339.811 94.4411 339.945 94.3583C340.069 94.2756 340.183 94.1929 340.308 94.1102C340.442 94.0171 340.577 93.9241 340.701 93.8207C340.732 93.7897 340.774 93.769 340.815 93.738L346.678 113.808L344.42 114.459L344.43 114.438ZM341.499 89.8812C341.281 90.4499 340.96 90.9876 340.567 91.4735C338.65 93.8517 335.315 94.5341 332.581 93.0762C332.487 93.0245 332.404 92.9831 332.322 92.9314C330.757 91.9802 329.67 90.3982 329.359 88.5991C329.048 86.7999 329.535 84.9698 330.695 83.5429L342.949 68.0848C343.446 67.4541 344.13 67.0301 344.917 66.8544C345.166 66.8027 345.414 66.7717 345.663 66.7717C346.409 66.7717 347.134 67.0095 347.745 67.4644C348.998 68.4053 349.475 70.0701 348.895 71.5176L341.509 89.8812H341.499ZM349.972 73.5236L350.521 72.1691C351.298 70.2252 350.821 68.0228 349.381 66.5649L365.468 66.5442C364.028 68.0021 363.541 70.2045 364.318 72.1484L364.867 73.5132H349.972V73.5236ZM370.409 114.438L368.151 113.787L374.013 93.7173C374.075 93.769 374.148 93.8103 374.21 93.862C374.21 93.862 374.22 93.8724 374.231 93.8827C376.157 95.382 378.643 95.9507 381.015 95.4233L370.409 114.449V114.438ZM371.89 68.0745L384.144 83.5325C385.304 84.9698 385.78 86.8309 385.459 88.6301C385.138 90.4189 384.071 91.9905 382.528 92.9108L382.217 93.0865C379.513 94.5341 376.168 93.8517 374.262 91.4735C373.848 90.9462 373.537 90.4189 373.319 89.8605L365.934 71.5176C365.354 70.0701 365.83 68.4053 367.084 67.4541C367.674 66.9991 368.399 66.7613 369.145 66.7613C369.393 66.7613 369.652 66.7923 369.901 66.844C370.688 67.0198 371.372 67.4541 371.869 68.0745H371.89ZM557.146 91.6079C557.788 100.624 554.877 109.361 548.942 116.186L494.935 178.339V165.3C494.935 164.742 494.924 164.194 494.893 163.646C494.893 163.573 494.883 163.491 494.873 163.418C494.841 162.942 494.81 162.467 494.759 161.991C494.759 161.991 494.759 161.981 494.759 161.971C494.002 154.557 490.75 147.691 485.405 142.366C482.774 139.75 479.781 137.641 476.528 136.08C476.528 136.08 476.507 136.08 476.497 136.069C476.155 135.904 475.813 135.759 475.472 135.604C475.306 135.532 475.14 135.459 474.974 135.387C474.798 135.314 474.612 135.242 474.436 135.17C470.717 133.691 466.667 132.864 462.42 132.864C453.937 132.864 446.106 136.142 440.254 141.58C440.161 141.663 440.078 141.746 439.984 141.829C439.518 142.273 439.063 142.718 438.628 143.193C438.545 143.276 438.472 143.369 438.389 143.462C438.048 143.834 437.726 144.207 437.405 144.6C437.25 144.775 437.105 144.962 436.96 145.137C436.628 145.561 436.297 145.985 435.986 146.419C435.81 146.668 435.634 146.916 435.468 147.174C435.303 147.412 435.147 147.65 434.992 147.898C434.64 148.446 434.308 149.015 433.987 149.594C433.915 149.718 433.852 149.832 433.78 149.956C433.718 150.08 433.645 150.193 433.583 150.307C433.832 149.48 434.039 148.839 434.256 148.229L434.381 147.898C435.8 144.114 437.861 140.65 440.523 137.589L497.669 71.8278C500.083 69.0568 502.89 66.72 506.018 64.8691C514.76 59.6992 525.678 58.7479 535.218 62.3152C537.175 63.039 539.092 63.9696 540.915 65.0863C542.531 66.0582 544.084 67.1853 545.524 68.4364C552.371 74.3611 556.493 82.5916 557.136 91.6079H557.146ZM419.517 188.337V200H409.5C405.668 192.318 404.829 185.111 406.963 178.69C407.988 175.609 409.697 172.714 412.09 170.046C415.974 165.703 421.35 163.129 428.104 162.374C428.124 162.374 428.135 162.374 428.155 162.374C428.777 162.301 429.429 162.27 430.082 162.239C430.061 162.477 430.051 162.694 430.03 162.932C430.02 163.118 429.999 163.304 429.989 163.49C429.947 164.111 429.927 164.731 429.927 165.331V188.347H419.517V188.337ZM432.288 142.18C432.226 141.942 432.154 141.715 432.092 141.477C431.988 141.084 431.905 140.701 431.822 140.309C431.76 140.019 431.698 139.73 431.657 139.45C431.594 139.109 431.543 138.758 431.491 138.416C431.449 138.096 431.408 137.775 431.377 137.455C431.346 137.155 431.315 136.845 431.294 136.545C431.273 136.183 431.263 135.821 431.253 135.459C431.253 135.201 431.242 134.942 431.242 134.694C431.242 134.26 431.273 133.825 431.304 133.391C431.315 133.215 431.325 133.04 431.335 132.864C431.398 132.254 431.48 131.644 431.584 131.034C433.884 118.595 447.194 110.923 459.023 104.109C465.787 100.221 472.188 96.5504 475.865 92.2904C478.113 89.7054 479.315 86.924 479.47 84.0082C479.511 83.212 479.501 82.4055 479.387 81.5886C478.983 78.6832 477.574 75.7363 475.202 72.8205L476 71.59L488.533 79.6344L439.156 136.462C438.576 137.124 438.027 137.817 437.509 138.52C437.499 138.54 437.478 138.561 437.467 138.571C435.852 140.743 434.495 143.069 433.407 145.551C433.19 144.993 433.003 144.445 432.817 143.896C432.775 143.772 432.734 143.659 432.692 143.535C432.547 143.08 432.413 142.625 432.288 142.17V142.18ZM496.354 70.6698C496.354 70.6698 496.354 70.6801 496.354 70.6905L495.743 71.3936L489.735 78.2902L475.503 69.1498L474.208 68.3433L484.887 51.8409L487.674 53.6401L489.548 54.8291L503.957 64.0936C503.687 64.2694 503.428 64.4659 503.159 64.652C502.921 64.8174 502.672 64.9829 502.434 65.1586C501.926 65.5205 501.44 65.9031 500.953 66.296C500.725 66.4821 500.487 66.6683 500.259 66.8544C499.751 67.2783 499.275 67.7229 498.788 68.1779C498.601 68.3536 498.415 68.5191 498.229 68.6949C497.586 69.3359 496.955 69.9873 496.364 70.6801L496.354 70.6698ZM491.05 45.1304L487.104 51.1688L485.83 50.352L489.756 44.3032L491.05 45.1304ZM535.611 54.8705C535.446 56.7006 535.197 58.5205 534.855 60.2886C525.232 57.0212 514.408 58.0241 505.583 63.0493L488.606 52.1408L493.018 45.3165L493.485 44.6134L492.801 44.1791L490.698 42.8246L492.003 40.798L492.293 40.3534L490.688 39.4538L483.624 35.4626L485.136 32.8466H485.115L485.125 32.8156L480.703 30.272C483.644 27.2321 489.818 22.4241 497.648 20.4182C505.883 18.2882 513.973 19.622 521.69 24.3887C525.595 26.7978 528.692 29.7447 530.981 33.2189C534.793 39.0195 536.336 46.2678 535.591 54.9015L535.611 54.8705ZM496.105 14.297C505.945 11.7637 515.951 13.3974 525.046 19.0119C537.486 26.6841 543.318 39.2884 541.919 55.4495C541.712 57.8897 541.339 60.4023 540.801 62.9563C540.687 62.8942 540.562 62.8322 540.449 62.7701C540.117 62.5944 539.786 62.4186 539.454 62.2531C538.978 62.0153 538.501 61.7879 538.025 61.5707C537.693 61.4156 537.362 61.2709 537.03 61.1364C536.875 61.0744 536.72 60.9917 536.564 60.9296C536.937 58.9444 537.217 56.9695 537.383 55.0463C538.17 45.9472 536.533 38.3061 532.483 32.1849C530.059 28.5143 526.776 25.3916 522.632 22.8273C514.491 17.8022 505.935 16.4063 497.213 18.65C489.217 20.7077 482.598 25.5777 479.107 29.3414L475.13 27.046C479.294 22.2173 487.145 16.6028 496.105 14.297ZM469.081 25.5984L482.733 33.467L482.091 34.5734L468.376 26.8289L469.091 25.5984H469.081ZM366.69 54.1984L366.669 60.8159H349.216L349.226 54.1777C349.226 51.6755 350.303 49.3077 352.199 47.643H363.717C365.602 49.287 366.68 51.6548 366.68 54.1881L366.69 54.1984ZM362.495 45.8645H353.877V30.8304C355.11 31.1716 356.384 31.3474 357.699 31.3474H362.485V45.8542L362.495 45.8645ZM374.272 29.5999H364.245V29.5793H357.699C356.176 29.5793 354.695 29.3104 353.297 28.7831L352.934 28.6487C348.242 26.7255 345.104 22.1035 345.104 17.0267C345.104 10.099 350.749 4.46379 357.699 4.46379H374.272V29.5999ZM376.033 22.2897V11.7637H388.898V22.2897H376.033ZM390.648 29.5793V4.46379H406.673C406.59 4.51549 406.517 4.58787 406.445 4.63956C406.124 4.87738 405.813 5.1152 405.512 5.37369C405.419 5.45641 405.326 5.51845 405.233 5.60117C404.839 5.94238 404.456 6.30428 404.093 6.67651C403.99 6.77991 403.897 6.88331 403.803 6.98671C403.524 7.28656 403.254 7.59676 402.995 7.91729C402.902 8.03103 402.799 8.15511 402.705 8.26885C402.384 8.6721 402.084 9.08569 401.804 9.51997C401.794 9.54065 401.773 9.56133 401.763 9.57167C401.504 9.96458 401.266 10.3678 401.048 10.7814C400.986 10.8952 400.924 11.0192 400.862 11.1433C400.706 11.4328 400.561 11.7224 400.427 12.0222C400.354 12.1773 400.292 12.3427 400.23 12.4978C400.116 12.7563 400.012 13.0252 399.909 13.294C399.847 13.4698 399.784 13.6456 399.722 13.8317C399.639 14.0902 399.557 14.3383 399.474 14.5968C399.422 14.7829 399.37 14.9691 399.329 15.1655C399.266 15.4137 399.204 15.6722 399.153 15.9203C399.111 16.1168 399.08 16.3132 399.039 16.5097C398.997 16.7579 398.956 17.0163 398.914 17.2645C398.883 17.461 398.863 17.6574 398.842 17.8642C398.811 18.1124 398.79 18.3709 398.78 18.619C398.769 18.8155 398.759 19.0223 398.749 19.2187C398.749 19.4772 398.749 19.7254 398.749 19.9839C398.749 20.1803 398.749 20.3768 398.749 20.5836C398.749 20.8421 398.78 21.1006 398.8 21.3591C398.811 21.5555 398.831 21.752 398.852 21.9381C398.883 22.2069 398.925 22.4654 398.956 22.7343C398.987 22.9204 399.008 23.1065 399.039 23.2823C399.09 23.5615 399.153 23.8406 399.215 24.1198C399.256 24.2853 399.287 24.4507 399.329 24.6161C399.411 24.9367 399.505 25.2469 399.608 25.5571C399.65 25.6811 399.681 25.8052 399.712 25.919C399.857 26.3532 400.023 26.7875 400.199 27.2114C400.199 27.2114 400.199 27.2218 400.199 27.2321C400.375 27.6457 400.561 28.0593 400.768 28.4626C400.831 28.5866 400.903 28.7107 400.965 28.8244C401.1 29.0726 401.224 29.3208 401.369 29.5689H390.648V29.5793ZM466.336 77.2149L407.398 33.6635C405.999 32.6398 404.756 31.3887 403.71 29.9515C400.095 24.9573 399.494 18.3605 401.97 12.8391C402.322 12.0532 402.736 11.2881 403.213 10.554C403.317 10.3885 403.43 10.2334 403.544 10.0783C404.166 9.18909 404.87 8.36191 405.637 7.6071C406.994 6.2836 408.568 5.18758 410.288 4.38107C412.608 3.29539 415.115 2.74737 417.621 2.74737C420.553 2.74737 423.474 3.49184 426.084 4.9601L489.787 40.9427L466.315 77.1942L466.336 77.2149ZM470.655 76.6462L469.35 75.8087L473.224 69.8219L474.519 70.6491L473.99 71.4659L473.763 71.8175L473.017 72.9652L472.105 74.3921L470.645 76.6462H470.655ZM407.377 165.848C412.898 159.665 420.936 156.222 430.662 155.849C430.527 157.018 430.445 158.217 430.434 159.468H430.455C430.393 159.789 430.341 160.099 430.3 160.399C430.3 160.399 430.3 160.399 430.3 160.409C422.003 160.812 415.436 163.646 410.785 168.847C408.268 171.649 406.455 174.678 405.347 177.894C403.027 184.573 403.762 192.059 407.543 199.99H402.56C397.164 187.21 398.821 175.412 407.387 165.838L407.377 165.848ZM1.76089 231.144C1.76089 214.942 14.9676 201.748 31.2092 201.748H421.215C437.447 201.748 450.664 214.931 450.664 231.144C450.664 247.357 437.457 260.54 421.215 260.54H31.2092C14.9779 260.54 1.76089 247.357 1.76089 231.144ZM89.8572 292.242H69.0166V262.298H89.8572V292.242ZM538.698 273.062V292.242H385.418V273.062H538.698ZM535.321 271.304H393.59V262.298H421.205C438.41 262.298 452.414 248.329 452.414 231.154C452.414 229.324 452.249 227.525 451.938 225.788H535.321V271.314V271.304ZM534.834 222.541C534.979 223.017 535.093 223.513 535.176 224.02H451.565C449.058 213.391 441.093 204.84 430.786 201.51H504.723C521.648 206.122 532.328 213.577 534.824 222.531L534.834 222.541ZM500.362 190.095V199.742H421.267V190.095H500.362ZM493.174 188.337H431.688V165.321C431.688 164.09 431.77 162.829 431.936 161.485V161.381C432.009 160.844 432.102 160.264 432.216 159.644V159.613C433.407 153.285 436.504 147.722 440.855 143.462C446.448 137.992 454.092 134.673 462.4 134.673H462.462C466.47 134.673 470.365 135.439 473.97 136.886C474.073 136.927 474.177 136.958 474.27 137.01C474.498 137.103 474.715 137.207 474.943 137.31C475.202 137.424 475.461 137.538 475.72 137.662C475.793 137.693 475.865 137.734 475.938 137.775C485.239 142.335 491.92 151.445 493.018 162.188C493.018 162.188 493.018 162.198 493.018 162.208C493.06 162.663 493.091 163.108 493.122 163.563C493.122 163.635 493.132 163.697 493.132 163.77C493.163 164.287 493.174 164.814 493.174 165.331V188.347V188.337Z" fill="#212528"/>
<path d="M537.248 78.0007C536.398 77.2666 535.497 76.6462 534.575 76.0775C534.42 75.9845 534.275 75.8811 534.12 75.788C533.954 75.6949 533.788 75.6226 533.622 75.5398C530.484 73.8751 526.931 73.0996 523.295 73.3581C518.178 73.72 513.507 76.0568 510.151 79.9239C508.96 81.2991 508.017 82.7984 507.282 84.3597C507.23 84.4735 507.168 84.5872 507.116 84.7009C506.981 85.0008 506.878 85.311 506.753 85.6212C506.639 85.9107 506.525 86.1899 506.422 86.4897C506.36 86.6655 506.318 86.8516 506.267 87.0377C506.142 87.4617 506.018 87.8856 505.914 88.3199C505.894 88.4026 505.883 88.4853 505.873 88.5784C505.769 89.1057 505.666 89.633 505.604 90.1604C505.604 90.181 505.604 90.2121 505.604 90.2327C505.469 91.4115 505.427 92.6212 505.51 93.831C505.635 95.6405 506.028 97.3983 506.629 99.063C506.65 99.125 506.67 99.187 506.691 99.2387C506.857 99.673 507.043 100.097 507.24 100.511C507.313 100.666 507.364 100.821 507.437 100.965C507.582 101.265 507.758 101.555 507.924 101.844C508.069 102.113 508.214 102.382 508.369 102.641C508.452 102.775 508.556 102.909 508.649 103.044C509.591 104.46 510.721 105.794 512.067 106.963C515.589 110.013 520.001 111.657 524.621 111.657C525.087 111.657 525.543 111.636 526.009 111.605C526.185 111.595 526.361 111.564 526.537 111.543C526.662 111.533 526.786 111.512 526.9 111.502C527.428 111.44 527.957 111.357 528.485 111.254C528.619 111.223 528.764 111.192 528.899 111.161C529.407 111.047 529.904 110.912 530.391 110.768C530.546 110.716 530.691 110.675 530.846 110.623C531.313 110.468 531.768 110.292 532.224 110.096C532.4 110.023 532.576 109.951 532.742 109.868C533.146 109.682 533.54 109.475 533.933 109.258C534.14 109.144 534.348 109.031 534.555 108.907C534.886 108.71 535.207 108.493 535.528 108.265C535.777 108.1 536.015 107.935 536.253 107.759C536.502 107.573 536.73 107.366 536.978 107.169C537.258 106.932 537.548 106.704 537.818 106.446C537.911 106.363 537.994 106.259 538.087 106.166C538.46 105.805 538.833 105.443 539.174 105.05C542.53 101.183 544.188 96.2402 543.825 91.1323C543.463 86.0244 541.132 81.3612 537.258 78.0111L537.248 78.0007ZM533.892 107.242C533.726 107.345 533.55 107.428 533.384 107.521C533.042 107.717 532.711 107.914 532.359 108.09C532.348 108.09 532.338 108.09 532.328 108.1C526.227 111.068 518.676 110.323 513.238 105.608C511.984 104.522 510.917 103.292 510.037 101.937C509.985 101.855 509.923 101.772 509.871 101.689C509.705 101.42 509.56 101.141 509.405 100.862C509.281 100.635 509.136 100.407 509.022 100.169C508.939 99.9936 508.866 99.8178 508.794 99.642C508.639 99.2905 508.473 98.9492 508.338 98.5873C508.307 98.4943 508.276 98.3909 508.245 98.2978C508.09 97.8635 507.945 97.4189 507.82 96.9743C507.81 96.933 507.8 96.8813 507.789 96.8399C507.396 95.3199 507.209 93.7586 507.23 92.1973C507.23 92.1353 507.23 92.0629 507.23 92.0009C507.24 91.5149 507.282 91.0289 507.333 90.5429C507.333 90.4706 507.333 90.3982 507.354 90.3258C507.406 89.8812 507.489 89.4469 507.582 89.0126C507.603 88.8989 507.623 88.7748 507.644 88.6611C507.727 88.3095 507.831 87.958 507.934 87.6064C507.996 87.41 508.038 87.2032 508.1 87.0067C508.172 86.7792 508.276 86.5518 508.359 86.3243C508.483 86.0141 508.587 85.6936 508.732 85.3834C508.763 85.3213 508.794 85.2593 508.825 85.1973C509.509 83.7187 510.399 82.3228 511.508 81.051C512.792 79.562 514.284 78.3523 515.9 77.4217C515.9 77.4217 515.9 77.4217 515.91 77.4217C516.438 77.1115 516.987 76.8323 517.547 76.5842C517.547 76.5842 517.557 76.5842 517.567 76.5842C518.127 76.336 518.686 76.1189 519.256 75.9328C519.266 75.9328 519.276 75.9327 519.287 75.9224C519.846 75.7466 520.416 75.5915 520.996 75.4675C521.027 75.4675 521.048 75.4571 521.079 75.4468C521.638 75.333 522.197 75.24 522.767 75.1779C522.809 75.1779 522.86 75.1676 522.902 75.1573C523.492 75.0952 524.083 75.0642 524.683 75.0642C527.521 75.0642 530.37 75.7673 532.96 77.1632C533.156 77.2666 533.353 77.3597 533.55 77.4734C533.571 77.4837 533.591 77.5044 533.612 77.5147C534.482 78.0317 535.311 78.6315 536.098 79.3139C539.62 82.3538 541.733 86.5931 542.064 91.2254C542.396 95.868 540.894 100.355 537.838 103.861C536.813 105.039 535.642 106.053 534.379 106.901C534.223 107.004 534.068 107.128 533.912 107.221L533.892 107.242Z" fill="#212528"/>
<path d="M532.411 83.5532C530.028 81.4852 526.973 80.4616 523.813 80.6891C521.048 80.8855 518.5 82.0126 516.521 83.8841C516.241 84.1529 515.972 84.4321 515.713 84.732C515.547 84.9284 515.392 85.1352 515.237 85.3317C515.154 85.4351 515.061 85.5385 514.988 85.6522C514.957 85.6936 514.936 85.7349 514.905 85.7763C513.383 87.9787 512.647 90.605 512.844 93.3037C513.072 96.4573 514.512 99.3215 516.904 101.389C519.069 103.271 521.793 104.285 524.642 104.285C524.642 104.285 524.642 104.285 524.652 104.285C524.932 104.285 525.212 104.285 525.491 104.254C528.257 104.057 530.805 102.93 532.783 101.059C533.063 100.79 533.332 100.511 533.591 100.211C535.663 97.8325 536.678 94.7823 536.461 91.6286C536.243 88.475 534.793 85.6108 532.411 83.5429V83.5532ZM532.276 99.063C530.515 101.09 528.071 102.32 525.377 102.506C522.684 102.692 520.095 101.834 518.065 100.066C516.034 98.3082 514.802 95.868 514.615 93.1796C514.45 90.8325 515.092 88.5577 516.438 86.6655C516.635 86.3967 516.832 86.1382 517.06 85.8797C518.821 83.8531 521.265 82.6226 523.958 82.4365C524.207 82.4158 524.445 82.4055 524.694 82.4055C527.118 82.4055 529.438 83.2637 531.281 84.8664C531.54 85.0835 531.779 85.3213 532.007 85.5591C533.612 87.2445 534.565 89.4056 534.731 91.7527C534.751 92.0836 534.762 92.4248 534.752 92.7557C534.71 94.41 534.254 96.0127 533.446 97.4396C533.115 98.0083 532.732 98.5563 532.297 99.063H532.276Z" fill="#212528"/>
<path d="M468.304 157.7C466.387 156.046 463.943 155.229 461.416 155.405C460.287 155.487 459.209 155.767 458.205 156.222C458.091 156.273 457.966 156.315 457.852 156.377C457.801 156.397 457.759 156.428 457.718 156.449C456.672 156.987 455.719 157.721 454.9 158.651C451.482 162.601 451.907 168.588 455.853 172.011C457.645 173.562 459.862 174.316 462.068 174.316C464.067 174.316 466.046 173.696 467.703 172.476C468.262 172.073 468.78 171.597 469.257 171.059C472.675 167.12 472.25 161.133 468.304 157.7ZM457.024 170.687C455.46 169.343 454.527 167.461 454.382 165.414C454.237 163.366 454.9 161.371 456.257 159.81C456.734 159.261 457.283 158.786 457.873 158.403C457.925 158.372 457.977 158.331 458.028 158.3C458.163 158.217 458.308 158.134 458.453 158.062C458.557 158.01 458.66 157.948 458.764 157.897C458.878 157.845 458.981 157.793 459.095 157.752C459.24 157.69 459.385 157.638 459.541 157.586C459.624 157.555 459.717 157.524 459.8 157.504C459.976 157.452 460.162 157.4 460.338 157.359C460.411 157.338 460.473 157.328 460.545 157.318C460.753 157.276 460.96 157.245 461.167 157.225C461.219 157.225 461.271 157.214 461.322 157.204C461.561 157.183 461.788 157.173 462.027 157.163C462.047 157.163 462.078 157.163 462.099 157.163C462.306 157.163 462.514 157.163 462.721 157.194C462.731 157.194 462.752 157.194 462.762 157.194C464.326 157.328 465.859 157.938 467.133 159.044C470.344 161.826 470.697 166.706 467.91 169.922C467.527 170.356 467.113 170.739 466.657 171.07C463.808 173.148 459.789 173.086 457.024 170.697V170.687Z" fill="#212528"/>
<path d="M475.399 172.321C475.399 172.321 475.399 172.3 475.409 172.29C476.86 169.715 477.523 166.779 477.305 163.759C477.015 159.706 475.161 156.015 472.085 153.357C472.074 153.357 472.064 153.337 472.043 153.326C468.967 150.679 465.051 149.377 461.001 149.666C456.93 149.956 453.222 151.817 450.55 154.888C450.208 155.281 449.887 155.684 449.597 156.108C449.576 156.139 449.555 156.17 449.535 156.201C447.556 159.044 446.603 162.457 446.862 165.962C447.152 170.015 449.017 173.717 452.093 176.364C454.973 178.856 458.536 180.076 462.079 180.076C466.274 180.076 470.438 178.349 473.441 175.009C473.504 174.947 473.566 174.885 473.628 174.823C473.97 174.43 474.28 174.027 474.581 173.603C474.622 173.541 474.664 173.468 474.705 173.406C474.954 173.045 475.182 172.683 475.399 172.31V172.321ZM473.856 171.452C473.669 171.783 473.452 172.114 473.234 172.434C473.193 172.486 473.162 172.548 473.131 172.6C472.872 172.972 472.592 173.334 472.292 173.675C467.413 179.279 458.867 179.889 453.253 175.03C448.033 170.491 447.152 162.798 450.975 157.235C451.006 157.194 451.026 157.152 451.057 157.111C451.306 156.77 451.565 156.428 451.845 156.098C451.865 156.077 451.876 156.056 451.896 156.025C452.218 155.653 452.559 155.312 452.912 154.981C452.974 154.929 453.036 154.877 453.098 154.815C453.398 154.547 453.709 154.278 454.03 154.04C454.082 153.999 454.144 153.957 454.206 153.916C454.548 153.668 454.9 153.44 455.252 153.223C455.294 153.202 455.325 153.182 455.366 153.161C455.75 152.944 456.143 152.737 456.547 152.561C456.568 152.561 456.578 152.541 456.599 152.541C457.024 152.354 457.459 152.189 457.894 152.044H457.904C458.35 151.9 458.805 151.775 459.271 151.672C459.727 151.579 460.193 151.507 460.67 151.455C461.136 151.403 461.612 151.383 462.079 151.383C465.217 151.383 468.366 152.458 470.914 154.671C475.824 158.92 476.911 165.972 473.856 171.432C473.856 171.432 473.856 171.442 473.856 171.452Z" fill="#212528"/>
<path d="M496.706 243.066C499.316 243.066 501.45 240.946 501.45 238.33C501.45 235.714 499.327 233.595 496.706 233.595C494.085 233.595 491.962 235.714 491.962 238.33C491.962 240.946 494.096 243.066 496.706 243.066ZM496.706 235.352C498.353 235.352 499.689 236.686 499.689 238.33C499.689 239.974 498.353 241.308 496.706 241.308C495.059 241.308 493.723 239.974 493.723 238.33C493.723 236.686 495.059 235.352 496.706 235.352Z" fill="#212528"/>
<path d="M496.053 268.15H521.037V246.685H496.053V268.15ZM497.814 248.443H519.276V266.393H497.814V248.443Z" fill="#212528"/>
<path d="M470.458 243.066C473.069 243.066 475.202 240.946 475.202 238.33C475.202 235.714 473.079 233.595 470.458 233.595C467.838 233.595 465.714 235.714 465.714 238.33C465.714 240.946 467.848 243.066 470.458 243.066ZM470.458 235.352C472.105 235.352 473.441 236.686 473.441 238.33C473.441 239.974 472.105 241.308 470.458 241.308C468.811 241.308 467.475 239.974 467.475 238.33C467.475 236.686 468.811 235.352 470.458 235.352Z" fill="#212528"/>
<path d="M483.582 243.066C486.192 243.066 488.326 240.946 488.326 238.33C488.326 235.714 486.203 233.595 483.582 233.595C480.961 233.595 478.838 235.714 478.838 238.33C478.838 240.946 480.972 243.066 483.582 243.066ZM483.582 235.352C485.229 235.352 486.565 236.686 486.565 238.33C486.565 239.974 485.229 241.308 483.582 241.308C481.935 241.308 480.599 239.974 480.599 238.33C480.599 236.686 481.935 235.352 483.582 235.352Z" fill="#212528"/>
<path d="M443.465 231.144C443.465 218.467 433.138 208.159 420.439 208.159H32.8872C20.1881 208.159 9.86099 218.467 9.86099 231.144C9.86099 243.821 20.1881 254.13 32.8872 254.13H420.428C433.127 254.13 443.454 243.821 443.454 231.144H443.465ZM420.439 252.382H32.8872C21.1618 252.382 11.6219 242.859 11.6219 231.154C11.6219 219.45 21.1618 209.927 32.8872 209.927H420.428C432.154 209.927 441.694 219.45 441.694 231.154C441.694 242.859 432.154 252.382 420.428 252.382H420.439Z" fill="#212528"/>
</svg>
