<svg width="127" height="127" viewBox="0 0 127 127" fill="none" xmlns="http://www.w3.org/2000/svg">
<mask id="mask0_70_11721" style="mask-type:alpha" maskUnits="userSpaceOnUse" x="0" y="0" width="127" height="127">
<rect width="127" height="127" fill="#D9D9D9"/>
</mask>
<g mask="url(#mask0_70_11721)">
<path d="M126.964 45.6418H126.959C126.977 45.2007 126.992 44.7596 126.992 44.3159C126.992 26.4703 112.107 11 93.7411 11C80.3141 11 68.7536 19.7388 63.5052 30.8736H63.4974C58.249 19.7388 46.6885 11 33.2615 11C14.8958 11 0.0076398 26.4703 0.0076398 44.3159C0.0076398 44.7596 0.0231295 45.2007 0.0412009 45.6418H0.0360376C0.0360376 45.6418 -1.8408 66.8414 21.4945 89.9882C32.1049 100.737 43.97 110.95 63.5 127C83.03 110.95 94.8951 100.737 105.506 89.9882C128.841 66.8414 126.964 45.6418 126.964 45.6418Z" fill="#212528"/>
</g>
</svg>
