<svg width="208" height="34" viewBox="0 0 208 34" fill="none" xmlns="http://www.w3.org/2000/svg">
<path d="M26.7542 8.86833C29.4587 8.86833 31.5946 9.74667 33.1618 11.5175C34.7291 13.2742 35.5196 15.6967 35.5196 18.7708V33.3342H27.7389V19.6775C27.7389 17.4533 26.7819 16.3483 24.854 16.3483C23.8 16.3483 22.9955 16.7025 22.4546 17.425C21.9137 18.1333 21.6363 19.1108 21.6363 20.3575V33.3483H13.8972V19.6917C13.8972 17.4675 12.9124 16.3625 10.9569 16.3625C9.90278 16.3625 9.09835 16.7167 8.55744 17.4392C8.01654 18.1475 7.73915 19.125 7.73915 20.3717V33.3625H0V9.53416H7.73915V11.7725C9.1677 9.83167 11.262 8.86833 14.0359 8.86833C16.8098 8.86833 18.696 9.88833 19.9997 11.9142C21.6086 9.88833 23.8693 8.86833 26.7542 8.86833Z" fill="#212528"/>
<path d="M46.1853 24.3383C46.9619 26.2792 48.6956 27.2425 51.4002 27.2425C53.0784 27.2425 54.493 26.69 55.6442 25.5708L61.2336 29.5658C58.9313 32.5125 55.5887 33.9858 51.206 33.9858C47.2532 33.9858 44.1048 32.81 41.7193 30.4442C39.3476 28.0783 38.1548 25.0892 38.1548 21.4767C38.1548 17.8642 39.3199 14.8892 41.6499 12.4808C43.98 10.0725 46.9481 8.86833 50.5541 8.86833C54.1602 8.86833 56.9063 10.0583 59.1809 12.4383C61.4416 14.8183 62.5789 17.8075 62.5789 21.3917C62.5789 22.44 62.468 23.4175 62.2599 24.3383H46.1853ZM46.0882 18.87H55.034C54.4098 16.6458 52.9535 15.5408 50.6512 15.5408C48.3489 15.5408 46.74 16.6458 46.0882 18.87Z" fill="#212528"/>
<path d="M97.946 9.53416H105.685V33.3342H97.946V31.1383C96.3649 33.0367 94.1596 34 91.3303 34C88.2235 34 85.6161 32.7958 83.5218 30.4017C81.4275 28.0075 80.3734 25.0183 80.3734 21.4342C80.3734 17.85 81.4275 14.8608 83.5218 12.4667C85.6161 10.0725 88.2235 8.86833 91.3303 8.86833C94.1596 8.86833 96.3649 9.8175 97.946 11.73V9.53416ZM89.5134 25.2025C90.4149 26.1517 91.5938 26.6333 93.0501 26.6333C94.5064 26.6333 95.6853 26.1517 96.5868 25.2025C97.4883 24.2533 97.9321 22.9925 97.9321 21.4342C97.9321 19.8758 97.4744 18.6292 96.5868 17.68C95.6853 16.7308 94.5064 16.2492 93.0501 16.2492C91.5938 16.2492 90.4149 16.7308 89.5134 17.68C88.6119 18.6292 88.168 19.89 88.168 21.4342C88.168 22.9783 88.6119 24.2392 89.5134 25.2025Z" fill="#212528"/>
<path d="M141.135 8.9675C144.589 8.9675 147.377 10.2142 149.499 12.7075C151.621 15.2008 152.689 18.1475 152.689 21.5333C152.689 21.8875 152.661 22.3692 152.592 23.0067H132.134C132.439 25.415 133.452 27.3275 135.144 28.7442C136.836 30.1608 138.93 30.8692 141.413 30.8692C143.188 30.8692 144.714 30.5008 146.004 29.75C147.293 28.9992 148.264 28.0358 148.916 26.8175L151.621 28.4325C150.594 30.1183 149.194 31.45 147.432 32.4275C145.657 33.405 143.646 33.9008 141.371 33.9008C137.71 33.9008 134.728 32.725 132.425 30.3733C130.123 28.0217 128.972 25.0467 128.972 21.42C128.972 17.7933 130.109 14.9033 132.37 12.5233C134.631 10.1433 137.557 8.95333 141.135 8.95333V8.9675ZM141.135 12.0133C138.708 12.0133 136.683 12.75 135.047 14.2233C133.41 15.6967 132.439 17.6092 132.134 19.9608H149.513C149.207 17.4533 148.25 15.4983 146.669 14.11C145.088 12.7075 143.23 12.0133 141.122 12.0133H141.135Z" fill="#212528"/>
<path d="M177.251 9.53417H180.33V33.3342H177.251V28.6733C175.102 32.1583 171.967 33.915 167.834 33.915C164.505 33.915 161.676 32.7108 159.332 30.3025C156.988 27.8942 155.809 24.9333 155.809 21.4483C155.809 17.9633 156.988 15.0025 159.332 12.5942C161.676 10.1858 164.519 8.98167 167.834 8.98167C171.967 8.98167 175.102 10.7242 177.251 14.2233V9.5625V9.53417ZM161.551 28.1208C163.327 29.9483 165.49 30.855 168.07 30.855C170.65 30.855 172.827 29.9483 174.589 28.1208C176.364 26.2933 177.251 24.0692 177.251 21.4342C177.251 18.7992 176.364 16.575 174.589 14.7475C172.813 12.92 170.636 12.0133 168.07 12.0133C165.504 12.0133 163.313 12.92 161.551 14.7475C159.79 16.575 158.888 18.7992 158.888 21.4342C158.888 24.0692 159.776 26.2933 161.551 28.1208Z" fill="#212528"/>
<path d="M204.921 0H208V33.32H204.921V28.6592C202.771 32.1442 199.637 33.9008 195.504 33.9008C192.175 33.9008 189.346 32.6967 187.002 30.2883C184.658 27.88 183.479 24.9192 183.479 21.4342C183.479 17.9492 184.658 14.9883 187.002 12.58C189.346 10.1717 192.189 8.9675 195.504 8.9675C199.637 8.9675 202.771 10.71 204.921 14.2092V0ZM189.221 28.1208C190.996 29.9483 193.16 30.855 195.739 30.855C198.319 30.855 200.497 29.9483 202.258 28.1208C204.033 26.2933 204.921 24.0692 204.921 21.4342C204.921 18.7992 204.033 16.575 202.258 14.7475C200.483 12.92 198.305 12.0133 195.739 12.0133C193.174 12.0133 190.982 12.92 189.221 14.7475C187.459 16.575 186.558 18.7992 186.558 21.4342C186.558 24.0692 187.445 26.2933 189.221 28.1208Z" fill="#212528"/>
<path d="M78.0711 17.0567V9.52H73.1197V0H65.4221V27.4833C65.4221 29.1125 66.0601 30.5858 67.2807 31.7192C68.4457 32.81 69.8604 33.3625 71.497 33.3625H78.0711V25.7975H73.1197V17.0708H78.0711V17.0567Z" fill="#212528"/>
<path d="M113.882 30.4583H127.89V33.4475H110.817V0H113.882V30.4583Z" fill="#212528"/>
</svg>
