<svg width="121" height="92" viewBox="0 0 121 92" fill="none" xmlns="http://www.w3.org/2000/svg">
<g clip-path="url(#clip0_70_11620)">
<path d="M74.1701 33.6075L69.8677 38.8425C68.205 40.6619 66.3023 42.2754 64.1254 43.4254C61.0742 45.056 57.5946 45.9828 53.9092 45.9828C46.4013 45.9828 39.7848 42.1552 35.8423 36.3709L42.5788 0H16.9184L0 92H12.8216C20.2609 92 26.6375 86.6963 27.9916 79.3672L30.7514 63.8679C37.5565 67.85 45.4586 70.1328 53.9092 70.1328C60.7486 70.1328 67.2108 68.6224 73.056 65.9619L82.9636 60.9843L74.1701 33.5903V33.6075Z" fill="url(#paint0_linear_70_11620)"/>
<path style="mix-blend-mode:multiply" d="M74.1701 33.6075L69.8676 38.8425C68.2049 40.6619 66.3023 42.2754 64.1253 43.4254C61.0742 45.056 57.5945 45.9828 53.9092 45.9828C46.4013 45.9828 39.7848 42.1552 35.8423 36.3709L30.7513 63.8851C37.5564 67.8672 45.4585 70.15 53.9092 70.15C60.7485 70.15 67.2108 68.6395 73.0559 65.9791L82.9636 61.0015L74.1701 33.6075Z" fill="url(#paint1_linear_70_11620)"/>
<path d="M115.943 47.0127H101.099L92.4427 0H66.7822L77.8383 60.0575C79.1925 67.3866 85.569 72.7075 93.0083 72.7075H121L115.926 47.0299L115.943 47.0127Z" fill="url(#paint2_linear_70_11620)"/>
<path d="M74.1701 33.6075L69.8677 38.8425C68.205 40.6619 66.3023 42.2754 64.1254 43.4254C61.0742 45.056 57.5946 45.9828 53.9092 45.9828C46.4013 45.9828 39.7848 42.1552 35.8423 36.3709L42.5788 0H16.9184L0 92H25.5404L30.7514 63.8851C37.5565 67.8672 45.4586 70.15 53.9092 70.15C60.7486 70.15 67.2108 68.6395 73.056 65.9791L82.9636 61.0015L74.1701 33.6075Z" fill="url(#paint3_linear_70_11620)"/>
<path style="mix-blend-mode:multiply" d="M74.1701 33.6075L69.8676 38.8425C68.2049 40.6619 66.3023 42.2754 64.1253 43.4254C61.0742 45.056 57.5945 45.9828 53.9092 45.9828C46.4013 45.9828 39.7848 42.1552 35.8423 36.3709L30.7513 63.8851C37.5564 67.8672 45.4585 70.15 53.9092 70.15C60.7485 70.15 67.2108 68.6395 73.0559 65.9791L82.9636 61.0015L74.1701 33.6075Z" fill="url(#paint4_linear_70_11620)"/>
<path d="M115.943 47.0127H101.099L92.4427 0H66.7822L77.8383 60.0575C79.1925 67.3866 85.569 72.7075 93.0083 72.7075H121L115.926 47.0299L115.943 47.0127Z" fill="url(#paint5_linear_70_11620)"/>
</g>
<defs>
<linearGradient id="paint0_linear_70_11620" x1="-33.6997" y1="-10.1612" x2="102.725" y2="128.824" gradientUnits="userSpaceOnUse">
<stop stop-color="#FF4361"/>
<stop offset="0.12" stop-color="#F74266"/>
<stop offset="0.29" stop-color="#E44075"/>
<stop offset="0.49" stop-color="#C33E8E"/>
<stop offset="0.72" stop-color="#963AB0"/>
<stop offset="0.97" stop-color="#5D36DC"/>
<stop offset="1" stop-color="#5636E2"/>
</linearGradient>
<linearGradient id="paint1_linear_70_11620" x1="102.333" y1="27.1194" x2="45.7024" y2="55.4826" gradientUnits="userSpaceOnUse">
<stop stop-color="#190458"/>
<stop offset="0.5" stop-color="#190458" stop-opacity="0.52"/>
<stop offset="1" stop-color="#190458" stop-opacity="0"/>
</linearGradient>
<linearGradient id="paint2_linear_70_11620" x1="39.442" y1="-21.0948" x2="109.176" y2="59.1927" gradientUnits="userSpaceOnUse">
<stop stop-color="#E958C0"/>
<stop offset="0.27" stop-color="#C24CBD"/>
<stop offset="0.59" stop-color="#9940BB"/>
<stop offset="0.85" stop-color="#8038B9"/>
<stop offset="1" stop-color="#7736B9"/>
</linearGradient>
<linearGradient id="paint3_linear_70_11620" x1="-33.6997" y1="-10.1612" x2="102.725" y2="128.824" gradientUnits="userSpaceOnUse">
<stop stop-color="#FF4361"/>
<stop offset="0.12" stop-color="#F74266"/>
<stop offset="0.29" stop-color="#E44075"/>
<stop offset="0.49" stop-color="#C33E8E"/>
<stop offset="0.72" stop-color="#963AB0"/>
<stop offset="0.97" stop-color="#5D36DC"/>
<stop offset="1" stop-color="#5636E2"/>
</linearGradient>
<linearGradient id="paint4_linear_70_11620" x1="102.333" y1="27.1194" x2="45.7024" y2="55.4826" gradientUnits="userSpaceOnUse">
<stop stop-color="#190458"/>
<stop offset="0.5" stop-color="#190458" stop-opacity="0.52"/>
<stop offset="1" stop-color="#190458" stop-opacity="0"/>
</linearGradient>
<linearGradient id="paint5_linear_70_11620" x1="39.442" y1="-21.0948" x2="109.176" y2="59.1927" gradientUnits="userSpaceOnUse">
<stop stop-color="#E958C0"/>
<stop offset="0.27" stop-color="#C24CBD"/>
<stop offset="0.59" stop-color="#9940BB"/>
<stop offset="0.85" stop-color="#8038B9"/>
<stop offset="1" stop-color="#7736B9"/>
</linearGradient>
<clipPath id="clip0_70_11620">
<rect width="121" height="92" fill="white"/>
</clipPath>
</defs>
</svg>
