<svg width="924" height="703" viewBox="0 0 924 703" fill="none" xmlns="http://www.w3.org/2000/svg">
<path d="M566.39 256.639L533.535 296.616C520.838 310.51 506.309 322.83 489.685 331.612C466.385 344.064 439.813 351.142 411.67 351.142C354.338 351.142 303.811 321.913 273.705 277.742L325.148 0H129.195L0 702.546H195.036L234.829 487.85C286.795 518.259 347.138 535.691 411.67 535.691C463.898 535.691 513.246 524.157 557.882 503.841L633.541 465.83L566.39 256.639Z" fill="#F1F5F8"/>
<path d="M885.386 359.006H772.029L705.926 0H509.974L594.402 458.621C604.743 514.589 653.436 555.221 710.246 555.221H924L885.255 359.137L885.386 359.006Z" fill="#F1F5F8"/>
</svg>
