<svg width="1136" height="225" viewBox="0 0 1136 225" fill="none" xmlns="http://www.w3.org/2000/svg">
<path d="M36.3878 150.371L36.3851 150.37C28.5868 147.711 22.0761 142.836 16.7757 135.761C11.4965 128.714 8.8614 119.992 8.8614 109.6C8.8614 92.639 15.1273 79.546 27.6831 70.2553C40.2818 60.9328 55.416 56.2437 73.1863 56.2437C88.9441 56.2437 102.271 59.3279 113.19 65.4705C123.967 71.5332 132.426 80.5913 138.565 92.6661L94.5704 112.431C89.8008 103.415 83.0954 98.8078 74.4596 98.8078L74.4572 98.8078C70.4559 98.8266 67.3813 99.4183 65.2919 100.655C63.1606 101.917 62.0881 103.833 62.0881 106.344C62.0881 107.907 62.8996 109.282 64.3763 110.471C65.8446 111.654 68.0079 112.687 70.8236 113.594C76.4036 115.39 82.9205 117.487 90.3363 119.845C96.5249 121.844 102.922 123.895 109.549 126.02C110.863 126.441 112.185 126.865 113.516 127.292C121.453 129.838 128.109 134.893 133.484 142.487C138.841 150.057 141.556 159.606 141.556 171.129C141.556 189.36 134.732 202.774 121.152 211.427C107.501 220.125 91.2324 224.485 72.3999 224.485C54.518 224.485 39.6527 221.314 27.7795 215.005C16.0518 208.773 7.21751 199.467 1.27101 187.075L46.8387 164.158C48.8905 169.845 51.9816 174.167 56.1257 177.086C60.3991 180.096 65.7491 181.584 72.1377 181.584C76.9827 181.584 80.695 180.871 83.2113 179.376C85.7691 177.856 87.0557 175.547 87.0557 172.513C87.0557 170.859 86.2831 169.393 84.8356 168.119C83.399 166.856 81.2794 165.763 78.5162 164.817C76.8229 164.238 75.0394 163.626 73.1648 162.982C68.9881 161.549 64.3589 159.961 59.2664 158.23C56.1835 157.166 53.0574 156.097 49.889 155.014C45.4698 153.502 40.9685 151.963 36.3878 150.371Z" stroke="#4EB1F8"/>
<path d="M199.827 159.938V160.037L199.865 160.128C202.584 166.743 206.986 171.717 213.074 175.03C219.151 178.338 226.88 179.975 236.241 179.975C247.751 179.975 257.513 176.282 265.46 168.889L303.188 195.26C287.508 214.715 264.782 224.485 234.968 224.485C207.921 224.485 186.297 216.547 170.042 200.749C153.781 184.944 145.664 164.941 145.664 140.701C145.664 116.684 153.632 96.6028 169.562 80.4593C185.488 64.3203 205.766 56.2437 230.474 56.2437C254.28 56.2437 273.958 64.2059 289.435 80.1199L289.436 80.1203C304.953 96.0373 312.699 116.006 312.699 140.028C312.699 146.884 311.985 153.341 310.558 159.401H200.327H199.827V159.901V159.938ZM199.211 122.93L199.018 123.573H199.69H261.257H261.92L261.738 122.936C259.581 115.371 255.943 109.662 250.807 105.849C245.673 102.037 239.091 100.155 231.112 100.155C222.797 100.136 215.956 102.016 210.616 105.829C205.274 109.645 201.483 115.362 199.211 122.93Z" stroke="#4EB1F8"/>
<path d="M478.001 124.645V219.994H425.748V131.382C425.748 122.95 423.514 116.514 419.006 112.124C414.513 107.749 408.537 105.582 401.168 105.582C392.71 105.582 386.122 108.126 381.401 113.266C376.682 118.405 374.379 125.767 374.379 135.237V219.994H322.163V60.7348H374.416V76.2532V77.831L375.325 76.5412C384.836 63.041 399.496 56.2437 419.481 56.2437C436.654 56.2437 450.673 62.1067 461.619 73.8612C472.516 85.6031 478.001 102.493 478.001 124.645Z" stroke="#4EB1F8"/>
<path d="M486.423 199.003L486.42 199C485.011 197.222 483.712 195.33 482.485 193.324L482.485 193.323C481.264 191.336 480.11 189.254 479.084 187.076L524.656 164.158C526.707 169.845 529.798 174.167 533.942 177.086C538.216 180.096 543.566 181.584 549.955 181.584C554.799 181.584 558.512 180.871 561.028 179.376C563.586 177.856 564.872 175.547 564.872 172.513C564.872 170.859 564.1 169.393 562.652 168.119C561.216 166.856 559.096 165.763 556.333 164.817C554.639 164.238 552.856 163.625 550.981 162.982C546.804 161.549 542.175 159.961 537.083 158.23C534 157.166 530.874 156.097 527.706 155.014C523.287 153.502 518.785 151.963 514.205 150.371L514.202 150.37C506.404 147.711 499.893 142.836 494.593 135.761C489.313 128.714 486.678 119.992 486.678 109.6C486.678 92.639 492.944 79.546 505.5 70.2553C518.099 60.9328 533.233 56.2437 551.003 56.2437C566.761 56.2437 580.088 59.3279 591.007 65.4705C601.783 71.5332 610.243 80.5913 616.382 92.6661L572.387 112.431C567.618 103.415 560.912 98.8078 552.276 98.8078L552.274 98.8078C548.309 98.8267 545.244 99.4185 543.155 100.655C541.026 101.916 539.942 103.831 539.942 106.344C539.942 107.907 540.754 109.282 542.231 110.471C543.699 111.654 545.862 112.687 548.678 113.594C554.258 115.39 560.775 117.487 568.191 119.845C574.383 121.845 580.785 123.898 587.416 126.024C588.725 126.444 590.043 126.867 591.371 127.292C599.308 129.838 605.963 134.893 611.338 142.487C616.696 150.057 619.41 159.606 619.41 171.129C619.41 189.36 612.586 202.774 599.007 211.427C585.355 220.125 569.087 224.485 550.254 224.485C520.877 224.485 499.629 215.946 486.423 199.003Z" stroke="#4EB1F8"/>
<path d="M879.298 156.083V60.7344H931.551V149.346C931.551 157.778 933.784 164.214 938.293 168.605C942.785 172.979 948.762 175.146 956.131 175.146C964.589 175.146 971.176 172.602 975.898 167.462C980.617 162.324 982.92 154.961 982.92 145.491V60.7344H1035.14V219.993H982.883V204.475V202.897L981.974 204.187C972.463 217.687 957.765 224.485 937.818 224.485C920.644 224.485 906.587 218.621 895.679 206.867C884.783 195.125 879.298 178.235 879.298 156.083Z" stroke="#4EB1F8"/>
<path d="M1102.13 60.2344V60.7344H1102.63H1135.5V110.709H1102.6H1102.1V111.209V157.692C1102.1 161.267 1102.75 164.217 1104.1 166.507C1105.45 168.808 1107.48 170.407 1110.15 171.303C1115.3 173.032 1123.75 173.559 1135.46 172.965V220.05C1103.85 223.823 1081.77 220.86 1069.08 211.299C1056.34 201.706 1049.88 184.348 1049.88 158.965V111.209V60.2344V0.515625H1102.13V60.2344Z" stroke="#4EB1F8"/>
<path d="M745.266 74.9807V60.7348H797.519V94.029C797.445 115.648 779.918 133.165 758.248 133.165H744.672C743.526 125.815 740.62 119.644 735.8 114.679L735.8 114.678C729.478 108.17 721.216 104.908 711.062 104.908C700.871 104.908 692.608 108.169 686.323 114.679L686.322 114.681C680.038 121.226 676.895 129.779 676.895 140.364C676.895 150.948 680 159.54 686.324 166.05C692.646 172.559 700.908 175.82 711.062 175.82C721.216 175.82 729.478 172.559 735.8 166.05L735.8 166.05C740.544 161.16 743.448 155.066 744.631 147.863H758.211C779.881 147.863 797.445 165.38 797.519 186.999V219.994H745.266V205.748V204.386L744.385 205.424C733.598 218.131 718.543 224.485 699.228 224.485C678.026 224.485 660.223 216.463 645.898 200.437C631.572 184.409 624.38 164.396 624.38 140.364C624.38 116.332 631.572 96.3201 645.898 80.2916C660.223 64.2654 677.989 56.2437 699.228 56.2437C718.543 56.2437 733.598 62.5974 744.385 75.3043L745.266 76.3423V74.9807Z" stroke="#4EB1F8"/>
<path d="M851.459 147.825H864.516V219.994H812.263V185.324C813.193 164.449 830.349 147.825 851.459 147.825ZM864.516 0.515625V133.165H851.459C830.349 133.165 813.193 116.541 812.263 95.6659V0.515625H864.516Z" stroke="#4EB1F8"/>
</svg>
