<svg width="118" height="115" viewBox="0 0 118 115" fill="none" xmlns="http://www.w3.org/2000/svg">
<path d="M92.174 17.9046C99.2481 24.9546 103.535 31.5107 105.863 41.3657C106.09 42.3264 106.157 43.3371 106.506 44.2624C108.246 45.0501 109.982 45.9066 111.47 47.1195C121.35 55.1823 119.697 70.368 108.696 76.5177C108.309 76.7345 107.056 77.1346 106.953 77.4868C106.842 79.0205 107.028 80.6252 106.932 82.1506C106.134 94.7127 95.5439 105.17 82.9814 105.945L69.0024 105.953L68.8499 106.114C68.1521 109.125 66.0252 111.907 63.163 113.143C53.0156 117.526 44.4289 105.332 51.4508 97.401C56.935 91.2075 66.9717 93.9312 68.8102 101.85L69.0066 102.071L82.4612 102.092C87.7093 101.729 92.5584 99.6683 96.342 96.0526C101.128 91.4825 103.437 85.1328 103.078 78.5204C103.019 78.262 102.11 78.5496 101.876 78.5621C100.385 78.635 98.7487 78.7434 98.3831 76.9366L98.4458 44.5312C98.8637 43.5914 99.4967 43.21 100.51 43.1558C100.876 43.1371 102.058 43.3517 102.194 43.1641C102.33 42.9766 101.515 39.9695 101.373 39.4922C99.4528 33.0007 95.8594 27.0156 91.121 22.2309C90.9016 22.01 89.5729 20.718 89.4287 20.6804C89.1968 20.6221 88.6432 21.141 88.3862 21.2765C86.2594 22.4039 83.909 22.5018 81.707 21.5203C80.748 21.0931 79.8099 20.3616 78.874 19.8698C70.8973 15.6706 62.7347 15.3705 53.8493 15.7727C49.2467 15.9811 44.1741 17.3732 40.0583 19.4051C38.1968 20.3241 36.4815 21.7224 34.4111 22.1017C32.8212 22.3914 31.1415 22.0496 29.7229 21.314C29.4116 21.1514 28.7723 20.5492 28.438 20.72C22.0346 26.6635 17.2962 34.5053 15.7439 43.1641C15.8922 43.3663 17.2231 43.1266 17.6305 43.1641C18.8715 43.2704 19.5275 43.9685 19.6675 45.1939L19.6716 76.5365C19.6445 77.4055 19.1284 78.3245 18.2322 78.535C17.3359 78.7455 16.0051 78.487 15.115 78.3641C1.83176 76.549 -4.46725 60.9631 3.5491 50.2516C5.57356 47.5488 8.25821 45.5503 11.4276 44.3395C11.8036 43.8956 11.6657 43.41 11.7598 42.9266C13.6818 33.1654 18.6793 24.2273 26.1441 17.6837C26.378 17.3232 26.0208 16.8981 25.956 16.5334C24.807 10.1357 30.2494 7.56825 35.1695 5.3676C44.9617 0.987145 54.3151 0.603699 64.918 1.09968C72.0673 1.43519 79.1727 3.35659 85.5219 6.68257C89.1425 8.57896 92.6064 10.8755 92.2178 15.5248C92.176 16.0291 91.7457 17.1711 91.7916 17.4941C91.8313 17.7671 92.0256 17.7588 92.1719 17.9046H92.174ZM30.7654 12.1717C28.9812 13.768 29.4388 16.8376 31.5259 17.9546C33.7029 19.1196 35.5142 17.4045 37.3026 16.4521C43.0124 13.4096 48.6596 12.2134 55.1049 11.9279C64.2452 11.5236 72.2177 12.0696 80.4388 16.3333C82.4382 17.3711 84.6528 19.4009 86.9426 17.6546C89.0025 16.0853 88.6682 13.1449 86.5916 11.757C80.4973 7.68287 71.3841 5.14879 64.0864 4.84453C53.3562 4.3944 43.9045 5.11753 34.2774 10.1044C33.4062 10.5566 31.434 11.5736 30.7654 12.1717ZM15.7 47.2216C11.4505 47.7738 7.61473 50.5059 5.55685 54.232C1.38467 61.7863 5.21004 71.4183 13.3852 74.0503C14.0704 74.2712 14.7849 74.4067 15.4869 74.563L15.7 74.4484V47.2237V47.2216ZM102.236 74.5005C103.044 74.5109 103.874 74.2816 104.636 74.0316C112.435 71.4621 116.33 62.6115 112.855 55.1135C110.916 50.931 106.872 47.7676 102.238 47.2237V74.5005H102.236ZM62.7368 99.1119C59.6719 96.8049 55.0652 97.8427 53.4126 101.338C51.0622 106.31 55.8298 111.709 61.103 109.842C65.6575 108.229 66.5768 102.002 62.7347 99.1119H62.7368Z" fill="#562657"/>
<path d="M87.4815 30.079C94.2402 36.833 95.5501 47.68 90.5882 55.8553C88.5429 59.223 85.4487 61.7946 82.7118 64.5516C75.2073 72.1101 67.6569 79.6852 60.0584 87.1458C59.2937 87.6001 58.3327 87.5271 57.662 86.9436L30.3642 59.7189C15.9987 44.9042 29.4074 20.0677 49.8609 24.344C53.2057 25.0442 56.2685 26.7322 58.9678 28.764C61.0111 27.3011 63.1024 25.9465 65.4945 25.1046C73.0972 22.4309 81.7988 24.4044 87.4815 30.0811V30.079ZM57.2024 32.3776C39.6655 18.0358 18.7001 40.2111 32.9173 56.7514L58.9657 82.8278L76.0681 65.6853C80.4116 60.838 86.9237 56.6034 88.9482 50.1599C92.0632 40.2424 85.6597 29.6268 75.3661 28.0555C69.7858 27.2031 65.5196 28.5514 61.1887 32.0275C60.4574 32.6151 60.0688 33.3549 58.9678 33.3549C58.0318 33.3549 57.8187 32.8798 57.2045 32.3776H57.2024Z" fill="#DA2354"/>
<path d="M70.9892 42.5723C71.6599 43.285 71.6243 44.4311 71.0205 45.1647C67.4104 48.6657 63.9193 52.3126 60.3822 55.8137C59.7429 56.4451 57.9713 58.4165 57.2714 58.6458C56.5192 58.8937 55.7003 58.6895 55.1362 58.1456L46.9611 49.9307C45.6281 47.9572 47.8218 45.7774 49.7543 47.2257L56.4085 53.936L56.655 53.9777L68.3631 42.3284C69.111 41.795 70.352 41.895 70.9892 42.5723Z" fill="#DA2354"/>
</svg>
