<svg width="209" height="57" viewBox="0 0 209 57" fill="none" xmlns="http://www.w3.org/2000/svg">
<path d="M0 0.0848846H10.204V44.4626H0V0.0848846Z" fill="#28A8D0"/>
<path d="M33.4721 14.3949H43.967L33.3025 44.4628H23.05L12.3855 14.3949H22.8803L28.1883 31.6502L33.4964 14.3949H33.4721Z" fill="#28A8D0"/>
<path d="M52.8618 33.0983C53.8071 35.5528 55.94 36.7801 59.2605 36.7801C61.3207 36.7801 63.0416 36.0683 64.4474 34.6692L71.2823 39.7255C68.4708 43.4564 64.3747 45.3218 59.0182 45.3218C54.1949 45.3218 50.3169 43.8246 47.4084 40.8301C44.4999 37.8356 43.0457 34.0556 43.0457 29.4902C43.0457 24.9248 44.4757 21.1693 47.3115 18.1257C50.1715 15.0821 53.7829 13.5603 58.1941 13.5603C62.6053 13.5603 65.9743 15.0576 68.7374 18.0766C71.5005 21.0957 72.9062 24.8511 72.9062 29.392C72.9062 30.7174 72.7608 31.9692 72.5184 33.1229H52.8376L52.8618 33.0983ZM52.7407 26.1766H63.696C62.9446 23.3784 61.1511 21.9548 58.3395 21.9548C55.528 21.9548 53.5405 23.3539 52.7407 26.1766Z" fill="#28A8D0"/>
<path d="M85.4858 19.9912C86.0191 18.0276 87.0855 16.5057 88.6852 15.4258C90.2849 14.3458 92.0784 13.8058 94.0417 13.8058V24.8757C91.8845 24.5075 89.897 24.9248 88.1519 26.1275C86.3826 27.3302 85.5101 29.2938 85.5101 32.0183V44.4628H76.0332V14.3949H85.5101V19.9912H85.4858Z" fill="#28A8D0"/>
<path d="M115.298 14.3949H125.793L116.049 43.9964C114.522 48.5373 112.389 51.8018 109.602 53.79C106.839 55.8027 103.228 56.6863 98.8163 56.49V47.1137C100.828 47.1137 102.355 46.8437 103.373 46.3282C104.391 45.8128 105.239 44.8555 105.894 43.5055L94.4778 14.3949H105.094L110.862 31.8466L115.322 14.3949H115.298Z" fill="#28A8D0"/>
<path d="M46.0754 0.133858H46.3178C52.668 0.133858 57.8064 5.36199 57.8064 11.7683V12.0137H57.564C51.2138 12.0137 46.0754 6.78561 46.0754 0.37931V0.133858Z" fill="#28A8D0"/>
<path d="M59.5273 12.014H59.2849V11.7685C59.2849 5.33767 64.4475 0.134086 70.7735 0.134086H71.0159V0.379538C71.0159 6.81039 65.8775 12.014 59.5273 12.014Z" fill="#28A8D0"/>
<path d="M133.621 44.4135V0.575783H136.578V44.4381H133.621V44.4135Z" fill="#1A1C3F"/>
<path d="M168.911 14.3948H171.941V44.4382H168.911V37.6392C166.366 42.2537 161.785 45.1009 156.162 45.1009C151.945 45.1009 148.333 43.6037 145.304 40.5846C142.274 37.5164 140.795 33.7856 140.795 29.4165C140.795 25.0475 142.274 21.3166 145.304 18.2975C148.333 15.2294 151.945 13.7321 156.162 13.7321C161.809 13.7321 166.366 16.5548 168.911 21.1939V14.3948ZM156.38 42.2046C159.87 42.2046 162.852 40.9528 165.275 38.4737C167.699 36.0192 168.887 32.951 168.887 29.392C168.887 25.8329 167.699 22.7893 165.275 20.3102C162.852 17.8557 159.87 16.5794 156.38 16.5794C152.89 16.5794 149.86 17.8312 147.412 20.3102C144.988 22.7648 143.801 25.8329 143.801 29.392C143.801 32.951 144.988 35.9946 147.412 38.4737C149.836 40.9282 152.866 42.2046 156.38 42.2046Z" fill="#1A1C3F"/>
<path d="M204.492 18.2974C207.521 21.2919 209 25.0228 209 29.4164C209 33.81 207.521 37.5163 204.492 40.5844C201.535 43.579 197.899 45.1008 193.633 45.1008C187.986 45.1008 183.308 42.229 180.884 37.4672V44.438H177.927V2.36753H180.884V21.341C183.308 16.6038 188.01 13.7074 193.633 13.7074C197.899 13.7074 201.511 15.2047 204.492 18.2728V18.2974ZM193.464 42.2044C196.954 42.2044 199.935 40.9526 202.359 38.4736C204.783 36.019 206.043 32.9509 206.043 29.3918C206.043 25.8328 204.807 22.7892 202.359 20.3101C199.911 17.831 196.954 16.5792 193.464 16.5792C189.974 16.5792 186.944 17.831 184.496 20.3101C182.072 22.7646 180.884 25.8328 180.884 29.3918C180.884 32.9509 182.072 35.9945 184.496 38.4736C186.92 40.9526 189.949 42.2044 193.464 42.2044Z" fill="#1A1C3F"/>
</svg>
