<svg width="27" height="60" viewBox="0 0 27 60" fill="none" xmlns="http://www.w3.org/2000/svg">
<path d="M20.2238 2.35478C20.1332 -0.807313 15.4997 -0.762461 15.2845 2.35478C14.7634 9.87877 13.2964 25.6219 12.7073 33.1459C12.4127 36.8238 12.0729 40.4905 11.6877 44.1572C11.4951 45.9961 11.2799 47.8239 11.0533 49.6516C10.8154 51.6251 10.4415 53.6435 10.4642 55.6394C10.4982 58.409 14.5652 58.9809 15.3469 56.2898C15.902 54.3947 16.0606 52.354 16.3098 50.4029C16.5477 48.4854 16.763 46.5792 16.9669 44.6618C17.3747 40.9166 17.7146 37.1602 18.0092 33.3926C18.5983 25.8238 20.2238 14.979 20.2238 2.35478Z" fill="#DA2354"/>
<path d="M22.9145 41.1745C20.83 43.5517 18.8928 46.0634 16.9216 48.5415C15.9586 49.7413 14.9957 50.9411 14.0327 52.1409C13.7382 52.5109 13.4323 52.8697 13.1378 53.2398C12.8206 52.8473 12.5034 52.4661 12.1861 52.0736C11.7103 51.4793 11.2345 50.8738 10.7587 50.2683C10.7134 50.2122 10.6568 50.1338 10.6341 50.1113C10.5208 49.9656 10.4075 49.8198 10.2942 49.674C10.045 49.3488 9.79578 49.0237 9.54655 48.6985C8.62891 47.4987 7.71128 46.2989 6.80498 45.0879C6.36316 44.5048 5.93267 43.9105 5.47952 43.3274C4.89042 42.5537 4.19936 41.5894 3.28173 41.1633C2.55669 40.8269 1.79766 40.7484 1.08395 41.1633C0.472199 41.5221 -0.0715822 42.2958 0.00771918 43.0246C0.18898 44.7963 1.3785 46.2316 2.39809 47.6332C3.33838 48.9339 4.28999 50.2122 5.26427 51.4793C6.96358 53.6995 10.906 59.1154 11.3931 59.4855C12.1068 60.0349 12.9225 60.1134 13.6815 59.8667C14.2027 59.777 14.6898 59.5415 15.041 59.1715C15.2449 58.9473 17.2728 56.2897 17.7939 55.6506C18.7908 54.4172 19.7878 53.1837 20.7734 51.9391C22.8125 49.3601 24.8517 46.7698 26.653 44.0226C28.0917 41.8136 24.7044 39.1449 22.9258 41.1745H22.9145Z" fill="#DA2354"/>
</svg>
