<svg width="713" height="837" viewBox="0 0 713 837" fill="none" xmlns="http://www.w3.org/2000/svg">
<path d="M287.556 102.022H299.5V106.978H287.556C236.502 106.978 195.077 147.188 195.077 196.885V208.5H189.923V196.885C189.923 147.256 148.498 106.978 97.4442 106.978H85.5V102.022H97.4442C148.498 102.022 189.923 61.744 189.923 12.115V0.5H195.077V12.115C195.077 61.744 236.502 102.022 287.556 102.022Z" stroke="white"/>
<path d="M700.556 375.022H712.5V379.978H700.556C649.502 379.978 608.077 420.188 608.077 469.885V481.5H602.923V469.885C602.923 420.256 561.498 379.978 510.444 379.978H498.5V375.022H510.444C561.498 375.022 602.923 334.744 602.923 285.115V273.5H608.077V285.115C608.077 334.744 649.502 375.022 700.556 375.022Z" stroke="white"/>
<path d="M290.173 683.74H307.5V691.26H290.173C217.15 691.26 157.908 748.695 157.908 819.668V836.5H150.092V819.668C150.092 748.792 90.8504 691.26 17.827 691.26H0.5V683.74H17.827C90.8504 683.74 150.092 626.208 150.092 555.332V538.5H157.908V555.332C157.908 626.208 217.15 683.74 290.173 683.74Z" stroke="white"/>
</svg>
