<svg width="52" height="58" viewBox="0 0 52 58" fill="none" xmlns="http://www.w3.org/2000/svg">
<path d="M35.9247 5.76318C32.675 5.76318 29.5522 6.75334 26.9118 8.6067C26.6833 8.45437 26.4802 8.30204 26.2517 8.17509C25.7439 7.84504 25.1854 7.54038 24.6269 7.28649C23.3828 6.70256 22.1134 6.29634 20.7932 6.04246C20.7932 7.03261 20.7932 7.92121 20.7932 8.78442C21.7072 8.98753 22.5958 9.29219 23.459 9.6984C23.916 9.9269 24.373 10.1808 24.8046 10.4601C25.2362 10.7393 25.6424 11.0186 26.0486 11.3487C26.2263 11.501 26.4294 11.6533 26.6072 11.831C28.7144 13.7352 30.974 14.9284 33.3351 15.3854C34.4522 15.6139 35.6201 15.7155 36.8133 15.7155C37.5496 15.7155 38.1589 15.1062 38.1589 14.3699C38.1589 13.6336 37.575 12.9735 36.8133 12.9735C35.7978 12.9735 34.7823 12.872 33.8429 12.6942C32.2434 12.3896 30.6439 11.6025 29.1206 10.3839C31.1771 9.13986 33.4874 8.47975 35.9247 8.47975C43.1351 8.47975 48.9998 14.3445 48.9998 21.5548C48.9998 22.5704 48.8475 23.6367 48.5682 24.703C48.0858 26.5056 47.1973 28.232 45.9532 29.8315C44.1506 32.1165 39.9869 38.0574 39.9869 44.1252C39.9869 50.3962 38.7683 51.7672 36.8641 53.9252C36.4579 54.3822 35.874 54.6107 35.2646 54.5853C34.6553 54.5345 34.1222 54.2299 33.7921 53.7221C33.5636 53.3667 33.3859 53.062 33.2843 52.7827C31.888 49.076 31.8626 46.918 31.8626 46.8418C31.8626 45.9786 31.7103 38.5905 27.1657 38.2859C27.0895 38.2605 26.988 38.2605 26.8864 38.2605C22.0626 38.2605 21.9103 45.9532 21.9103 46.8418C21.9103 46.8926 21.8849 49.076 20.4885 52.7827C20.387 53.062 20.2346 53.3667 19.9808 53.7221C19.6507 54.2299 19.0922 54.5599 18.4828 54.5853C17.8735 54.6361 17.2896 54.3822 16.8834 53.9252C14.9792 51.7418 13.7606 50.3962 13.7606 44.0998C13.7606 38.032 9.59685 32.0911 7.79427 29.8061C6.52484 28.2066 5.66163 26.4802 5.17925 24.6776C4.92536 23.6367 4.79842 22.5704 4.79842 21.5548C4.79842 20.4124 4.95075 19.2953 5.25541 18.2289L2.74195 17.0611C2.31034 18.4828 2.08185 19.9808 2.08185 21.5548C2.08185 22.7989 2.25957 24.0937 2.61501 25.3885C3.19894 27.5465 4.23987 29.603 5.7378 31.5071C7.36266 33.5636 11.1202 38.8952 11.1202 44.1252C11.1202 46.791 11.3994 51.691 14.903 55.7278C15.7916 56.7433 17.0357 57.3019 18.3813 57.3019C18.5082 57.3019 18.6098 57.3019 18.7113 57.3019C20.1839 57.2003 21.4787 56.4387 22.2657 55.1946C22.6212 54.6615 22.8497 54.2045 23.0274 53.7221C24.6015 49.5584 24.6269 47.0957 24.6269 46.8164C24.6269 44.7599 25.287 40.9517 26.8864 40.9517C28.5621 40.9517 29.146 44.9884 29.146 46.8164C29.146 47.0957 29.1714 49.533 30.7455 53.7221C30.9232 54.1791 31.1517 54.6615 31.5071 55.1946C32.3196 56.4133 33.6144 57.1749 35.0615 57.2765C35.1885 57.2765 35.29 57.3019 35.3916 57.3019C36.7372 57.3019 37.9812 56.7433 38.8698 55.7278C42.3734 51.691 42.6527 46.791 42.6527 44.1252C42.6527 38.9206 46.4102 33.5636 48.0351 31.5071C49.533 29.6284 50.5739 27.5719 51.1579 25.3885C51.5133 24.0937 51.691 22.7989 51.691 21.5548C51.7164 12.8466 44.633 5.76318 35.9247 5.76318Z" fill="#D2D9E3"/>
<path d="M7.15956 15.6647C7.18495 16.3756 7.76889 16.9595 8.47976 16.9595C9.19064 16.9595 9.77458 16.401 9.77458 15.6647C9.77458 14.116 10.4093 12.6181 11.501 11.501C12.5927 10.4093 14.0906 9.77458 15.6647 9.77458C16.3756 9.74919 16.9341 9.19064 16.9341 8.47977C16.9341 7.76889 16.3756 7.18495 15.6647 7.15956C14.116 7.15956 12.6181 6.55024 11.501 5.43314C10.4093 4.34144 9.77458 2.84351 9.77458 1.29481C9.77458 0.583936 9.19064 0 8.47976 0C7.76889 0 7.18495 0.558547 7.18495 1.29481C7.18495 2.84351 6.55024 4.34144 5.45853 5.45853C4.34144 6.55024 2.84351 7.18495 1.29481 7.18495C0.558547 7.18495 0 7.76889 0 8.47977C0 9.19064 0.558547 9.77458 1.29481 9.77458C2.84351 9.77458 4.34144 10.3839 5.45853 11.501C6.55024 12.6181 7.15956 14.116 7.15956 15.6647ZM8.47976 5.81397C9.13987 6.90568 10.0539 7.79428 11.1456 8.47977C10.0539 9.16526 9.13987 10.0792 8.47976 11.1456C7.79428 10.0792 6.88029 9.16526 5.81397 8.47977C6.88029 7.79428 7.79428 6.90568 8.47976 5.81397Z" fill="#D2D9E3"/>
</svg>
