<svg width="505" height="318" viewBox="0 0 505 318" fill="none" xmlns="http://www.w3.org/2000/svg">
<path d="M39.6733 147.59C42.0563 145.205 43.5243 141.904 43.5243 138.278C43.5243 131.009 37.6333 125.093 30.3507 125.093C23.0681 125.093 17.1771 130.989 17.1771 138.278C17.1771 141.904 18.6451 145.186 21.0091 147.571" stroke="#4C566F" stroke-miterlimit="10"/>
<path d="M39.6733 147.59C37.3665 149.956 35.9557 153.199 35.9557 156.768C35.9557 164.037 41.8466 169.952 49.1293 169.952C56.4119 169.952 62.3028 164.056 62.3028 156.768C62.3028 153.18 60.873 149.937 58.5471 147.552" stroke="#4C566F" stroke-miterlimit="10"/>
<path d="M77.1923 147.59C79.5754 145.205 81.0433 141.904 81.0433 138.278C81.0433 131.009 75.1524 125.093 67.8697 125.093C60.5871 125.093 54.6962 130.989 54.6962 138.278C54.6962 141.904 56.1641 145.186 58.5281 147.571" stroke="#4C566F" stroke-miterlimit="10"/>
<path d="M77.1922 147.59C74.8854 149.956 73.4746 153.199 73.4746 156.768C73.4746 164.037 79.3655 169.952 86.6482 169.952C93.9308 169.952 99.8218 164.056 99.8218 156.768" stroke="#4C566F" stroke-miterlimit="10"/>
<path d="M11.5913 169.952C18.8549 169.952 24.7649 164.056 24.7649 156.768C24.7649 153.829 23.7926 151.101 22.1721 148.906C21.7336 148.334 21.257 147.781 20.7423 147.284" stroke="#4C566F" stroke-miterlimit="10"/>
<path d="M114.711 147.59C117.094 145.205 118.562 141.904 118.562 138.278C118.562 131.009 112.671 125.093 105.389 125.093C98.106 125.093 92.2151 130.989 92.2151 138.278C92.2151 141.904 93.6831 145.186 96.0471 147.571" stroke="#4C566F" stroke-miterlimit="10"/>
<path d="M114.711 147.59C112.404 149.956 110.994 153.199 110.994 156.768C110.994 164.037 116.885 169.952 124.167 169.952C131.45 169.952 137.341 164.056 137.341 156.768C137.341 153.18 135.911 149.937 133.585 147.552" stroke="#4C566F" stroke-miterlimit="10"/>
<path d="M152.23 147.59C154.613 145.205 156.081 141.904 156.081 138.278C156.081 131.009 150.19 125.093 142.908 125.093C135.625 125.093 129.734 130.989 129.734 138.278C129.734 141.904 131.202 145.186 133.566 147.571" stroke="#4C566F" stroke-miterlimit="10"/>
<path d="M152.23 147.59C149.923 149.956 148.513 153.199 148.513 156.768C148.513 164.037 154.404 169.952 161.686 169.952C168.969 169.952 174.86 164.056 174.86 156.768" stroke="#4C566F" stroke-miterlimit="10"/>
<path d="M86.6292 169.952C93.8927 169.952 99.8027 164.056 99.8027 156.768C99.8027 153.829 98.8304 151.101 97.21 148.906C96.8477 148.41 96.4474 147.952 96.0089 147.513C95.9326 147.437 95.8564 147.361 95.7801 147.284" stroke="#4C566F" stroke-miterlimit="10"/>
<path d="M189.749 147.59C192.132 145.205 193.6 141.904 193.6 138.278C193.6 131.009 187.709 125.093 180.427 125.093C173.163 125.093 167.253 130.989 167.253 138.278C167.253 141.904 168.721 145.186 171.085 147.571" stroke="#4C566F" stroke-miterlimit="10"/>
<path d="M189.749 147.59C187.442 149.956 186.032 153.199 186.032 156.768C186.032 164.037 191.923 169.952 199.205 169.952C206.488 169.952 212.379 164.056 212.379 156.768C212.379 153.18 210.949 149.937 208.623 147.552" stroke="#4C566F" stroke-miterlimit="10"/>
<path d="M227.268 147.59C229.651 145.205 231.119 141.904 231.119 138.278C231.119 131.009 225.228 125.093 217.946 125.093C210.682 125.093 204.772 130.989 204.772 138.278C204.772 141.904 206.24 145.186 208.604 147.571" stroke="#4C566F" stroke-miterlimit="10"/>
<path d="M227.268 147.59C224.961 149.956 223.551 153.199 223.551 156.768C223.551 164.037 229.441 169.952 236.724 169.952C244.007 169.952 249.898 164.056 249.898 156.768" stroke="#4C566F" stroke-miterlimit="10"/>
<path d="M161.686 169.952C168.95 169.952 174.86 164.056 174.86 156.768C174.86 153.829 173.887 151.101 172.267 148.906C171.886 148.391 171.466 147.914 171.028 147.456C170.971 147.399 170.913 147.342 170.837 147.284" stroke="#4C566F" stroke-miterlimit="10"/>
<path d="M264.806 147.59C267.189 145.205 268.657 141.904 268.657 138.278C268.657 131.009 262.766 125.093 255.484 125.093C248.201 125.093 242.31 130.989 242.31 138.278C242.31 141.904 243.778 145.186 246.142 147.571" stroke="#4C566F" stroke-miterlimit="10"/>
<path d="M264.806 147.59C262.499 149.956 261.089 153.199 261.089 156.768C261.089 164.037 266.98 169.952 274.262 169.952C281.545 169.952 287.436 164.056 287.436 156.768C287.436 153.18 286.006 149.937 283.68 147.552" stroke="#4C566F" stroke-miterlimit="10"/>
<path d="M302.325 147.59C304.708 145.205 306.176 141.904 306.176 138.278C306.176 131.009 300.285 125.093 293.003 125.093C285.72 125.093 279.829 130.989 279.829 138.278C279.829 141.904 281.297 145.186 283.661 147.571" stroke="#4C566F" stroke-miterlimit="10"/>
<path d="M302.573 147.323C300.114 149.708 298.589 153.066 298.589 156.768C298.589 164.037 304.479 169.952 311.762 169.952C319.045 169.952 324.936 164.056 324.936 156.768" stroke="#4C566F" stroke-miterlimit="10"/>
<path d="M236.724 169.952C243.988 169.952 249.898 164.056 249.898 156.768C249.898 153.829 248.925 151.101 247.305 148.906C246.943 148.429 246.561 147.971 246.142 147.552C246.047 147.456 245.97 147.38 245.875 147.284" stroke="#4C566F" stroke-miterlimit="10"/>
<path d="M339.844 147.59C342.227 145.205 343.695 141.904 343.695 138.278C343.695 131.009 337.804 125.093 330.521 125.093C323.239 125.093 317.348 130.989 317.348 138.278C317.348 141.904 318.816 145.186 321.18 147.571" stroke="#4C566F" stroke-miterlimit="10"/>
<path d="M339.844 147.59C337.537 149.956 336.126 153.199 336.126 156.768C336.126 164.037 342.017 169.952 349.3 169.952C356.583 169.952 362.474 164.056 362.474 156.768C362.474 153.18 361.044 149.937 358.718 147.552" stroke="#4C566F" stroke-miterlimit="10"/>
<path d="M377.363 147.59C379.746 145.205 381.214 141.904 381.214 138.278C381.214 131.009 375.323 125.093 368.041 125.093C360.777 125.093 354.867 130.989 354.867 138.278C354.867 141.904 356.335 145.186 358.699 147.571" stroke="#4C566F" stroke-miterlimit="10"/>
<path d="M377.344 147.609C375.056 149.975 373.646 153.219 373.646 156.768C373.646 164.037 379.536 169.952 386.819 169.952C394.102 169.952 399.993 164.056 399.993 156.768C399.993 153.161 398.544 149.898 396.218 147.532" stroke="#4C566F" stroke-miterlimit="10"/>
<path d="M324.936 156.768C324.936 153.829 323.963 151.101 322.343 148.906C322.019 148.467 321.656 148.048 321.275 147.647C321.161 147.532 321.046 147.399 320.913 147.284" stroke="#4C566F" stroke-miterlimit="10"/>
<path d="M408.686 125.456C407.695 125.208 406.646 125.093 405.579 125.093C398.315 125.093 392.405 130.989 392.405 138.278C392.405 141.904 393.873 145.186 396.237 147.571" stroke="#4C566F" stroke-miterlimit="10"/>
<path d="M462.238 190.827H437.569" stroke="#4C566F" stroke-miterlimit="10"/>
<path d="M411.927 190.827C405.826 190.827 401.079 185.465 401.842 179.397L410.783 106.871C411.412 101.777 415.74 97.9416 420.868 97.9416H478.958C484.086 97.9416 488.414 101.777 489.043 106.871L497.984 179.397C498.728 185.465 494 190.827 487.899 190.827" stroke="#4C566F" stroke-miterlimit="10"/>
<path d="M457.339 174.074H442.487C439.78 174.074 437.569 171.88 437.569 169.151V119.159C437.569 116.45 439.761 114.237 442.487 114.237H457.339C460.046 114.237 462.257 116.431 462.257 119.159V169.17C462.238 171.88 460.046 174.074 457.339 174.074Z" stroke="#4C566F" stroke-miterlimit="10"/>
<path d="M462.238 163.312V198.44C462.238 205.271 456.71 210.785 449.904 210.785C443.078 210.785 437.569 205.252 437.569 198.44V163.312" stroke="#4C566F" stroke-miterlimit="10"/>
<path d="M243.645 39.9742C214.533 14.406 200.54 0.954041 171.943 0.954041C110.994 0.954041 48.5192 96.3388 0.953247 114.427" stroke="#4C566F" stroke-miterlimit="10" stroke-linecap="round" stroke-linejoin="round"/>
<path d="M243.645 39.9742C272.756 14.406 286.749 0.954041 315.346 0.954041C365.219 0.954041 416.121 64.8174 459.035 97.9416" stroke="#4C566F" stroke-miterlimit="10" stroke-linecap="round" stroke-linejoin="round"/>
<path d="M401.899 182.183H0.953247V114.427H409.83" stroke="#4C566F" stroke-miterlimit="10" stroke-linecap="round" stroke-linejoin="round"/>
<path d="M0.953247 182.183C0.953247 182.183 83.0641 317.027 243.645 317.027" stroke="#4C566F" stroke-miterlimit="10" stroke-linecap="round" stroke-linejoin="round"/>
<path d="M397.324 270.317C358.565 295.866 307.263 317.046 243.645 317.046" stroke="#4C566F" stroke-miterlimit="10" stroke-linecap="round" stroke-linejoin="round"/>
<path d="M449.904 286.86C466.192 286.86 479.396 273.645 479.396 257.342C479.396 241.04 466.192 227.824 449.904 227.824C433.615 227.824 420.411 241.04 420.411 257.342C420.411 273.645 433.615 286.86 449.904 286.86Z" stroke="#4C566F" stroke-miterlimit="10"/>
<path d="M437.55 151.368C428.875 154.688 421.44 161.652 417.97 172.261C406.227 208.286 395.741 244.157 395.741 257.323C395.741 287.261 419.991 311.512 449.884 311.512C479.778 311.512 504.028 287.242 504.028 257.323C504.028 244.157 493.542 208.286 481.798 172.261C478.348 161.652 470.913 154.688 462.219 151.368" stroke="#4C566F" stroke-miterlimit="10" stroke-linecap="round" stroke-linejoin="round"/>
</svg>
