<svg width="35" height="26" viewBox="0 0 35 26" fill="none" xmlns="http://www.w3.org/2000/svg">
<path d="M28.7661 1.88934L28.7486 1.90552L28.7319 1.92252L13.3917 17.5513L6.60674 10.6736C6.08952 9.91805 5.30969 9.48767 4.46182 9.37969C3.5125 9.2588 2.6137 9.62497 1.9713 10.2249C1.28002 10.8705 0.950745 11.7909 1.00599 12.6913C1.05791 13.5377 1.45696 14.3919 2.15482 14.9118L11.1893 24.0775C11.1895 24.0777 11.1897 24.0779 11.1899 24.0781C11.7502 24.6487 12.5383 25 13.3553 25H13.3935H13.4317H13.4708L13.5098 24.9969C14.2496 24.939 14.9415 24.5978 15.4219 24.0621L33.0968 6.32715L33.0968 6.32717L33.1022 6.32173C33.669 5.7442 34 4.94706 34 4.10265C34 3.24749 33.6619 2.50085 33.1186 1.9394C32.5261 1.28571 31.7512 1 30.9362 1C30.0651 1 29.3348 1.36265 28.7661 1.88934Z" fill="#D2D9E3" stroke="#D2D9E3" stroke-width="2"/>
</svg>
