<svg width="118" height="115" viewBox="0 0 118 115" fill="none" xmlns="http://www.w3.org/2000/svg">
<path d="M92.1738 17.9046C99.2479 24.9546 103.535 31.5107 105.862 41.3656C106.09 42.3263 106.157 43.3371 106.506 44.2623C108.246 45.0501 109.982 45.9066 111.47 47.1194C121.35 55.1822 119.697 70.3679 108.695 76.5177C108.309 76.7344 107.055 77.1345 106.953 77.4867C106.842 79.0205 107.028 80.6251 106.932 82.1506C106.134 94.7126 95.5437 105.17 82.9812 105.945L69.0022 105.953L68.8497 106.114C68.1519 109.125 66.0251 111.907 63.1629 113.143C53.0155 117.526 44.4288 105.332 51.4507 97.4009C56.9349 91.2074 66.9715 93.9311 68.81 101.85L69.0064 102.071L82.461 102.092C87.7091 101.729 92.5582 99.6682 96.3418 96.0526C101.128 91.4825 103.437 85.1327 103.077 78.5203C103.019 78.2619 102.11 78.5495 101.876 78.562C100.384 78.6349 98.7486 78.7433 98.383 76.9365L98.4457 44.5312C98.8635 43.5913 99.4965 43.2099 100.51 43.1558C100.875 43.137 102.058 43.3516 102.194 43.1641C102.33 42.9765 101.515 39.9694 101.373 39.4922C99.4527 33.0007 95.8592 27.0156 91.1208 22.2308C90.9015 22.0099 89.5727 20.7179 89.4286 20.6804C89.1967 20.622 88.643 21.1409 88.386 21.2764C86.2592 22.4038 83.9088 22.5018 81.7068 21.5202C80.7478 21.093 79.8098 20.3615 78.8738 19.8697C70.8972 15.6706 62.7346 15.3705 53.8491 15.7727C49.2465 15.9811 44.1739 17.3732 40.0581 19.405C38.1966 20.324 36.4814 21.7224 34.411 22.1016C32.8211 22.3913 31.1413 22.0495 29.7227 21.3139C29.4114 21.1514 28.7721 20.5491 28.4379 20.72C22.0344 26.6634 17.296 34.5053 15.7437 43.1641C15.8921 43.3662 17.2229 43.1266 17.6303 43.1641C18.8713 43.2704 19.5273 43.9685 19.6673 45.1938L19.6715 76.5364C19.6443 77.4054 19.1283 78.3244 18.232 78.5349C17.3357 78.7454 16.0049 78.487 15.1149 78.364C1.83161 76.5489 -4.4674 60.9631 3.54895 50.2516C5.57341 47.5487 8.25806 45.5502 11.4274 44.3394C11.8035 43.8955 11.6656 43.41 11.7596 42.9265C13.6817 33.1653 18.6791 24.2273 26.1439 17.6837C26.3779 17.3231 26.0206 16.898 25.9559 16.5333C24.8068 10.1356 30.2492 7.56819 35.1693 5.36754C44.9615 0.987084 54.315 0.603638 64.9178 1.09962C72.0671 1.43513 79.1726 3.35653 85.5217 6.68251C89.1423 8.5789 92.6063 10.8754 92.2177 15.5247C92.1759 16.029 91.7455 17.171 91.7915 17.494C91.8312 17.767 92.0255 17.7587 92.1717 17.9046H92.1738ZM30.7653 12.1716C28.9811 13.7679 29.4386 16.8376 31.5257 17.9546C33.7027 19.1195 35.5141 17.4044 37.3024 16.4521C43.0123 13.4095 48.6595 12.2133 55.1047 11.9278C64.2451 11.5235 72.2175 12.0695 80.4386 16.3333C82.438 17.3711 84.6526 19.4008 86.9424 17.6545C89.0024 16.0853 88.6681 13.1448 86.5914 11.7569C80.4971 7.68281 71.3839 5.14873 64.0863 4.84447C53.356 4.39434 43.9044 5.11747 34.2773 10.1044C33.406 10.5566 31.4338 11.5735 30.7653 12.1716ZM15.6999 47.2215C11.4504 47.7738 7.61458 50.5058 5.5567 54.2319C1.38452 61.7862 5.20988 71.4182 13.385 74.0503C14.0703 74.2712 14.7848 74.4066 15.4868 74.5629L15.6999 74.4483V47.2236V47.2215ZM102.236 74.5004C103.044 74.5108 103.873 74.2816 104.636 74.0315C112.435 71.462 116.329 62.6115 112.855 55.1134C110.916 50.931 106.871 47.7675 102.238 47.2236V74.5004H102.236ZM62.7367 99.1118C59.6718 96.8049 55.065 97.8427 53.4124 101.337C51.0621 106.31 55.8297 111.709 61.1029 109.842C65.6574 108.229 66.5766 102.002 62.7346 99.1118H62.7367Z" fill="#1A1C3F"/>
<path d="M87.4813 30.079C94.24 36.833 95.5499 47.68 90.588 55.8553C88.5427 59.223 85.4485 61.7946 82.7116 64.5516C75.2071 72.1101 67.6567 79.6852 60.0582 87.1458C59.2935 87.6001 58.3325 87.5271 57.6618 86.9436L30.3641 59.7189C15.9986 44.9042 29.4072 20.0677 49.8607 24.344C53.2055 25.0442 56.2683 26.7322 58.9676 28.764C61.0109 27.3011 63.1022 25.9465 65.4943 25.1046C73.097 22.4309 81.7987 24.4044 87.4813 30.0811V30.079ZM57.2022 32.3776C39.6653 18.0358 18.6999 40.2111 32.9171 56.7514L58.9655 82.8278L76.0679 65.6853C80.4114 60.838 86.9235 56.6034 88.948 50.1599C92.063 40.2424 85.6595 29.6268 75.3659 28.0555C69.7856 27.2031 65.5194 28.5514 61.1885 32.0275C60.4572 32.6151 60.0686 33.3549 58.9676 33.3549C58.0316 33.3549 57.8185 32.8798 57.2043 32.3776H57.2022Z" fill="#FB8801"/>
<path d="M70.989 42.5722C71.6596 43.2849 71.6241 44.4311 71.0203 45.1646C67.4102 48.6657 63.9191 52.3126 60.382 55.8136C59.7427 56.445 57.971 58.4165 57.2712 58.6457C56.519 58.8937 55.7001 58.6895 55.136 58.1455L46.9608 49.9306C45.6279 47.9571 47.8216 45.7773 49.7541 47.2257L56.4083 53.936L56.6548 53.9776L68.3628 42.3284C69.1108 41.7949 70.3518 41.8949 70.989 42.5722Z" fill="#FB8801"/>
</svg>
