<svg width="190" height="192" viewBox="0 0 190 192" fill="none" xmlns="http://www.w3.org/2000/svg">
<path d="M106.354 1.0063C106.757 0.857531 107.177 0.791899 107.598 0.739393C107.891 0.910037 108.11 0.726266 108.338 0.590627C109.341 0.358726 110.348 0.17058 111.39 0.205584C111.85 0.218711 112.301 0.0480669 112.769 0.039316C118.331 -0.0919484 123.516 1.20757 128.429 3.82848C130.833 5.1105 133.097 6.55878 135.208 8.26084C137.261 9.91915 139.14 11.7569 140.905 13.7258C143.02 16.0842 144.916 18.5957 146.65 21.2341C148.445 23.9601 150.044 26.7998 151.449 29.7445C152.54 32.0241 153.534 34.3475 154.445 36.7015C155.693 39.9262 156.748 43.2166 157.611 46.5638C158.557 50.2348 159.301 53.9452 159.84 57.7038C160.19 60.1409 160.479 62.5824 160.645 65.0371C160.864 68.2224 160.943 71.4121 160.847 74.6062C160.768 77.1572 160.619 79.6993 160.339 82.2371C160.173 83.7466 159.962 85.2518 159.73 86.7526C159.656 87.247 159.761 87.6846 159.883 88.1396C160.952 92.1301 161.657 96.1817 162.034 100.29C162.318 103.388 162.415 106.49 162.336 109.601C162.244 113.29 161.942 116.957 161.381 120.601C160.878 123.9 160.221 127.169 159.345 130.389C158.346 134.065 157.177 137.683 155.754 141.214C154.064 145.415 152.111 149.488 149.838 153.409C148.66 155.434 147.416 157.412 146.103 159.346C144.552 161.626 142.884 163.827 141.111 165.94C139.144 168.281 137.073 170.53 134.844 172.626C132.773 174.577 130.627 176.45 128.346 178.156C126.296 179.692 124.181 181.14 121.965 182.427C120.744 183.136 119.531 183.871 118.226 184.422C117.941 184.479 117.551 184.321 117.455 184.785C117.429 184.803 117.398 184.816 117.367 184.816C117.232 184.768 117.153 184.816 117.122 184.951C117.065 184.982 117.013 185.008 116.956 185.039C116.802 184.969 116.693 185.035 116.601 185.157C116.535 185.179 116.474 185.205 116.408 185.227C116.203 185.214 116.036 185.262 115.962 185.481C115.786 185.625 115.581 185.704 115.366 185.761C115.204 185.726 115.051 185.7 115.029 185.932C114.867 185.988 114.705 186.045 114.547 186.102C114.394 186.05 114.241 185.997 114.179 186.22C114.162 186.251 114.136 186.269 114.105 186.282C113.96 186.247 113.825 186.234 113.755 186.409C113.527 186.514 113.295 186.614 113.067 186.719C112.804 186.68 112.546 186.667 112.397 186.951C112.292 186.995 112.187 187.039 112.086 187.082C111.955 186.955 111.907 187.034 111.876 187.165C108.605 188.391 105.329 189.594 101.909 190.36C99.3826 190.924 96.8252 191.252 94.2503 191.506C92.0126 191.725 89.7793 191.76 87.5504 191.585C83.8764 191.292 80.2286 190.753 76.6772 189.716C74.1636 188.981 71.7026 188.089 69.2504 187.161C69.2197 187.034 69.1671 186.955 69.0402 187.078C68.9351 187.034 68.83 186.99 68.7293 186.947C68.576 186.662 68.322 186.671 68.0592 186.715C67.8622 186.623 67.6608 186.535 67.4637 186.444C67.398 186.172 67.1966 186.264 67.0214 186.277C66.9908 186.264 66.9645 186.242 66.947 186.216C66.8857 185.988 66.7324 186.041 66.5791 186.098C66.4171 186.041 66.2551 185.984 66.0974 185.927C66.0756 185.695 65.9223 185.717 65.7603 185.757C65.5457 185.695 65.3399 185.621 65.1647 185.477C65.0903 185.258 64.9239 185.21 64.718 185.223C64.6523 185.201 64.591 185.175 64.5254 185.153C64.4378 185.03 64.3283 184.965 64.1707 185.035C64.1137 185.004 64.0612 184.978 64.0042 184.947C63.9736 184.807 63.8948 184.763 63.759 184.811C63.7284 184.807 63.6977 184.798 63.6715 184.781C63.5751 184.317 63.1898 184.475 62.9007 184.418C61.6089 183.875 60.4047 183.158 59.2048 182.444C57.5977 181.49 56.0256 180.484 54.5017 179.399C51.8524 177.518 49.3607 175.448 46.9654 173.247C44.6576 171.129 42.5031 168.863 40.4756 166.483C38.7328 164.435 37.1081 162.295 35.5623 160.094C33.202 156.73 31.0694 153.229 29.1864 149.58C27.321 145.962 25.6613 142.247 24.3038 138.405C23.4368 135.955 22.6485 133.483 21.9523 130.976C21.1509 128.092 20.5203 125.178 20.0036 122.238C19.3686 118.641 19.0052 115.014 18.8431 111.36C18.7293 108.722 18.7161 106.088 18.8607 103.454C19.0095 100.767 19.2767 98.0982 19.7014 95.4379C20.1306 92.782 20.678 90.1523 21.3961 87.562C21.51 87.1551 21.3874 86.757 21.3261 86.3675C20.7437 82.7753 20.4196 79.1568 20.2926 75.5207C20.1831 72.436 20.2313 69.3513 20.3977 66.2622C20.621 62.193 21.129 58.1632 21.8472 54.1596C22.6879 49.4822 23.8396 44.8749 25.3592 40.3681C26.4758 37.0603 27.7501 33.8224 29.2302 30.6633C30.5571 27.8192 32.0372 25.0539 33.7319 22.4068C34.9624 20.4816 36.2192 18.5739 37.638 16.7843C39.5692 14.3471 41.6186 12.015 43.9438 9.93665C46.3873 7.75766 48.9666 5.7712 51.8699 4.2354C54.8126 2.67773 57.8429 1.32571 61.136 0.673761C61.7009 0.564374 62.257 0.39373 62.8394 0.415607C62.9445 0.533745 63.0015 0.454987 63.0584 0.363102C63.1941 0.336849 63.3299 0.310596 63.47 0.284343C63.6933 0.371852 63.9211 0.498741 64.1006 0.20996C64.1663 0.201209 64.2364 0.196833 64.302 0.188082C64.5911 0.643132 64.8319 0.494366 65.0552 0.126826C65.3311 0.113699 65.6114 0.100573 65.8873 0.0830708C65.9617 0.183707 66.0274 0.17058 66.0843 0.0699443C66.1587 0.0699443 66.2332 0.0655689 66.3076 0.0655689C66.5485 0.205584 66.7893 0.192458 67.0302 0.0743198C67.8578 0.030565 68.6855 -0.0175653 69.5087 0.188082C69.9203 0.293094 70.3626 0.148703 70.8005 0.218711C71.4662 0.328098 72.1449 0.384979 72.7974 0.573125C73.0295 0.704389 73.2484 0.892535 73.5418 0.721891C73.9666 0.770021 74.387 0.835653 74.7855 0.988795C74.9563 1.40447 74.6147 1.35634 74.3957 1.42634C72.5215 1.06755 70.6473 0.730642 68.738 0.612504C68.6723 0.503117 68.6023 0.450611 68.5147 0.595002C67.8097 0.590627 67.109 0.581876 66.404 0.5775C66.1938 0.275592 66.0098 0.240588 65.8653 0.630006C65.5895 0.651883 65.3136 0.673761 65.0377 0.691263C64.4203 0.507492 63.8247 0.62563 63.2467 0.857531C62.7913 0.936289 62.3402 1.01505 61.8848 1.09381C61.7096 0.975669 61.5564 0.936289 61.4688 1.19007C58.3246 1.81576 55.3819 3.02339 52.5574 4.49356C49.3169 6.17811 46.3961 8.3396 43.7818 10.8993C42.7221 11.9362 41.5923 12.9164 40.6333 14.0365C39.4597 15.4104 38.3299 16.8237 37.2395 18.2719C36.0353 19.8777 34.9055 21.5361 33.8677 23.2425C32.532 25.4477 31.3103 27.723 30.1849 30.0507C28.2187 34.1112 26.6028 38.3073 25.276 42.6084C23.844 47.2507 22.7536 51.9719 22.0267 56.7805C21.5625 59.8346 21.221 62.9062 21.037 65.9866C20.7743 70.3839 20.7699 74.7857 21.1421 79.1786C21.3567 81.7383 21.5625 84.2979 22.1537 86.8095C22.2062 87.037 22.1975 87.2514 22.1274 87.4789C20.9188 91.5262 20.1919 95.6698 19.7846 99.8659C19.4518 103.274 19.3555 106.687 19.4431 110.113C19.5832 115.526 20.3014 120.864 21.418 126.149C22.1362 129.545 23.0295 132.905 24.1943 136.182C24.4746 136.97 24.7198 137.771 25.0176 138.55C26.0686 141.297 27.1721 144.023 28.4508 146.675C30.5308 150.98 32.913 155.106 35.5974 159.066C37.8 162.308 40.2786 165.332 42.8535 168.272C44.084 169.677 45.424 170.985 46.7815 172.267C48.8615 174.236 51.0379 176.104 53.3325 177.819C56.3672 180.086 59.5639 182.116 62.9358 183.853C65.318 185.083 67.8097 186.076 70.3714 186.89C71.453 187.235 72.5653 187.529 73.5944 187.988C74.5227 188.399 75.4642 188.741 76.4276 189.012C80.1235 190.049 83.8764 190.745 87.7168 190.937C89.8669 191.042 92.017 191.047 94.1584 190.911C96.5669 190.758 98.9491 190.368 101.314 189.87C103.262 189.458 105.202 188.968 107.072 188.312C108.78 187.712 110.488 187.087 112.196 186.479C114.447 185.673 116.627 184.715 118.738 183.599C119.833 183.022 120.884 182.37 121.943 181.727C122.99 181.092 124.05 180.48 125.053 179.78C126.782 178.572 128.49 177.329 130.119 175.986C131.577 174.787 133.014 173.562 134.367 172.254C136.022 170.657 137.634 169.007 139.149 167.266C141.645 164.4 144.001 161.425 146.09 158.244C147.049 156.787 147.977 155.316 148.87 153.816C150.508 151.059 151.992 148.224 153.324 145.305C154.865 141.923 156.231 138.471 157.366 134.927C158.355 131.833 159.178 128.696 159.844 125.515C160.51 122.334 161.022 119.127 161.342 115.893C161.736 111.947 161.85 107.987 161.653 104.023C161.407 99.0739 160.777 94.1822 159.538 89.3779C159.253 88.2709 158.924 87.2076 159.152 85.9781C160.006 81.3795 160.264 76.7196 160.269 72.0466C160.273 67.518 159.958 63.0156 159.349 58.5264C158.911 55.3104 158.325 52.125 157.585 48.9616C156.993 46.4282 156.297 43.9166 155.496 41.4445C154.537 38.491 153.468 35.577 152.19 32.7373C151.23 30.6064 150.228 28.4974 149.094 26.4497C148.248 24.927 147.364 23.4306 146.431 21.9561C145.433 20.3766 144.373 18.8364 143.23 17.3706C142.175 16.0186 141.102 14.6709 139.911 13.4195C138.886 12.3432 137.839 11.2887 136.731 10.3042C134.047 7.91956 131.17 5.81933 127.921 4.22665C125.749 3.16341 123.564 2.18768 121.221 1.56198C117.783 0.643132 114.302 0.419983 110.772 0.756895C109.411 0.888159 108.084 1.21194 106.739 1.41759C106.52 1.2557 106.42 1.42634 106.306 1.56636C106.069 1.61011 105.833 1.65387 105.596 1.69762C105.579 1.39571 105.794 1.32133 106.021 1.32133C106.28 1.34758 106.337 1.20757 106.354 1.0063Z" fill="#4C566F"/>
<path d="M82.9218 4.46742C85.6718 6.09072 88.0365 8.16032 90.0946 10.5887C90.5851 11.1663 90.5632 11.1707 91.058 10.5887C92.998 8.31784 95.1831 6.327 97.7492 4.77808C97.9112 4.67744 98.0689 4.57243 98.2309 4.47179C98.3929 4.44991 98.6557 4.62493 98.6382 4.25739C98.682 4.22676 98.7214 4.19176 98.7652 4.16113C99.0323 4.21364 98.9841 4.42804 99.0016 4.61181C97.8105 5.36877 96.6194 6.12135 95.5378 7.03145C95.4502 7.10583 95.3451 7.18897 95.2094 7.12333C95.205 7.11021 95.2006 7.09708 95.1919 7.08395C95.1875 7.07958 95.1743 7.07958 95.1656 7.0752C95.1787 7.0927 95.1962 7.10583 95.2094 7.12333C95.2356 7.33773 95.0473 7.41649 94.9335 7.52588C94.3992 8.02468 93.8519 8.50598 93.3045 8.99604C93.0768 8.85165 93.1293 9.01792 93.1381 9.14043C92.3411 10.0287 91.4697 10.8556 90.8259 11.8707C90.6552 12.1376 90.4669 12.0239 90.3311 11.827C89.6568 10.8512 88.8247 10.0111 88.0277 9.14043C88.0365 9.01792 88.0847 8.84727 87.8613 8.99604C87.6774 8.83415 87.4672 8.69851 87.3183 8.51036C86.9155 7.99843 86.2455 7.74903 85.9564 7.12333C85.9696 7.11896 85.9827 7.11458 85.9959 7.10583C86.0002 7.10146 86.0003 7.08833 86.0046 7.07958C85.9915 7.09708 85.974 7.11021 85.9608 7.12771C85.8251 7.19334 85.7156 7.11021 85.6324 7.03582C84.5508 6.12135 83.3597 5.36877 82.1686 4.61618C82.1861 4.43241 82.1379 4.21801 82.405 4.16551C82.4444 4.19614 82.4883 4.23114 82.5277 4.26177C82.497 4.62056 82.7641 4.44554 82.9218 4.46742Z" fill="#4C566F"/>
<path d="M82.3919 4.15671C82.1248 4.20922 82.1729 4.42362 82.1554 4.60739C81.9321 4.60739 81.7613 4.47175 81.5818 4.37111C79.852 3.38225 78.026 2.62092 76.143 1.98647C75.5693 1.78958 74.9431 1.76332 74.4089 1.44829C74.6278 1.37828 74.9694 1.42641 74.7986 1.01074C75.7182 1.18139 76.6028 1.48329 77.4786 1.79395C79.0726 2.35839 80.614 3.04534 82.0766 3.90293C82.1904 3.96419 82.2868 4.0692 82.3919 4.15671Z" fill="#4C566F"/>
<path d="M98.9973 4.60742C98.9797 4.42365 99.0279 4.20925 98.7608 4.15674C99.6279 3.51792 100.561 3.01037 101.594 2.69971C101.59 2.89223 101.638 3.05412 101.826 3.14601C100.902 3.67106 99.9782 4.18737 98.9973 4.60742Z" fill="#4C566F"/>
<path d="M101.826 3.14577C101.638 3.05388 101.585 2.89199 101.594 2.69947C101.625 2.68634 101.66 2.67759 101.695 2.67759C101.826 2.72572 101.901 2.66884 101.936 2.54633C102.08 2.43257 102.242 2.36693 102.43 2.36256C102.566 2.40194 102.645 2.34943 102.667 2.20942C102.772 2.17004 102.877 2.13066 102.982 2.09565C103.092 2.22254 103.153 2.14816 103.201 2.03877C103.372 1.89001 103.578 1.855 103.792 1.8375C103.967 1.84188 104.186 1.96001 104.226 1.64935C104.616 1.53122 105.005 1.41308 105.395 1.29932C105.443 1.6056 105.321 1.78499 105.014 1.84188C104.896 1.86375 104.773 1.88563 104.756 2.03877C104.664 2.06065 104.567 2.0869 104.475 2.10878C103.819 2.10878 103.236 2.31443 102.763 2.7826C102.444 2.90074 102.133 3.02326 101.826 3.14577Z" fill="#4C566F"/>
<path d="M104.747 2.03865C104.764 1.88551 104.887 1.85926 105.005 1.84176C105.312 1.78487 105.439 1.60548 105.386 1.2992C105.702 1.17668 105.982 0.949157 106.35 1.00604C106.332 1.20731 106.275 1.3517 106.021 1.34733C105.794 1.34733 105.583 1.42171 105.596 1.72362C105.36 1.94677 105.053 1.99052 104.747 2.03865Z" fill="#4C566F"/>
<path d="M65.0728 0.139697C64.8494 0.507238 64.6086 0.656004 64.3196 0.200954C64.5692 0.179077 64.81 0.0478124 65.0728 0.139697Z" fill="#4C566F"/>
<path d="M62.9139 184.426C63.1985 184.483 63.5883 184.326 63.6846 184.789C63.3737 184.776 63.1416 184.606 62.9139 184.426Z" fill="#4C566F"/>
<path d="M117.468 184.789C117.564 184.326 117.95 184.483 118.239 184.426C118.011 184.606 117.775 184.776 117.468 184.789Z" fill="#4C566F"/>
<path d="M73.5506 0.739164C73.2572 0.909808 73.0382 0.726038 72.8062 0.590398C73.082 0.511639 73.3273 0.577272 73.5506 0.739164Z" fill="#4C566F"/>
<path d="M108.342 0.590398C108.11 0.721662 107.891 0.909808 107.602 0.739164C107.825 0.577272 108.066 0.511639 108.342 0.590398Z" fill="#4C566F"/>
<path d="M67.0433 0.0874251C66.8025 0.205563 66.5616 0.218689 66.3208 0.0786741C66.5616 -0.0175865 66.8025 -0.0350884 67.0433 0.0874251Z" fill="#4C566F"/>
<path d="M64.1181 0.222839C63.9386 0.51162 63.7109 0.389107 63.4875 0.297222C63.6846 0.152831 63.9079 0.244716 64.1181 0.222839Z" fill="#4C566F"/>
<path d="M68.068 186.724C68.3351 186.684 68.5891 186.671 68.738 186.956C68.484 186.973 68.2563 186.912 68.068 186.724Z" fill="#4C566F"/>
<path d="M112.41 186.96C112.564 186.676 112.818 186.689 113.08 186.728C112.896 186.912 112.664 186.973 112.41 186.96Z" fill="#4C566F"/>
<path d="M104.222 1.64941C104.187 1.96007 103.963 1.84194 103.788 1.83756C103.88 1.64941 104.051 1.65817 104.222 1.64941Z" fill="#4C566F"/>
<path d="M67.0302 186.29C67.2012 186.277 67.4074 186.185 67.4732 186.456C67.3021 186.456 67.1223 186.491 67.0302 186.29Z" fill="#4C566F"/>
<path d="M115.979 185.485C116.054 185.266 116.22 185.218 116.427 185.231C116.339 185.424 116.172 185.481 115.979 185.485Z" fill="#4C566F"/>
<path d="M64.7268 185.231C64.933 185.218 65.0997 185.271 65.1742 185.485C64.9768 185.481 64.8145 185.424 64.7268 185.231Z" fill="#4C566F"/>
<path d="M98.6344 4.25293C98.6564 4.62047 98.3888 4.44108 98.2265 4.46733C98.3011 4.27918 98.4721 4.27918 98.6344 4.25293Z" fill="#4C566F"/>
<path d="M82.9224 4.46733C82.7601 4.44545 82.497 4.62047 82.5145 4.25293C82.6768 4.27918 82.8479 4.27918 82.9224 4.46733Z" fill="#4C566F"/>
<path d="M114.197 186.225C114.258 185.997 114.412 186.05 114.565 186.107C114.482 186.264 114.337 186.238 114.197 186.225Z" fill="#4C566F"/>
<path d="M115.046 185.936C115.068 185.704 115.222 185.726 115.384 185.766C115.318 185.914 115.196 185.954 115.046 185.936Z" fill="#4C566F"/>
<path d="M66.5879 186.107C66.7414 186.05 66.8949 186.002 66.9564 186.225C66.816 186.238 66.6712 186.264 66.5879 186.107Z" fill="#4C566F"/>
<path d="M65.769 185.766C65.9313 185.726 66.0849 185.704 66.1068 185.936C65.9577 185.954 65.8348 185.914 65.769 185.766Z" fill="#4C566F"/>
<path d="M113.772 186.417C113.842 186.242 113.978 186.255 114.123 186.29C114.048 186.456 113.921 186.47 113.772 186.417Z" fill="#4C566F"/>
<path d="M116.619 185.161C116.706 185.039 116.82 184.973 116.974 185.043C116.886 185.183 116.763 185.205 116.619 185.161Z" fill="#4C566F"/>
<path d="M64.1794 185.043C64.333 184.973 64.4426 185.039 64.5347 185.161C64.39 185.205 64.2672 185.183 64.1794 185.043Z" fill="#4C566F"/>
<path d="M102.663 2.21377C102.641 2.35379 102.562 2.40192 102.426 2.36692C102.466 2.25753 102.54 2.20065 102.663 2.21377Z" fill="#4C566F"/>
<path d="M66.0978 0.0829136C66.0408 0.18355 65.975 0.201052 65.9004 0.09604C65.9618 0.00415491 66.0276 0.00415491 66.0978 0.0829136Z" fill="#4C566F"/>
<path d="M63.7722 184.82C63.9081 184.772 63.9871 184.82 64.0178 184.956C63.895 184.987 63.8204 184.93 63.7722 184.82Z" fill="#4C566F"/>
<path d="M117.135 184.96C117.166 184.82 117.245 184.776 117.381 184.824C117.333 184.93 117.258 184.986 117.135 184.96Z" fill="#4C566F"/>
<path d="M101.932 2.54637C101.892 2.66888 101.818 2.72576 101.69 2.67763C101.734 2.56387 101.809 2.51136 101.932 2.54637Z" fill="#4C566F"/>
<path d="M63.0763 0.376413C63.0236 0.472674 62.9622 0.547057 62.8569 0.428919C62.914 0.337034 62.9885 0.323907 63.0763 0.376413Z" fill="#4C566F"/>
<path d="M103.197 2.03889C103.149 2.15265 103.087 2.22266 102.978 2.09577C103.03 1.99951 103.109 1.99951 103.197 2.03889Z" fill="#4C566F"/>
<path d="M69.0533 187.087C69.1849 186.96 69.2331 187.039 69.2638 187.17C69.1761 187.192 69.1015 187.174 69.0533 187.087Z" fill="#4C566F"/>
<path d="M111.885 187.17C111.915 187.043 111.968 186.964 112.095 187.087C112.051 187.174 111.977 187.192 111.885 187.17Z" fill="#4C566F"/>
<path d="M65.0464 0.704397C64.4553 0.822535 63.8597 0.896918 63.2554 0.870665C63.8378 0.638764 64.429 0.520627 65.0464 0.704397Z" fill="#4C566F"/>
<path d="M66.4136 0.590794C66.2469 0.722058 66.0627 0.717683 65.8741 0.6433C66.0232 0.258257 66.2074 0.288886 66.4136 0.590794Z" fill="#4C566F"/>
<path d="M61.8986 1.11151C61.7846 1.24715 61.6311 1.22964 61.4819 1.20777C61.5653 0.953989 61.7232 0.988993 61.8986 1.11151Z" fill="#4C566F"/>
<path d="M106.744 1.44374C106.617 1.54875 106.49 1.63626 106.31 1.5925C106.424 1.45249 106.53 1.28184 106.744 1.44374Z" fill="#4C566F"/>
<path d="M68.7471 0.630099C68.6682 0.704482 68.5936 0.68698 68.5234 0.612597C68.6112 0.468206 68.6814 0.520712 68.7471 0.630099Z" fill="#4C566F"/>
<path d="M93.3004 8.99151C93.2829 9.08339 93.2171 9.12277 93.1337 9.1359C93.125 9.01338 93.0723 8.84274 93.3004 8.99151Z" fill="#4C566F"/>
<path d="M88.0192 9.1359C87.9315 9.12277 87.8657 9.08339 87.8525 8.99151C88.0762 8.84274 88.028 9.01338 88.0192 9.1359Z" fill="#4C566F"/>
<path d="M95.2055 7.11957C95.1922 7.10183 95.1745 7.08853 95.1612 7.0708C95.1701 7.07523 95.1833 7.07523 95.1878 7.07967C95.1966 7.08853 95.1966 7.10627 95.2055 7.11957Z" fill="#4C566F"/>
<path d="M85.9477 7.11957C85.961 7.10183 85.9787 7.08853 85.992 7.0708C85.9876 7.07967 85.992 7.09297 85.9831 7.0974C85.9743 7.10627 85.961 7.1107 85.9477 7.11957Z" fill="#4C566F"/>
<path d="M104.467 2.10889C103.924 2.40204 103.332 2.58144 102.754 2.78271C103.227 2.31453 103.81 2.10889 104.467 2.10889Z" fill="#4C566F"/>
<path d="M30.9424 72.449C31.2665 71.3857 31.5905 70.3225 31.919 69.2592C32.3306 67.9291 32.8123 66.6296 33.3071 65.3301C33.8019 64.0349 34.3055 62.7398 34.9098 61.4884C35.3828 60.5083 35.755 59.4844 36.3024 58.5393C36.4469 58.5087 36.4819 58.4168 36.4425 58.2855C36.5038 58.1586 36.5607 58.0361 36.622 57.9092C36.9505 57.8042 37.0118 57.5504 36.9811 57.2485C37.349 56.5441 37.6993 55.8309 38.0846 55.1396C39.0349 53.4375 40.0815 51.8011 41.185 50.1953C42.0564 48.922 42.9323 47.6531 43.9263 46.463C44.7452 45.4785 45.5071 44.4459 46.3348 43.4702C46.9522 42.7438 47.6266 42.0656 48.2922 41.3874C49.3344 40.3242 50.3723 39.2566 51.4539 38.2371C52.2334 37.502 53.096 36.8544 53.9105 36.1587C55.1629 35.0867 56.4766 34.0891 57.8254 33.1484C58.7143 32.5315 59.5814 31.862 60.5929 31.4245C60.9564 31.2669 61.3024 30.9825 61.6001 30.7288C62.1825 30.2387 62.8744 29.9412 63.5138 29.5955C64.9632 28.8167 66.4346 28.0685 67.9541 27.4121C69.4912 26.7471 71.037 26.1389 72.6222 25.6051C74.6147 24.9312 76.6334 24.3668 78.6828 23.8811C80.268 23.5048 81.8795 23.3561 83.4647 23.0498C85.7593 22.6122 88.0715 22.4941 90.3924 22.481C92.7877 22.4678 95.1918 22.5116 97.5565 22.8791C99.0848 23.1198 100.644 23.2379 102.133 23.6711C103.17 23.973 104.256 24.0649 105.268 24.4193C106.446 24.835 107.69 25.0231 108.824 25.5657C109.025 25.6619 109.257 25.7013 109.472 25.7626C110.663 26.0951 111.793 26.5939 112.927 27.0752C114.171 27.6003 115.392 28.1822 116.583 28.8167C118.107 29.6305 119.614 30.4837 121.085 31.3851C122.767 32.4177 124.352 33.5903 125.933 34.7673C127.014 35.5724 128.065 36.43 129.051 37.3489C130.807 38.9897 132.598 40.5998 134.187 42.4069C135.777 44.2184 137.314 46.0648 138.759 47.9988C139.884 49.5083 140.9 51.0835 141.907 52.663C142.516 53.6213 143.042 54.6451 143.593 55.6427C144.128 56.6097 144.671 57.5811 145.183 58.5612C145.739 59.6244 146.221 60.7183 146.685 61.8297C147.18 63.011 147.727 64.1749 148.178 65.3782C148.975 67.5178 149.733 69.6661 150.35 71.8714C150.915 73.906 151.428 75.9537 151.839 78.0233C152.518 81.4143 152.956 84.8403 153.192 88.2926C153.367 90.8391 153.446 93.3856 153.376 95.9322C153.271 99.9007 152.89 103.843 152.198 107.755C151.594 111.172 150.793 114.545 149.737 117.858C148.629 121.332 147.324 124.718 145.752 128.009C144.552 130.52 143.208 132.953 141.754 135.32C140.747 136.961 139.635 138.532 138.483 140.081C137.436 141.49 136.346 142.855 135.181 144.163C133.789 145.73 132.379 147.278 130.824 148.692C129.541 149.86 128.267 151.019 126.905 152.1C124.54 153.982 122.053 155.666 119.478 157.25C117.31 158.585 114.972 159.543 112.682 160.611C110.229 161.753 107.646 162.54 105.049 163.301C102.846 163.945 100.6 164.334 98.3491 164.693C96.777 164.942 95.1874 165.025 93.5978 165.087C92.9716 165.113 92.3454 165.227 91.7192 165.222C88.216 165.214 84.7259 164.995 81.2752 164.4C79.817 164.15 78.3412 163.932 76.9181 163.507C74.803 162.873 72.6966 162.212 70.6122 161.459C69.5788 161.087 68.5803 160.632 67.5688 160.204C66.312 159.67 65.0902 159.044 63.8816 158.41C62.9007 157.893 61.9373 157.342 61.0046 156.747C59.2573 155.631 57.5276 154.48 55.8767 153.22C54.5192 152.179 53.2011 151.081 51.9268 149.939C50.5124 148.67 49.1549 147.327 47.8543 145.935C46.7552 144.763 45.6954 143.551 44.6882 142.304C43.6504 141.026 42.6695 139.704 41.7324 138.348C40.7471 136.922 39.7793 135.482 38.8948 133.99C37.4541 131.553 36.1316 129.055 34.9755 126.469C34.0384 124.368 33.1626 122.242 32.4225 120.063C31.6037 117.674 30.8636 115.259 30.3162 112.787C30.0053 111.378 29.655 109.973 29.3966 108.551C29.0156 106.473 28.7222 104.386 28.4945 102.285C28.0829 98.4918 27.9822 94.6852 28.0829 90.8785C28.1792 87.1199 28.5252 83.3789 29.3047 79.6904C29.69 77.8746 30.0403 76.05 30.4695 74.2473C30.5483 74.221 30.6315 74.1948 30.7103 74.1729C30.7235 74.1816 30.7366 74.1904 30.7541 74.1992C30.741 74.1904 30.7235 74.186 30.7103 74.1773C30.6359 73.8754 30.8986 73.5953 30.7541 73.2891C30.7979 73.1709 30.8373 73.0484 30.8811 72.9303C31.0869 72.7946 31.0037 72.6196 30.9424 72.449ZM68.16 42.6257C68.6723 42.757 68.6723 42.757 68.773 42.28C68.7818 42.1356 68.7905 41.9869 68.7993 41.8425C68.9744 41.8118 69.1452 41.7856 69.3204 41.755C69.3335 41.93 69.3467 42.105 69.3554 42.28C69.3642 42.3457 69.3992 42.3719 69.4649 42.3632C72.0354 43.3214 74.7022 43.8596 77.426 44.0521C80.268 44.2534 83.11 44.1746 85.917 43.6102C87.2001 43.352 88.4612 43.0107 89.6479 42.4288C90.0683 42.2231 90.2698 41.9869 90.2698 41.4749C90.2566 35.5374 90.2698 29.6043 90.2873 23.6667C90.2873 23.3342 90.1822 23.2511 89.8625 23.2686C88.7283 23.3298 87.5942 23.3911 86.46 23.4042C85.3565 23.4173 84.2442 23.4698 83.1801 23.7105C81.4854 24.0955 79.7557 24.2705 78.0654 24.7125C76.3794 25.15 74.711 25.6357 73.0382 26.1082C72.0398 26.3927 71.0939 26.874 70.0823 27.1496C69.8327 27.0971 69.6619 27.189 69.5612 27.4209C69.3773 27.5084 69.3029 27.6659 69.2897 27.8584C69.0445 28.0335 68.8737 27.5653 68.6241 27.7841C67.9366 28.1078 67.2228 28.3835 66.566 28.7598C65.318 29.4686 64.0086 30.0593 62.7694 30.7944C61.4118 31.5995 60.0893 32.4439 58.7756 33.319C57.4356 34.2116 56.157 35.1655 54.909 36.1806C53.9718 36.9419 53.061 37.7383 52.1458 38.5302C50.7532 39.7379 49.5184 41.0943 48.209 42.3807C47.9507 42.6301 47.9594 42.7395 48.301 42.8663C49.203 43.2076 50.1314 43.4527 51.0685 43.6627C54.0288 44.319 57.024 44.5465 60.0587 44.3934C62.4059 44.2752 64.7049 43.9208 66.9382 43.177C67.0696 43.3433 67.1221 43.2645 67.1484 43.107C67.49 42.9582 67.8272 42.792 68.16 42.6257ZM112.27 42.28C112.038 42.4813 112.134 42.6169 112.38 42.6607C112.542 42.6869 112.721 42.6344 112.888 42.6169C112.953 42.6694 113.01 42.7351 113.085 42.7745C114.179 43.4045 115.405 43.632 116.618 43.8596C119.009 44.3102 121.435 44.4634 123.87 44.4503C123.962 44.5947 124.032 44.5421 124.094 44.424C124.33 44.4153 124.571 44.4065 124.807 44.3978C125.206 44.6734 125.692 44.6384 126.086 44.3059C128.122 44.0871 130.128 43.7283 132.081 43.1026C132.414 42.9976 132.742 42.8751 133.066 42.7482C133.184 42.7001 133.395 42.6169 133.219 42.4638C132.808 42.105 132.567 41.5887 132.147 41.2693C131.367 40.6786 130.723 39.9523 130.027 39.2872C128.884 38.2065 127.719 37.1651 126.476 36.2069C125.596 35.5287 124.711 34.8636 123.822 34.1985C122.438 33.1659 120.98 32.247 119.522 31.3369C118.554 30.7331 117.56 30.1643 116.548 29.648C115.349 29.0354 114.122 28.4798 112.896 27.9197C112.34 27.6659 112.327 27.6922 112.239 28.2872C111.929 28.4185 111.942 28.0597 111.775 27.9766C111.767 27.9197 111.758 27.8628 111.749 27.8016C111.985 27.6484 111.95 27.5434 111.696 27.4734C111.355 27.3903 111.118 27.1146 110.772 27.0227C109.63 26.7208 108.57 26.1608 107.418 25.8807C107.046 25.7888 106.661 25.7232 106.31 25.5744C105.023 25.0275 103.639 24.835 102.303 24.4806C101.007 24.1393 99.6453 24.0561 98.3185 23.8111C96.0195 23.3867 93.6985 23.3473 91.3776 23.2729C90.966 23.2598 90.8916 23.3955 90.896 23.7805C90.9179 25.5088 90.9003 27.2415 90.896 28.9698C90.8872 33.214 90.8872 37.4539 90.8697 41.6981C90.8697 41.9956 90.9573 42.1881 91.2025 42.35C91.6492 42.6476 92.1396 42.8313 92.652 42.967C93.738 43.2514 94.8065 43.6714 95.9056 43.7983C97.6835 44.004 99.4701 44.2009 101.274 44.144C103.232 44.0783 105.172 43.934 107.103 43.597C108.43 43.3651 109.704 42.932 111.013 42.6344C111.46 42.5338 111.758 42.2713 111.723 41.7593C111.898 41.79 112.069 41.8162 112.244 41.8469C112.231 41.8862 112.218 41.9212 112.204 41.9606C112.178 41.9781 112.156 41.9956 112.13 42.0087C112.156 42.0262 112.178 42.0437 112.204 42.0569C112.283 42.1138 112.283 42.1969 112.27 42.28ZM91.1937 164.465C91.855 164.465 92.5162 164.452 93.1775 164.47C94.4036 164.496 95.6253 164.426 96.8383 164.264C98.117 164.093 99.3869 163.826 100.661 163.621C102.181 163.376 103.674 163.008 105.15 162.584C106.367 162.234 107.584 161.858 108.78 161.42C109.805 161.044 110.834 160.667 111.845 160.269C113.036 159.797 114.179 159.21 115.344 158.677C115.598 158.558 115.874 158.488 116.115 158.353C117.284 157.688 118.449 157.018 119.609 156.336C120.358 155.898 121.111 155.465 121.83 154.979C122.859 154.288 123.853 153.548 124.864 152.831C125.447 152.42 125.985 151.951 126.55 151.518C127.369 150.888 128.118 150.171 128.889 149.484C129.729 148.731 130.605 148.013 131.385 147.204C132.803 145.729 134.24 144.277 135.527 142.675C136.145 141.905 136.81 141.166 137.393 140.374C138.698 138.606 139.985 136.821 141.146 134.944C142.126 133.36 143.068 131.754 143.935 130.109C144.925 128.232 145.827 126.311 146.646 124.351C147.605 122.067 148.454 119.744 149.19 117.381C150.114 114.401 150.845 111.369 151.432 108.297C151.48 108.043 151.432 107.943 151.217 107.864C149.676 107.317 148.091 107.09 146.475 107.387C143.69 107.899 141.413 109.251 139.626 111.487C138.61 112.756 137.831 114.134 137.288 115.652C136.88 116.781 136.591 117.932 136.46 119.14C136.35 120.146 136.333 121.161 136.407 122.15C136.482 123.1 136.653 124.066 136.994 124.985C137.161 125.432 136.95 125.594 136.482 125.515C136.315 125.489 136.132 125.502 135.961 125.537C134.848 125.773 133.78 126.132 132.764 126.635C130.645 127.676 128.792 129.081 127.15 130.783C125.998 131.973 124.891 133.185 124.115 134.668C123.327 136.173 122.451 137.639 122.175 139.363C122.127 139.678 121.952 139.879 121.558 139.893C120.936 139.906 120.332 140.094 119.736 140.273C117.03 141.087 114.652 142.47 112.59 144.391C111.359 145.537 110.238 146.78 109.45 148.285C108.999 149.142 108.605 150.026 108.57 151.019C108.557 151.396 108.276 151.518 107.9 151.334C107.322 151.054 106.766 150.731 106.174 150.486C102.417 148.932 98.4498 148.394 94.4386 148.197C90.6639 148.014 86.8979 148.189 83.1582 148.788C79.7469 149.335 76.4013 150.114 73.2528 151.58C72.9506 151.72 72.7579 151.693 72.7098 151.308C72.6309 150.669 72.4952 150.048 72.2631 149.444C71.4486 147.313 69.9028 145.73 68.3001 144.202C67.0082 142.973 65.48 142.063 63.8685 141.315C62.4716 140.667 61.0396 140.107 59.4763 139.98C59.2004 139.958 59.1128 139.788 59.0647 139.534C58.7844 138.007 58.1144 136.615 57.4181 135.25C56.5817 133.614 55.395 132.214 54.1076 130.914C51.9312 128.713 49.4308 126.989 46.4924 125.952C45.9275 125.751 45.332 125.554 44.7145 125.615C44.119 125.677 44.0752 125.637 44.246 125.042C44.6138 123.738 44.859 122.408 44.8678 121.047C44.8722 120.129 44.732 119.218 44.5875 118.308C44.0139 114.747 42.363 111.811 39.5166 109.614C36.9943 107.663 34.1391 106.875 30.9643 107.685C29.9265 107.947 29.9309 107.956 30.1542 109.01C30.198 109.216 30.2067 109.426 30.2462 109.632C30.6359 111.583 31.1395 113.504 31.665 115.425C32.405 118.133 33.329 120.785 34.3712 123.388C35.1419 125.309 36.0002 127.195 36.9461 129.041C38.2948 131.671 39.7531 134.231 41.4083 136.681C42.9104 138.908 44.5306 141.048 46.2472 143.117C47.7273 144.898 49.3519 146.535 51.016 148.136C52.6012 149.663 54.2784 151.094 56.0125 152.446C57.2255 153.391 58.5085 154.257 59.796 155.102C61.079 155.942 62.3796 156.773 63.7327 157.5C64.937 158.143 66.15 158.79 67.3936 159.346C69.1277 160.12 70.8968 160.816 72.6879 161.455C75.0569 162.304 77.4829 162.956 79.9396 163.463C81.5817 163.8 83.2633 163.923 84.9186 164.177C87.0074 164.492 89.1006 164.443 91.1937 164.465ZM145.511 106.683C145.363 106.6 145.257 106.538 145.152 106.486C142.17 104.968 139.083 103.712 135.895 102.71C135.466 102.574 135.409 102.408 135.532 102.027C135.685 101.546 135.807 101.056 135.921 100.566C136.521 97.9624 136.893 95.3327 136.911 92.6549C136.92 91.1148 136.784 89.5965 136.604 88.0694C136.377 86.153 136.193 84.2321 135.742 82.3463C134.91 78.859 133.798 75.4593 132.313 72.1952C130.544 68.3141 128.035 64.9538 124.746 62.2147C123.809 61.4359 122.907 60.5739 121.773 60.0926C118.278 58.6006 114.648 58.4868 110.987 59.2788C108.609 59.7951 106.485 60.9239 104.699 62.5779C102.82 64.3149 101.165 66.2139 100.517 68.8261C100.114 70.4494 99.619 72.042 99.4833 73.7222C99.3344 75.5731 99.2775 77.4195 99.6803 79.2441C100.053 80.933 100.241 82.6438 99.8642 84.3284C99.3563 86.6168 98.0951 88.4851 96.2471 89.9334C94.4079 91.3773 92.2141 91.6967 89.9851 91.7973C88.4962 91.863 87.1256 91.3117 85.8688 90.5853C82.0503 88.3888 80.9906 84.7222 81.4153 80.8411C81.573 79.406 81.9583 78.0014 81.8795 76.5357C81.8313 75.6124 81.8401 74.6892 81.7832 73.766C81.6737 71.9414 81.354 70.1781 80.7191 68.4629C79.344 64.7481 76.8436 62.0747 73.2791 60.4076C70.5028 59.1125 67.5775 58.5524 64.5166 58.9681C62.165 59.2831 59.9843 60.097 58.0181 61.4359C56.4197 62.5254 55.0929 63.908 53.7923 65.3344C52.0845 67.2071 50.6788 69.2811 49.5052 71.5126C48.082 74.221 47.2237 77.1351 46.4837 80.0842C45.9407 82.2457 45.6429 84.4553 45.3889 86.6693C45.2225 88.1263 45.1043 89.5833 45.0254 91.0404C44.9335 92.6593 45.0867 94.2782 45.3101 95.8884C45.5991 97.9405 45.8575 99.9926 46.2341 102.027C46.291 102.329 46.2122 102.447 45.9056 102.539C42.5644 103.576 39.3152 104.854 36.1798 106.411C36.009 106.495 35.6543 106.582 35.7638 106.775C35.8776 106.98 36.2148 107.081 36.5126 106.971C36.6264 106.928 36.7315 106.862 36.841 106.81C38.5488 105.974 40.2917 105.199 42.074 104.539C45.5947 103.235 49.1943 102.198 52.8902 101.52C55.6884 101.008 58.5042 100.631 61.3462 100.553C63.0409 100.505 64.7355 100.491 66.4302 100.614C68.5015 100.763 70.5597 100.981 72.6003 101.367C75.0263 101.826 77.391 102.482 79.6856 103.379C82.0809 104.32 84.3668 105.462 86.4688 106.963C87.5898 107.763 88.6845 108.604 89.6392 109.601C89.8669 109.837 90.134 110.104 90.0464 110.468C89.9019 111.08 90.0596 111.68 90.0552 112.288C90.0464 113.723 90.0508 115.162 90.0508 116.598C90.0508 118.663 90.0508 120.724 90.0552 122.789C90.0552 124.329 90.0552 125.865 90.0596 127.405C90.0596 127.633 90.0289 127.904 90.3617 127.913C90.7295 127.921 90.6901 127.628 90.6989 127.383C90.7033 127.313 90.6989 127.243 90.6989 127.173C90.6989 125.965 90.6989 124.758 90.6945 123.555C90.6901 119.498 90.7383 115.438 90.6464 111.382C90.6245 110.415 90.9792 109.816 91.5879 109.216C92.6563 108.157 93.8562 107.247 95.0998 106.42C97.482 104.841 100.061 103.651 102.763 102.723C106.801 101.336 110.974 100.653 115.226 100.452C117.63 100.338 120.047 100.395 122.451 100.631C125.333 100.916 128.188 101.362 131.004 102.036C135.571 103.13 139.968 104.701 144.171 106.792C144.64 107.015 145.034 107.068 145.511 106.683ZM90.5632 134.366C90.5632 133.776 90.5675 133.373 90.5632 132.971C90.5632 132.822 90.515 132.686 90.3442 132.66C90.1559 132.634 90.0508 132.761 89.9939 132.914C89.9588 133.006 89.9632 133.119 89.9588 133.224C89.9545 135.18 89.9501 137.136 89.9501 139.092C89.9501 139.179 89.9501 139.271 89.972 139.35C90.0202 139.529 90.1121 139.665 90.3311 139.661C90.5457 139.656 90.585 139.499 90.6157 139.346C90.6464 139.175 90.6682 139 90.6639 138.829C90.6551 137.28 90.712 135.727 90.5632 134.366Z" fill="#4C566F"/>
<path d="M30.7502 73.2891C30.8994 73.591 30.6318 73.8754 30.7064 74.1773L30.7107 74.1729C30.6318 74.1992 30.5484 74.2254 30.4695 74.2473C30.5528 73.9235 30.5835 73.5866 30.7502 73.2891Z" fill="#4C566F"/>
<path d="M36.9774 57.2529C37.0081 57.5548 36.9467 57.8086 36.6177 57.9136C36.6528 57.6467 36.8282 57.4542 36.9774 57.2529Z" fill="#4C566F"/>
<path d="M30.9426 72.4492C31.0084 72.6199 31.0874 72.7949 30.8812 72.9305C30.8329 72.7599 30.8198 72.5936 30.9426 72.4492Z" fill="#4C566F"/>
<path d="M36.4384 58.2856C36.4778 58.4169 36.4471 58.5088 36.298 58.5394C36.2892 58.4257 36.3419 58.3425 36.4384 58.2856Z" fill="#4C566F"/>
<path d="M145.511 106.683C145.034 107.068 144.64 107.02 144.163 106.783C139.959 104.692 135.562 103.117 130.995 102.027C128.175 101.353 125.324 100.907 122.443 100.623C120.039 100.386 117.626 100.33 115.217 100.443C110.97 100.645 106.792 101.332 102.754 102.714C100.053 103.642 97.4733 104.832 95.0911 106.411C93.8431 107.238 92.6476 108.149 91.5791 109.207C90.9704 109.811 90.6157 110.406 90.6376 111.373C90.7296 115.429 90.6814 119.485 90.6858 123.546C90.6858 124.754 90.6858 125.961 90.6902 127.164C90.6902 127.234 90.6945 127.304 90.6902 127.374C90.6814 127.615 90.7208 127.913 90.353 127.904C90.0246 127.895 90.0508 127.619 90.0508 127.396C90.0465 125.856 90.0465 124.32 90.0465 122.78C90.0465 120.715 90.0421 118.654 90.0421 116.589C90.0421 115.154 90.0421 113.714 90.0465 112.279C90.0508 111.675 89.8932 111.071 90.0377 110.459C90.1253 110.096 89.8582 109.829 89.6304 109.592C88.6758 108.595 87.5811 107.755 86.46 106.954C84.3581 105.453 82.0722 104.307 79.6769 103.371C77.3823 102.469 75.0132 101.813 72.5916 101.358C70.5509 100.973 68.4928 100.754 66.4215 100.605C64.7268 100.483 63.0277 100.496 61.3374 100.544C58.4954 100.623 55.6797 100.999 52.8815 101.511C49.1856 102.189 45.586 103.226 42.0652 104.53C40.283 105.191 38.5445 105.965 36.8323 106.801C36.7228 106.853 36.6177 106.919 36.5038 106.963C36.2061 107.077 35.8689 106.976 35.755 106.766C35.6499 106.578 36.0003 106.49 36.171 106.403C39.3064 104.845 42.5557 103.567 45.8969 102.53C46.2034 102.434 46.2823 102.32 46.2253 102.019C45.8487 99.9839 45.5904 97.9274 45.3014 95.8797C45.0736 94.2695 44.9247 92.6506 45.0167 91.0317C45.0999 89.5747 45.2138 88.1176 45.3802 86.6606C45.6342 84.4422 45.9319 82.237 46.4749 80.0755C47.215 77.1264 48.0733 74.2123 49.4965 71.5039C50.6701 69.268 52.0757 67.1984 53.7836 65.3257C55.0798 63.8993 56.411 62.5167 58.0093 61.4272C59.9755 60.0927 62.1563 59.2788 64.5079 58.9594C67.5688 58.5481 70.4984 59.1038 73.2703 60.3989C76.8349 62.066 79.3353 64.7394 80.7103 68.4542C81.3453 70.1738 81.665 71.9327 81.7744 73.7573C81.8314 74.6805 81.8226 75.6037 81.8708 76.527C81.9452 77.9884 81.5599 79.3973 81.4066 80.8324C80.9862 84.7179 82.0459 88.3801 85.8601 90.5766C87.1213 91.303 88.4875 91.8543 89.9764 91.7886C92.2097 91.688 94.3992 91.3686 96.2384 89.9247C98.0864 88.472 99.3519 86.6037 99.8555 84.3197C100.228 82.6351 100.044 80.9243 99.6716 79.2354C99.2687 77.4108 99.3256 75.5644 99.4745 73.7135C99.6103 72.0334 100.105 70.4407 100.508 68.8174C101.156 66.2052 102.811 64.3063 104.69 62.5692C106.477 60.9153 108.6 59.7864 110.978 59.2701C114.635 58.4781 118.269 58.5919 121.764 60.0839C122.898 60.5696 123.8 61.4272 124.737 62.206C128.026 64.9494 130.535 68.3054 132.304 72.1865C133.789 75.4462 134.897 78.846 135.733 82.3376C136.184 84.2234 136.368 86.1399 136.596 88.0607C136.775 89.5878 136.915 91.1061 136.902 92.6462C136.885 95.324 136.513 97.9537 135.913 100.557C135.799 101.047 135.676 101.542 135.523 102.019C135.4 102.399 135.457 102.57 135.886 102.701C139.074 103.703 142.166 104.959 145.144 106.477C145.257 106.538 145.363 106.6 145.511 106.683ZM45.7349 91.968C45.7612 92.5368 45.7699 93.3244 45.8093 94.1077C45.9319 96.6542 46.3742 99.157 46.7815 101.664C46.8734 102.242 46.9347 102.277 47.504 102.084C49.1943 101.515 50.9459 101.192 52.6888 100.868C54.3266 100.566 55.9775 100.312 57.6459 100.155C59.4982 99.9795 61.3549 99.857 63.2116 99.8045C64.591 99.7651 65.9661 99.8964 67.3411 99.9752C69.5394 100.102 71.707 100.443 73.8615 100.885C76.3488 101.393 78.7441 102.202 81.0825 103.178C83.1319 104.031 85.0631 105.125 86.8848 106.385C88.0146 107.168 89.0918 108.035 90.0815 109.006C90.2742 109.194 90.4362 109.343 90.6858 109.072C91.2201 108.494 91.8506 108.017 92.4506 107.514C94.2109 106.044 96.164 104.871 98.2046 103.839C99.8774 102.994 101.629 102.36 103.403 101.765C105.229 101.152 107.103 100.754 108.99 100.417C110.571 100.137 112.165 99.9664 113.768 99.8614C115.594 99.7389 117.42 99.6339 119.246 99.7301C120.634 99.8045 122.022 99.9402 123.41 100.067C125.793 100.29 128.135 100.715 130.465 101.209C131.674 101.467 132.874 101.782 134.06 102.145C134.691 102.338 134.809 102.268 134.989 101.651C135.856 98.6538 136.237 95.5822 136.337 92.4756C136.372 91.4342 136.237 90.3885 136.14 89.3471C136.013 87.9601 135.908 86.5687 135.694 85.1948C135.317 82.8189 134.708 80.4955 133.929 78.2159C132.79 74.8905 131.586 71.6046 129.62 68.6467C127.991 66.1921 126.016 64.0787 123.761 62.2016C122.149 60.8584 120.319 60.0314 118.283 59.6376C116.837 59.3576 115.379 59.3488 113.908 59.4713C112.704 59.572 111.521 59.712 110.365 60.0752C108.119 60.7796 106.179 61.9785 104.484 63.593C103.337 64.6869 102.312 65.9208 101.686 67.3603C100.526 70.0381 99.9694 72.8778 99.9344 75.8006C99.9168 77.1264 100.136 78.4347 100.385 79.7386C100.775 81.7819 100.85 83.8121 100.022 85.7942C99.2249 87.7019 98.1039 89.3778 96.3961 90.5635C93.9613 92.2524 91.2332 92.6462 88.3518 92.1343C85.9608 91.7099 84.069 90.441 82.6152 88.5552C80.6972 86.0699 80.4432 83.1821 80.8636 80.1892C81.0387 78.9335 81.3146 77.6908 81.3365 76.4132C81.3672 74.7987 81.1439 73.2147 80.903 71.6308C80.4388 68.5811 79.1733 65.8814 76.975 63.7024C74.0367 60.7927 70.367 59.5676 66.3076 59.397C64.9983 59.3401 63.7109 59.6507 62.4497 60.0139C60.7025 60.5171 59.0953 61.3047 57.6546 62.416C56.1789 63.5537 54.9265 64.9101 53.7223 66.3233C51.8524 68.5198 50.2935 70.9176 49.2031 73.5866C46.8296 79.406 45.7524 85.4792 45.7349 91.968Z" fill="#D2D9E3"/>
<path d="M68.7993 41.8425C68.6723 41.1906 68.7337 40.5255 68.7337 39.8692C68.7249 36.08 68.7424 32.2909 68.7424 28.5017C68.7424 28.2611 68.7906 28.0073 68.6285 27.7929C68.8781 27.5741 69.0489 28.0423 69.2942 27.8673C69.4212 28.8211 69.3336 29.7794 69.338 30.7332C69.3555 34.2336 69.3511 37.734 69.3555 41.2344C69.3555 41.405 69.3336 41.58 69.3204 41.7507C69.1497 41.7857 68.9745 41.8163 68.7993 41.8425Z" fill="#4C566F"/>
<path d="M112.235 28.2872C112.384 29.0967 112.288 29.9193 112.292 30.7331C112.314 34.1635 112.301 37.5939 112.292 41.0286C112.292 41.2999 112.406 41.5843 112.244 41.8468C112.069 41.8162 111.898 41.79 111.723 41.7593C111.626 40.613 111.692 39.4622 111.688 38.3114C111.675 35.0517 111.688 31.7964 111.696 28.5366C111.696 28.3485 111.653 28.1516 111.771 27.9766C111.942 28.0597 111.924 28.4185 112.235 28.2872Z" fill="#4C566F"/>
<path d="M90.5632 134.367C90.7077 135.727 90.6551 137.281 90.6639 138.83C90.6639 139 90.6464 139.175 90.6157 139.346C90.585 139.499 90.5456 139.657 90.3311 139.661C90.1077 139.665 90.0202 139.53 89.972 139.35C89.9501 139.267 89.9501 139.18 89.9501 139.092C89.9501 137.136 89.9545 135.18 89.9588 133.225C89.9588 133.12 89.9545 133.01 89.9939 132.914C90.0508 132.761 90.1603 132.634 90.3442 132.66C90.515 132.682 90.5632 132.818 90.5632 132.971C90.5675 133.373 90.5632 133.776 90.5632 134.367Z" fill="#D2D9E3"/>
<path d="M124.807 44.3979C125.237 44.3892 125.653 44.2316 126.086 44.306C125.688 44.6386 125.206 44.6736 124.807 44.3979Z" fill="#4C566F"/>
<path d="M112.27 42.2803C112.52 42.3109 112.717 42.4378 112.888 42.6172C112.717 42.6347 112.542 42.6916 112.38 42.6609C112.134 42.6216 112.038 42.4815 112.27 42.2803Z" fill="#4C566F"/>
<path d="M68.16 42.6259C68.3176 42.429 68.5234 42.3153 68.773 42.2803C68.6723 42.7572 68.6723 42.7572 68.16 42.6259Z" fill="#4C566F"/>
<path d="M70.0877 27.1585C70.0131 27.4342 69.785 27.4298 69.5657 27.4298C69.6666 27.1979 69.8376 27.1017 70.0877 27.1585Z" fill="#4C566F"/>
<path d="M111.745 27.8018C111.727 27.6924 111.71 27.583 111.692 27.4736C111.946 27.5436 111.982 27.6487 111.745 27.8018Z" fill="#4C566F"/>
<path d="M123.87 44.4502C123.936 44.3889 124.015 44.3846 124.094 44.4239C124.033 44.5421 123.962 44.5946 123.87 44.4502Z" fill="#4C566F"/>
<path d="M66.947 43.1905C66.9952 43.103 67.0742 43.1074 67.1575 43.1205C67.1312 43.2824 67.0786 43.3568 66.947 43.1905Z" fill="#4C566F"/>
<path d="M30.7104 74.1773C30.7237 74.1861 30.7414 74.1906 30.7547 74.1994C30.7414 74.1906 30.7281 74.1817 30.7104 74.1773C30.7104 74.1773 30.7148 74.1728 30.7104 74.1773Z" fill="#4C566F"/>
<path d="M69.3599 42.2847C69.3948 42.3108 69.4342 42.3412 69.4692 42.3673C69.4036 42.376 69.3642 42.3455 69.3599 42.2847Z" fill="#4C566F"/>
<path d="M112.205 41.9565C112.214 41.9917 112.214 42.0224 112.205 42.0575C112.179 42.04 112.157 42.0224 112.13 42.0092C112.157 41.9917 112.179 41.9741 112.205 41.9565Z" fill="#4C566F"/>
<path d="M45.7349 91.9681C45.748 85.4792 46.8296 79.4061 49.2031 73.5867C50.2934 70.9176 51.8524 68.5199 53.7222 66.3234C54.9265 64.9101 56.1789 63.5493 57.6546 62.4161C59.0953 61.3047 60.7024 60.5171 62.4497 60.0139C63.7108 59.6508 64.9983 59.3445 66.3076 59.397C70.3626 59.5676 74.0323 60.7928 76.975 63.7025C79.1777 65.8815 80.4432 68.5811 80.903 71.6308C81.1438 73.2104 81.3672 74.7987 81.3365 76.4132C81.3102 77.6953 81.0387 78.9335 80.8636 80.1893C80.4476 83.1821 80.7015 86.0656 82.6152 88.5552C84.069 90.441 85.9564 91.7099 88.3518 92.1343C91.2375 92.6463 93.9613 92.2525 96.3961 90.5635C98.1083 89.3778 99.2249 87.702 100.022 85.7943C100.85 83.8122 100.775 81.782 100.385 79.7386C100.136 78.4347 99.9168 77.1264 99.9343 75.8007C99.9694 72.8779 100.521 70.0338 101.686 67.3604C102.312 65.9208 103.337 64.687 104.484 63.5931C106.179 61.9785 108.119 60.7753 110.365 60.0752C111.521 59.712 112.708 59.572 113.908 59.4714C115.379 59.3489 116.837 59.3576 118.283 59.6377C120.319 60.0314 122.149 60.8584 123.761 62.2017C126.02 64.0831 127.991 66.1921 129.62 68.6468C131.586 71.609 132.79 74.8906 133.929 78.2159C134.708 80.4956 135.317 82.819 135.694 85.1948C135.913 86.5687 136.013 87.9601 136.14 89.3472C136.237 90.3885 136.368 91.4343 136.337 92.4756C136.237 95.5822 135.856 98.6538 134.989 101.651C134.809 102.268 134.691 102.338 134.06 102.145C132.874 101.782 131.678 101.467 130.465 101.209C128.131 100.71 125.793 100.29 123.41 100.067C122.022 99.9358 120.634 99.8002 119.246 99.7302C117.42 99.6339 115.594 99.7389 113.768 99.8614C112.165 99.9708 110.571 100.137 108.99 100.417C107.103 100.754 105.229 101.152 103.403 101.765C101.629 102.36 99.873 102.994 98.2046 103.839C96.164 104.871 94.2109 106.044 92.4505 107.514C91.8462 108.017 91.22 108.494 90.6858 109.072C90.4362 109.343 90.2742 109.194 90.0815 109.006C89.0962 108.039 88.0146 107.168 86.8848 106.385C85.0631 105.125 83.1363 104.036 81.0825 103.178C78.7441 102.202 76.3488 101.397 73.8615 100.885C71.707 100.443 69.5438 100.102 67.3411 99.9752C65.9661 99.8965 64.5867 99.7608 63.2116 99.8046C61.3549 99.8571 59.5026 99.9796 57.6459 100.155C55.9775 100.312 54.3266 100.562 52.6888 100.868C50.9459 101.187 49.1943 101.515 47.504 102.084C46.9347 102.277 46.8734 102.242 46.7815 101.664C46.3742 99.157 45.9319 96.6542 45.8093 94.1077C45.7743 93.3201 45.7655 92.5369 45.7349 91.9681Z" fill="#4C566F"/>
<path d="M73.3097 33.8618H67.5513V43.5579H73.3097V33.8618Z" fill="#D2D9E3"/>
<path d="M79.0682 33.8618H73.3097V43.5579H79.0682V33.8618Z" fill="#D2D9E3"/>
<path d="M84.8266 33.8618H79.0682V43.5579H84.8266V33.8618Z" fill="#D2D9E3"/>
<path d="M90.585 33.8618H84.8266V43.5579H90.585V33.8618Z" fill="#D2D9E3"/>
<path d="M96.3435 33.8618H90.585V43.5579H96.3435V33.8618Z" fill="#D2D9E3"/>
<path d="M102.102 33.8618H96.3435V43.5579H102.102V33.8618Z" fill="#D2D9E3"/>
<path d="M107.86 33.8618H102.102V43.5579H107.86V33.8618Z" fill="#D2D9E3"/>
<path d="M113.619 33.8618H107.86V43.5579H113.619V33.8618Z" fill="#D2D9E3"/>
<path d="M112.042 41.1118H69.4342C66.1106 41.1118 63.3736 43.7065 62.9664 47.0581H48.6819C44.7408 47.0581 40.8478 46.1874 37.2526 44.5072C33.6574 42.8226 29.7645 41.9563 25.8233 41.9563H0.381042V47.0625V56.5223V61.6284H62.962C63.3649 64.9801 66.1018 67.5747 69.4299 67.5747H112.038C115.642 67.5747 118.558 64.5294 118.558 60.7752V47.9113C118.563 44.1572 115.642 41.1118 112.042 41.1118Z" fill="#FF2C3B"/>
<path d="M177.829 42.6917V2.27979" stroke="#4C566F" stroke-miterlimit="10" stroke-linecap="round" stroke-linejoin="round"/>
<path d="M188.741 32.2212L177.829 43.1249L166.916 32.2212" stroke="#4C566F" stroke-miterlimit="10" stroke-linecap="round" stroke-linejoin="round"/>
</svg>
