<svg width="168" height="198" viewBox="0 0 168 198" fill="none" xmlns="http://www.w3.org/2000/svg">
<path d="M87.5809 1.0063C87.9838 0.857531 88.4042 0.791899 88.8246 0.739393C89.118 0.910037 89.3369 0.726266 89.5646 0.590627C90.5674 0.358726 91.5746 0.17058 92.6168 0.205584C93.0766 0.218711 93.5277 0.0480669 93.9962 0.039316C99.5576 -0.0919484 104.742 1.20757 109.656 3.82848C112.06 5.1105 114.324 6.55878 116.434 8.26084C118.488 9.91915 120.367 11.7569 122.132 13.7258C124.247 16.0842 126.143 18.5957 127.877 21.2341C129.672 23.9601 131.271 26.7998 132.676 29.7445C133.767 32.0241 134.761 34.3475 135.672 36.7015C136.92 39.9262 137.975 43.2166 138.838 46.5638C139.784 50.2348 140.528 53.9452 141.067 57.7038C141.417 60.1409 141.706 62.5824 141.872 65.0371C142.091 68.2224 142.17 71.4121 142.074 74.6062C141.995 77.1572 141.846 79.6993 141.566 82.2371C141.399 83.7466 141.189 85.2518 140.957 86.7526C140.883 87.247 140.988 87.6846 141.11 88.1396C142.179 92.1301 142.884 96.1817 143.261 100.29C143.545 103.388 143.641 106.49 143.563 109.601C143.471 113.29 143.169 116.957 142.608 120.601C142.104 123.9 141.448 127.169 140.572 130.389C139.573 134.065 138.404 137.683 136.981 141.214C135.291 145.415 133.338 149.488 131.065 153.409C129.887 155.434 128.643 157.412 127.33 159.346C125.779 161.626 124.111 163.827 122.337 165.94C120.371 168.281 118.3 170.53 116.071 172.626C114 174.577 111.854 176.45 109.572 178.156C107.523 179.692 105.408 181.14 103.192 182.427C101.97 183.136 100.757 183.871 99.4525 184.422C99.1679 184.479 98.7781 184.321 98.6818 184.785C98.6555 184.803 98.6249 184.816 98.5942 184.816C98.4585 184.768 98.3796 184.816 98.349 184.951C98.2921 184.982 98.2395 185.008 98.1826 185.039C98.0293 184.969 97.9198 185.035 97.8279 185.157C97.7622 185.179 97.7009 185.205 97.6352 185.227C97.4294 185.214 97.263 185.262 97.1885 185.481C97.0134 185.625 96.8076 185.704 96.593 185.761C96.431 185.726 96.2777 185.7 96.2558 185.932C96.0938 185.988 95.9318 186.045 95.7741 186.102C95.6208 186.05 95.4676 185.997 95.4063 186.22C95.3888 186.251 95.3625 186.269 95.3318 186.282C95.1873 186.247 95.0516 186.234 94.9815 186.409C94.7538 186.514 94.5217 186.614 94.294 186.719C94.0312 186.68 93.7729 186.667 93.624 186.951C93.5189 186.995 93.4138 187.039 93.3131 187.082C93.1817 186.955 93.1335 187.034 93.1029 187.165C89.8317 188.391 86.5562 189.594 83.1362 190.36C80.6095 190.924 78.0521 191.252 75.4772 191.506C73.2395 191.725 71.0062 191.76 68.7773 191.585C65.1033 191.292 61.4555 190.753 57.9041 189.716C55.3905 188.981 52.9295 188.089 50.4772 187.161C50.4466 187.034 50.394 186.955 50.267 187.078C50.1619 187.034 50.0569 186.99 49.9561 186.947C49.8029 186.662 49.5489 186.671 49.2861 186.715C49.0891 186.623 48.8876 186.535 48.6906 186.444C48.6249 186.172 48.4235 186.264 48.2483 186.277C48.2177 186.264 48.1914 186.242 48.1739 186.216C48.1126 185.988 47.9593 186.041 47.806 186.098C47.644 186.041 47.482 185.984 47.3243 185.927C47.3024 185.695 47.1492 185.717 46.9871 185.757C46.7726 185.695 46.5668 185.621 46.3916 185.477C46.3171 185.258 46.1507 185.21 45.9449 185.223C45.8792 185.201 45.8179 185.175 45.7523 185.153C45.6647 185.03 45.5552 184.965 45.3975 185.035C45.3406 185.004 45.2881 184.978 45.2311 184.947C45.2005 184.807 45.1217 184.763 44.9859 184.811C44.9553 184.807 44.9246 184.798 44.8983 184.781C44.802 184.317 44.4166 184.475 44.1276 184.418C42.8358 183.875 41.6316 183.158 40.4317 182.444C38.8246 181.49 37.2525 180.484 35.7286 179.399C33.0793 177.518 30.5876 175.448 28.1923 173.247C25.8845 171.129 23.73 168.863 21.7069 166.483C19.964 164.435 18.3394 162.295 16.7936 160.094C14.4333 156.73 12.3007 153.229 10.4177 149.58C8.55224 145.962 6.89258 142.247 5.53508 138.405C4.66802 135.955 3.87979 133.483 3.18353 130.976C2.38216 128.092 1.75158 125.178 1.23485 122.238C0.599888 118.641 0.236427 115.014 0.0744024 111.36C-0.0394528 108.722 -0.05259 106.088 0.0919186 103.454C0.240806 100.767 0.507928 98.0982 0.932696 95.4379C1.36184 92.782 1.90922 90.1523 2.62739 87.562C2.74124 87.1551 2.61863 86.757 2.55732 86.3675C1.97491 82.7753 1.65086 79.1568 1.52387 75.5207C1.41439 72.436 1.46256 69.3513 1.62896 66.2622C1.8523 62.193 2.36027 58.1632 3.07843 54.1596C3.91921 49.4822 5.0709 44.8749 6.59043 40.3681C7.70708 37.0603 8.98139 33.8224 10.4615 30.6633C11.7884 27.8192 13.2685 25.0539 14.9632 22.4068C16.1937 20.4816 17.4505 18.5739 18.8693 16.7843C20.8004 14.3471 22.8498 12.015 25.1751 9.93665C27.6318 7.76641 30.2154 5.77995 33.1187 4.24415C36.0614 2.68648 39.0917 1.33446 42.3848 0.682512C42.9497 0.573125 43.5058 0.402481 44.0882 0.424358C44.1933 0.542496 44.2502 0.463738 44.3072 0.371852C44.4429 0.3456 44.5787 0.319347 44.7188 0.293094C44.9421 0.380603 45.1698 0.507492 45.3494 0.218711C45.4151 0.20996 45.4851 0.205584 45.5508 0.196833C45.8398 0.651883 46.0807 0.503117 46.304 0.135577C46.5799 0.12245 46.8601 0.109324 47.136 0.0918217C47.2105 0.192458 47.2762 0.179331 47.3331 0.0786953C47.4075 0.0786953 47.482 0.0743198 47.5564 0.0743198C47.7973 0.214335 48.0381 0.201209 48.279 0.0830708C49.1066 0.039316 49.9342 -0.00881432 50.7575 0.196833C51.1691 0.301845 51.6114 0.157454 52.0493 0.227462C52.7149 0.336849 53.3937 0.39373 54.0462 0.581876C54.2783 0.71314 54.4972 0.901286 54.7906 0.730642C55.2154 0.778772 55.6358 0.844404 56.0343 0.997546C56.205 1.41322 55.8635 1.36509 55.6445 1.43509C53.7703 1.0763 51.8961 0.739393 49.9868 0.621255C49.9211 0.511868 49.851 0.459362 49.7635 0.603753C49.0584 0.599378 48.3578 0.590627 47.6528 0.586251C47.4426 0.284343 47.2586 0.249339 47.1141 0.638757C46.8383 0.660634 46.5624 0.682512 46.2865 0.700014C45.6647 0.516243 45.0735 0.634381 44.4955 0.866282C44.04 0.94504 43.589 1.0238 43.1336 1.10256C42.9584 0.98442 42.8052 0.94504 42.7176 1.19882C39.5734 1.82451 36.6307 3.03214 33.8062 4.50231C30.5657 6.18687 27.6449 8.34835 25.0306 10.908C23.9709 11.945 22.8411 12.9251 21.8821 14.0452C20.7085 15.4191 19.5787 16.8324 18.4883 18.2807C17.2841 19.8865 16.1543 21.5448 15.1164 23.2512C13.7808 25.4565 12.5591 27.7317 11.4337 30.0595C9.4587 34.1287 7.83845 38.3204 6.5116 42.6259C5.07965 47.2682 3.98927 51.9894 3.26235 56.798C2.79817 59.8521 2.4566 62.9237 2.27268 66.0041C2.00994 70.4014 2.00556 74.8031 2.37778 79.1961C2.59235 81.7558 2.79817 84.3154 3.38934 86.827C3.44189 87.0545 3.43313 87.2689 3.36307 87.4964C2.15445 91.5437 1.42753 95.6873 1.02028 99.8834C0.687469 103.292 0.59113 106.705 0.678711 110.131C0.81884 115.543 1.537 120.881 2.65366 126.167C3.37183 129.562 4.26515 132.923 5.42998 136.2C5.71024 136.987 5.95546 137.788 6.25324 138.567C7.30421 141.315 8.40773 144.041 9.68641 146.692C11.7665 150.998 14.1487 155.124 16.833 159.084C19.0357 162.326 21.5142 165.349 24.0891 168.29C25.3196 169.694 26.6596 171.002 28.0171 172.284C30.0972 174.253 32.2735 176.122 34.5682 177.837C37.6072 180.103 40.7995 182.134 44.1714 183.871C46.5536 185.1 49.0453 186.094 51.607 186.907C52.6887 187.253 53.8009 187.546 54.83 188.006C55.7584 188.417 56.6999 188.758 57.6633 189.029C61.3592 190.066 65.112 190.762 68.9524 190.955C71.1026 191.06 73.2527 191.064 75.394 190.928C77.8025 190.775 80.1847 190.386 82.5494 189.887C84.4981 189.476 86.438 188.986 88.3078 188.329C90.0157 187.73 91.7235 187.104 93.4313 186.496C95.6822 185.691 97.8629 184.733 99.9736 183.617C101.068 183.039 102.119 182.387 103.179 181.744C104.226 181.11 105.285 180.497 106.288 179.797C108.018 178.59 109.726 177.347 111.355 176.004C112.813 174.805 114.249 173.58 115.602 172.271C117.258 170.674 118.869 169.025 120.384 167.283C122.88 164.417 125.236 161.442 127.325 158.261C128.284 156.804 129.213 155.334 130.106 153.833C131.744 151.077 133.228 148.241 134.559 145.323C136.101 141.941 137.467 138.488 138.601 134.944C139.591 131.851 140.414 128.713 141.08 125.532C141.745 122.351 142.258 119.144 142.577 115.911C142.971 111.964 143.085 108.004 142.888 104.04C142.643 99.0914 142.012 94.1997 140.773 89.3954C140.489 88.2884 140.16 87.2251 140.388 85.9956C141.242 81.397 141.5 76.7371 141.505 72.0641C141.509 67.5355 141.194 63.0331 140.585 58.5439C140.147 55.3279 139.56 52.1425 138.82 48.9791C138.229 46.4457 137.533 43.9341 136.731 41.462C135.772 38.5085 134.704 35.5945 133.425 32.7548C132.466 30.6239 131.463 28.5149 130.329 26.4672C129.484 24.9446 128.599 23.4481 127.667 21.9736C126.668 20.3941 125.609 18.8539 124.466 17.3881C123.41 16.0361 122.337 14.6884 121.146 13.437C120.122 12.3607 119.075 11.3062 117.967 10.3217C115.283 7.93706 112.406 5.83683 109.156 4.24415C106.984 3.18091 104.799 2.20518 102.457 1.57949C99.019 0.660634 95.5376 0.437485 92.0081 0.774397C90.6462 0.905661 89.3194 1.22945 87.975 1.43509C87.7561 1.2732 87.6554 1.44385 87.5415 1.58386C87.305 1.62762 87.0686 1.67137 86.8321 1.71513C86.8146 1.41322 87.0292 1.33883 87.2569 1.33883C87.5065 1.34758 87.5634 1.20757 87.5809 1.0063Z" fill="#4C566F"/>
<path d="M64.1486 4.46742C66.8987 6.09072 69.2634 8.16032 71.3215 10.5887C71.812 11.1663 71.7901 11.1707 72.2849 10.5887C74.2248 8.31784 76.41 6.327 78.9761 4.77808C79.1381 4.67744 79.2958 4.57243 79.4578 4.47179C79.6198 4.44991 79.8826 4.62493 79.865 4.25739C79.9088 4.22676 79.9482 4.19176 79.992 4.16113C80.2592 4.21364 80.211 4.42804 80.2285 4.61181C79.0374 5.36877 77.8463 6.12135 76.7647 7.03145C76.6771 7.10583 76.572 7.18897 76.4363 7.12333C76.4319 7.11021 76.4275 7.09708 76.4187 7.08395C76.4144 7.07958 76.4012 7.07958 76.3925 7.0752C76.4056 7.0927 76.4231 7.10583 76.4363 7.12333C76.4625 7.33773 76.2742 7.41649 76.1604 7.52588C75.6261 8.02468 75.0787 8.50598 74.5314 8.99604C74.3037 8.85165 74.3562 9.01792 74.365 9.14043C73.568 10.0287 72.6965 10.8556 72.0528 11.8707C71.882 12.1376 71.6937 12.0239 71.558 11.827C70.8836 10.8512 70.0516 10.0111 69.2546 9.14043C69.2634 9.01792 69.3115 8.84727 69.0882 8.99604C68.9043 8.83415 68.6941 8.69851 68.5452 8.51036C68.1423 7.99843 67.4723 7.74903 67.1833 7.12333C67.1965 7.11896 67.2096 7.11458 67.2227 7.10583C67.2271 7.10146 67.2271 7.08833 67.2315 7.07958C67.2184 7.09708 67.2008 7.11021 67.1877 7.12771C67.0519 7.19334 66.9425 7.11021 66.8593 7.03582C65.7776 6.12135 64.5865 5.36877 63.3954 4.61618C63.413 4.43241 63.3648 4.21801 63.6319 4.16551C63.6757 4.19614 63.7151 4.23114 63.7545 4.26177C63.7239 4.62056 63.991 4.44554 64.1486 4.46742Z" fill="#4C566F"/>
<path d="M63.6188 4.15671C63.3517 4.20922 63.3999 4.42362 63.3823 4.60739C63.159 4.60739 62.9882 4.47175 62.8087 4.37111C61.079 3.38225 59.2529 2.62092 57.3699 1.98647C56.7962 1.78958 56.17 1.76332 55.6358 1.44829C55.8548 1.37828 56.1963 1.42641 56.0255 1.01074C56.9451 1.18139 57.8297 1.48329 58.7055 1.79395C60.2995 2.35839 61.8409 3.04534 63.3035 3.90293C63.4174 3.96419 63.5137 4.0692 63.6188 4.15671Z" fill="#4C566F"/>
<path d="M80.2241 4.60742C80.2066 4.42365 80.2548 4.20925 79.9877 4.15674C80.8547 3.51792 81.7875 3.01037 82.8209 2.69971C82.8165 2.89223 82.8647 3.05412 83.053 3.14601C82.129 3.67106 81.205 4.18737 80.2241 4.60742Z" fill="#4C566F"/>
<path d="M83.053 3.14577C82.8647 3.05388 82.8122 2.89199 82.8209 2.69947C82.8516 2.68634 82.8866 2.67759 82.9216 2.67759C83.053 2.72572 83.1275 2.66884 83.1625 2.54633C83.307 2.43257 83.469 2.36693 83.6573 2.36256C83.7931 2.40194 83.8719 2.34943 83.8938 2.20942C83.9989 2.17004 84.104 2.13066 84.2091 2.09565C84.3186 2.22254 84.3799 2.14816 84.428 2.03877C84.5988 1.89001 84.8046 1.855 85.0192 1.8375C85.1944 1.84188 85.4133 1.96001 85.4527 1.64935C85.8425 1.53122 86.2322 1.41308 86.6219 1.29932C86.6701 1.6056 86.5475 1.78499 86.241 1.84188C86.1227 1.86375 86.0001 1.88563 85.9826 2.03877C85.8906 2.06065 85.7943 2.0869 85.7023 2.10878C85.0455 2.10878 84.4631 2.31443 83.9901 2.7826C83.6705 2.90074 83.3595 3.02326 83.053 3.14577Z" fill="#4C566F"/>
<path d="M85.9738 2.03865C85.9913 1.88551 86.1139 1.85926 86.2322 1.84176C86.5387 1.78487 86.6657 1.60548 86.6132 1.2992C86.9284 1.17668 87.2087 0.949157 87.5765 1.00604C87.559 1.20731 87.5021 1.3517 87.2481 1.34733C87.0204 1.34733 86.8102 1.42171 86.8234 1.72362C86.5869 1.94677 86.2803 1.99052 85.9738 2.03865Z" fill="#4C566F"/>
<path d="M46.2996 0.139697C46.0763 0.507238 45.8355 0.656004 45.5464 0.200954C45.7961 0.179077 46.0369 0.0478124 46.2996 0.139697Z" fill="#4C566F"/>
<path d="M44.1408 184.426C44.4254 184.483 44.8152 184.326 44.9115 184.789C44.6006 184.776 44.3685 184.606 44.1408 184.426Z" fill="#4C566F"/>
<path d="M98.6949 184.789C98.7913 184.326 99.1766 184.483 99.4657 184.426C99.2379 184.606 99.0015 184.776 98.6949 184.789Z" fill="#4C566F"/>
<path d="M54.7775 0.739164C54.4841 0.909808 54.2652 0.726038 54.0331 0.590398C54.309 0.511639 54.5542 0.577272 54.7775 0.739164Z" fill="#4C566F"/>
<path d="M89.569 0.590398C89.3369 0.721662 89.118 0.909808 88.829 0.739164C89.0523 0.577272 89.2975 0.511639 89.569 0.590398Z" fill="#4C566F"/>
<path d="M48.2703 0.0874251C48.0294 0.205563 47.7886 0.218689 47.5477 0.0786741C47.7886 -0.0175865 48.0294 -0.0350884 48.2703 0.0874251Z" fill="#4C566F"/>
<path d="M45.3451 0.222839C45.1655 0.51162 44.9378 0.389107 44.7145 0.297222C44.9115 0.152831 45.1349 0.244716 45.3451 0.222839Z" fill="#4C566F"/>
<path d="M49.2949 186.724C49.562 186.684 49.816 186.671 49.9649 186.956C49.7109 186.973 49.4832 186.912 49.2949 186.724Z" fill="#4C566F"/>
<path d="M93.6371 186.96C93.7904 186.676 94.0444 186.689 94.3071 186.728C94.1232 186.912 93.8911 186.973 93.6371 186.96Z" fill="#4C566F"/>
<path d="M85.4491 1.64941C85.414 1.96007 85.1903 1.84194 85.0148 1.83756C85.1069 1.64941 85.278 1.65817 85.4491 1.64941Z" fill="#4C566F"/>
<path d="M48.2571 186.29C48.4281 186.277 48.6343 186.185 48.7001 186.456C48.529 186.456 48.3492 186.491 48.2571 186.29Z" fill="#4C566F"/>
<path d="M97.2061 185.485C97.2807 185.266 97.4474 185.218 97.6535 185.231C97.5658 185.424 97.4035 185.481 97.2061 185.485Z" fill="#4C566F"/>
<path d="M45.9537 185.231C46.1599 185.218 46.3266 185.271 46.4011 185.485C46.2038 185.481 46.0415 185.424 45.9537 185.231Z" fill="#4C566F"/>
<path d="M79.8614 4.25293C79.8833 4.62047 79.6157 4.44108 79.4534 4.46733C79.528 4.27918 79.7035 4.27918 79.8614 4.25293Z" fill="#4C566F"/>
<path d="M64.1494 4.46733C63.9871 4.44545 63.7239 4.62047 63.7414 4.25293C63.9037 4.27918 64.0748 4.27918 64.1494 4.46733Z" fill="#4C566F"/>
<path d="M95.4238 186.225C95.4852 185.997 95.6388 186.05 95.7923 186.107C95.7089 186.264 95.5642 186.238 95.4238 186.225Z" fill="#4C566F"/>
<path d="M96.2734 185.936C96.2953 185.704 96.4488 185.726 96.6111 185.765C96.5453 185.914 96.4225 185.953 96.2734 185.936Z" fill="#4C566F"/>
<path d="M47.8148 186.107C47.9683 186.05 48.1219 186.002 48.1833 186.225C48.0429 186.238 47.8982 186.264 47.8148 186.107Z" fill="#4C566F"/>
<path d="M46.9959 185.765C47.1582 185.726 47.3117 185.704 47.3337 185.936C47.1845 185.953 47.0617 185.914 46.9959 185.765Z" fill="#4C566F"/>
<path d="M94.9991 186.417C95.0693 186.242 95.2052 186.255 95.35 186.29C95.2798 186.456 95.1482 186.47 94.9991 186.417Z" fill="#4C566F"/>
<path d="M97.8455 185.161C97.9332 185.039 98.0428 184.973 98.2008 185.043C98.113 185.183 97.9902 185.205 97.8455 185.161Z" fill="#4C566F"/>
<path d="M45.4064 185.043C45.5599 184.973 45.6696 185.039 45.7617 185.161C45.6169 185.205 45.4941 185.183 45.4064 185.043Z" fill="#4C566F"/>
<path d="M83.8898 2.21377C83.8679 2.35379 83.7889 2.40192 83.653 2.36692C83.6924 2.25753 83.767 2.20065 83.8898 2.21377Z" fill="#4C566F"/>
<path d="M47.329 0.0829136C47.272 0.18355 47.2062 0.201052 47.1317 0.09604C47.1887 0.00415491 47.2545 0.00415491 47.329 0.0829136Z" fill="#4C566F"/>
<path d="M44.9991 184.82C45.1351 184.772 45.214 184.82 45.2447 184.956C45.1219 184.987 45.0473 184.93 44.9991 184.82Z" fill="#4C566F"/>
<path d="M98.3622 184.96C98.3929 184.82 98.4718 184.776 98.6078 184.824C98.5596 184.93 98.485 184.986 98.3622 184.96Z" fill="#4C566F"/>
<path d="M83.1585 2.54637C83.119 2.66888 83.0444 2.72576 82.9172 2.67763C82.9611 2.56387 83.0357 2.51136 83.1585 2.54637Z" fill="#4C566F"/>
<path d="M44.3032 0.376413C44.2505 0.472674 44.1891 0.547057 44.0839 0.428919C44.1409 0.337034 44.2155 0.323907 44.3032 0.376413Z" fill="#4C566F"/>
<path d="M84.424 2.03889C84.3758 2.15265 84.3144 2.22266 84.2047 2.09577C84.2573 1.99951 84.3363 1.99951 84.424 2.03889Z" fill="#4C566F"/>
<path d="M50.2802 187.087C50.4118 186.96 50.4601 187.039 50.4908 187.17C50.403 187.192 50.3285 187.174 50.2802 187.087Z" fill="#4C566F"/>
<path d="M93.1161 187.17C93.1468 187.043 93.1994 186.964 93.3266 187.087C93.2784 187.174 93.2038 187.192 93.1161 187.17Z" fill="#4C566F"/>
<path d="M46.2778 0.704397C45.6866 0.822535 45.0911 0.896918 44.4868 0.870665C45.0648 0.638764 45.656 0.520627 46.2778 0.704397Z" fill="#4C566F"/>
<path d="M47.6405 0.590794C47.4739 0.722058 47.2896 0.717683 47.101 0.6433C47.2502 0.258257 47.4344 0.288886 47.6405 0.590794Z" fill="#4C566F"/>
<path d="M43.1256 1.11151C43.0115 1.24715 42.858 1.22964 42.7089 1.20777C42.7922 0.953989 42.9501 0.988993 43.1256 1.11151Z" fill="#4C566F"/>
<path d="M87.9714 1.44374C87.8442 1.54875 87.717 1.63626 87.5372 1.5925C87.6512 1.45249 87.7565 1.28184 87.9714 1.44374Z" fill="#4C566F"/>
<path d="M49.9741 0.630099C49.8951 0.704482 49.8205 0.68698 49.7504 0.612597C49.8381 0.468206 49.9083 0.520712 49.9741 0.630099Z" fill="#4C566F"/>
<path d="M74.5273 8.99151C74.5098 9.08339 74.444 9.12277 74.3607 9.1359C74.3519 9.01338 74.2993 8.84274 74.5273 8.99151Z" fill="#4C566F"/>
<path d="M69.2462 9.1359C69.1584 9.12277 69.0926 9.08339 69.0795 8.99151C69.3032 8.84274 69.2549 9.01338 69.2462 9.1359Z" fill="#4C566F"/>
<path d="M76.4324 7.11957C76.4191 7.10183 76.4014 7.08853 76.3881 7.0708C76.397 7.07523 76.4103 7.07523 76.4147 7.07967C76.4236 7.08853 76.4236 7.10627 76.4324 7.11957Z" fill="#4C566F"/>
<path d="M67.1746 7.11957C67.1879 7.10183 67.2056 7.08853 67.2189 7.0708C67.2144 7.07967 67.2189 7.09297 67.21 7.0974C67.2011 7.10627 67.1879 7.1107 67.1746 7.11957Z" fill="#4C566F"/>
<path d="M85.6936 2.10889C85.1506 2.40204 84.5594 2.58144 83.9814 2.78271C84.4543 2.31453 85.0367 2.10889 85.6936 2.10889Z" fill="#4C566F"/>
<path d="M12.1694 72.449C12.4934 71.3857 12.8175 70.3225 13.1459 69.2592C13.5575 67.9291 14.0392 66.6296 14.534 65.3301C15.0289 64.0349 15.5325 62.7398 16.1368 61.4884C16.6097 60.5083 16.9819 59.4844 17.5293 58.5393C17.6738 58.5087 17.7088 58.4168 17.6694 58.2855C17.7307 58.1586 17.7877 58.0361 17.849 57.9092C18.1774 57.8042 18.2387 57.5504 18.2081 57.2485C18.5759 56.5441 18.9262 55.8309 19.3116 55.1396C20.2618 53.4375 21.3084 51.8011 22.4119 50.1953C23.2834 48.922 24.1592 47.6531 25.1532 46.463C25.9721 45.4785 26.7341 44.4459 27.5617 43.4702C28.1791 42.7438 28.8535 42.0656 29.5191 41.3874C30.5614 40.3242 31.5992 39.2566 32.6808 38.2371C33.4603 37.502 34.323 36.8544 35.1375 36.1587C36.3899 35.0867 37.7036 34.0891 39.0523 33.1484C39.9413 32.5315 40.8083 31.862 41.8199 31.4245C42.1833 31.2669 42.5293 30.9825 42.8271 30.7288C43.4095 30.2387 44.1014 29.9412 44.7407 29.5955C46.1902 28.8167 47.6615 28.0685 49.1811 27.4121C50.7181 26.7471 52.2639 26.1389 53.8491 25.6051C55.8416 24.9312 57.8603 24.3668 59.9097 23.8811C61.4949 23.5048 63.1064 23.3561 64.6916 23.0498C66.9863 22.6122 69.2984 22.4941 71.6193 22.481C74.0146 22.4678 76.4187 22.5116 78.7834 22.8791C80.3117 23.1198 81.8707 23.2379 83.3595 23.6711C84.3974 23.973 85.4834 24.0649 86.4949 24.4193C87.6729 24.835 88.9165 25.0231 90.0507 25.5657C90.2522 25.6619 90.4842 25.7013 90.6988 25.7626C91.8899 26.0951 93.0197 26.5939 94.1539 27.0752C95.3975 27.6003 96.6193 28.1822 97.8104 28.8167C99.3343 29.6305 100.841 30.4837 102.312 31.3851C103.994 32.4177 105.579 33.5903 107.16 34.7673C108.241 35.5724 109.292 36.43 110.278 37.3489C112.034 38.9897 113.825 40.5998 115.414 42.4069C117.004 44.2184 118.541 46.0648 119.986 47.9988C121.111 49.5083 122.127 51.0835 123.134 52.663C123.743 53.6213 124.269 54.6451 124.82 55.6427C125.355 56.6097 125.898 57.5811 126.41 58.5612C126.966 59.6244 127.448 60.7183 127.912 61.8297C128.407 63.011 128.954 64.1749 129.405 65.3782C130.202 67.5178 130.96 69.6661 131.577 71.8714C132.142 73.906 132.654 75.9537 133.066 78.0233C133.745 81.4143 134.183 84.8403 134.419 88.2926C134.594 90.8391 134.673 93.3856 134.603 95.9322C134.498 99.9007 134.117 103.843 133.425 107.755C132.821 111.172 132.02 114.545 130.964 117.858C129.856 121.332 128.551 124.718 126.979 128.009C125.779 130.52 124.435 132.953 122.981 135.32C121.974 136.961 120.862 138.532 119.71 140.081C118.663 141.49 117.573 142.855 116.408 144.163C115.016 145.73 113.606 147.278 112.051 148.692C110.768 149.86 109.494 151.019 108.132 152.1C105.767 153.982 103.28 155.666 100.705 157.25C98.5373 158.585 96.1989 159.543 93.9087 160.611C91.4564 161.753 88.8727 162.54 86.276 163.301C84.0733 163.945 81.8269 164.334 79.576 164.693C78.004 164.942 76.4144 165.025 74.8248 165.087C74.1986 165.113 73.5724 165.227 72.9462 165.222C69.4429 165.214 65.9528 164.995 62.5021 164.4C61.0439 164.15 59.5682 163.932 58.145 163.507C56.0299 162.873 53.9236 162.212 51.8391 161.459C50.8057 161.087 49.8073 160.632 48.7957 160.204C47.5389 159.67 46.3172 159.044 45.1085 158.41C44.1276 157.893 43.1643 157.342 42.2315 156.747C40.4843 155.631 38.7546 154.48 37.1036 153.22C35.7461 152.179 34.428 151.081 33.1537 149.939C31.7393 148.67 30.3818 147.327 29.0812 145.935C27.9821 144.763 26.9224 143.551 25.9152 142.304C24.8773 141.026 23.8964 139.704 22.9593 138.348C21.974 136.922 21.0063 135.482 20.1217 133.99C18.681 131.553 17.3585 129.055 16.2025 126.469C15.2653 124.368 14.3895 122.242 13.6495 120.063C12.8306 117.674 12.0905 115.259 11.5431 112.787C11.2322 111.378 10.8819 109.973 10.6235 108.551C10.2426 106.473 9.94917 104.386 9.72146 102.285C9.30983 98.4918 9.20912 94.6852 9.30983 90.8785C9.40617 87.1199 9.75212 83.3789 10.5316 79.6904C10.9169 77.8746 11.2673 76.05 11.6964 74.2473C11.7752 74.221 11.8584 74.1948 11.9373 74.1729C11.9504 74.1816 11.9635 74.1904 11.9811 74.1992C11.9679 74.1904 11.9504 74.186 11.9373 74.1773C11.8628 73.8754 12.1256 73.5953 11.9811 73.2891C12.0248 73.1709 12.0643 73.0484 12.108 72.9303C12.3139 72.7946 12.2307 72.6196 12.1694 72.449ZM49.3869 42.6257C49.8992 42.757 49.8992 42.757 49.9999 42.28C50.0087 42.1356 50.0175 41.9869 50.0262 41.8425C50.2014 41.8118 50.3722 41.7856 50.5473 41.755C50.5605 41.93 50.5736 42.105 50.5824 42.28C50.5911 42.3457 50.6261 42.3719 50.6918 42.3632C53.2623 43.3214 55.9292 43.8596 58.6529 44.0521C61.4949 44.2534 64.3369 44.1746 67.1439 43.6102C68.427 43.352 69.6881 43.0107 70.8749 42.4288C71.2953 42.2231 71.4967 41.9869 71.4967 41.4749C71.4836 35.5374 71.4967 29.6043 71.5142 23.6667C71.5142 23.3342 71.4091 23.2511 71.0894 23.2686C69.9553 23.3298 68.8211 23.3911 67.6869 23.4042C66.5834 23.4173 65.4711 23.4698 64.407 23.7105C62.7123 24.0955 60.9826 24.2705 59.2923 24.7125C57.6063 25.15 55.9379 25.6357 54.2651 26.1082C53.2667 26.3927 52.3208 26.874 51.3093 27.1496C51.0597 27.0971 50.8889 27.189 50.7882 27.4209C50.6043 27.5084 50.5298 27.6659 50.5167 27.8584C50.2714 28.0335 50.1007 27.5653 49.8511 27.7841C49.1635 28.1078 48.4498 28.3835 47.7929 28.7598C46.5449 29.4686 45.2355 30.0593 43.9963 30.7944C42.6388 31.5995 41.3163 32.4439 40.0026 33.319C38.6626 34.2116 37.3839 35.1655 36.1359 36.1806C35.1988 36.9419 34.2879 37.7383 33.3727 38.5302C31.9802 39.7379 30.7453 41.0943 29.4359 42.3807C29.1776 42.6301 29.1863 42.7395 29.5279 42.8663C30.43 43.2076 31.3583 43.4527 32.2955 43.6627C35.2557 44.319 38.251 44.5465 41.2856 44.3934C43.6328 44.2752 45.9318 43.9208 48.1651 43.177C48.2965 43.3433 48.349 43.2645 48.3753 43.107C48.7213 42.9582 49.0541 42.792 49.3869 42.6257ZM93.497 42.28C93.2649 42.4813 93.3613 42.6169 93.6065 42.6607C93.7685 42.6869 93.9481 42.6344 94.1145 42.6169C94.1802 42.6694 94.2371 42.7351 94.3115 42.7745C95.4063 43.4045 96.6324 43.632 97.8454 43.8596C100.236 44.3102 102.662 44.4634 105.097 44.4503C105.189 44.5947 105.259 44.5421 105.32 44.424C105.557 44.4153 105.798 44.4065 106.034 44.3978C106.433 44.6734 106.919 44.6384 107.313 44.3059C109.349 44.0871 111.355 43.7283 113.308 43.1026C113.641 42.9976 113.969 42.8751 114.293 42.7482C114.411 42.7001 114.622 42.6169 114.446 42.4638C114.035 42.105 113.794 41.5887 113.374 41.2693C112.594 40.6786 111.95 39.9523 111.254 39.2872C110.111 38.2065 108.946 37.1651 107.703 36.2069C106.822 35.5287 105.938 34.8636 105.049 34.1985C103.665 33.1659 102.207 32.247 100.749 31.3369C99.781 30.7331 98.7869 30.1643 97.7754 29.648C96.5755 29.0354 95.3494 28.4798 94.1232 27.9197C93.5671 27.6659 93.554 27.6922 93.4664 28.2872C93.1555 28.4185 93.1686 28.0597 93.0022 27.9766C92.9934 27.9197 92.9847 27.8628 92.9759 27.8016C93.2124 27.6484 93.1774 27.5434 92.9234 27.4734C92.5818 27.3903 92.3453 27.1146 91.9994 27.0227C90.8565 26.7208 89.7967 26.1608 88.645 25.8807C88.2728 25.7888 87.8875 25.7232 87.5371 25.5744C86.2497 25.0275 84.8659 24.835 83.5303 24.4806C82.2341 24.1393 80.8722 24.0561 79.5454 23.8111C77.2464 23.3867 74.9255 23.3473 72.6046 23.2729C72.193 23.2598 72.1185 23.3955 72.1229 23.7805C72.1448 25.5088 72.1273 27.2415 72.1229 28.9698C72.1141 33.214 72.1141 37.4539 72.0966 41.6981C72.0966 41.9956 72.1842 42.1881 72.4294 42.35C72.8761 42.6476 73.3665 42.8313 73.8789 42.967C74.9649 43.2514 76.0334 43.6714 77.1325 43.7983C78.9104 44.004 80.6971 44.2009 82.5012 44.144C84.4587 44.0783 86.3986 43.934 88.3298 43.597C89.6566 43.3651 90.9309 42.932 92.2402 42.6344C92.6869 42.5338 92.9847 42.2713 92.9496 41.7593C93.1248 41.79 93.2956 41.8162 93.4707 41.8469C93.4576 41.8862 93.4445 41.9212 93.4313 41.9606C93.4051 41.9781 93.3832 41.9956 93.3569 42.0087C93.3832 42.0262 93.4051 42.0437 93.4313 42.0569C93.5102 42.1138 93.5102 42.1969 93.497 42.28ZM72.4207 164.465C73.0819 164.465 73.7431 164.452 74.4044 164.47C75.6305 164.496 76.8523 164.426 78.0653 164.264C79.3439 164.093 80.6139 163.826 81.8882 163.621C83.4077 163.376 84.901 163.008 86.3767 162.584C87.5941 162.234 88.8114 161.858 90.0069 161.42C91.0316 161.044 92.0607 160.667 93.0723 160.269C94.2634 159.797 95.4063 159.21 96.5711 158.677C96.8251 158.558 97.101 158.488 97.3418 158.353C98.511 157.688 99.6759 157.018 100.836 156.336C101.585 155.898 102.338 155.465 103.056 154.979C104.086 154.288 105.08 153.548 106.091 152.831C106.674 152.42 107.212 151.951 107.777 151.518C108.596 150.888 109.345 150.171 110.116 149.484C110.956 148.731 111.832 148.013 112.612 147.204C114.03 145.729 115.467 144.277 116.754 142.675C117.372 141.905 118.037 141.166 118.62 140.374C119.925 138.606 121.212 136.821 122.372 134.944C123.353 133.36 124.295 131.754 125.162 130.109C126.152 128.232 127.054 126.311 127.873 124.351C128.832 122.067 129.681 119.744 130.417 117.381C131.341 114.401 132.072 111.369 132.659 108.297C132.707 108.043 132.659 107.943 132.444 107.864C130.903 107.317 129.318 107.09 127.702 107.387C124.917 107.899 122.64 109.251 120.853 111.487C119.837 112.756 119.058 114.134 118.515 115.652C118.107 116.781 117.818 117.932 117.687 119.14C117.577 120.146 117.56 121.161 117.634 122.15C117.709 123.1 117.88 124.066 118.221 124.985C118.388 125.432 118.177 125.594 117.709 125.515C117.542 125.489 117.358 125.502 117.188 125.537C116.075 125.773 115.007 126.132 113.991 126.635C111.872 127.676 110.019 129.081 108.377 130.783C107.225 131.973 106.117 133.185 105.342 134.668C104.554 136.173 103.678 137.639 103.402 139.363C103.35 139.678 103.179 139.879 102.785 139.893C102.163 139.906 101.559 140.094 100.963 140.273C98.257 141.087 95.8792 142.47 93.8167 144.391C92.5862 145.537 91.4651 146.78 90.6769 148.285C90.2259 149.142 89.8318 150.026 89.7967 151.019C89.7836 151.396 89.5033 151.518 89.1267 151.334C88.5487 151.054 87.9926 150.731 87.4014 150.486C83.6442 148.932 79.6768 148.394 75.6655 148.197C71.8908 148.014 68.1248 148.189 64.3851 148.788C60.9738 149.335 57.6282 150.114 54.4797 151.58C54.1776 151.72 53.9849 151.693 53.9367 151.308C53.8579 150.669 53.7221 150.048 53.49 149.444C52.6755 147.313 51.1297 145.73 49.527 144.202C48.2352 142.973 46.7069 142.063 45.0954 141.315C43.6985 140.667 42.2665 140.107 40.7032 139.98C40.4273 139.958 40.3398 139.788 40.2916 139.534C40.0113 138.007 39.3413 136.615 38.6451 135.25C37.8087 133.614 36.622 132.214 35.3345 130.914C33.1581 128.713 30.6577 126.989 27.7193 125.952C27.1545 125.751 26.5589 125.554 25.9415 125.615C25.3459 125.677 25.3021 125.637 25.4729 125.042C25.8407 123.738 26.086 122.408 26.0947 121.047C26.0991 120.129 25.959 119.218 25.8145 118.308C25.2408 114.747 23.5899 111.811 20.7435 109.614C18.2212 107.663 15.3661 106.875 12.1912 107.685C11.1534 107.947 11.1578 107.956 11.3811 109.01C11.4249 109.216 11.4337 109.426 11.4731 109.632C11.8628 111.583 12.3664 113.504 12.8919 115.425C13.632 118.133 14.5559 120.785 15.5981 123.388C16.3689 125.309 17.2272 127.195 18.173 129.041C19.5218 131.671 20.98 134.231 22.6353 136.681C24.1373 138.908 25.7575 141.048 27.4741 143.117C28.9542 144.898 30.5789 146.535 32.2429 148.136C33.8281 149.663 35.5053 151.094 37.2394 152.446C38.4524 153.391 39.7355 154.257 41.0229 155.102C42.306 155.942 43.6065 156.773 44.9597 157.5C46.1639 158.143 47.3769 158.79 48.6205 159.346C50.3546 160.12 52.1238 160.816 53.9148 161.455C56.2839 162.304 58.7099 162.956 61.1665 163.463C62.8087 163.8 64.4902 163.923 66.1455 164.177C68.2343 164.492 70.3275 164.443 72.4207 164.465ZM126.738 106.683C126.589 106.6 126.484 106.538 126.379 106.486C123.397 104.968 120.31 103.712 117.122 102.71C116.693 102.574 116.636 102.408 116.759 102.027C116.912 101.546 117.034 101.056 117.148 100.566C117.748 97.9624 118.12 95.3327 118.138 92.6549C118.147 91.1148 118.011 89.5965 117.831 88.0694C117.604 86.153 117.42 84.2321 116.969 82.3463C116.137 78.859 115.024 75.4593 113.54 72.1952C111.771 68.3141 109.262 64.9538 105.973 62.2147C105.036 61.4359 104.134 60.5739 103 60.0926C99.5051 58.6006 95.8748 58.4868 92.214 59.2788C89.8361 59.7951 87.7123 60.9239 85.9257 62.5779C84.047 64.3149 82.3918 66.2139 81.7437 68.8261C81.3408 70.4494 80.846 72.042 80.7102 73.7222C80.5613 75.5731 80.5044 77.4195 80.9073 79.2441C81.2795 80.933 81.4678 82.6438 81.0912 84.3284C80.5832 86.6168 79.322 88.4851 77.4741 89.9334C75.6349 91.3773 73.441 91.6967 71.212 91.7973C69.7232 91.863 68.3525 91.3117 67.0957 90.5853C63.2772 88.3888 62.2175 84.7222 62.6423 80.8411C62.7999 79.406 63.1853 78.0014 63.1064 76.5357C63.0583 75.6124 63.067 74.6892 63.0101 73.766C62.9006 71.9414 62.581 70.1781 61.946 68.4629C60.571 64.7481 58.0705 62.0747 54.506 60.4076C51.7297 59.1125 48.8045 58.5524 45.7435 58.9681C43.392 59.2831 41.2112 60.097 39.245 61.4359C37.6467 62.5254 36.3198 63.908 35.0192 65.3344C33.3114 67.2071 31.9057 69.2811 30.7321 71.5126C29.3089 74.221 28.4506 77.1351 27.7106 80.0842C27.1676 82.2457 26.8698 84.4553 26.6158 86.6693C26.4494 88.1263 26.3312 89.5833 26.2524 91.0404C26.1604 92.6593 26.3137 94.2782 26.537 95.8884C26.826 97.9405 27.0844 99.9926 27.461 102.027C27.5179 102.329 27.4391 102.447 27.1326 102.539C23.7913 103.576 20.5421 104.854 17.4067 106.411C17.2359 106.495 16.8812 106.582 16.9907 106.775C17.1045 106.98 17.4417 107.081 17.7395 106.971C17.8534 106.928 17.9585 106.862 18.0679 106.81C19.7758 105.974 21.5186 105.199 23.3009 104.539C26.8216 103.235 30.4212 102.198 34.1171 101.52C36.9153 101.008 39.7311 100.631 42.5731 100.553C44.2678 100.505 45.9625 100.491 47.6572 100.614C49.7284 100.763 51.7866 100.981 53.8272 101.367C56.2532 101.826 58.6179 102.482 60.9125 103.379C63.3079 104.32 65.5937 105.462 67.6957 106.963C68.8167 107.763 69.9115 108.604 70.8661 109.601C71.0938 109.837 71.3609 110.104 71.2734 110.468C71.1288 111.08 71.2865 111.68 71.2821 112.288C71.2777 113.723 71.2777 115.162 71.2777 116.598C71.2777 118.663 71.2777 120.724 71.2821 122.789C71.2821 124.329 71.2821 125.865 71.2865 127.405C71.2865 127.633 71.2558 127.904 71.5886 127.913C71.9565 127.921 71.9171 127.628 71.9258 127.383C71.9302 127.313 71.9258 127.243 71.9258 127.173C71.9258 125.965 71.9258 124.758 71.9215 123.555C71.9171 119.498 71.9652 115.438 71.8733 111.382C71.8514 110.415 72.2061 109.816 72.8148 109.216C73.8833 108.157 75.0831 107.247 76.3268 106.42C78.709 104.841 81.2882 103.651 83.9901 102.723C88.0276 101.336 92.2008 100.653 96.4529 100.452C98.857 100.338 101.274 100.395 103.678 100.631C106.56 100.916 109.415 101.362 112.231 102.036C116.798 103.13 121.194 104.701 125.398 106.792C125.867 107.015 126.261 107.068 126.738 106.683ZM71.7901 134.366C71.7901 133.776 71.7945 133.373 71.7901 132.971C71.7901 132.822 71.7419 132.686 71.5711 132.66C71.3828 132.634 71.2777 132.761 71.2208 132.914C71.1858 133.006 71.1902 133.119 71.1858 133.224C71.1814 135.18 71.177 137.136 71.177 139.092C71.177 139.179 71.177 139.271 71.1989 139.35C71.2471 139.529 71.339 139.665 71.558 139.661C71.7726 139.656 71.812 139.499 71.8426 139.346C71.8733 139.175 71.8952 139 71.8908 138.829C71.882 137.28 71.939 135.727 71.7901 134.366Z" fill="#4C566F"/>
<path d="M11.9815 73.2891C12.1307 73.591 11.8631 73.8754 11.9377 74.1773L11.9421 74.1729C11.8631 74.1992 11.7798 74.2254 11.7008 74.2473C11.7798 73.9235 11.8105 73.5866 11.9815 73.2891Z" fill="#4C566F"/>
<path d="M18.2043 57.2529C18.235 57.5548 18.1736 57.8086 17.8446 57.9136C17.8797 57.6467 18.0552 57.4542 18.2043 57.2529Z" fill="#4C566F"/>
<path d="M12.1695 72.4492C12.2353 72.6199 12.3143 72.7949 12.1081 72.9305C12.0599 72.7599 12.0467 72.5936 12.1695 72.4492Z" fill="#4C566F"/>
<path d="M17.6653 58.2856C17.7048 58.4169 17.6741 58.5088 17.5249 58.5394C17.5162 58.4257 17.5688 58.3425 17.6653 58.2856Z" fill="#4C566F"/>
<path d="M126.738 106.683C126.261 107.068 125.867 107.02 125.39 106.783C121.186 104.692 116.789 103.117 112.222 102.027C109.402 101.353 106.551 100.907 103.67 100.623C101.265 100.386 98.8526 100.33 96.4442 100.443C92.1965 100.645 88.0189 101.332 83.9814 102.714C81.2795 103.642 78.7003 104.832 76.3181 106.411C75.07 107.238 73.8745 108.149 72.8061 109.207C72.1974 109.811 71.8427 110.406 71.8646 111.373C71.9565 115.429 71.9084 119.485 71.9127 123.546C71.9127 124.754 71.9127 125.961 71.9171 127.164C71.9171 127.234 71.9215 127.304 71.9171 127.374C71.9084 127.615 71.9478 127.913 71.5799 127.904C71.2515 127.895 71.2778 127.619 71.2778 127.396C71.2734 125.856 71.2734 124.32 71.2734 122.78C71.2734 120.715 71.269 118.654 71.269 116.589C71.269 115.154 71.269 113.714 71.2734 112.279C71.2778 111.675 71.1201 111.071 71.2646 110.459C71.3522 110.096 71.0851 109.829 70.8574 109.592C69.9027 108.595 68.808 107.755 67.687 106.954C65.585 105.453 63.2991 104.307 60.9038 103.371C58.6092 102.469 56.2401 101.813 53.8185 101.358C51.7779 100.973 49.7197 100.754 47.6484 100.605C45.9537 100.483 44.2547 100.496 42.5644 100.544C39.7223 100.623 36.9066 100.999 34.1084 101.511C30.4125 102.189 26.8129 103.226 23.2922 104.53C21.5099 105.191 19.7714 105.965 18.0592 106.801C17.9497 106.853 17.8446 106.919 17.7308 106.963C17.433 107.077 17.0958 106.976 16.982 106.766C16.8769 106.578 17.2272 106.49 17.398 106.403C20.5334 104.845 23.7826 103.567 27.1238 102.53C27.4304 102.434 27.5092 102.32 27.4523 102.019C27.0757 99.9839 26.8173 97.9274 26.5283 95.8797C26.3006 94.2695 26.1517 92.6506 26.2436 91.0317C26.3268 89.5747 26.4407 88.1176 26.6071 86.6606C26.8611 84.4422 27.1589 82.237 27.7019 80.0755C28.4419 77.1264 29.3002 74.2123 30.7234 71.5039C31.897 69.268 33.3027 67.1984 35.0105 65.3257C36.3067 63.8993 37.6379 62.5167 39.2363 61.4272C41.2025 60.0927 43.3832 59.2788 45.7348 58.9594C48.7957 58.5481 51.7253 59.1038 54.4973 60.3989C58.0618 62.066 60.5622 64.7394 61.9373 68.4542C62.5722 70.1738 62.8919 71.9327 63.0014 73.7573C63.0583 74.6805 63.0495 75.6037 63.0977 76.527C63.1722 77.9884 62.7868 79.3973 62.6335 80.8324C62.2131 84.7179 63.2729 88.3801 67.087 90.5766C68.3482 91.303 69.7145 91.8543 71.2033 91.7886C73.4366 91.688 75.6262 91.3686 77.4654 89.9247C79.3133 88.472 80.5789 86.6037 81.0825 84.3197C81.4547 82.6351 81.2708 80.9243 80.8985 79.2354C80.4957 77.4108 80.5526 75.5644 80.7015 73.7135C80.8372 72.0334 81.3321 70.4407 81.7349 68.8174C82.383 66.2052 84.0383 64.3063 85.9169 62.5692C87.7036 60.9153 89.8274 59.7864 92.2052 59.2701C95.8617 58.4781 99.4964 58.5919 102.991 60.0839C104.125 60.5696 105.027 61.4272 105.964 62.206C109.253 64.9494 111.762 68.3054 113.531 72.1865C115.016 75.4462 116.124 78.846 116.96 82.3376C117.411 84.2234 117.595 86.1399 117.823 88.0607C118.002 89.5878 118.142 91.1061 118.129 92.6462C118.112 95.324 117.739 97.9537 117.14 100.557C117.026 101.047 116.903 101.542 116.75 102.019C116.627 102.399 116.684 102.57 117.113 102.701C120.301 103.703 123.393 104.959 126.371 106.477C126.484 106.538 126.59 106.6 126.738 106.683ZM26.9618 91.968C26.9881 92.5368 26.9968 93.3244 27.0362 94.1077C27.1589 96.6542 27.6011 99.157 28.0084 101.664C28.1004 102.242 28.1617 102.277 28.7309 102.084C30.4213 101.515 32.1729 101.192 33.9157 100.868C35.5535 100.566 37.2044 100.312 38.8728 100.155C40.7251 99.9795 42.5819 99.857 44.4386 99.8045C45.818 99.7651 47.193 99.8964 48.568 99.9752C50.7663 100.102 52.9339 100.443 55.0884 100.885C57.5757 101.393 59.9711 102.202 62.3095 103.178C64.3589 104.031 66.29 105.125 68.1117 106.385C69.2415 107.168 70.3188 108.035 71.3084 109.006C71.5011 109.194 71.6631 109.343 71.9127 109.072C72.447 108.494 73.0776 108.017 73.6775 107.514C75.4379 106.044 77.3909 104.871 79.4316 103.839C81.1044 102.994 82.856 102.36 84.6295 101.765C86.4555 101.152 88.3298 100.754 90.2172 100.417C91.798 100.137 93.392 99.9664 94.9947 99.8614C96.8208 99.7389 98.6468 99.6339 100.473 99.7301C101.861 99.8045 103.249 99.9402 104.637 100.067C107.02 100.29 109.362 100.715 111.692 101.209C112.901 101.467 114.1 101.782 115.287 102.145C115.918 102.338 116.036 102.268 116.216 101.651C117.083 98.6538 117.464 95.5822 117.564 92.4756C117.599 91.4342 117.464 90.3885 117.367 89.3471C117.24 87.9601 117.135 86.5687 116.921 85.1948C116.544 82.8189 115.935 80.4955 115.156 78.2159C114.017 74.8905 112.813 71.6046 110.847 68.6467C109.218 66.1921 107.243 64.0787 104.988 62.2016C103.376 60.8584 101.546 60.0314 99.5095 59.6376C98.0644 59.3576 96.6062 59.3488 95.1348 59.4713C93.9306 59.572 92.7482 59.712 91.5922 60.0752C89.3457 60.7796 87.4058 61.9785 85.7111 63.593C84.5638 64.6869 83.5391 65.9208 82.9129 67.3603C81.7524 70.0381 81.1963 72.8778 81.1613 75.8006C81.1438 77.1264 81.3627 78.4347 81.6123 79.7386C82.0021 81.7819 82.0765 83.8121 81.2489 85.7942C80.4519 87.7019 79.3308 89.3778 77.623 90.5635C75.1883 92.2524 72.4601 92.6462 69.5787 92.1343C67.1877 91.7099 65.296 90.441 63.8421 88.5552C61.9241 86.0699 61.6701 83.1821 62.0905 80.1892C62.2657 78.9335 62.5416 77.6908 62.5635 76.4132C62.5941 74.7987 62.3708 73.2147 62.1299 71.6308C61.6658 68.5811 60.4002 65.8814 58.2019 63.7024C55.2636 60.7927 51.594 59.5676 47.5346 59.397C46.2252 59.3401 44.9378 59.6507 43.6766 60.0139C41.9294 60.5171 40.3223 61.3047 38.8816 62.416C37.4058 63.5537 36.1534 64.9101 34.9492 66.3233C33.0793 68.5198 31.5204 70.9176 30.43 73.5866C28.0566 79.406 26.9793 85.4792 26.9618 91.968Z" fill="#D2D9E3"/>
<path d="M50.0263 41.8425C49.8993 41.1906 49.9606 40.5255 49.9606 39.8692C49.9518 36.08 49.9693 32.2909 49.9693 28.5017C49.9693 28.2611 50.0175 28.0073 49.8555 27.7929C50.1051 27.5741 50.2759 28.0423 50.5211 27.8673C50.6481 28.8211 50.5605 29.7794 50.5649 30.7332C50.5824 34.2336 50.578 37.734 50.5824 41.2344C50.5824 41.405 50.5605 41.58 50.5474 41.7507C50.3766 41.7857 50.2014 41.8163 50.0263 41.8425Z" fill="#4C566F"/>
<path d="M93.462 28.2872C93.6109 29.0967 93.5145 29.9193 93.5189 30.7331C93.5408 34.1635 93.5277 37.5939 93.5189 41.0286C93.5189 41.2999 93.6328 41.5843 93.4708 41.8468C93.2956 41.8162 93.1248 41.79 92.9496 41.7593C92.8533 40.613 92.919 39.4622 92.9146 38.3114C92.9015 35.0517 92.9146 31.7964 92.9234 28.5366C92.9234 28.3485 92.8796 28.1516 92.9978 27.9766C93.1686 28.0597 93.1511 28.4185 93.462 28.2872Z" fill="#4C566F"/>
<path d="M71.7901 134.367C71.9346 135.727 71.8821 137.281 71.8908 138.83C71.8908 139 71.8733 139.175 71.8427 139.346C71.812 139.499 71.7726 139.657 71.558 139.661C71.3347 139.665 71.2471 139.53 71.199 139.35C71.1771 139.267 71.1771 139.18 71.1771 139.092C71.1771 137.136 71.1814 135.18 71.1858 133.225C71.1858 133.12 71.1814 133.01 71.2209 132.914C71.2778 132.761 71.3873 132.634 71.5712 132.66C71.742 132.682 71.7901 132.818 71.7901 132.971C71.7945 133.373 71.7901 133.776 71.7901 134.367Z" fill="#D2D9E3"/>
<path d="M106.034 44.3979C106.463 44.3892 106.879 44.2316 107.313 44.306C106.914 44.6386 106.433 44.6736 106.034 44.3979Z" fill="#4C566F"/>
<path d="M93.497 42.2803C93.7467 42.3109 93.9437 42.4378 94.1145 42.6172C93.9437 42.6347 93.7685 42.6916 93.6065 42.6609C93.3613 42.6216 93.265 42.4815 93.497 42.2803Z" fill="#4C566F"/>
<path d="M49.3869 42.6259C49.5445 42.429 49.7504 42.3153 50 42.2803C49.8993 42.7572 49.8993 42.7572 49.3869 42.6259Z" fill="#4C566F"/>
<path d="M51.3146 27.1585C51.24 27.4342 51.0119 27.4298 50.7926 27.4298C50.8935 27.1979 51.0646 27.1017 51.3146 27.1585Z" fill="#4C566F"/>
<path d="M92.9716 27.8018C92.9541 27.6924 92.9366 27.583 92.919 27.4736C93.1734 27.5436 93.2085 27.6487 92.9716 27.8018Z" fill="#4C566F"/>
<path d="M105.097 44.4502C105.163 44.3889 105.242 44.3846 105.321 44.4239C105.259 44.5421 105.189 44.5946 105.097 44.4502Z" fill="#4C566F"/>
<path d="M48.1739 43.1905C48.2221 43.103 48.3011 43.1074 48.3844 43.1205C48.3581 43.2824 48.3055 43.3568 48.1739 43.1905Z" fill="#4C566F"/>
<path d="M11.9373 74.1773C11.9505 74.1861 11.9683 74.1906 11.9816 74.1994C11.9683 74.1906 11.955 74.1817 11.9373 74.1773C11.9373 74.1773 11.9417 74.1728 11.9373 74.1773Z" fill="#4C566F"/>
<path d="M50.5867 42.2847C50.6217 42.3108 50.6611 42.3412 50.696 42.3673C50.6305 42.376 50.5911 42.3455 50.5867 42.2847Z" fill="#4C566F"/>
<path d="M93.432 41.9565C93.4408 41.9917 93.4408 42.0224 93.432 42.0575C93.4055 42.04 93.3834 42.0224 93.3569 42.0092C93.3834 41.9917 93.4055 41.9741 93.432 41.9565Z" fill="#4C566F"/>
<path d="M26.9618 91.9681C26.9749 85.4792 28.0566 79.4061 30.43 73.5867C31.5204 70.9176 33.0793 68.5199 34.9492 66.3234C36.1534 64.9101 37.4058 63.5493 38.8816 62.4161C40.3223 61.3047 41.9294 60.5171 43.6766 60.0139C44.9378 59.6508 46.2252 59.3445 47.5346 59.397C51.5896 59.5676 55.2592 60.7928 58.2019 63.7025C60.4046 65.8815 61.6701 68.5811 62.1299 71.6308C62.3708 73.2104 62.5941 74.7987 62.5634 76.4132C62.5372 77.6953 62.2657 78.9335 62.0905 80.1893C61.6745 83.1821 61.9285 86.0656 63.8421 88.5552C65.296 90.441 67.1833 91.7099 69.5787 92.1343C72.4645 92.6463 75.1882 92.2525 77.623 90.5635C79.3352 89.3778 80.4519 87.702 81.2488 85.7943C82.0765 83.8122 82.002 81.782 81.6123 79.7386C81.3627 78.4347 81.1437 77.1264 81.1613 75.8007C81.1963 72.8779 81.7481 70.0338 82.9129 67.3604C83.5391 65.9208 84.5638 64.687 85.7111 63.5931C87.4058 61.9785 89.3457 60.7753 91.5922 60.0752C92.7482 59.712 93.9349 59.572 95.1348 59.4714C96.6062 59.3489 98.0644 59.3576 99.5095 59.6377C101.546 60.0314 103.376 60.8584 104.988 62.2017C107.247 64.0831 109.218 66.1921 110.847 68.6468C112.813 71.609 114.017 74.8906 115.156 78.2159C115.935 80.4956 116.544 82.819 116.921 85.1948C117.14 86.5687 117.24 87.9601 117.367 89.3472C117.464 90.3885 117.595 91.4343 117.564 92.4756C117.464 95.5822 117.083 98.6538 116.216 101.651C116.036 102.268 115.918 102.338 115.287 102.145C114.1 101.782 112.905 101.467 111.692 101.209C109.358 100.71 107.02 100.29 104.637 100.067C103.249 99.9358 101.861 99.8002 100.473 99.7302C98.6468 99.6339 96.8207 99.7389 94.9947 99.8614C93.3919 99.9708 91.798 100.137 90.2171 100.417C88.3298 100.754 86.4555 101.152 84.6295 101.765C82.856 102.36 81.1 102.994 79.4315 103.839C77.3909 104.871 75.4378 106.044 73.6775 107.514C73.0732 108.017 72.447 108.494 71.9127 109.072C71.6631 109.343 71.5011 109.194 71.3084 109.006C70.3231 108.039 69.2415 107.168 68.1117 106.385C66.29 105.125 64.3632 104.036 62.3095 103.178C59.9711 102.202 57.5757 101.397 55.0884 100.885C52.9339 100.443 50.7707 100.102 48.568 99.9752C47.193 99.8965 45.8136 99.7608 44.4386 99.8046C42.5819 99.8571 40.7295 99.9796 38.8728 100.155C37.2044 100.312 35.5535 100.562 33.9157 100.868C32.1729 101.187 30.4212 101.515 28.7309 102.084C28.1617 102.277 28.1003 102.242 28.0084 101.664C27.6011 99.157 27.1588 96.6542 27.0362 94.1077C27.0012 93.3201 26.9924 92.5369 26.9618 91.9681Z" fill="#4C566F"/>
<path d="M45.5467 140.375L49.1135 144.892L57.2993 138.439L53.7325 133.922L45.5467 140.375Z" fill="#D2D9E3"/>
<path d="M41.9805 135.855L45.5472 140.373L53.7331 133.92L50.1663 129.402L41.9805 135.855Z" fill="#D2D9E3"/>
<path d="M38.4135 131.342L41.9803 135.859L50.1661 129.406L46.5994 124.889L38.4135 131.342Z" fill="#D2D9E3"/>
<path d="M34.8472 126.822L38.414 131.339L46.5999 124.886L43.0331 120.369L34.8472 126.822Z" fill="#D2D9E3"/>
<path d="M31.2837 122.306L34.8505 126.823L43.0363 120.37L39.4695 115.853L31.2837 122.306Z" fill="#D2D9E3"/>
<path d="M27.714 117.789L31.2808 122.307L39.4666 115.854L35.8998 111.336L27.714 117.789Z" fill="#D2D9E3"/>
<path d="M24.1505 113.273L27.7173 117.791L35.9031 111.338L32.3364 106.82L24.1505 113.273Z" fill="#D2D9E3"/>
<path d="M20.5842 108.754L24.151 113.271L32.3369 106.818L28.7701 102.301L20.5842 108.754Z" fill="#D2D9E3"/>
<path d="M27.8289 105.055L54.2214 138.48C56.2795 141.087 60.0149 141.63 62.9007 139.867L71.7463 151.072C74.1855 154.161 75.9152 157.758 76.8173 161.617C77.7194 165.476 79.4491 169.073 81.8882 172.162L102.119 197.794L106.131 194.63L113.566 188.771L117.577 185.608L74.3475 130.844C76.7341 128.451 77.0756 124.697 75.0175 122.089L48.625 88.6647C46.396 85.8381 42.1921 85.4356 39.2407 87.759L29.1338 95.7267C26.178 98.0501 25.5955 102.229 27.8289 105.055Z" fill="#FF2C3B"/>
<path d="M156.17 2.27979V42.6917" stroke="#4C566F" stroke-miterlimit="10" stroke-linecap="round" stroke-linejoin="round"/>
<path d="M145.257 13.1835L156.17 2.27979L167.083 13.1835" stroke="#4C566F" stroke-miterlimit="10" stroke-linecap="round" stroke-linejoin="round"/>
</svg>
