<svg width="1682" height="1279" viewBox="0 0 1682 1279" fill="none" xmlns="http://www.w3.org/2000/svg">
<g opacity="0.2">
<path d="M840.508 639.125C840.418 639.215 840.315 639.306 840.237 639.396C840.16 639.473 840.082 639.564 840.018 639.654C839.54 640.287 839.256 641.075 839.578 641.798C839.966 642.728 840.948 643.257 841.89 643.554C845.714 644.613 850.286 643.051 852.469 639.706C856.034 634.527 853.489 627.748 848.93 624.067C839.423 616.732 825.939 615.867 814.547 618.346C804.795 620.555 795.857 625.591 788.378 632.151C763.333 653.821 773.512 688.391 795.34 708.369C818.783 730.051 851.397 739.349 882.383 744.011C950.142 753.542 1019.15 732.505 1074.77 693.931C1097.1 678.525 1116.08 658.353 1130.57 635.483C1181.68 556.037 1172.87 450.595 1125.31 371.536C1020.02 196.437 785.666 123.577 591.508 113.065C575.879 112.419 560.276 112.277 545.423 113.001C524.046 114.034 505.873 97.5427 504.839 76.1573C503.806 54.7848 520.3 36.615 541.69 35.5819C560.444 35.414 578.669 36.5892 596.584 38.1776C779.789 57.1868 977.68 125.243 1103.83 264.764C1173.97 341.989 1217.86 450.505 1195.9 555.275C1185.52 606.956 1159.19 655.719 1119.86 691.051C1110.07 699.833 1099.56 707.788 1088.39 714.71C1013.07 762.155 914.661 779.537 831.26 743.637C807.662 733.525 785.02 717.589 773.395 693.983C762.029 671.797 764.341 643.942 785.085 628.161C793.428 621.523 803.284 616.59 813.836 614.743C826.275 612.716 840.302 614.278 850.183 622.685C855 626.947 857.455 634.76 853.244 640.235C850.712 643.709 845.843 645.168 841.8 643.851C839.72 643.154 838.532 641.256 839.979 639.615C840.043 639.538 840.121 639.461 840.211 639.383C840.315 639.293 840.418 639.189 840.547 639.099L840.508 639.125Z" fill="#F1DDED"/>
<path d="M840.509 639.125C840.224 640.145 840.638 641.307 841.568 641.836C844.345 643.36 848 641.927 849.925 639.693C852.766 636.4 850.88 631.609 848.194 628.819C842.369 622.789 833.314 621.51 825.28 622.388C817.078 623.241 809.096 626.379 802.896 631.557C793.816 639.215 788.34 651.574 789.425 663.441C792.072 683.858 809.949 698.386 827.295 707.374C864.326 726.087 908.435 723.982 947.778 714.141C995.465 701.976 1038.05 673.553 1064.8 632.461C1073.45 619.173 1081.06 604.929 1086 589.819C1116.19 487.232 1031.97 384.889 951.821 330.212C767.325 206.084 520.662 202.855 312.555 262.556C282.318 271.518 251.189 282.34 223.381 295.938C176.791 316.859 143.596 251.385 189.049 226.449C223.419 211.314 257.957 201.331 293.736 192.395C520.313 138.867 783.638 155.138 975.355 297.914C1051.48 356.427 1119.94 443.544 1119.02 543.885C1118.26 582.355 1105.19 614.072 1082.69 644.936C1036.09 710.151 951.395 742.022 872.941 731.51C846.98 727.61 821.16 717.563 802.083 699.058C789.463 686.958 779.634 668.065 785.731 650.398C792.344 627.98 815.709 615.544 838.042 621.213C844.125 623.098 850.674 627.166 852.056 633.869C852.469 636.038 851.991 638.518 850.39 640.119C848.181 642.418 844.332 643.696 841.464 641.966C840.534 641.359 840.16 640.145 840.496 639.112L840.509 639.125Z" fill="#F1DDED"/>
<path d="M840.508 639.124C840.573 639.279 840.65 639.421 840.741 639.55C840.793 639.641 840.857 639.718 840.922 639.796C842.071 641.216 844.306 641.436 845.92 640.635C850.299 638.479 849.795 633.533 846.23 630.743C834.541 621.613 816.6 626.611 807.598 637.252C799.176 646.692 800.817 660.432 806.551 670.815C822.697 698.128 865.153 704.804 894.382 702.544C942.289 698.696 989.847 669.937 1014.75 628.922C1031.35 601.493 1035.49 568.627 1029.81 537.324C1027.19 521.776 1022.49 506.744 1014.84 492.849C967.618 410.084 862.479 363.516 773.266 341.304C550.692 287.957 304.21 352.501 133.289 503.348C115.594 519.154 98.9446 535.736 84.0133 553.802C79.1956 559.639 74.7136 565.541 70.8516 571.236C58.8524 588.954 34.7506 593.59 17.0165 581.593C-1.35051 569.247 -5.5483 543.678 7.85882 526.089C19.5222 510.567 32.1673 497.11 45.7036 483.848C238.234 302.33 529.07 230.361 783.367 303.88C879.709 332.885 989.149 388.53 1036.49 481.911C1051.99 514.596 1056.6 552.433 1049.78 588.076C1037.71 650.643 981.438 696.552 921.003 709.272C886.994 715.781 849.136 712.552 819.855 692.807C805.402 683.096 794.229 664.745 798.724 646.873C803.891 627.682 831.157 616.809 846.876 630.02C850.454 633.106 851.113 638.75 846.049 640.919C844.332 641.655 842.045 641.345 840.922 639.847C840.857 639.757 840.792 639.667 840.728 639.563C840.65 639.421 840.573 639.266 840.508 639.111V639.124Z" fill="#F1DDED"/>
<path d="M840.508 639.125C840.676 639.254 840.857 639.357 841.051 639.448C843.57 640.687 847.264 639.215 846.928 635.922C846.592 632.823 843.686 631.002 840.909 630.111C827.334 625.862 811.253 634.979 810.607 649.598C810.052 661.763 820.139 671.009 829.607 677.156C868.317 701.021 931.039 683.949 959.442 650.786C1005.71 596.393 987.858 532.262 940.248 485.695C918.29 463.121 891.644 445.972 862.492 433.897C788.675 403.395 706.644 396.693 627.519 402.788C409.569 419.356 193.389 554.655 135.588 773.674C129.944 795.305 126.043 817.078 124.906 839.057C124.571 846.082 124.584 852.966 125.023 859.203C126.547 880.55 110.466 899.094 89.1154 900.618C66.951 902.271 47.7703 884.592 47.5895 862.38C47.1245 824.955 54.9518 788.551 65.8273 753.361C108.064 619.147 207.803 507.39 331.232 442.02C451.521 377.593 591.74 352.14 726.767 368.631C793.919 377.477 862.066 396.047 917.929 435.873C958.279 466.273 996.098 510.993 1002 562.933C1007.61 611.024 980.508 660.781 936.942 681.715C901.06 699.355 847.044 703.862 817.182 672.843C811.253 666.67 806.564 658.198 807.546 649.34C808.838 635.728 821.883 626.534 835.071 627.838C839.966 628.342 846.799 630.072 847.419 635.87C847.496 639.318 843.854 640.958 841.09 639.46C840.896 639.357 840.702 639.228 840.508 639.086V639.125Z" fill="#F1DDED"/>
<path d="M840.508 639.124C840.715 639.15 840.909 639.163 841.115 639.163C841.27 639.163 841.425 639.163 841.567 639.163C841.684 639.163 841.813 639.163 841.929 639.137C842.446 639.086 842.949 638.969 843.414 638.75C844.306 638.35 844.977 637.484 845.003 636.529C845.042 635.573 844.564 634.669 843.931 633.959C841.916 631.802 838.855 631.066 835.962 631.131C820.268 631.957 812.054 646.02 821.573 659.154C828.535 668.568 840.276 672.649 851.448 674.934C881.685 681.301 914.532 668.529 934.539 645.633C955.812 622.001 956.264 590.065 944.058 561.874C925.51 519.322 883.455 492.823 841.387 476.745C687.114 416.347 486.95 488.252 377.459 604.748C293.154 693.543 259.778 814.314 289.589 933.315C299.948 976.125 317.178 1017.67 340.441 1054.95C348.113 1067.14 356.509 1078.88 365.188 1088.79C397.492 1128.6 342.456 1177.27 306.871 1139.86C283.738 1110.83 267.257 1079.59 252.997 1046.22C205.827 935.33 200.35 804.035 253.501 694.228C300.658 594.262 388.373 518.108 488.281 473.568C571.281 436.867 663.8 418.026 754.395 429.326C815.799 437.758 889.616 465.885 931.297 513.253C953.603 538.499 968.263 572.527 963.962 606.762C957.517 658.134 899.071 692.433 850.389 679.661C835.083 675.916 816.174 666.76 815.128 648.887C814.469 640.106 821.793 632.771 829.878 630.872C833.818 629.917 838.235 629.646 841.903 631.66C845.959 633.701 846.773 638.801 842.123 639.124C841.994 639.124 841.877 639.137 841.735 639.137C841.58 639.137 841.425 639.137 841.27 639.137C841.025 639.137 840.767 639.099 840.495 639.073L840.508 639.124Z" fill="#F1DDED"/>
<path d="M840.508 639.124C840.715 639.06 840.922 638.995 841.115 638.918C841.245 638.866 841.374 638.815 841.49 638.75C841.645 638.672 841.8 638.595 841.955 638.505C842.355 638.259 842.691 637.949 842.937 637.549C843.453 636.684 843.105 635.612 842.446 634.927C837.886 630.872 830.524 633.081 826.636 637.071C820.501 643.076 822.129 651.599 828.122 657.062C842.795 670.725 865.424 669.033 883.339 663.622C894.279 660.252 904.405 653.898 911.974 645.362C927.422 628.471 931.297 603.43 922.359 582.691C913.085 561.693 895.403 545.731 876.48 533.153C821.948 498.337 753.762 494.037 691.067 502.741C662.457 506.409 634.467 514.415 608.131 526.18C475.274 584.886 385.015 729.018 417.796 874.364C449.08 1015.53 569.641 1121.66 693.857 1185.47C707.277 1192.15 720.916 1198.24 734.194 1203.19C754.253 1210.65 764.47 1232.97 757.005 1253.02C749.539 1273.08 727.219 1283.29 707.16 1275.83C690.085 1268.69 674.069 1260.39 658.608 1251.75C528.011 1176.14 408.303 1059.99 371.621 909.218C337.87 770.433 395.516 630.989 509.296 547.655C563.079 507.919 627.48 481.872 694.49 477.869C759.962 472.975 830.111 482.208 884.695 521.169C904.793 535.955 923.534 554.939 932.524 578.765C941.682 602.991 935.714 632.319 917.257 650.347C908.371 659.386 897.03 665.74 884.824 668.865C865.437 673.682 841.27 674.134 826.365 658.741C820.023 652.374 818.641 642.508 825.797 636.18C830.175 632.138 838.003 630.162 842.665 634.721C843.996 636.361 843.311 637.872 841.852 638.66C841.671 638.763 841.477 638.84 841.27 638.918C841.025 639.008 840.767 639.086 840.495 639.137L840.508 639.124Z" fill="#F1DDED"/>
<path d="M840.508 639.124C840.676 638.982 840.831 638.827 840.973 638.647C841.012 638.595 841.051 638.543 841.09 638.492C841.529 637.885 841.761 637.136 841.451 636.451C841.051 635.521 840.069 634.992 839.126 634.695C835.29 633.623 830.731 635.199 828.548 638.543C824.983 643.722 827.54 650.514 832.1 654.195C841.619 661.53 855.104 662.395 866.496 659.916C881.376 656.326 896.397 646.317 903.294 632.422C910.205 618.346 907.647 601.519 900.091 588.179C880.045 553.234 836.259 539.907 798.634 534.225C730.875 524.695 661.85 545.731 606.245 584.305C583.913 599.711 564.939 619.883 550.447 642.753C499.35 722.199 508.159 827.654 555.704 906.7C660.998 1081.79 895.351 1154.66 1089.51 1165.17C1105.14 1165.82 1120.74 1165.96 1135.59 1165.24C1156.97 1164.2 1175.14 1180.69 1176.18 1202.08C1177.21 1223.46 1160.72 1241.62 1139.33 1242.65C1120.57 1242.82 1102.35 1241.65 1084.43 1240.06C901.228 1221.05 703.337 1152.99 577.184 1013.47C507.048 936.247 463.159 827.744 485.116 722.974C495.501 671.293 521.824 622.53 561.142 587.198C570.932 578.416 581.446 570.461 592.606 563.539C667.921 516.094 766.317 498.712 849.731 534.612C873.329 544.724 895.971 560.66 907.596 584.253C918.962 606.426 916.663 634.282 895.932 650.062C887.588 656.7 877.733 661.633 867.194 663.48C854.755 665.507 840.741 663.945 830.847 655.551C826.029 651.302 823.562 643.489 827.773 638.014C830.292 634.54 835.161 633.068 839.204 634.411C840.896 634.992 842.007 636.348 841.568 637.717C841.464 638.04 841.27 638.362 840.973 638.685C840.96 638.698 840.948 638.724 840.922 638.737C840.793 638.879 840.638 639.008 840.47 639.137L840.508 639.124Z" fill="#F1DDED"/>
<path d="M840.509 639.124C840.793 638.104 840.38 636.942 839.45 636.412C836.673 634.889 833.017 636.322 831.093 638.556C828.251 641.849 830.137 646.64 832.824 649.43C838.649 655.46 847.703 656.739 855.737 655.861C863.939 655.009 871.921 651.87 878.121 646.692C887.201 639.034 892.678 626.675 891.593 614.808C888.945 594.391 871.069 579.863 853.722 570.875C816.691 552.162 772.582 554.267 733.239 564.108C685.552 576.273 642.967 604.696 616.217 645.788C607.563 659.076 599.955 673.32 595.021 688.43C564.823 791.017 649.05 893.36 729.196 948.037C913.693 1072.17 1160.36 1075.39 1368.46 1015.69C1398.7 1006.73 1429.83 995.909 1457.64 982.311C1504.23 961.39 1537.42 1026.86 1491.97 1051.8C1457.6 1066.94 1423.06 1076.92 1387.28 1085.85C1160.7 1139.38 897.379 1123.11 705.663 980.335C629.534 921.822 561.077 834.705 561.994 734.364C562.757 695.894 575.828 664.177 598.328 633.313C644.93 568.098 729.622 536.227 808.076 546.739C834.038 550.639 859.857 560.686 878.935 579.191C891.554 591.291 901.383 610.184 895.287 627.851C888.674 650.269 865.308 662.705 842.976 657.036C836.892 655.151 830.344 651.083 828.962 644.38C828.548 642.211 829.026 639.731 830.628 638.13C832.836 635.831 836.686 634.553 839.553 636.283C840.483 636.89 840.857 638.104 840.522 639.137L840.509 639.124Z" fill="#F1DDED"/>
<path d="M840.508 639.125C840.444 638.97 840.366 638.841 840.276 638.699C840.211 638.595 840.134 638.492 840.056 638.402C838.907 637.02 836.698 636.813 835.096 637.614C830.718 639.77 831.222 644.716 834.787 647.506C846.476 656.636 864.416 651.638 873.419 640.997C881.841 631.557 880.2 617.817 874.465 607.434C858.307 580.121 815.864 573.445 786.635 575.705C738.728 579.553 691.17 608.312 666.268 649.327C649.67 676.756 645.524 709.622 651.207 740.925C653.829 756.46 658.531 771.505 666.177 785.4C713.399 868.165 818.538 914.733 907.751 936.944C1130.32 990.292 1376.81 925.748 1547.73 774.901C1565.42 759.095 1582.07 742.513 1597 724.447C1601.82 718.61 1606.3 712.708 1610.17 707.013C1622.16 689.295 1646.27 684.659 1664 696.656C1682.37 709.002 1686.57 734.571 1673.16 752.16C1661.49 767.682 1648.85 781.139 1635.31 794.401C1442.78 975.919 1151.95 1047.89 897.65 974.369C801.307 945.364 691.868 889.718 644.529 796.338C629.03 763.653 624.419 725.816 631.238 690.173C643.302 627.606 699.579 581.697 760.014 568.977C794.023 562.468 831.88 565.696 861.162 585.442C875.615 595.153 886.788 613.504 882.293 631.376C877.126 650.579 849.86 661.44 834.141 648.229C830.563 645.143 829.904 639.499 834.967 637.33C836.763 636.555 839.191 636.929 840.25 638.621C840.289 638.673 840.315 638.737 840.353 638.802C840.418 638.905 840.47 639.021 840.508 639.151V639.125Z" fill="#F1DDED"/>
<path d="M840.508 639.124C840.328 639.008 840.134 638.905 839.927 638.814C839.85 638.776 839.759 638.737 839.669 638.711C838.067 638.078 836.13 638.246 834.941 639.55C832.177 643.192 836.453 647.221 840.031 648.112C853.528 652.387 869.661 643.438 870.41 628.729C870.978 612.845 854.109 601.261 840.986 595.708C801.333 580.999 749.177 596.108 721.627 627.424C675.322 681.792 693.12 745.935 740.73 792.528C762.675 815.102 789.334 832.264 818.486 844.339C892.303 874.854 974.347 881.556 1053.47 875.474C1271.42 858.918 1487.63 723.62 1545.44 504.6C1551.09 482.97 1554.99 461.197 1556.12 439.217C1556.46 432.192 1556.45 425.296 1556.01 419.072C1554.48 397.725 1570.56 379.181 1591.91 377.657C1614.08 376.004 1633.26 393.683 1633.43 415.895C1633.89 453.319 1626.07 489.737 1615.19 524.914C1572.95 659.128 1473.2 770.897 1349.76 836.255C1229.46 900.682 1089.22 926.135 954.198 909.618C887.033 900.759 818.887 882.189 763.036 842.35C722.699 811.938 684.88 767.204 679.003 715.252C673.423 667.16 700.56 617.416 744.14 596.508C780.099 578.881 833.986 574.387 863.887 605.471C873.406 615.027 877.552 629.645 868.55 640.984C863.344 647.893 854.277 651.134 845.843 650.398C841.723 649.946 837.15 648.887 834.567 645.323C831.764 641.074 835.394 636.554 839.824 638.763C839.85 638.763 839.863 638.788 839.888 638.801C840.095 638.905 840.289 639.021 840.495 639.15L840.508 639.124Z" fill="#F1DDED"/>
<path d="M840.509 639.125C839.527 639.021 838.481 639.06 837.589 639.486C836.698 639.886 836.027 640.752 836.001 641.707C835.962 642.663 836.44 643.567 837.073 644.277C839.088 646.434 842.149 647.17 845.042 647.105C860.735 646.279 868.95 632.216 859.431 619.082C852.469 609.668 840.728 605.587 829.556 603.301C799.318 596.935 766.472 609.707 746.465 632.603C725.192 656.235 724.74 688.171 736.946 716.362C755.493 758.914 797.549 785.413 839.617 801.491C993.89 861.889 1194.05 789.984 1303.55 673.488C1387.85 584.693 1421.23 463.922 1391.41 344.921C1381.06 302.111 1363.84 260.567 1340.56 223.285C1332.89 211.094 1324.5 199.355 1315.82 189.45C1283.51 149.637 1338.55 100.965 1374.13 138.376C1397.27 167.407 1413.75 198.645 1428.01 232.015C1475.18 342.906 1480.65 474.201 1427.5 584.008C1380.35 683.974 1292.63 760.128 1192.72 804.668C1109.72 841.369 1017.2 860.21 926.609 848.91C865.205 840.478 791.388 812.351 749.707 764.983C727.4 739.737 712.741 705.708 717.042 671.474C723.487 620.102 781.933 585.803 830.615 598.575C845.921 602.32 864.83 611.476 865.889 629.349C866.548 638.13 859.224 645.465 851.139 647.364C847.199 648.319 842.782 648.59 839.114 646.576C834.632 644.316 834.102 638.35 840.521 639.176L840.509 639.125Z" fill="#F1DDED"/>
<path d="M840.508 639.124C839.565 639.409 838.584 639.861 838.093 640.726C837.589 641.604 837.964 642.663 838.622 643.347C839.979 644.755 842.019 645.297 843.944 645.439C847.858 645.711 851.694 643.851 854.406 641.152C860.528 635.121 858.836 626.611 852.843 621.161C847.315 615.776 839.785 612.767 832.203 611.463C816.949 609.164 800.739 612.212 786.957 619.03C766.679 629.207 752.832 651.509 753.917 674.069C755.144 705.231 780.111 728.786 804.575 745.135C830.601 761.935 860.619 771.595 891.14 776.192C923.844 780.97 957.259 780.105 989.988 775.521C1018.59 771.853 1046.59 763.834 1072.91 752.069C1205.76 693.35 1296 549.218 1263.21 403.885C1235.45 277.097 1134.84 179.649 1026.94 114.55C1001.48 99.4278 974.114 85.3259 946.822 75.0852C926.763 67.6209 916.546 45.3058 924.012 25.2505C931.658 4.49792 955.476 -5.63947 975.755 3.20654C1068.83 45.4736 1150.81 109.423 1216.2 187.694C1305.52 294.724 1349.16 438.804 1295.38 572.489C1248.26 689.953 1136.59 779.64 1011.27 797.914C986.708 801.026 961.883 802.369 937.096 801.181C871.753 798.146 801.139 776.554 760.672 722.032C725.501 675.438 749.706 613.93 808.282 607.124C824.337 605.122 842.872 607.163 854.626 619.495C857.441 622.582 859.87 626.43 860.063 630.743C860.541 637.2 855.93 643.141 850.014 645.271C846.256 646.679 841.374 646.615 838.429 643.567C836.724 641.488 838.235 639.589 840.547 639.15L840.508 639.124Z" fill="#F1DDED"/>
</g>
</svg>
