<svg width="1348" height="365" viewBox="0 0 1348 365" fill="none" xmlns="http://www.w3.org/2000/svg">
<g opacity="0.25">
<path d="M0.00012207 0H65.7463V286.101H0.00012207V0Z" fill="white"/>
<path d="M215.849 92.3154H283.546L214.798 286.252H148.752L79.8534 92.3154H147.551L181.775 203.544L215.999 92.3154H215.849Z" fill="white"/>
<path d="M340.889 212.848C347.044 228.609 360.703 236.565 382.168 236.565C395.528 236.565 406.486 231.912 415.642 222.905L459.773 255.478C441.61 279.495 415.192 291.504 380.667 291.504C349.596 291.504 324.528 281.897 305.765 262.533C287.002 243.17 277.695 218.853 277.695 189.432C277.695 160.011 286.851 135.844 305.164 116.18C323.627 96.5166 346.894 86.7598 375.414 86.7598C403.934 86.7598 425.549 96.3665 443.411 115.88C461.274 135.394 470.28 159.561 470.28 188.831C470.28 197.387 469.38 205.493 467.728 212.848H340.889ZM340.139 168.267H410.839C406.035 150.254 394.477 141.098 376.314 141.098C358.152 141.098 345.393 150.104 340.139 168.267Z" fill="white"/>
<path d="M551.191 128.337C554.644 115.728 561.548 105.821 571.756 98.9166C582.113 92.0117 593.671 88.4092 606.28 88.4092V159.859C592.32 157.458 579.561 160.16 568.303 167.965C556.895 175.771 551.341 188.379 551.341 205.942V286.248H490.248V92.3119H551.341V128.337H551.191Z" fill="white"/>
<path d="M743.474 92.3154H811.172L748.278 283.25C738.371 312.52 724.711 333.535 706.698 346.444C688.836 359.353 665.57 365.057 637.2 363.856V303.364C650.109 303.364 660.016 301.562 666.62 298.26C673.225 294.958 678.629 288.803 682.832 280.097L609.28 92.3154H677.728L714.954 204.894L743.774 92.3154H743.624H743.474Z" fill="white"/>
<path d="M297.06 0.300781H298.561C339.54 0.300781 372.713 34.0745 372.713 75.3535V77.0047H371.212C330.233 77.0047 297.06 43.2309 297.06 1.95194V0.300781Z" fill="white"/>
<path d="M383.813 76.8545H382.312V75.2034C382.312 33.9244 415.636 0.300781 456.314 0.300781H457.815V1.95194C457.815 43.381 424.642 77.0047 383.663 77.0047L383.813 76.8545Z" fill="white"/>
<path d="M861.603 285.801V3.15234H880.666V285.951H861.603V285.801Z" fill="white"/>
<path d="M1089.16 92.3182H1108.68V286.104H1089.16V242.273C1072.8 271.994 1043.23 290.457 1006.91 290.457C979.736 290.457 956.47 280.851 936.956 261.337C917.443 241.523 907.836 217.506 907.836 189.286C907.836 161.066 917.443 137.05 936.956 117.536C956.47 97.722 979.736 88.1152 1006.91 88.1152C1043.38 88.1152 1072.65 106.278 1089.16 136.299V92.4683V92.3182ZM1008.41 271.544C1030.92 271.544 1050.14 263.438 1065.75 247.527C1081.36 231.766 1089.01 211.952 1089.01 188.986C1089.01 166.02 1081.36 146.356 1065.75 130.445C1050.14 114.684 1030.92 106.428 1008.41 106.428C985.891 106.428 966.377 114.534 950.616 130.445C935.005 146.206 927.35 166.02 927.35 188.986C927.35 211.952 935.005 231.616 950.616 247.527C966.227 263.288 985.741 271.544 1008.41 271.544Z" fill="white"/>
<path d="M1318.68 117.38C1338.19 136.744 1347.8 160.761 1347.8 189.131C1347.8 217.5 1338.34 241.367 1318.68 261.181C1299.61 280.545 1276.2 290.302 1248.73 290.302C1212.25 290.302 1182.08 271.839 1166.47 241.067V285.948H1147.41V14.708H1166.47V137.044C1182.08 106.422 1212.4 87.8093 1248.73 87.8093C1276.2 87.8093 1299.46 97.4161 1318.68 117.23V117.38ZM1247.53 271.538C1270.04 271.538 1289.26 263.433 1304.87 247.522C1320.48 231.76 1328.58 211.947 1328.58 188.98C1328.58 166.014 1320.63 146.35 1304.87 130.439C1289.11 114.528 1270.04 106.422 1247.53 106.422C1225.01 106.422 1205.5 114.528 1189.74 130.439C1174.13 146.2 1166.47 166.014 1166.47 188.98C1166.47 211.947 1174.13 231.61 1189.74 247.522C1205.35 263.433 1224.86 271.538 1247.53 271.538Z" fill="white"/>
</g>
</svg>
