<svg width="186" height="51" viewBox="0 0 186 51" fill="none" xmlns="http://www.w3.org/2000/svg">
<path d="M0 0.215332H9.07318V39.6982H0V0.215332Z" fill="#562657"/>
<path d="M29.7876 12.9549H39.1301L29.6426 39.7187H20.528L11.0198 12.9549H20.3622L25.0853 28.3047L29.8083 12.9549H29.7876Z" fill="#562657"/>
<path d="M47.0435 29.5893C47.8928 31.7644 49.7779 32.8623 52.7402 32.8623C54.5838 32.8623 56.096 32.2201 57.3596 30.9772L63.4498 35.4724C60.9433 38.7868 57.2975 40.444 52.533 40.444C48.245 40.444 44.7856 39.1182 42.1962 36.446C39.6068 33.7738 38.3225 30.4179 38.3225 26.3578C38.3225 22.2976 39.5861 18.9625 42.1134 16.2489C44.6613 13.5352 47.8721 12.1887 51.808 12.1887C55.7438 12.1887 58.7268 13.5145 61.1919 16.2074C63.657 18.9004 64.8999 22.2355 64.8999 26.2749C64.8999 27.4557 64.7756 28.5743 64.5477 29.5893H47.0435ZM46.94 23.437H56.6967C56.0338 20.9512 54.4388 19.6876 51.9323 19.6876C49.4258 19.6876 47.665 20.9305 46.94 23.437Z" fill="#562657"/>
<path d="M76.0663 17.9265C76.5428 16.1864 77.4956 14.8192 78.9043 13.8663C80.3336 12.9134 81.9286 12.4163 83.6687 12.4163V22.2766C81.7422 21.9452 79.9814 22.318 78.4278 23.3952C76.8535 24.4724 76.087 26.2125 76.087 28.6361V39.7187H67.656V12.9549H76.087V17.9265H76.0663Z" fill="#562657"/>
<path d="M102.602 12.9549H111.944L103.265 39.3044C101.897 43.3438 100.012 46.2439 97.5266 48.0254C95.0615 49.8069 91.8507 50.5941 87.9355 50.4284V42.0802C89.717 42.0802 91.0842 41.8316 91.9957 41.3759C92.9071 40.9202 93.6529 40.0709 94.2329 38.8694L84.0825 12.9549H93.5286L98.6659 28.4912L102.643 12.9549H102.622H102.602Z" fill="#562657"/>
<path d="M40.9954 0.256775H41.2025C46.8577 0.256775 51.4357 4.91765 51.4357 10.6143V10.8421H51.2286C45.5734 10.8421 40.9954 6.18127 40.9954 0.48464V0.256775Z" fill="#562657"/>
<path d="M52.9674 10.8214H52.7603V10.5936C52.7603 4.89694 57.359 0.256775 62.9728 0.256775H63.1799V0.48464C63.1799 6.20198 58.6019 10.8421 52.9467 10.8421L52.9674 10.8214Z" fill="#562657"/>
<path d="M118.904 39.6566V0.650208H121.535V39.6773H118.904V39.6566Z" fill="#562657"/>
<path d="M150.308 12.9553H153.001V39.6984H150.308V33.6496C148.05 37.7512 143.969 40.2991 138.956 40.2991C135.207 40.2991 131.996 38.9734 129.303 36.2804C126.61 33.5461 125.284 30.2316 125.284 26.3372C125.284 22.4428 126.61 19.1284 129.303 16.4354C131.996 13.7011 135.207 12.3753 138.956 12.3753C143.99 12.3753 148.029 14.8818 150.308 19.0248V12.976V12.9553ZM139.163 37.6891C142.27 37.6891 144.922 36.5704 147.076 34.3747C149.231 32.1996 150.287 29.4652 150.287 26.2958C150.287 23.1264 149.231 20.4127 147.076 18.2169C144.922 16.0419 142.27 14.9025 139.163 14.9025C136.056 14.9025 133.363 16.0211 131.188 18.2169C129.034 20.392 127.977 23.1264 127.977 26.2958C127.977 29.4652 129.034 32.1789 131.188 34.3747C133.342 36.5497 136.035 37.6891 139.163 37.6891Z" fill="#562657"/>
<path d="M181.981 16.4144C184.674 19.0867 186 22.4011 186 26.3162C186 30.2314 184.695 33.525 181.981 36.2594C179.35 38.9317 176.119 40.2781 172.328 40.2781C167.294 40.2781 163.131 37.7302 160.976 33.4836V39.6774H158.345V2.24536H160.976V19.1281C163.131 14.9022 167.315 12.3336 172.328 12.3336C176.119 12.3336 179.33 13.6593 181.981 16.3937V16.4144ZM172.162 37.6888C175.27 37.6888 177.921 36.5701 180.076 34.3744C182.23 32.1993 183.348 29.4649 183.348 26.2955C183.348 23.1261 182.251 20.4124 180.076 18.2166C177.9 16.0208 175.27 14.9022 172.162 14.9022C169.055 14.9022 166.362 16.0208 164.187 18.2166C162.033 20.3917 160.976 23.1261 160.976 26.2955C160.976 29.4649 162.033 32.1786 164.187 34.3744C166.341 36.5701 169.034 37.6888 172.162 37.6888Z" fill="#562657"/>
</svg>
