<svg width="1991" height="1514" viewBox="0 0 1991 1514" fill="none" xmlns="http://www.w3.org/2000/svg">
<g opacity="0.1">
<path d="M995.492 756.974C995.385 757.081 995.262 757.189 995.17 757.296C995.079 757.387 994.987 757.494 994.91 757.601C994.344 758.351 994.008 759.284 994.39 760.14C994.849 761.242 996.012 761.869 997.129 762.221C1001.66 763.475 1007.07 761.624 1009.66 757.663C1013.88 751.529 1010.87 743.499 1005.47 739.14C994.207 730.453 978.236 729.428 964.743 732.365C953.193 734.98 942.607 740.945 933.749 748.715C904.086 774.38 916.141 815.325 941.995 838.987C969.761 864.667 1008.39 875.68 1045.09 881.201C1125.34 892.489 1207.08 867.573 1272.95 821.887C1299.4 803.64 1321.87 779.749 1339.04 752.661C1399.57 658.566 1389.14 533.681 1332.81 440.045C1208.1 232.659 930.537 146.364 700.577 133.913C682.067 133.149 663.587 132.98 645.994 133.837C620.676 135.061 599.152 115.529 597.928 90.2001C596.704 64.8867 616.24 43.3665 641.573 42.1429C663.786 41.9441 685.371 43.336 706.59 45.2173C923.576 67.7316 1157.96 148.337 1307.37 313.585C1390.44 405.05 1442.42 533.574 1416.42 657.663C1404.12 718.874 1372.94 776.629 1326.36 818.476C1314.76 828.877 1302.31 838.298 1289.08 846.497C1199.87 902.691 1083.32 923.278 984.538 880.758C956.589 868.781 929.772 849.907 916.003 821.948C902.541 795.671 905.28 762.679 929.848 743.989C939.731 736.127 951.403 730.284 963.901 728.097C978.633 725.696 995.247 727.547 1006.95 737.504C1012.66 742.551 1015.56 751.805 1010.58 758.29C1007.58 762.404 1001.81 764.132 997.021 762.572C994.558 761.746 993.151 759.498 994.864 757.556C994.941 757.464 995.033 757.372 995.14 757.28C995.262 757.173 995.385 757.051 995.538 756.944L995.492 756.974Z" fill="url(#paint0_radial_237_95)"/>
<path d="M995.492 756.974C995.155 758.182 995.645 759.559 996.746 760.186C1000.04 761.991 1004.36 760.293 1006.64 757.647C1010.01 753.746 1007.78 748.072 1004.59 744.768C997.695 737.625 986.971 736.111 977.455 737.151C967.741 738.161 958.287 741.878 950.944 748.011C940.19 757.081 933.703 771.718 934.988 785.774C938.124 809.956 959.297 827.163 979.842 837.808C1023.7 859.971 1075.94 857.478 1122.54 845.823C1179.02 831.415 1229.46 797.75 1261.14 749.081C1271.39 733.343 1280.4 716.472 1286.24 698.577C1322.01 577.073 1222.25 455.859 1127.33 391.1C908.813 244.083 616.668 240.26 370.187 310.969C334.375 321.584 297.507 334.401 264.57 350.507C209.39 375.285 170.075 297.739 223.908 268.204C264.616 250.278 305.523 238.455 347.898 227.871C616.255 164.472 928.135 183.744 1155.2 352.847C1245.37 422.149 1326.45 525.33 1325.36 644.172C1324.46 689.737 1308.98 727.301 1282.33 763.857C1227.13 841.097 1126.82 878.845 1033.9 866.395C1003.16 861.776 972.575 849.876 949.98 827.958C935.034 813.627 923.392 791.25 930.613 770.326C938.446 743.774 966.12 729.045 992.57 735.759C999.775 737.993 1007.53 742.81 1009.17 750.749C1009.66 753.318 1009.09 756.255 1007.19 758.151C1004.58 760.874 1000.02 762.388 996.624 760.339C995.522 759.62 995.079 758.182 995.476 756.958L995.492 756.974Z" fill="url(#paint1_radial_237_95)"/>
<path d="M995.491 756.974C995.568 757.157 995.66 757.326 995.767 757.479C995.828 757.586 995.905 757.677 995.981 757.769C997.343 759.452 999.989 759.712 1001.9 758.763C1007.09 756.209 1006.49 750.351 1002.27 747.047C988.424 736.234 967.175 742.153 956.512 754.756C946.538 765.937 948.481 782.211 955.273 794.508C974.396 826.857 1024.68 834.765 1059.3 832.088C1116.04 827.53 1172.37 793.468 1201.86 744.891C1221.52 712.404 1226.43 673.478 1219.7 636.403C1216.59 617.987 1211.02 600.184 1201.97 583.726C1146.04 485.7 1021.51 430.546 915.85 404.238C652.236 341.054 360.305 417.499 157.866 596.161C136.908 614.882 117.189 634.521 99.5047 655.919C93.7986 662.832 88.4902 669.822 83.9161 676.567C69.7043 697.552 41.1583 703.043 20.1542 688.834C-1.59953 674.212 -6.57137 643.928 9.30792 623.096C23.122 604.711 38.0987 588.774 54.131 573.066C282.162 358.078 626.627 272.838 927.813 359.913C1041.92 394.266 1171.54 460.173 1227.61 570.771C1245.97 609.483 1251.43 654.298 1243.35 696.512C1229.06 770.617 1162.41 824.991 1090.83 840.057C1050.55 847.765 1005.71 843.942 971.03 820.555C953.912 809.054 940.679 787.319 946.003 766.151C952.122 743.422 984.416 730.544 1003.03 746.191C1007.27 749.846 1008.05 756.53 1002.05 759.1C1000.02 759.972 997.312 759.605 995.981 757.83C995.905 757.723 995.828 757.616 995.752 757.494C995.66 757.326 995.568 757.142 995.491 756.959V756.974Z" fill="url(#paint2_radial_237_95)"/>
<path d="M995.492 756.974C995.691 757.127 995.905 757.249 996.134 757.356C999.117 758.825 1003.49 757.081 1003.09 753.181C1002.7 749.51 999.255 747.353 995.966 746.298C979.888 741.266 960.842 752.064 960.077 769.378C959.419 783.786 971.367 794.737 982.58 802.018C1028.43 830.283 1102.72 810.063 1136.36 770.785C1191.15 706.362 1170.01 630.407 1113.62 575.253C1087.62 548.517 1056.06 528.205 1021.53 513.904C934.101 477.777 836.943 469.839 743.228 477.058C485.09 496.682 229.048 656.929 160.59 916.333C153.904 941.953 149.284 967.74 147.938 993.772C147.541 1002.09 147.556 1010.25 148.076 1017.63C149.881 1042.92 130.835 1064.88 105.548 1066.68C79.2963 1068.64 56.5788 1047.7 56.3646 1021.4C55.8139 977.07 65.0845 933.953 77.9653 892.274C127.99 733.312 246.121 600.949 392.308 523.525C534.778 447.218 700.853 417.071 860.778 436.603C940.312 447.08 1021.02 469.074 1087.19 516.244C1134.98 552.249 1179.77 605.216 1186.76 666.733C1193.4 723.692 1161.31 782.624 1109.71 807.417C1067.21 828.31 1003.23 833.648 967.864 796.909C960.842 789.598 955.289 779.565 956.451 769.072C957.981 752.951 973.432 742.061 989.051 743.606C994.849 744.202 1002.94 746.252 1003.68 753.119C1003.77 757.203 999.454 759.146 996.18 757.372C995.951 757.249 995.721 757.096 995.492 756.928V756.974Z" fill="url(#paint3_radial_237_95)"/>
<path d="M995.491 756.974C995.736 757.004 995.966 757.02 996.211 757.02C996.394 757.02 996.578 757.02 996.746 757.02C996.884 757.02 997.037 757.02 997.174 756.989C997.786 756.928 998.383 756.79 998.934 756.53C999.989 756.056 1000.78 755.031 1000.82 753.899C1000.86 752.768 1000.3 751.697 999.545 750.856C997.159 748.301 993.533 747.43 990.107 747.506C971.52 748.485 961.79 765.141 973.065 780.696C981.31 791.847 995.216 796.68 1008.45 799.387C1044.26 806.928 1083.16 791.801 1106.86 764.683C1132.06 736.692 1132.59 698.868 1118.14 665.479C1096.17 615.081 1046.36 583.696 996.532 564.653C813.813 493.118 576.74 578.281 447.059 716.258C347.209 821.427 307.68 964.467 342.987 1105.41C355.256 1156.11 375.664 1205.32 403.215 1249.48C412.302 1263.91 422.246 1277.82 432.526 1289.55C470.786 1336.7 405.602 1394.35 363.456 1350.04C336.057 1315.66 316.537 1278.66 299.648 1239.14C243.78 1107.8 237.294 952.292 300.245 822.238C356.098 703.839 459.986 613.643 578.316 560.891C676.621 517.422 786.2 495.106 893.5 508.49C966.226 518.477 1053.65 551.79 1103.02 607.892C1129.44 637.794 1146.8 678.097 1141.71 718.644C1134.08 779.488 1064.85 820.112 1007.19 804.985C989.066 800.55 966.67 789.705 965.431 768.537C964.651 758.136 973.325 749.449 982.901 747.2C987.567 746.068 992.799 745.747 997.144 748.133C1001.95 750.55 1002.91 756.591 997.404 756.974C997.251 756.974 997.113 756.989 996.945 756.989C996.761 756.989 996.578 756.989 996.394 756.989C996.103 756.989 995.797 756.943 995.476 756.913L995.491 756.974Z" fill="url(#paint4_radial_237_95)"/>
<path d="M995.492 756.974C995.737 756.898 995.981 756.821 996.211 756.729C996.364 756.668 996.517 756.607 996.654 756.531C996.838 756.439 997.022 756.347 997.205 756.24C997.679 755.949 998.077 755.582 998.368 755.108C998.98 754.083 998.567 752.814 997.786 752.003C992.386 747.201 983.666 749.816 979.062 754.542C971.795 761.654 973.723 771.749 980.821 778.219C998.2 794.401 1025 792.398 1046.22 785.989C1059.18 781.997 1071.17 774.472 1080.14 764.362C1098.43 744.356 1103.02 714.698 1092.44 690.135C1081.45 665.265 1060.51 646.36 1038.1 631.463C973.509 590.227 892.751 585.134 818.494 595.443C784.609 599.786 751.459 609.269 720.266 623.203C562.911 692.735 456.009 863.443 494.835 1035.59C531.887 1202.78 674.678 1328.49 821.799 1404.06C837.693 1411.97 853.848 1419.19 869.574 1425.05C893.332 1433.89 905.433 1460.32 896.59 1484.07C887.748 1507.83 861.313 1519.92 837.556 1511.08C817.332 1502.63 798.362 1492.79 780.05 1482.56C625.373 1393.01 483.591 1255.44 440.145 1076.87C400.171 912.495 468.446 747.338 603.206 648.639C666.907 601.576 743.182 570.726 822.548 565.984C900.094 560.187 983.177 571.123 1047.83 617.269C1071.63 634.782 1093.83 657.265 1104.47 685.485C1115.32 714.178 1108.25 748.914 1086.39 770.266C1075.87 780.972 1062.44 788.497 1047.98 792.199C1025.02 797.904 996.394 798.439 978.74 780.207C971.229 772.667 969.592 760.981 978.067 753.487C983.253 748.699 992.524 746.359 998.047 751.758C999.622 753.701 998.812 755.49 997.083 756.423C996.869 756.546 996.639 756.638 996.394 756.729C996.104 756.836 995.798 756.928 995.476 756.989L995.492 756.974Z" fill="url(#paint5_radial_237_95)"/>
<path d="M995.492 756.974C995.69 756.805 995.874 756.622 996.042 756.408C996.088 756.346 996.134 756.285 996.18 756.224C996.7 755.505 996.975 754.618 996.608 753.807C996.134 752.706 994.971 752.079 993.855 751.727C989.311 750.458 983.911 752.324 981.326 756.285C977.103 762.419 980.132 770.464 985.533 774.823C996.807 783.511 1012.78 784.535 1026.27 781.599C1043.89 777.347 1061.69 765.493 1069.85 749.035C1078.04 732.364 1075.01 712.434 1066.06 696.634C1042.32 655.246 990.459 639.461 945.896 632.732C865.642 621.444 783.89 646.359 718.032 692.046C691.582 710.293 669.109 734.184 651.945 761.271C591.426 855.367 601.859 980.267 658.171 1073.89C782.88 1281.26 1060.45 1367.57 1290.41 1380.02C1308.92 1380.78 1327.4 1380.95 1344.99 1380.1C1370.31 1378.87 1391.83 1398.4 1393.06 1423.73C1394.28 1449.06 1374.74 1470.57 1349.41 1471.79C1327.2 1471.99 1305.61 1470.6 1284.39 1468.72C1067.41 1446.2 833.027 1365.6 683.612 1200.35C600.544 1108.88 548.561 980.374 574.568 856.285C586.867 795.074 618.045 737.319 664.612 695.472C676.208 685.071 688.66 675.65 701.878 667.451C791.08 611.257 907.62 590.67 1006.41 633.19C1034.36 645.166 1061.18 664.041 1074.95 691.985C1088.41 718.246 1085.69 751.238 1061.14 769.928C1051.25 777.79 1039.58 783.633 1027.1 785.82C1012.37 788.221 995.767 786.371 984.049 776.429C978.343 771.397 975.421 762.143 980.408 755.658C983.391 751.544 989.158 749.8 993.946 751.391C995.95 752.079 997.266 753.685 996.746 755.306C996.624 755.689 996.394 756.071 996.042 756.454C996.027 756.469 996.012 756.499 995.981 756.515C995.828 756.683 995.645 756.836 995.446 756.989L995.492 756.974Z" fill="url(#paint6_radial_237_95)"/>
<path d="M995.492 756.974C995.828 755.765 995.339 754.389 994.237 753.762C990.948 751.957 986.619 753.655 984.34 756.301C980.974 760.201 983.207 765.875 986.389 769.179C993.289 776.322 1004.01 777.836 1013.53 776.796C1023.24 775.787 1032.7 772.07 1040.04 765.937C1050.79 756.867 1057.28 742.229 1056 728.173C1052.86 703.991 1031.69 686.784 1011.14 676.139C967.282 653.976 915.04 656.47 868.442 668.124C811.962 682.532 761.525 716.197 729.843 764.866C719.593 780.605 710.582 797.475 704.739 815.37C668.972 936.875 768.73 1058.09 863.654 1122.85C1082.17 1269.86 1374.32 1273.69 1620.8 1202.98C1656.61 1192.36 1693.48 1179.55 1726.41 1163.44C1781.59 1138.66 1820.91 1216.21 1767.08 1245.74C1726.37 1263.67 1685.46 1275.49 1643.09 1286.08C1374.73 1349.47 1062.85 1330.2 835.781 1161.1C745.615 1091.8 664.535 988.618 665.622 869.775C666.524 824.211 682.006 786.646 708.655 750.091C763.85 672.851 864.159 635.102 957.079 647.553C987.827 652.172 1018.41 664.071 1041 685.989C1055.95 700.321 1067.59 722.697 1060.37 743.621C1052.54 770.173 1024.86 784.902 998.414 778.188C991.208 775.955 983.452 771.137 981.815 763.199C981.326 760.629 981.892 757.693 983.789 755.796C986.405 753.073 990.964 751.559 994.36 753.609C995.461 754.328 995.905 755.765 995.507 756.989L995.492 756.974Z" fill="url(#paint7_radial_237_95)"/>
<path d="M995.492 756.974C995.415 756.79 995.323 756.637 995.216 756.469C995.14 756.347 995.048 756.224 994.956 756.117C993.595 754.481 990.979 754.236 989.082 755.184C983.896 757.738 984.492 763.596 988.715 766.9C1002.56 777.714 1023.81 771.795 1034.47 759.191C1044.45 748.011 1042.5 731.737 1035.71 719.44C1016.57 687.09 966.303 679.183 931.684 681.859C874.944 686.417 818.617 720.48 789.122 769.057C769.464 801.544 764.553 840.47 771.285 877.545C774.39 895.945 779.959 913.764 789.015 930.221C844.944 1028.25 969.47 1083.4 1075.13 1109.71C1338.75 1172.89 1630.68 1096.45 1833.12 917.786C1854.07 899.065 1873.79 879.426 1891.48 858.028C1897.18 851.115 1902.49 844.125 1907.07 837.38C1921.28 816.395 1949.82 810.904 1970.83 825.113C1992.58 839.735 1997.55 870.02 1981.68 890.852C1967.86 909.236 1952.88 925.174 1936.85 940.882C1708.82 1155.87 1364.36 1241.11 1063.17 1154.03C949.062 1119.68 819.443 1053.77 763.376 943.176C745.018 904.464 739.557 859.65 747.634 817.435C761.922 743.33 828.575 688.956 900.155 673.891C940.434 666.182 985.273 670.006 1019.95 693.392C1037.07 704.894 1050.3 726.628 1044.98 747.797C1038.86 770.54 1006.57 783.404 987.95 767.757C983.712 764.101 982.932 757.417 988.929 754.848C991.055 753.93 993.931 754.374 995.186 756.377C995.232 756.438 995.262 756.515 995.308 756.591C995.385 756.714 995.446 756.851 995.492 757.004V756.974Z" fill="url(#paint8_radial_237_95)"/>
<path d="M995.492 756.974C995.277 756.836 995.048 756.714 994.803 756.607C994.711 756.561 994.604 756.515 994.497 756.484C992.6 755.735 990.306 755.934 988.898 757.478C985.624 761.792 990.688 766.564 994.926 767.619C1010.91 772.682 1030.02 762.082 1030.91 744.661C1031.58 725.848 1011.6 712.128 996.058 705.552C949.093 688.13 887.32 706.026 854.689 743.116C799.846 807.509 820.926 883.479 877.315 938.664C903.306 965.4 934.881 985.727 969.409 1000.03C1056.84 1036.17 1154.01 1044.11 1247.72 1036.9C1505.86 1017.3 1761.94 857.05 1830.41 597.645C1837.09 572.025 1841.71 546.238 1843.06 520.206C1843.46 511.885 1843.44 503.718 1842.92 496.345C1841.12 471.063 1860.16 449.099 1885.45 447.294C1911.7 445.336 1934.42 466.275 1934.62 492.583C1935.17 536.908 1925.9 580.04 1913.02 621.704C1862.99 780.666 1744.85 913.045 1598.64 990.453C1456.16 1066.76 1290.07 1096.91 1130.14 1077.34C1050.59 1066.85 969.883 1044.86 903.734 997.673C855.959 961.653 811.166 908.67 804.206 847.138C797.597 790.179 829.738 731.263 881.353 706.5C923.943 685.622 987.766 680.299 1023.18 717.115C1034.46 728.433 1039.37 745.747 1028.7 759.176C1022.54 767.359 1011.8 771.198 1001.81 770.326C996.93 769.791 991.514 768.537 988.455 764.315C985.135 759.283 989.434 753.93 994.681 756.545C994.711 756.545 994.727 756.576 994.757 756.591C995.002 756.714 995.232 756.851 995.476 757.004L995.492 756.974Z" fill="url(#paint9_radial_237_95)"/>
<path d="M995.492 756.974C994.329 756.852 993.09 756.897 992.034 757.402C990.979 757.876 990.183 758.901 990.153 760.033C990.107 761.165 990.673 762.235 991.422 763.077C993.809 765.631 997.434 766.503 1000.86 766.426C1019.45 765.447 1029.18 748.791 1017.9 733.236C1009.66 722.086 995.752 717.253 982.519 714.545C946.706 707.005 907.804 722.132 884.107 749.25C858.911 777.24 858.376 815.065 872.833 848.454C894.8 898.851 944.611 930.237 994.436 949.279C1177.16 1020.81 1414.23 935.651 1543.91 797.674C1643.76 692.505 1683.29 549.465 1647.98 408.521C1635.71 357.818 1615.32 308.614 1587.75 264.457C1578.67 250.018 1568.72 236.115 1558.44 224.383C1520.18 177.229 1585.37 119.581 1627.51 163.891C1654.91 198.275 1674.43 235.274 1691.32 274.796C1747.19 406.135 1753.67 561.64 1690.72 691.694C1634.87 810.094 1530.98 900.289 1412.65 953.042C1314.35 996.51 1204.77 1018.83 1097.47 1005.44C1024.74 995.455 937.313 962.142 887.947 906.04C861.527 876.138 844.164 835.835 849.258 795.288C856.892 734.444 926.115 693.82 983.773 708.947C1001.9 713.383 1024.3 724.227 1025.55 745.396C1026.33 755.796 1017.66 764.484 1008.08 766.732C1003.42 767.864 998.184 768.185 993.839 765.799C988.531 763.123 987.904 756.056 995.507 757.035L995.492 756.974Z" fill="url(#paint10_radial_237_95)"/>
<path d="M995.491 756.974C994.375 757.311 993.212 757.846 992.631 758.871C992.034 759.911 992.478 761.165 993.258 761.976C994.864 763.643 997.281 764.285 999.561 764.453C1004.2 764.775 1008.74 762.572 1011.95 759.375C1019.2 752.233 1017.2 742.153 1010.1 735.699C1003.55 729.32 994.635 725.757 985.655 724.212C967.588 721.489 948.389 725.099 932.066 733.175C908.048 745.227 891.649 771.642 892.934 798.363C894.387 835.27 923.958 863.168 952.933 882.531C983.758 902.43 1019.31 913.871 1055.46 919.316C1094.19 924.975 1133.77 923.951 1172.53 918.521C1206.4 914.177 1239.57 904.679 1270.75 890.745C1428.09 821.198 1534.97 650.49 1496.13 478.359C1463.26 328.191 1344.1 212.775 1216.3 135.672C1186.15 117.762 1153.73 101.059 1121.41 88.9303C1097.65 80.0897 1085.55 53.6598 1094.39 29.9065C1103.45 5.32731 1131.66 -6.67934 1155.68 3.7978C1265.91 53.8586 1363.01 129.6 1440.46 222.303C1546.25 349.069 1597.94 519.717 1534.24 678.051C1478.43 817.175 1346.17 923.4 1197.75 945.043C1168.65 948.729 1139.25 950.319 1109.89 948.912C1032.5 945.318 948.863 919.744 900.935 855.169C859.278 799.984 887.947 727.133 957.323 719.073C976.338 716.702 998.291 719.119 1012.21 733.726C1015.55 737.381 1018.42 741.939 1018.65 747.048C1019.22 754.695 1013.76 761.731 1006.75 764.254C1002.3 765.922 996.516 765.845 993.029 762.236C991.009 759.773 992.799 757.525 995.537 757.005L995.491 756.974Z" fill="url(#paint11_radial_237_95)"/>
</g>
<defs>
<radialGradient id="paint0_radial_237_95" cx="0" cy="0" r="1" gradientTransform="matrix(629.847 -7.11129 6.81386 1136.81 377.147 491.559)" gradientUnits="userSpaceOnUse">
<stop stop-color="white"/>
<stop offset="1" stop-color="#C86080"/>
</radialGradient>
<radialGradient id="paint1_radial_237_95" cx="0" cy="0" r="1" gradientTransform="matrix(860.201 -5.56662 9.3059 889.88 -103.192 546.323)" gradientUnits="userSpaceOnUse">
<stop stop-color="white"/>
<stop offset="1" stop-color="#C86080"/>
</radialGradient>
<radialGradient id="paint2_radial_237_95" cx="0" cy="0" r="1" gradientTransform="matrix(951.684 -4.27246 10.2956 682.995 -333.512 596.211)" gradientUnits="userSpaceOnUse">
<stop stop-color="white"/>
<stop offset="1" stop-color="#C86080"/>
</radialGradient>
<radialGradient id="paint3_radial_237_95" cx="0" cy="0" r="1" gradientTransform="matrix(863.388 -5.25102 9.34037 839.428 -246.228 762.681)" gradientUnits="userSpaceOnUse">
<stop stop-color="white"/>
<stop offset="1" stop-color="#C86080"/>
</radialGradient>
<radialGradient id="paint4_radial_237_95" cx="0" cy="0" r="1" gradientTransform="matrix(677.129 -7.11114 7.32538 1136.79 18.0657 954.05)" gradientUnits="userSpaceOnUse">
<stop stop-color="white"/>
<stop offset="1" stop-color="#C86080"/>
</radialGradient>
<radialGradient id="paint5_radial_237_95" cx="0" cy="0" r="1" gradientTransform="matrix(519.499 -7.83873 5.62009 1253.1 246.74 1059.97)" gradientUnits="userSpaceOnUse">
<stop stop-color="white"/>
<stop offset="1" stop-color="#C86080"/>
</radialGradient>
<radialGradient id="paint6_radial_237_95" cx="0" cy="0" r="1" gradientTransform="matrix(629.847 -7.11117 6.81386 1136.79 347.102 1059.94)" gradientUnits="userSpaceOnUse">
<stop stop-color="white"/>
<stop offset="1" stop-color="#C86080"/>
</radialGradient>
<radialGradient id="paint7_radial_237_95" cx="0" cy="0" r="1" gradientTransform="matrix(860.201 -5.56662 9.3059 889.88 364.158 997.027)" gradientUnits="userSpaceOnUse">
<stop stop-color="white"/>
<stop offset="1" stop-color="#C86080"/>
</radialGradient>
<radialGradient id="paint8_radial_237_95" cx="0" cy="0" r="1" gradientTransform="matrix(951.684 -4.27246 10.2956 682.995 410.49 940.303)" gradientUnits="userSpaceOnUse">
<stop stop-color="white"/>
<stop offset="1" stop-color="#C86080"/>
</radialGradient>
<radialGradient id="paint9_radial_237_95" cx="0" cy="0" r="1" gradientTransform="matrix(863.393 -5.25089 9.34043 839.407 500.777 779.024)" gradientUnits="userSpaceOnUse">
<stop stop-color="white"/>
<stop offset="1" stop-color="#C86080"/>
</radialGradient>
<radialGradient id="paint10_radial_237_95" cx="0" cy="0" r="1" gradientTransform="matrix(677.129 -7.11114 7.32538 1136.79 611.075 597.443)" gradientUnits="userSpaceOnUse">
<stop stop-color="white"/>
<stop offset="1" stop-color="#C86080"/>
</radialGradient>
<radialGradient id="paint11_radial_237_95" cx="0" cy="0" r="1" gradientTransform="matrix(519.346 -7.83878 5.61843 1253.11 699.575 495.412)" gradientUnits="userSpaceOnUse">
<stop stop-color="white"/>
<stop offset="1" stop-color="#C86080"/>
</radialGradient>
</defs>
</svg>
