<svg width="321" height="321" viewBox="0 0 321 321" fill="none" xmlns="http://www.w3.org/2000/svg">
<path d="M160.5 1.5C248.313 1.5 319.5 72.6867 319.5 160.5C319.5 248.313 248.313 319.5 160.5 319.5C72.6867 319.5 1.5 248.313 1.5 160.5C1.5 72.6867 72.6867 1.5 160.5 1.5Z" fill="white" stroke="url(#paint0_linear_237_419)" stroke-width="3"/>
<path d="M160.5 276C144.908 276 129.781 272.946 115.542 266.922C101.789 261.106 89.4367 252.777 78.8312 242.171C68.2234 231.566 59.8964 219.214 54.0805 205.46C48.0544 191.216 45 176.09 45 160.5C45 144.91 48.0544 129.784 54.0783 115.542C59.8942 101.789 68.2234 89.4367 78.8289 78.8312C89.4344 68.2234 101.786 59.8964 115.54 54.0783C129.784 48.0544 144.908 45 160.5 45C176.092 45 191.216 48.0544 205.458 54.0783C219.212 59.8942 231.563 68.2212 242.169 78.8312C252.777 89.4367 261.104 101.789 266.922 115.542C272.943 129.786 276 144.91 276 160.5C276 176.09 272.946 191.216 266.922 205.458C261.104 219.212 252.777 231.563 242.169 242.169C231.563 252.774 219.212 261.104 205.458 266.919C191.216 272.943 176.092 275.998 160.5 275.998V276ZM160.5 49.3804C99.2282 49.3804 49.3782 99.2282 49.3782 160.5C49.3782 221.772 99.226 271.62 160.5 271.62C221.774 271.62 271.622 221.772 271.622 160.5C271.622 99.2282 221.774 49.3804 160.5 49.3804Z" fill="url(#paint1_linear_237_419)"/>
<path d="M242.97 202.024C242.894 201.116 242.283 200.34 241.416 200.058L230.85 196.599C231.617 195.063 232.342 193.495 233.013 191.912C237.228 181.946 239.363 171.379 239.363 160.5C239.363 149.622 237.225 139.055 233.013 129.091C228.945 119.48 223.134 110.856 215.737 103.459C208.338 96.0602 199.714 90.2487 190.106 86.1836C180.142 81.9687 169.572 79.8311 158.694 79.8311C147.815 79.8311 137.248 81.9687 127.284 86.1836C117.674 90.2487 109.049 96.0602 101.65 103.459C94.2513 110.858 88.4376 119.483 84.3747 129.091C80.1598 139.055 78.0244 149.622 78.0244 160.5C78.0244 171.379 80.1621 181.946 84.3747 191.912C88.4421 201.525 94.2535 210.147 101.65 217.544C109.052 224.943 117.676 230.757 127.284 234.819C137.248 239.034 147.815 241.17 158.694 241.17C169.572 241.17 180.14 239.032 190.103 234.819C194.032 233.158 197.829 231.186 201.427 228.939L203.853 236.28C204.134 237.129 204.888 237.735 205.78 237.825C205.854 237.831 205.93 237.836 206.004 237.836C206.813 237.836 207.567 237.402 207.974 236.689L215.406 223.61L228.968 237.172C229.393 237.597 229.969 237.836 230.571 237.836C231.172 237.836 231.747 237.597 232.174 237.172L240.964 228.382C241.85 227.496 241.85 226.063 240.964 225.178L227.481 211.694L241.765 204.222C242.572 203.799 243.048 202.934 242.972 202.026L242.97 202.024ZM188.339 230.645C178.937 234.62 168.962 236.637 158.696 236.637C148.43 236.637 138.455 234.62 129.053 230.645C119.986 226.81 111.844 221.323 104.859 214.337C97.8759 207.354 92.3909 199.215 88.5517 190.143C84.5738 180.739 82.5591 170.766 82.5591 160.498C82.5591 150.23 84.576 140.258 88.5517 130.855C92.3864 121.786 97.8737 113.647 104.859 106.661C111.842 99.6781 119.984 94.1909 129.055 90.3538C138.458 86.3759 148.43 84.359 158.698 84.359C168.966 84.359 178.941 86.3759 188.344 90.3538C197.413 94.1909 205.554 99.6758 212.537 106.661C219.518 113.644 225.006 121.783 228.845 130.855C232.823 140.258 234.837 150.23 234.837 160.498C234.837 170.766 232.82 180.739 228.845 190.143C228.125 191.847 227.338 193.531 226.499 195.17L216.998 192.06C218.011 190.19 218.939 188.265 219.766 186.304C223.228 178.12 224.983 169.438 224.983 160.498C224.983 151.559 223.228 142.876 219.766 134.694C216.426 126.799 211.65 119.713 205.568 113.629C199.486 107.547 192.4 102.771 184.504 99.4299C176.323 95.9707 167.64 94.2155 158.698 94.2155C149.756 94.2155 141.074 95.9707 132.892 99.4299C124.997 102.771 117.911 107.547 111.829 113.629C105.747 119.711 100.971 126.799 97.6299 134.694C94.1686 142.876 92.4133 151.559 92.4133 160.498C92.4133 169.438 94.1686 178.12 97.6299 186.304C100.971 194.2 105.747 201.286 111.829 207.368C117.911 213.45 124.999 218.228 132.892 221.564C141.076 225.026 149.759 226.781 158.698 226.781C167.638 226.781 176.32 225.026 184.504 221.564C188.827 219.737 192.934 217.461 196.755 214.778L199.966 224.498C196.297 226.866 192.395 228.93 188.344 230.642L188.339 230.645ZM212.613 190.626L203.385 187.606C208.347 179.449 210.954 170.14 210.954 160.5C210.954 146.541 205.518 133.418 195.649 123.548C185.779 113.678 172.656 108.24 158.696 108.24C144.736 108.24 131.613 113.676 121.743 123.548C111.873 133.418 106.438 146.541 106.438 160.5C106.438 174.46 111.873 187.583 121.743 197.455C131.613 207.325 144.736 212.763 158.696 212.763C170.996 212.763 182.727 208.501 192.098 200.695L195.262 210.274C191.391 213.123 187.185 215.516 182.736 217.398C175.113 220.623 167.025 222.257 158.694 222.257C150.362 222.257 142.277 220.623 134.652 217.398C127.298 214.288 120.695 209.838 115.029 204.17C109.362 198.502 104.91 191.899 101.8 184.544C98.5758 176.922 96.9412 168.834 96.9412 160.503C96.9412 152.171 98.5758 144.083 101.8 136.463C104.91 129.109 109.362 122.506 115.029 116.837C120.695 111.171 127.298 106.719 134.652 103.607C142.272 100.385 150.36 98.7501 158.694 98.7501C167.027 98.7501 175.115 100.385 182.733 103.607C190.088 106.719 196.691 111.169 202.357 116.837C208.025 122.506 212.475 129.109 215.587 136.463C218.812 144.083 220.446 152.171 220.446 160.503C220.446 168.834 218.812 176.922 215.587 184.544C214.709 186.624 213.711 188.663 212.611 190.629L212.613 190.626ZM187.834 183.822C187.59 184.066 187.411 184.357 187.302 184.672C187.246 184.833 187.205 185.001 187.188 185.173C187.183 185.213 187.179 185.256 187.179 185.296C187.179 185.316 187.174 185.338 187.174 185.358C187.167 185.618 187.203 185.879 187.288 186.132L190.559 196.035C181.79 203.908 170.531 208.229 158.696 208.229C132.378 208.229 110.968 186.816 110.968 160.498C110.968 134.18 132.378 112.77 158.696 112.77C185.014 112.77 206.424 134.18 206.424 160.498C206.424 169.659 203.846 178.492 198.954 186.15L190.148 183.265C189.336 182.999 188.442 183.214 187.838 183.818L187.834 183.822ZM222.644 209.107C222.005 209.44 221.564 210.06 221.455 210.773C221.345 211.486 221.582 212.209 222.092 212.718L236.154 226.781L230.569 232.366L216.509 218.306C216.082 217.879 215.502 217.642 214.908 217.642C214.807 217.642 214.706 217.649 214.604 217.662C213.904 217.756 213.286 218.174 212.938 218.789L206.556 230.016L200.078 210.406C200.078 210.406 200.076 210.395 200.074 210.391L193.437 190.304L192.999 188.976L199.182 191L226.902 200.078C226.902 200.078 226.904 200.078 226.906 200.078L234.902 202.697L222.644 209.109V209.107Z" fill="url(#paint2_linear_237_419)"/>
<path d="M176.358 135.121H170.589C170.039 135.121 169.764 135.394 169.491 135.875L142.362 182.724C142.156 183.068 142.292 183.419 142.706 183.419H148.406C148.956 183.419 149.231 183.238 149.506 182.758L176.636 135.863C176.841 135.519 176.774 135.123 176.361 135.123L176.358 135.121Z" fill="url(#paint3_linear_237_419)"/>
<path d="M153.969 154.416C154.45 153.043 154.586 152.081 154.586 147.755C154.586 143.428 154.45 142.466 153.969 141.094C152.802 137.659 149.506 135.461 145.11 135.461C140.714 135.461 137.418 137.659 136.25 141.094C135.77 142.466 135.633 143.428 135.633 147.755C135.633 152.081 135.77 153.043 136.25 154.416C137.418 157.85 140.714 160.048 145.11 160.048C149.506 160.048 152.802 157.85 153.969 154.416ZM142.706 153.041C142.5 152.491 142.431 151.94 142.431 147.752C142.431 143.564 142.5 143.014 142.706 142.464C143.05 141.433 143.942 140.886 145.11 140.886C146.277 140.886 147.169 141.436 147.513 142.464C147.719 143.014 147.788 143.562 147.788 147.752C147.788 151.943 147.719 152.493 147.513 153.041C147.169 154.071 146.277 154.619 145.11 154.619C143.942 154.619 143.05 154.069 142.706 153.041Z" fill="url(#paint4_linear_237_419)"/>
<path d="M173.818 158.742C169.353 158.742 166.126 160.94 164.959 164.375C164.478 165.748 164.342 166.709 164.342 171.036C164.342 175.363 164.478 176.255 164.959 177.63C166.126 181.134 169.355 183.33 173.818 183.33C178.281 183.33 181.51 181.132 182.677 177.63C183.089 176.257 183.297 175.293 183.297 171.036C183.297 166.778 183.091 165.748 182.677 164.375C181.51 160.94 178.212 158.742 173.818 158.742ZM176.222 176.255C175.877 177.353 174.985 177.903 173.818 177.903C172.651 177.903 171.756 177.353 171.414 176.255C171.209 175.774 171.139 175.224 171.139 171.036C171.139 166.848 171.209 166.298 171.414 165.748C171.756 164.717 172.651 164.169 173.818 164.169C174.985 164.169 175.877 164.719 176.222 165.748C176.428 166.298 176.497 166.846 176.497 171.036C176.497 175.226 176.428 175.776 176.222 176.255Z" fill="url(#paint5_linear_237_419)"/>
<defs>
<linearGradient id="paint0_linear_237_419" x1="160.5" y1="0" x2="160.5" y2="321" gradientUnits="userSpaceOnUse">
<stop stop-color="#C00855"/>
<stop offset="1" stop-color="#F74154"/>
</linearGradient>
<linearGradient id="paint1_linear_237_419" x1="160.5" y1="45" x2="160.5" y2="276" gradientUnits="userSpaceOnUse">
<stop stop-color="#C00955"/>
<stop offset="1" stop-color="#F64054"/>
</linearGradient>
<linearGradient id="paint2_linear_237_419" x1="160.502" y1="79.8311" x2="160.502" y2="241.17" gradientUnits="userSpaceOnUse">
<stop stop-color="#C00955"/>
<stop offset="1" stop-color="#F64054"/>
</linearGradient>
<linearGradient id="paint3_linear_237_419" x1="159.508" y1="135.121" x2="159.508" y2="183.419" gradientUnits="userSpaceOnUse">
<stop stop-color="#C00955"/>
<stop offset="1" stop-color="#F64054"/>
</linearGradient>
<linearGradient id="paint4_linear_237_419" x1="145.11" y1="135.461" x2="145.11" y2="160.048" gradientUnits="userSpaceOnUse">
<stop stop-color="#C00955"/>
<stop offset="1" stop-color="#F64054"/>
</linearGradient>
<linearGradient id="paint5_linear_237_419" x1="173.819" y1="158.742" x2="173.819" y2="183.33" gradientUnits="userSpaceOnUse">
<stop stop-color="#C00955"/>
<stop offset="1" stop-color="#F64054"/>
</linearGradient>
</defs>
</svg>
