<svg width="321" height="321" viewBox="0 0 321 321" fill="none" xmlns="http://www.w3.org/2000/svg">
<path d="M160.5 1.5C248.313 1.5 319.5 72.6867 319.5 160.5C319.5 248.313 248.313 319.5 160.5 319.5C72.6867 319.5 1.5 248.313 1.5 160.5C1.5 72.6867 72.6867 1.5 160.5 1.5Z" fill="white" stroke="url(#paint0_linear_237_428)" stroke-width="3"/>
<path d="M242.38 81.1779C231.977 70.7752 219.863 62.6077 206.373 56.902C192.407 50.9945 177.57 48 162.28 48C146.99 48 132.153 50.9945 118.185 56.902C104.695 62.6077 92.5806 70.7752 82.1779 81.1779C71.7752 91.5806 63.6077 103.695 57.902 117.185C51.9945 131.153 49 145.988 49 161.28C49 176.572 51.9945 191.407 57.902 205.375C63.6077 218.865 71.7752 230.979 82.1779 241.382C92.5806 251.785 104.695 259.952 118.185 265.658C132.151 271.565 146.988 274.56 162.28 274.56C177.572 274.56 192.407 271.565 206.375 265.658C219.865 259.952 231.979 251.785 242.382 241.382C252.785 230.979 260.952 218.865 266.658 205.375C272.565 191.409 275.56 176.572 275.56 161.28C275.56 145.988 272.565 131.153 266.658 117.185C260.952 103.695 252.785 91.5806 242.382 81.1779H242.38ZM262.847 203.763C257.35 216.759 249.48 228.431 239.456 238.456C229.431 248.48 217.759 256.35 204.763 261.847C191.31 267.537 177.015 270.423 162.28 270.423C147.545 270.423 133.25 267.537 119.797 261.847C106.801 256.35 95.1285 248.48 85.1044 238.456C75.0803 228.431 67.2098 216.759 61.7126 203.763C56.0228 190.31 53.137 176.015 53.137 161.28C53.137 146.545 56.0228 132.25 61.7126 118.797C67.2098 105.801 75.0803 94.1285 85.1044 84.1044C95.1285 74.0803 106.801 66.2098 119.797 60.7126C133.25 55.0228 147.545 52.137 162.28 52.137C177.015 52.137 191.31 55.0228 204.763 60.7126C217.759 66.2098 229.431 74.0803 239.456 84.1044C249.48 94.1285 257.35 105.801 262.847 118.797C268.537 132.25 271.423 146.545 271.423 161.28C271.423 176.015 268.537 190.31 262.847 203.763Z" fill="url(#paint1_linear_237_428)"/>
<path d="M171.311 129.525C170.361 128.848 169.044 129.07 168.369 130.02L162.171 138.711L159.546 134.846C158.891 133.882 157.579 133.631 156.615 134.286C155.652 134.941 155.4 136.253 156.055 137.217L160.383 143.589C160.77 144.16 161.414 144.505 162.103 144.514H162.128C162.81 144.514 163.45 144.185 163.846 143.63L171.805 132.47C172.481 131.52 172.261 130.203 171.313 129.528L171.311 129.525Z" fill="url(#paint2_linear_237_428)"/>
<path d="M162.278 110.921C148.425 110.921 137.156 122.185 137.156 136.031C137.156 149.877 148.427 161.141 162.278 161.141C168.979 161.141 175.283 158.527 180.034 153.778C184.783 149.032 187.399 142.727 187.399 136.031C187.399 129.332 184.783 123.031 180.034 118.284C175.285 113.537 168.979 110.921 162.278 110.923V110.921ZM177.051 150.793C173.098 154.744 167.852 156.92 162.28 156.92C150.755 156.92 141.38 147.549 141.38 136.031C141.38 124.513 150.755 115.142 162.28 115.142C167.854 115.142 173.1 117.318 177.053 121.269C181.007 125.22 183.183 130.461 183.183 136.031C183.183 141.601 181.007 146.844 177.053 150.795L177.051 150.793Z" fill="url(#paint3_linear_237_428)"/>
<path d="M212.913 144.312C214.917 141.964 217.186 139.303 217.186 136.031C217.186 132.76 214.915 130.099 212.913 127.751C211.607 126.22 210.258 124.64 209.893 123.271C209.501 121.802 209.884 119.692 210.256 117.649C210.825 114.526 211.412 111.293 209.837 108.568C208.236 105.803 204.977 104.644 202.1 103.62C200.169 102.933 198.171 102.223 197.129 101.181C196.086 100.138 195.376 98.1407 194.69 96.2094C193.667 93.3327 192.507 90.0707 189.741 88.4703C187.016 86.8948 183.786 87.4819 180.66 88.0509C178.617 88.4227 176.507 88.8058 175.038 88.4136C173.671 88.0486 172.089 86.6999 170.559 85.3941C168.21 83.3902 165.549 81.1211 162.278 81.1211C159.007 81.1211 156.345 83.3925 153.997 85.3941C152.467 86.6999 150.887 88.0486 149.518 88.4136C148.049 88.8058 145.938 88.4227 143.896 88.0509C140.772 87.4819 137.539 86.8948 134.815 88.4703C132.049 90.0707 130.891 93.3305 129.866 96.2094C129.179 98.1407 128.47 100.138 127.427 101.181C126.384 102.223 124.387 102.933 122.456 103.62C119.579 104.642 116.317 105.803 114.717 108.568C113.141 111.293 113.728 114.523 114.297 117.649C114.669 119.692 115.052 121.802 114.66 123.271C114.295 124.638 112.946 126.22 111.64 127.751C109.637 130.099 107.367 132.76 107.367 136.031C107.367 139.303 109.639 141.964 111.64 144.312C112.944 145.842 114.295 147.422 114.66 148.792C115.052 150.261 114.669 152.371 114.297 154.414C113.728 157.54 113.141 160.77 114.717 163.495C116.317 166.26 119.577 167.419 122.453 168.441C123.97 168.98 125.525 169.534 126.629 170.252L109.457 226.767C109.451 226.79 109.444 226.813 109.437 226.835C108.922 228.76 109.53 230.78 111.022 232.101C112.513 233.423 114.587 233.786 116.437 233.044L130.057 227.584C130.471 227.418 130.952 227.545 131.228 227.896L140.291 239.435C141.298 240.718 142.808 241.439 144.392 241.439C144.746 241.439 145.102 241.402 145.458 241.33C147.396 240.933 148.921 239.505 149.447 237.601L162.276 195.906L175.101 237.601C175.627 239.505 177.151 240.933 179.091 241.332C179.447 241.405 179.803 241.441 180.157 241.441C181.741 241.441 183.249 240.722 184.257 239.439L193.32 227.903C193.597 227.552 194.077 227.423 194.492 227.59L208.112 233.051C209.964 233.792 212.04 233.432 213.532 232.106C215.023 230.782 215.629 228.765 215.109 226.84C215.105 226.822 215.098 226.801 215.094 226.783L198.171 170.103C199.253 169.459 200.69 168.946 202.095 168.448C204.972 167.425 208.234 166.265 209.834 163.499C211.41 160.774 210.823 157.544 210.254 154.418C209.882 152.378 209.499 150.265 209.891 148.796C210.256 147.429 211.605 145.847 212.911 144.317L212.913 144.312ZM145.408 236.388C145.401 236.413 145.392 236.438 145.385 236.465C145.24 237.009 144.798 237.154 144.614 237.193C144.431 237.229 143.964 237.27 143.615 236.826L134.549 225.287C133.121 223.474 130.63 222.807 128.49 223.666L114.873 229.127C114.349 229.336 113.966 229.068 113.826 228.944C113.687 228.821 113.384 228.481 113.513 227.951L129.585 175.056C129.68 175.321 129.775 175.586 129.868 175.849C130.891 178.726 132.051 181.988 134.817 183.588C137.542 185.164 140.772 184.576 143.898 184.007C145.94 183.636 148.051 183.253 149.52 183.645C150.887 184.01 152.469 185.359 153.999 186.664C155.659 188.081 157.477 189.629 159.553 190.416L145.408 236.388ZM210.732 228.941C210.592 229.066 210.208 229.336 209.685 229.125L196.068 223.664C193.926 222.803 191.434 223.469 190.006 225.285L180.943 236.823C180.594 237.268 180.129 237.227 179.946 237.188C179.762 237.15 179.32 237.005 179.175 236.461C179.168 236.436 179.161 236.411 179.152 236.384L165.012 190.409C167.088 189.623 168.904 188.074 170.563 186.66C172.093 185.356 173.673 184.005 175.043 183.64C176.511 183.248 178.622 183.631 180.664 184.003C183.79 184.572 187.021 185.159 189.745 183.584C192.511 181.983 193.669 178.723 194.694 175.844C194.839 175.439 194.984 175.031 195.132 174.629L211.047 227.942C211.179 228.472 210.875 228.812 210.737 228.937L210.732 228.941ZM209.701 141.572C208.091 143.458 206.427 145.41 205.815 147.699C205.178 150.082 205.648 152.666 206.103 155.164C206.534 157.54 206.983 159.995 206.183 161.377C205.36 162.799 202.982 163.644 200.683 164.463C198.31 165.306 195.857 166.179 194.141 167.895C192.425 169.611 191.552 172.063 190.709 174.435C189.891 176.733 189.047 179.111 187.624 179.934C186.243 180.734 183.786 180.288 181.412 179.855C178.914 179.401 176.33 178.93 173.948 179.567C171.658 180.179 169.706 181.843 167.82 183.452C165.939 185.057 163.994 186.716 162.278 186.716C160.562 186.716 158.617 185.057 156.735 183.452C154.849 181.843 152.898 180.179 150.608 179.567C149.774 179.345 148.917 179.256 148.046 179.256C146.428 179.256 144.766 179.558 143.143 179.852C140.767 180.285 138.312 180.732 136.932 179.932C135.511 179.109 134.665 176.731 133.847 174.432C133.035 172.15 132.194 169.792 130.603 168.09C130.582 168.069 130.564 168.046 130.544 168.026C130.501 167.981 130.46 167.935 130.417 167.89C128.701 166.174 126.248 165.301 123.875 164.458C121.576 163.642 119.198 162.796 118.375 161.373C117.575 159.99 118.022 157.535 118.455 155.159C118.908 152.661 119.38 150.077 118.743 147.695C118.131 145.405 116.467 143.453 114.857 141.567C113.252 139.686 111.593 137.741 111.593 136.025C111.593 134.309 113.252 132.366 114.857 130.482C116.467 128.596 118.131 126.644 118.743 124.355C119.38 121.972 118.91 119.388 118.455 116.888C118.024 114.512 117.577 112.057 118.375 110.677C119.198 109.253 121.576 108.41 123.875 107.591C126.248 106.748 128.701 105.875 130.417 104.159C132.133 102.443 133.006 99.9905 133.849 97.6171C134.667 95.3185 135.511 92.9405 136.934 92.1177C138.315 91.3175 140.772 91.764 143.145 92.197C145.644 92.6504 148.228 93.1219 150.61 92.4849C152.9 91.8729 154.852 90.209 156.738 88.5995C158.619 86.9946 160.564 85.3352 162.28 85.3352C163.996 85.3352 165.941 86.9946 167.823 88.5995C169.709 90.209 171.66 91.8729 173.95 92.4849C176.332 93.1219 178.917 92.6504 181.415 92.197C183.79 91.764 186.245 91.3175 187.626 92.1177C189.047 92.9405 189.893 95.3185 190.711 97.6171C191.554 99.9905 192.427 102.443 194.143 104.159C195.859 105.875 198.312 106.748 200.685 107.591C202.984 108.407 205.362 109.253 206.185 110.677C206.985 112.059 206.538 114.514 206.105 116.888C205.652 119.386 205.181 121.97 205.818 124.355C206.43 126.644 208.093 128.596 209.703 130.482C211.308 132.364 212.967 134.309 212.967 136.025C212.967 137.741 211.308 139.686 209.703 141.567L209.701 141.572Z" fill="url(#paint4_linear_237_428)"/>
<defs>
<linearGradient id="paint0_linear_237_428" x1="160.5" y1="0" x2="160.5" y2="321" gradientUnits="userSpaceOnUse">
<stop stop-color="#C00855"/>
<stop offset="1" stop-color="#F74154"/>
</linearGradient>
<linearGradient id="paint1_linear_237_428" x1="162.28" y1="48" x2="162.28" y2="274.56" gradientUnits="userSpaceOnUse">
<stop stop-color="#C00754"/>
<stop offset="1" stop-color="#F74153"/>
</linearGradient>
<linearGradient id="paint2_linear_237_428" x1="163.944" y1="129.133" x2="163.944" y2="144.514" gradientUnits="userSpaceOnUse">
<stop stop-color="#C00754"/>
<stop offset="1" stop-color="#F74153"/>
</linearGradient>
<linearGradient id="paint3_linear_237_428" x1="162.278" y1="110.921" x2="162.278" y2="161.141" gradientUnits="userSpaceOnUse">
<stop stop-color="#C00754"/>
<stop offset="1" stop-color="#F74153"/>
</linearGradient>
<linearGradient id="paint4_linear_237_428" x1="162.277" y1="81.1211" x2="162.277" y2="241.441" gradientUnits="userSpaceOnUse">
<stop stop-color="#C00754"/>
<stop offset="1" stop-color="#F74153"/>
</linearGradient>
</defs>
</svg>
