<svg width="321" height="321" viewBox="0 0 321 321" fill="none" xmlns="http://www.w3.org/2000/svg">
<path d="M160.5 1.5C248.313 1.5 319.5 72.6867 319.5 160.5C319.5 248.313 248.313 319.5 160.5 319.5C72.6867 319.5 1.5 248.313 1.5 160.5C1.5 72.6867 72.6867 1.5 160.5 1.5Z" fill="white" stroke="url(#paint0_linear_237_435)" stroke-width="3"/>
<path d="M86.0689 192.607C90.8589 192.607 95.1509 194.839 97.949 198.307C98.6367 199.162 99.2297 200.065 99.7039 201.062M101.316 207.879C101.316 210.325 100.747 212.653 99.7039 214.719M99.7278 201.039C100.747 203.105 101.34 205.409 101.34 207.879M192.99 163.275H276.436M239.752 130.736V157.053M233.8 193.866C238.59 193.866 242.882 196.099 245.68 199.567C246.368 200.422 246.96 201.324 247.435 202.322M249.048 209.138C249.048 211.585 248.478 213.912 247.435 215.979M247.458 202.322C248.478 204.388 249.071 206.692 249.071 209.162M260.453 200.945H284M158.322 129.928H108.786M158.322 140.544H95.7913M158.322 151.162H79.5955M158.322 161.778H65.5575M276.435 163.916V206.098C276.435 207.072 275.629 207.879 274.657 207.879H194.745C193.772 207.879 192.966 207.072 192.966 206.098V120.451C192.966 119.477 193.772 118.67 194.745 118.67H238.874C239.396 118.67 239.918 118.907 240.25 119.311L276.008 162.776C276.269 163.085 276.412 163.488 276.412 163.916H276.435ZM48.65 98.0781H186.184C187.167 98.0781 187.963 98.8757 187.963 99.8595V206.099C187.963 207.082 187.167 207.88 186.184 207.88H48.65C47.6678 207.88 46.8716 207.082 46.8716 206.099V99.8595C46.8716 98.8757 47.6678 98.0781 48.65 98.0781ZM188.248 189.331H192.848C192.913 189.331 192.966 189.384 192.966 189.45V202.204C192.966 202.269 192.913 202.323 192.848 202.323H188.248C188.182 202.323 188.129 202.269 188.129 202.204V189.45C188.129 189.384 188.182 189.331 188.248 189.331ZM262.232 187.81H282.222C283.204 187.81 284 188.607 284 189.591V206.098C284 207.082 283.204 207.88 282.222 207.88H262.232C261.249 207.88 260.453 207.082 260.453 206.098V189.591C260.453 188.607 261.249 187.81 262.232 187.81ZM265.124 169.26H274.657C275.639 169.26 276.435 170.058 276.435 171.041V175.697C276.435 176.68 275.639 177.478 274.657 177.478H265.124C264.142 177.478 263.346 176.68 263.346 175.697V171.041C263.346 170.058 264.142 169.26 265.124 169.26ZM90.7761 187.042C102.26 189.641 109.467 201.072 106.872 212.575C104.278 224.078 92.8652 231.296 81.3811 228.697C69.8969 226.099 62.6904 214.667 65.2848 203.165C67.8791 191.662 79.292 184.444 90.7761 187.042ZM200.364 169.26H210.727C211.709 169.26 212.505 170.058 212.505 171.041V171.588C212.505 172.571 211.709 173.369 210.727 173.369H200.364C199.382 173.369 198.586 172.571 198.586 171.588V171.041C198.586 170.058 199.382 169.26 200.364 169.26ZM256.659 157.052H201.337C200.365 157.052 199.559 156.245 199.559 155.271V127.197C199.559 126.223 200.365 125.416 201.337 125.416H234.701C235.246 125.416 235.768 125.677 236.1 126.104L258.034 154.178C258.935 155.342 258.105 157.052 256.635 157.052H256.659ZM237.973 157.052H230.124C229.142 157.052 228.346 156.255 228.346 155.271V151.019C228.346 150.036 229.142 149.238 230.124 149.238H237.973C238.955 149.238 239.752 150.036 239.752 151.019V155.271C239.752 156.255 238.955 157.052 237.973 157.052ZM255.118 209.139C255.118 220.931 245.573 230.491 233.8 230.491C222.026 230.491 212.482 220.931 212.482 209.139C212.482 197.346 222.026 187.786 233.8 187.786C245.573 187.786 255.118 197.346 255.118 209.139ZM241.886 209.139C241.886 213.604 238.282 217.214 233.824 217.214C229.366 217.214 225.761 213.604 225.761 209.139C225.761 204.674 229.366 201.063 233.824 201.063C238.282 201.063 241.886 204.674 241.886 209.139ZM94.1318 207.879C94.1318 212.344 90.5275 215.955 86.0694 215.955C81.6114 215.955 78.0071 212.344 78.0071 207.879C78.0071 203.414 81.6114 199.804 86.0694 199.804C90.5275 199.804 94.1318 203.414 94.1318 207.879Z" stroke="url(#paint1_linear_237_435)" stroke-width="4" stroke-miterlimit="10"/>
<circle cx="234" cy="209" r="22" fill="white" stroke="url(#paint2_linear_237_435)" stroke-width="4"/>
<circle cx="86" cy="208" r="22" fill="white" stroke="url(#paint3_linear_237_435)" stroke-width="4"/>
<circle cx="234" cy="209" r="11" fill="white" stroke="url(#paint4_linear_237_435)" stroke-width="4"/>
<circle cx="86" cy="208" r="11" fill="white" stroke="url(#paint5_linear_237_435)" stroke-width="4"/>
<defs>
<linearGradient id="paint0_linear_237_435" x1="160.5" y1="0" x2="160.5" y2="321" gradientUnits="userSpaceOnUse">
<stop stop-color="#C00855"/>
<stop offset="1" stop-color="#F74154"/>
</linearGradient>
<linearGradient id="paint1_linear_237_435" x1="273" y1="209.999" x2="47.0002" y2="119.499" gradientUnits="userSpaceOnUse">
<stop stop-color="#F74153"/>
<stop offset="1" stop-color="#C00854"/>
</linearGradient>
<linearGradient id="paint2_linear_237_435" x1="234" y1="185" x2="234" y2="233" gradientUnits="userSpaceOnUse">
<stop stop-color="#C10955"/>
<stop offset="1" stop-color="#F33E54"/>
</linearGradient>
<linearGradient id="paint3_linear_237_435" x1="86" y1="184" x2="86" y2="232" gradientUnits="userSpaceOnUse">
<stop stop-color="#C10955"/>
<stop offset="1" stop-color="#F33E54"/>
</linearGradient>
<linearGradient id="paint4_linear_237_435" x1="234" y1="196" x2="234" y2="222" gradientUnits="userSpaceOnUse">
<stop stop-color="#C10955"/>
<stop offset="1" stop-color="#F33E54"/>
</linearGradient>
<linearGradient id="paint5_linear_237_435" x1="86" y1="195" x2="86" y2="221" gradientUnits="userSpaceOnUse">
<stop stop-color="#C10955"/>
<stop offset="1" stop-color="#F33E54"/>
</linearGradient>
</defs>
</svg>
