<svg width="209" height="207" viewBox="0 0 209 207" fill="none" xmlns="http://www.w3.org/2000/svg">
<path d="M104.5 1.00001C132.146 1.00001 158.139 11.663 177.684 31.0231C197.233 50.3833 208 76.1245 208 103.5C208 130.875 197.233 156.62 177.684 175.977C158.135 195.333 132.146 206 104.5 206C76.8536 206 50.8613 195.337 31.316 175.977C11.767 156.617 0.999991 130.875 0.999994 103.5C0.999996 76.1245 11.767 50.3795 31.3161 31.0231C50.8651 11.6668 76.8574 1 104.5 1.00001ZM104.5 203.981C131.6 203.981 157.081 193.527 176.245 174.552C195.41 155.573 205.961 130.342 205.961 103.5C205.961 76.6579 195.406 51.4271 176.245 32.4479C157.081 13.4687 131.604 3.01907 104.5 3.01906C77.396 3.01906 51.9191 13.4725 32.7547 32.4479C13.5903 51.4271 3.03877 76.6578 3.03877 103.5C3.03876 130.342 13.5942 155.573 32.7547 174.552C51.9153 193.531 77.3998 203.981 104.5 203.981Z" fill="url(#paint0_linear_237_349)" stroke="url(#paint1_linear_237_349)"/>
<defs>
<linearGradient id="paint0_linear_237_349" x1="104.5" y1="206" x2="104.5" y2="1.00001" gradientUnits="userSpaceOnUse">
<stop stop-color="#C00855"/>
<stop offset="1" stop-color="#F74153"/>
</linearGradient>
<linearGradient id="paint1_linear_237_349" x1="104.5" y1="206" x2="104.5" y2="1.00001" gradientUnits="userSpaceOnUse">
<stop stop-color="#C00754"/>
<stop offset="1" stop-color="#F74153"/>
</linearGradient>
</defs>
</svg>
