<svg id="twitter-logo" data-name="twitter-logo" xmlns="http://www.w3.org/2000/svg" viewBox="0 0 24 24">
  <path d="M21,6.25a7.38,7.38,0,0,1-1.85.52c.3,0,.74-.58.91-.8a3.27,3.27,0,0,0,.61-1.11s0-.08,0-.1a.09.09,0,0,0-.1,0,9.6,9.6,0,0,1-2.18.83.15.15,0,0,1-.16,0,1.7,1.7,0,0,0-.19-.19,3.71,3.71,0,0,0-2.68-.91,3.88,3.88,0,0,0-2.78,1.45,3.73,3.73,0,0,0-.74,1.49,3.91,3.91,0,0,0,0,1.56c0,.09,0,.1-.08.09A11.65,11.65,0,0,1,4.25,5.23c-.08-.1-.13-.1-.2,0a3.79,3.79,0,0,0,.65,4.5,3.57,3.57,0,0,0,.46.4,3.77,3.77,0,0,1-1.45-.4c-.09-.06-.13,0-.14.07a2.07,2.07,0,0,0,0,.43A3.83,3.83,0,0,0,6,13.31a1.92,1.92,0,0,0,.48.15A4.29,4.29,0,0,1,5,13.5c-.11,0-.15,0-.11.13a4,4,0,0,0,3,2.5c.13,0,.27,0,.4.06l0,0a4.58,4.58,0,0,1-2,1.08,7.26,7.26,0,0,1-3.1.4c-.16,0-.2,0-.24,0s0,.07,0,.11a6,6,0,0,0,.64.38A10.29,10.29,0,0,0,5.67,19a11,11,0,0,0,10.7-2.5,11.22,11.22,0,0,0,3-8.19c0-.12.14-.19.22-.25A7.47,7.47,0,0,0,21,6.56a.49.49,0,0,0,.09-.29v0S21.11,6.22,21,6.25Z" style="fill:#3b3b3b"/>
</svg>
