<svg width="65" height="57" viewBox="0 0 65 57" fill="none" xmlns="http://www.w3.org/2000/svg">
<g clip-path="url(#clip0_196_780)">
<path d="M32.4762 56.9955C23.3663 56.9955 14.2579 56.9941 5.14799 56.9999C4.18718 56.9999 3.24712 56.9089 2.37083 56.4947C0.413623 55.5709 -0.433017 53.6234 0.211972 51.4865C0.366176 50.9768 0.591551 50.476 0.859926 50.0148C10.0573 34.219 19.2651 18.4291 28.4699 2.63772C28.9666 1.78734 29.6071 1.06768 30.4671 0.56539C31.9884 -0.324638 33.8107 -0.163082 35.203 1.0574C35.7204 1.51123 36.1875 2.06786 36.533 2.65975C45.7407 18.4218 54.9307 34.1941 64.1251 49.9634C64.5744 50.7345 64.9125 51.5437 64.9836 52.4367C65.1571 54.6265 63.8923 56.3008 61.6386 56.8208C61.0574 56.9544 60.4405 56.9882 59.84 56.9897C50.7198 56.9985 41.598 56.9955 32.4762 56.9955ZM28.8406 15.6518C29.0348 23.1671 29.2276 30.6516 29.4203 38.136C31.5095 38.136 33.5364 38.136 35.587 38.136C35.7797 30.6295 35.971 23.1539 36.1638 15.6518C33.7202 15.6518 31.3063 15.6518 28.8406 15.6518ZM28.842 46.8718C28.8361 48.8869 30.4656 50.5142 32.4985 50.5201C34.5061 50.5259 36.1593 48.903 36.1682 46.9188C36.1771 44.9126 34.5328 43.2735 32.5088 43.2677C30.5012 43.2618 28.848 44.8876 28.842 46.8718Z" fill="#FF2C3B"/>
<path d="M28.8406 15.6519C31.3064 15.6519 33.7203 15.6519 36.1638 15.6519C35.9711 23.1525 35.7798 30.6296 35.5871 38.1361C33.5364 38.1361 31.5081 38.1361 29.4204 38.1361C29.2276 30.6516 29.0349 23.1672 28.8406 15.6519Z" fill="white"/>
<path d="M28.8421 46.8718C28.848 44.8876 30.5012 43.2632 32.5074 43.2676C34.5328 43.272 36.1757 44.9125 36.1668 46.9188C36.1579 48.903 34.5046 50.5273 32.497 50.52C30.4657 50.5127 28.8347 48.8868 28.8421 46.8718Z" fill="white"/>
</g>
<defs>
<clipPath id="clip0_196_780">
<rect width="65" height="57" fill="white"/>
</clipPath>
</defs>
</svg>
