<svg width="89" height="73" viewBox="0 0 89 73" fill="none" xmlns="http://www.w3.org/2000/svg">
<path d="M37.36 43.6902C34.19 39.7302 29.31 37.2002 23.85 37.2002C14.29 37.2002 6.54004 44.9502 6.54004 54.5102C6.54004 64.0702 14.29 71.8102 23.84 71.8102C28.51 71.8102 32.75 69.9602 35.87 66.9502" stroke="#4C566F" stroke-width="0.75" stroke-miterlimit="10" stroke-linecap="round" stroke-linejoin="round"/>
<path d="M36.2401 45.8201C33.5001 41.9201 28.9701 39.3701 23.8501 39.3701C15.4901 39.3701 8.72009 46.1401 8.72009 54.5001C8.72009 62.8601 15.4901 69.6301 23.8501 69.6301C28.9101 69.6301 33.3901 67.1401 36.1401 63.3301" stroke="#4C566F" stroke-width="0.75" stroke-miterlimit="10" stroke-linecap="round" stroke-linejoin="round"/>
<path d="M35.37 48C33.1 43.98 28.79 41.27 23.85 41.27C16.55 41.27 10.62 47.19 10.62 54.5C10.62 61.81 16.54 67.73 23.85 67.73C28.69 67.73 32.92 65.13 35.22 61.26" stroke="#4C566F" stroke-width="0.75" stroke-miterlimit="10" stroke-linecap="round" stroke-linejoin="round"/>
<path d="M23.8401 67.7303V41.2803" stroke="#4C566F" stroke-width="0.75" stroke-miterlimit="10" stroke-linecap="round" stroke-linejoin="round"/>
<path d="M10.62 54.5H34.16" stroke="#4C566F" stroke-width="0.75" stroke-miterlimit="10" stroke-linecap="round" stroke-linejoin="round"/>
<path d="M33.2 63.8504L14.49 45.1504" stroke="#4C566F" stroke-width="0.75" stroke-miterlimit="10" stroke-linecap="round" stroke-linejoin="round"/>
<path d="M14.49 63.8504L33.2 45.1504" stroke="#4C566F" stroke-width="0.75" stroke-miterlimit="10" stroke-linecap="round" stroke-linejoin="round"/>
<path d="M20.04 27.6701C18.25 23.1501 20.46 18.0201 24.99 16.2301C26.97 15.4501 29.06 15.4301 30.93 16.0301C31.88 14.3001 33.42 12.8801 35.4 12.1001C39.92 10.3101 45.05 12.5201 46.84 17.0501C47.32 18.2701 47.51 19.5301 47.45 20.7501V20.7901C47.44 20.9901 47.42 21.2001 47.4 21.4001L46.52 31.2001H46.51C46.36 33.4501 44.96 35.5301 42.73 36.4101C41.54 36.8801 40.29 36.9401 39.13 36.6701C38.47 37.6701 37.52 38.4801 36.33 38.9501C34.09 39.8401 31.65 39.2901 30 37.7501L22.62 31.2101C22.46 31.0801 22.31 30.9401 22.16 30.8001L22.13 30.7701C21.25 29.9301 20.53 28.8801 20.04 27.6701Z" fill="#FF2C3B"/>
<path d="M25.42 10.4102C25.42 10.4102 29.33 11.9802 30.94 16.0202" stroke="#4C566F" stroke-width="0.75" stroke-miterlimit="10" stroke-linecap="round" stroke-linejoin="round"/>
<path d="M41.0301 1C41.0301 1 37.9701 8.02 35.4601 10.08C32.9501 12.14 27.8101 11.87 27.8101 11.87C27.8101 11.87 28.5301 6.77 31.0401 4.71C33.5501 2.64 41.0301 1 41.0301 1Z" stroke="#4C566F" stroke-width="0.75" stroke-miterlimit="10" stroke-linecap="round" stroke-linejoin="round"/>
<path d="M27.8101 11.87L41.0301 1" stroke="#4C566F" stroke-width="0.75" stroke-miterlimit="10" stroke-linecap="round" stroke-linejoin="round"/>
<path d="M38.7001 5.6502L34.4801 6.3802L35.9801 2.4502" stroke="#4C566F" stroke-width="0.75" stroke-miterlimit="10" stroke-linecap="round" stroke-linejoin="round"/>
<path d="M36.2301 9.31996L30.3101 9.80996L31.0401 4.70996" stroke="#4C566F" stroke-width="0.75" stroke-miterlimit="10" stroke-linecap="round" stroke-linejoin="round"/>
<path d="M46.82 59.5199L74.1901 50.1799C74.7401 45.8399 73.87 41.9699 71.6101 38.4899L71.6201 38.4799C72.9101 37.1899 72.9101 35.0999 71.6201 33.8099C70.3301 32.5199 68.24 32.5199 66.95 33.8099L66.9401 33.8199C59.5101 29.0099 48.51 30.7099 40.86 38.3599C38.64 40.5799 36.91 43.0899 35.71 45.7099C32.77 52.0999 32.91 59.1699 36.32 64.4399L36.31 64.4499C35.02 65.7399 35.02 67.8299 36.31 69.1199C37.6 70.4099 39.69 70.4099 40.98 69.1199L40.99 69.1099C45.52 72.0499 51.38 72.5599 57 70.7799L57.48 70.5999C52.85 68.6599 48.57 64.6399 46.82 59.5199Z" fill="#F8AB31"/>
<path d="M81.1701 47.8003C84.4001 57.2803 79.3401 67.5903 69.8501 70.8303C60.3701 74.0703 50.0601 69.0003 46.8201 59.5203" stroke="#4C566F" stroke-width="0.75" stroke-miterlimit="10" stroke-linecap="round" stroke-linejoin="round"/>
<path d="M79.0101 48.5405C81.8401 56.8305 77.4101 65.8405 69.1201 68.6705C60.8301 71.5005 51.8201 67.0705 48.9901 58.7805" stroke="#4C566F" stroke-width="0.75" stroke-miterlimit="10" stroke-linecap="round" stroke-linejoin="round"/>
<path d="M77.1201 49.1904C79.5901 56.4404 75.7201 64.3204 68.4701 66.7904C61.2201 69.2604 53.3401 65.3904 50.8701 58.1404" stroke="#4C566F" stroke-width="0.75" stroke-miterlimit="10" stroke-linecap="round" stroke-linejoin="round"/>
<path d="M68.4701 66.7802L63.9901 53.6602" stroke="#4C566F" stroke-width="0.75" stroke-miterlimit="10" stroke-linecap="round" stroke-linejoin="round"/>
<path d="M81.1701 47.8003L46.8201 59.5203" stroke="#4C566F" stroke-width="0.75" stroke-miterlimit="10" stroke-linecap="round" stroke-linejoin="round"/>
<path d="M57.8801 66.1102L63.9601 53.7402" stroke="#4C566F" stroke-width="0.75" stroke-miterlimit="10" stroke-linecap="round" stroke-linejoin="round"/>
<path d="M76.4401 59.7802L63.9901 53.6602" stroke="#4C566F" stroke-width="0.75" stroke-miterlimit="10" stroke-linecap="round" stroke-linejoin="round"/>
<path d="M87.92 71.8101H14.51" stroke="#4C566F" stroke-width="0.75" stroke-miterlimit="10" stroke-linecap="round" stroke-linejoin="round"/>
<path d="M10.97 71.8101H1" stroke="#4C566F" stroke-width="0.75" stroke-miterlimit="10" stroke-linecap="round" stroke-linejoin="round"/>
</svg>
