<svg width="93" height="97" viewBox="0 0 93 97" fill="none" xmlns="http://www.w3.org/2000/svg">
<path d="M34.2261 58.4446C33.1106 58.4446 32.168 59.4006 32.168 60.4977C32.168 61.5948 33.1263 62.5509 34.2261 62.5509C34.8545 62.5509 35.1687 63.0211 35.1687 63.5069C35.1687 64.6197 36.1271 65.5601 37.2268 65.5601C38.3266 65.5601 39.2849 64.6197 39.2849 63.5069C39.2849 60.6701 37.0697 58.4446 34.2104 58.4446H34.2261Z" fill="#FC8002"/>
<path d="M57.9968 56.0779L60.3691 42.0192C62.8986 41.2356 64.6425 39.0257 64.6425 36.1732C64.6425 32.8505 61.9559 30.1705 58.6252 30.1705C57.6669 19.9047 50.3928 11.3629 40.4165 8.83955V6.00275C40.4165 2.68008 37.73 0 34.3993 0C31.0686 0 28.3821 2.68008 28.3821 6.00275V8.83955C18.4058 11.3629 11.116 20.0614 10.3304 30.3272H10.0162C6.68556 30.3272 3.99902 33.0073 3.99902 36.3299C3.99902 39.01 5.74291 41.3923 8.27234 42.176L16.1906 89.1008C16.3477 90.0412 17.1332 90.8405 18.2487 90.8405H18.72L20.3068 95.5738C20.621 96.3574 21.4222 97 22.2078 97H46.4494C47.0779 97 47.5649 96.6865 47.8791 96.3731C48.6646 96.8433 49.623 97 50.5656 97H84.6265C88.1143 97 90.8008 94.1632 90.8008 90.8405V84.681C90.8008 84.2109 90.6437 83.5683 90.1724 83.2548C91.1151 81.2016 90.9579 78.6783 89.3869 76.7819C90.1724 75.9982 90.8165 74.7287 90.8165 73.6159C90.9736 59.5573 73.2362 50.3886 58.0282 56.0779H57.9968ZM84.7679 82.6279H50.3928C49.2774 82.6279 48.3347 81.6875 48.3347 80.5747C48.3347 79.4619 49.2774 78.5216 50.3928 78.5216H84.7679C85.8834 78.5216 86.826 79.4619 86.826 80.5747C86.826 81.6875 85.8834 82.6279 84.7679 82.6279ZM86.826 73.4592C86.826 73.9294 86.1976 74.4153 85.0821 74.4153H50.0786C48.9631 74.4153 48.3347 73.7883 48.3347 73.4592C48.3347 68.2401 51.6654 63.9771 56.2529 61.297C59.8978 59.2438 63.6998 58.2878 67.6589 58.2878C78.2794 58.4445 86.826 65.2466 86.826 73.4592ZM44.6898 70.4657H42.7888C46.1195 66.3594 46.2766 60.5133 42.7888 56.407H53.7235L53.4093 58.3034C48.8218 61.3126 45.6482 65.5757 44.6898 70.4657ZM54.509 52.285H14.1167L12.3728 42.176H56.0958L54.509 52.285ZM14.7452 56.3913H25.6798C22.1921 60.4977 22.3492 66.3437 25.6798 70.45H17.1332L14.7609 56.3913H14.7452ZM27.2666 63.5069C27.2666 59.5573 30.4402 56.3913 34.3993 56.3913C38.3584 56.3913 41.532 59.5573 41.532 63.5069C41.532 67.4565 38.3584 70.6224 34.3993 70.6224C30.4402 70.4657 27.2666 67.2997 27.2666 63.5069ZM34.2265 3.93391C35.3419 3.93391 36.2846 4.87429 36.2846 5.98707V18.1493H32.3255V5.98707C32.3255 4.87429 33.111 3.93391 34.2265 3.93391ZM28.2093 12.9459V18.165C27.0938 18.165 26.1512 19.1053 26.1512 20.2181C26.1512 21.3309 27.0938 22.2713 28.2093 22.2713C28.5235 22.2713 40.715 22.2713 40.2437 22.2713C41.3591 22.2713 42.3018 21.3152 42.3018 20.2181C42.3018 19.121 41.3434 18.165 40.2437 18.165V12.9459C47.8477 15.3125 53.5507 22.1146 54.3362 30.1705H14.1167C15.0751 22.1146 20.6053 15.3125 28.2093 12.9459ZM10.0005 34.2768H58.4681C59.5836 34.2768 60.5262 35.2328 60.5262 36.3299C60.5262 37.427 59.5836 38.3831 58.4681 38.3831H10.0005C8.88506 38.3831 7.94242 37.427 7.94242 36.3299C8.09952 35.2172 8.90077 34.2768 10.0005 34.2768ZM17.9187 74.572H44.5327C44.6898 75.3556 45.1611 76.155 45.8053 76.7819C44.2185 78.6783 44.0614 81.2016 45.0198 83.2548C44.7055 83.5683 44.3913 84.0385 44.3913 84.681V86.7342H19.8354L17.9344 74.572H17.9187ZM22.9776 90.6838H44.3599C44.3599 91.4674 44.517 92.11 44.8312 92.737H23.606L22.9776 90.6838ZM86.826 90.5271C86.826 91.7966 85.8834 92.737 84.6108 92.737H50.707C49.4345 92.737 48.4918 91.7809 48.4918 90.5271V86.7342H86.826V90.5271Z" fill="#FC8002"/>
<path d="M3.98298 9.30963C2.86752 10.4224 3.35455 12.3188 4.92562 12.6323L11.7441 14.372C12.8595 14.6855 13.9593 13.9018 14.1164 12.9458C14.4306 11.833 13.6451 10.7359 12.6867 10.5791L9.35605 9.79549L11.8855 7.27215C13.0009 6.15937 12.3568 4.26294 10.77 3.94948L2.39619 2.1941C1.28073 2.03737 0.180981 2.66429 0.0238735 3.77707C-0.133234 4.87418 0.495196 5.98696 1.61066 6.14369L6.3553 7.09974L3.98298 9.30963Z" fill="#FC8002"/>
<path d="M85.3958 19.5755L88.0823 22.0989L85.3958 24.7789C84.6103 25.5626 84.6103 26.8321 85.3958 27.6157L89.3549 31.5653C90.1404 32.349 91.413 32.349 92.1985 31.5653C92.9841 30.7817 92.9841 29.5122 92.1985 28.7285L89.6691 26.2052L92.3556 23.6818C93.1412 22.8982 93.1412 21.6287 92.3556 20.845L89.8262 18.3217L92.3556 15.7983C93.1412 15.0147 93.1412 13.7452 92.3556 12.9615C91.5701 12.1779 90.2975 12.1779 89.512 12.9615L85.3958 16.7544C84.6103 17.538 84.6103 18.8075 85.3958 19.6069V19.5755Z" fill="#FC8002"/>
<path d="M66.7007 16.0962C67.8319 16.0962 68.7588 17.0209 68.7588 18.1494C68.7588 19.2778 67.8319 20.2025 66.7007 20.2025C65.5695 20.2025 64.6426 19.2778 64.6426 18.1494C64.6426 17.0209 65.5695 16.0962 66.7007 16.0962Z" fill="#FC8002"/>
<path d="M90.9419 52.285C89.8264 52.285 88.8838 53.2254 88.8838 54.3382C88.8838 55.451 89.8264 56.3914 90.9419 56.3914C92.0574 56.3914 93 55.451 93 54.3382C93 53.2254 92.0574 52.285 90.9419 52.285Z" fill="#FC8002"/>
<path d="M82.8667 10.0934C83.9822 10.0934 84.9248 9.153 84.9248 8.04022C84.9248 6.92744 83.9822 5.98706 82.8667 5.98706C81.7512 5.98706 80.8086 6.92744 80.8086 8.04022C80.8086 9.153 81.7512 10.0934 82.8667 10.0934Z" fill="#FC8002"/>
<path d="M76.6763 66.5159C77.7917 66.5159 78.7344 65.5598 78.7344 64.4627C78.7344 63.3656 77.7917 62.4095 76.6763 62.4095C75.5608 62.4095 74.6182 63.3656 74.6182 64.4627C74.7753 65.5755 75.5608 66.5159 76.6763 66.5159Z" fill="#FC8002"/>
<path d="M58.6245 70.4656C59.74 70.4656 60.6826 69.5095 60.6826 68.4124C60.6826 67.3153 59.74 66.3593 58.6245 66.3593C57.5091 66.3593 56.5664 67.3153 56.5664 68.4124C56.5664 69.6819 57.5091 70.4656 58.6245 70.4656Z" fill="#FC8002"/>
<path d="M68.6011 72.5189C69.7165 72.5189 70.6592 71.5629 70.6592 70.4658C70.6592 69.3687 69.7165 68.4126 68.6011 68.4126C67.4856 68.4126 66.543 69.3687 66.543 70.4658C66.7001 71.5785 67.4856 72.5189 68.6011 72.5189Z" fill="#FC8002"/>
<path d="M77.7914 48.3356C80.635 48.3356 82.8659 46.1257 82.8659 43.2732C82.8659 40.4207 80.6507 38.2108 77.7914 38.2108C74.932 38.2108 72.7168 40.4207 72.7168 43.2732C72.7168 46.1257 74.932 48.3356 77.7914 48.3356ZM77.7914 42.3328C78.4198 42.3328 78.734 42.803 78.734 43.2732C78.734 43.9001 78.2627 44.2136 77.7914 44.2136C77.32 44.2136 76.833 43.7434 76.833 43.2732C76.6759 42.803 77.1472 42.3328 77.7914 42.3328Z" fill="#FC8002"/>
<path d="M6.98472 78.5215C4.14108 78.5215 1.91016 80.7314 1.91016 83.5839C1.91016 86.4363 4.12537 88.6462 6.98472 88.6462C9.84408 88.6462 12.0593 86.4363 12.0593 83.5839C12.0593 80.9038 9.84408 78.5215 6.98472 78.5215ZM6.98472 84.681C6.35629 84.681 6.02637 84.2108 6.02637 83.7406C6.02637 83.2704 6.49769 82.7845 6.98472 82.7845C7.47176 82.7845 7.92737 83.2547 7.92737 83.7406C8.08448 84.2108 7.61315 84.681 6.98472 84.681Z" fill="#FC8002"/>
</svg>
