<svg width="84" height="66" viewBox="0 0 84 66" fill="none" xmlns="http://www.w3.org/2000/svg">
<path d="M47.972 66L60.8951 19.4118L65.2028 36.8823C59.5897 36.8823 55.021 35.2647 51.4965 32.0294C47.972 28.7941 46.2098 24.3294 46.2098 18.6353C46.2098 13.0706 48.0373 8.54118 51.6923 5.04707C55.2168 1.68236 59.655 5.50109e-06 65.007 5.96897e-06C70.4895 6.44827e-06 75.0583 1.68236 78.7133 5.04707C82.2378 8.54118 84 13.0706 84 18.6353C84 20.3177 83.8695 21.9353 83.6084 23.4882C83.3473 25.1706 82.8252 27.1118 82.042 29.3118C81.2587 31.5118 80.1492 34.4235 78.7133 38.0471L67.3566 66L47.972 66ZM1.76223 66L14.6853 19.4118L18.993 36.8823C13.38 36.8823 8.81119 35.2647 5.28672 32.0294C1.76223 28.7941 -3.98644e-06 24.3294 -3.48864e-06 18.6353C-3.00216e-06 13.0706 1.8275 8.54118 5.48252 5.04706C9.00699 1.68235 13.4452 1.4613e-06 18.7972 1.92918e-06C24.2797 2.40848e-06 28.8485 1.68235 32.5035 5.04707C36.028 8.54118 37.7902 13.0706 37.7902 18.6353C37.7902 20.3176 37.6597 21.9353 37.3986 23.4882C37.1375 25.1706 36.6154 27.1118 35.8322 29.3118C35.0489 31.5118 33.9394 34.4235 32.5035 38.0471L21.1468 66L1.76223 66Z" fill="#D3F2F9"/>
</svg>
