<svg width="68" height="111" viewBox="0 0 68 111" fill="none" xmlns="http://www.w3.org/2000/svg">
<path d="M13.9005 2.4335C19.9886 11.932 25.3575 22.3825 27.8416 33.4287C29.8421 33.3173 31.8622 33.3698 33.857 33.5956C47.7339 35.1637 59.0993 45.6911 63.6616 58.6018C69.0247 73.7724 64.0659 89.0968 52.8657 99.7446C56.2068 98.7043 59.548 97.6641 62.8891 96.6238C67.3273 95.239 69.7044 102.079 65.2451 103.466C58.2891 105.634 51.328 107.8 44.372 109.969C41.9976 110.709 39.9123 109.134 39.5778 106.775C38.8131 101.345 38.7929 95.9711 39.3465 90.5213C39.8165 85.8944 46.9128 87.3293 46.4458 91.9379C46.3039 93.3101 46.2306 94.6788 46.1916 96.0456C54.7303 89.014 59.7389 78.9329 58.4338 67.7392C57.3222 58.216 51.5928 49.0216 43.2521 44.1904C39.0062 41.7347 33.9844 40.5012 29.0167 40.5973C29.3172 43.5855 29.3956 46.6025 29.1857 49.6598C28.6222 57.9662 25.2218 67.0671 16.3459 69.3965C8.86003 71.3571 1.99312 66.0747 0.835268 58.635C-0.445502 50.4096 5.30303 42.7029 11.907 38.4593C14.6384 36.7082 17.6167 35.4218 20.7159 34.5732C18.4016 24.5512 13.4575 15.1469 7.93013 6.52669C5.4178 2.60364 11.3881 -1.48954 13.9005 2.4335ZM12.2899 47.3952C9.98153 49.7313 7.93914 52.8224 7.91348 56.2111C7.88261 59.597 10.161 63.0688 13.8925 62.5495C21.4481 61.4999 22.233 51.0563 22.0938 45.1651C22.0645 44.0021 21.9794 42.8562 21.876 41.7072C18.2993 42.7891 14.9823 44.6628 12.2927 47.39L12.2899 47.3952Z" fill="#2CB7D9"/>
</svg>
