<svg width="1348" height="365" viewBox="0 0 1348 365" fill="none" xmlns="http://www.w3.org/2000/svg">
<g opacity="0.25">
<path d="M0.101562 0H65.8477V286.101H0.101562V0Z" fill="white"/>
<path d="M215.95 92.3154H283.648L214.899 286.252H148.853L79.9546 92.3154H147.652L181.876 203.544L216.1 92.3154H215.95Z" fill="white"/>
<path d="M340.991 212.848C347.145 228.609 360.805 236.565 382.27 236.565C395.629 236.565 406.587 231.912 415.743 222.905L459.874 255.478C441.711 279.495 415.293 291.504 380.769 291.504C349.697 291.504 324.629 281.897 305.866 262.533C287.103 243.17 277.796 218.853 277.796 189.432C277.796 160.011 286.953 135.844 305.266 116.18C323.729 96.5166 346.995 86.7598 375.515 86.7598C404.035 86.7598 425.65 96.3665 443.513 115.88C461.375 135.394 470.382 159.561 470.382 188.831C470.382 197.387 469.481 205.493 467.83 212.848H340.991ZM340.24 168.267H410.94C406.137 150.254 394.578 141.098 376.416 141.098C358.253 141.098 345.494 150.104 340.24 168.267Z" fill="white"/>
<path d="M551.292 128.337C554.745 115.728 561.65 105.821 571.857 98.9166C582.214 92.0117 593.772 88.4092 606.381 88.4092V159.859C592.421 157.458 579.662 160.16 568.404 167.965C556.996 175.771 551.442 188.379 551.442 205.942V286.248H490.35V92.3119H551.442V128.337H551.292Z" fill="white"/>
<path d="M743.576 92.3154H811.273L748.379 283.25C738.472 312.52 724.812 333.535 706.8 346.444C688.937 359.353 665.671 365.057 637.301 363.856V303.364C650.21 303.364 660.117 301.562 666.722 298.26C673.326 294.958 678.73 288.803 682.933 280.097L609.381 92.3154H677.829L715.056 204.894L743.876 92.3154H743.726H743.576Z" fill="white"/>
<path d="M297.161 0.300781H298.662C339.641 0.300781 372.814 34.0745 372.814 75.3535V77.0047H371.313C330.334 77.0047 297.161 43.2309 297.161 1.95194V0.300781Z" fill="white"/>
<path d="M383.915 76.8545H382.414V75.2034C382.414 33.9244 415.737 0.300781 456.416 0.300781H457.917V1.95194C457.917 43.381 424.743 77.0047 383.765 77.0047L383.915 76.8545Z" fill="white"/>
<path d="M861.704 285.801V3.15234H880.767V285.951H861.704V285.801Z" fill="white"/>
<path d="M1089.26 92.3182H1108.78V286.104H1089.26V242.273C1072.9 271.994 1043.33 290.457 1007.01 290.457C979.838 290.457 956.571 280.851 937.057 261.337C917.544 241.523 907.937 217.506 907.937 189.286C907.937 161.066 917.544 137.05 937.057 117.536C956.571 97.722 979.838 88.1152 1007.01 88.1152C1043.48 88.1152 1072.75 106.278 1089.26 136.299V92.4683V92.3182ZM1008.51 271.544C1031.02 271.544 1050.24 263.438 1065.85 247.527C1081.46 231.766 1089.11 211.952 1089.11 188.986C1089.11 166.02 1081.46 146.356 1065.85 130.445C1050.24 114.684 1031.02 106.428 1008.51 106.428C985.992 106.428 966.478 114.534 950.717 130.445C935.106 146.206 927.451 166.02 927.451 188.986C927.451 211.952 935.106 231.616 950.717 247.527C966.328 263.288 985.842 271.544 1008.51 271.544Z" fill="white"/>
<path d="M1318.78 117.38C1338.29 136.744 1347.9 160.761 1347.9 189.131C1347.9 217.5 1338.44 241.367 1318.78 261.181C1299.71 280.545 1276.3 290.302 1248.83 290.302C1212.35 290.302 1182.18 271.839 1166.57 241.067V285.948H1147.51V14.708H1166.57V137.044C1182.18 106.422 1212.5 87.8093 1248.83 87.8093C1276.3 87.8093 1299.56 97.4161 1318.78 117.23V117.38ZM1247.63 271.538C1270.14 271.538 1289.36 263.433 1304.97 247.522C1320.58 231.76 1328.69 211.947 1328.69 188.98C1328.69 166.014 1320.73 146.35 1304.97 130.439C1289.21 114.528 1270.14 106.422 1247.63 106.422C1225.11 106.422 1205.6 114.528 1189.84 130.439C1174.23 146.2 1166.57 166.014 1166.57 188.98C1166.57 211.947 1174.23 231.61 1189.84 247.522C1205.45 263.433 1224.96 271.538 1247.63 271.538Z" fill="white"/>
</g>
</svg>
