<svg width="93" height="97" viewBox="0 0 93 97" fill="none" xmlns="http://www.w3.org/2000/svg">
<mask id="mask0_48_709" style="mask-type:alpha" maskUnits="userSpaceOnUse" x="0" y="0" width="93" height="97">
<rect width="93" height="97" fill="#D9D9D9"/>
</mask>
<g mask="url(#mask0_48_709)">
</g>
<g clip-path="url(#clip0_48_709)">
<path d="M68.3352 56.4719C67.4531 61.2901 64.9983 65.941 61.4069 69.2318C60.9155 69.6809 59.2218 70.8278 58.9824 71.1957C58.7909 71.49 58.811 72.4338 58.9496 72.7611C59.0656 73.0326 63.4181 75.5521 63.9827 75.8135C72.6752 79.8427 84.1803 79.9289 84.9213 92.3692C85.0196 94.0159 85.3724 96.9109 83.1016 96.9972H9.83165C8.26403 96.8424 8.04476 95.6423 8.00696 94.2722C7.62892 80.5176 19.3508 79.8148 29.2429 75.7247L34.0441 72.7028L34.0391 71.1652C33.4443 70.7973 32.7688 70.3254 32.2446 69.8687C29.8705 67.8084 27.8039 65.1189 26.4681 62.2518C25.6364 60.4655 24.9358 58.4027 24.7467 56.4465C19.565 55.7919 16.1324 50.8137 17.259 45.6656C17.3799 45.1099 17.9218 44.1077 17.952 43.6916C17.9999 42.9964 17.7202 41.7963 17.7 41.0503C17.6168 37.9574 17.7076 34.4762 18.3931 31.4721C20.2329 23.4162 25.8859 16.6595 33.3787 13.3585C33.4821 9.98898 34.5633 6.79455 36.8366 4.2928C44.9948 -4.68915 59.5696 1.42061 59.5596 13.3585C65.074 15.8044 69.671 20.1026 72.403 25.5196C75.0417 30.7515 75.3996 36.0087 75.2383 41.8115C75.2232 42.3265 74.9863 43.0953 75.0014 43.585C75.0216 44.1356 75.7323 45.4651 75.8507 46.2517C76.385 49.7785 74.7393 53.3967 71.6973 55.2286C70.6312 55.8705 69.5324 56.1674 68.3377 56.4719H68.3352ZM55.7186 12.0898C55.6153 8.97661 53.3269 5.85576 50.5545 4.55414C46.0029 2.41776 40.5036 4.17862 38.1547 8.66199C38.006 8.94616 36.7685 12.0619 37.2802 12.0898C38.8881 11.7473 40.5439 11.42 42.1897 11.3287C44.7427 11.1866 48.0695 11.1917 50.6276 11.3211C52.3389 11.4073 54.0477 11.7448 55.7186 12.0873V12.0898ZM71.5763 39.9694C72.1787 32.1013 69.119 24.2155 62.8082 19.4632C56.4369 14.6652 46.5725 13.8253 38.9486 15.4213C27.7887 17.7581 20.1901 28.5669 21.4174 39.9694C22.355 39.5203 23.3203 39.0991 24.3536 38.9342C24.7694 37.2698 24.4015 33.3116 26.8361 33.2482C27.1309 33.2406 27.4057 33.3852 27.7081 33.3852C35.5764 33.4435 44.7352 32.5555 51.6055 28.4121C52.5078 27.8666 54.1812 26.3493 55.149 26.4026C56.3361 26.4686 57.1123 28.0772 57.8558 28.8815C60.056 31.2615 62.4629 33.304 65.1697 35.0776C65.9913 35.6155 68.0429 36.4528 68.3705 37.3027C68.5141 37.6757 68.5016 38.7388 68.6805 38.8911L71.5763 39.9669V39.9694ZM55.7716 31.9339C55.4968 31.6497 54.9751 30.7972 54.5517 30.8631C54.3098 30.9012 52.5985 32.0328 52.1499 32.2586C45.9248 35.3795 38.321 36.9298 31.3676 37.0617C30.367 37.0795 29.374 36.9374 28.3987 36.9881C28.2172 37.1074 28.0433 38.2212 28.0206 38.5079C27.6274 43.6079 28.3281 49.2051 28.0206 54.3583C29.1951 66.5347 41.0606 74.4941 52.717 70.3406C59.9704 67.7551 64.6253 61.0288 65.0311 53.3383C65.2731 48.7382 64.8723 43.92 65.0084 39.297C64.1893 38.6196 63.1232 38.1603 62.221 37.5412C59.8771 35.9352 57.7399 33.9713 55.769 31.9339H55.7716ZM24.3763 42.7579C20.5656 43.75 19.4365 48.5353 22.171 51.377C22.3827 51.5977 24.3763 53.0744 24.3763 52.3259V42.7579ZM68.683 42.7579V52.6431C73.5018 51.0725 73.5346 44.2168 68.683 42.7579ZM54.5845 73.5502C49.927 75.3872 44.9797 75.5065 40.181 74.1769C39.6845 74.0399 39.183 73.7862 38.6915 73.6467C38.5176 73.5959 38.4546 73.4132 38.4723 73.7405L46.4666 82.1719L54.5845 73.5502ZM35.8008 76.2474L35.2085 76.2803C34.5003 76.8715 33.6182 77.2065 32.8722 77.7291C32.5823 77.9321 32.1942 78.064 32.358 78.4954C34.4348 82.7529 35.0295 90.5246 41.5369 86.1986C42.041 85.8636 43.0315 85.2039 43.4272 84.8081C43.5128 84.7219 43.6817 84.7041 43.6313 84.5214L35.8008 76.2499V76.2474ZM60.7441 78.1275C59.7662 77.7672 58.6018 76.6406 57.6971 76.3057C57.5383 76.2474 57.4047 76.1535 57.2358 76.2702L49.4154 84.3844C49.2894 84.4935 49.3473 84.628 49.4229 84.7371C49.5187 84.8766 51.8449 86.5182 52.1549 86.7085C54.6702 88.2334 56.8654 87.4596 58.0927 84.8766C59.0983 82.7605 59.8569 80.3146 60.7441 78.13V78.1275ZM11.6639 93.3181H81.2719C81.4659 89.5934 79.4648 86.0159 76.2187 84.2778C75.6264 83.9607 75.0014 83.7196 74.3814 83.4659C71.0219 82.0958 67.4783 81.0885 64.1011 79.7539C62.0143 83.8034 61.5103 89.5351 56.3789 90.8773C52.2179 91.9658 49.7884 89.2966 46.5901 87.2338C46.0684 87.1779 43.4776 89.3346 42.7946 89.7482C40.3877 91.2071 38.1043 91.6207 35.458 90.4688C31.2491 88.6369 30.8635 83.3416 28.8347 79.7716C25.4197 81.1342 21.7753 82.1618 18.378 83.542C14.1514 85.2598 11.485 88.5582 11.6664 93.3207L11.6639 93.3181Z" fill="#FC8002"/>
<path d="M48.7781 45.6556C51.4269 40.2284 59.197 39.8326 62.2869 45.0797C66.2689 51.8441 59.1163 59.5548 52.1679 56.1523C50.5776 55.3734 48.8613 53.3512 48.327 51.6563C47.7926 49.9614 48.4303 48.4923 45.8445 48.9719C44.7633 49.1723 44.9145 50.852 44.602 51.7755C42.8756 56.8805 36.285 58.616 32.2399 55.0512C26.4659 49.9639 30.5438 40.6927 38.2836 41.3651C40.9047 41.5935 42.926 43.5878 44.3424 45.6506C45.8067 45.1127 47.3037 45.2142 48.7756 45.6556H48.7781ZM37.404 44.9833C31.8972 44.8818 31.8089 53.2294 37.2755 53.2852C42.616 53.341 42.7672 45.0848 37.404 44.9833ZM58.4358 45.9804C56.3692 44.2246 52.9315 44.8665 51.8932 47.4622C50.1164 51.8973 55.6005 55.2897 58.7433 51.9506C60.2404 50.3597 60.1018 47.3962 58.4358 45.9804Z" fill="#FC8002"/>
<path d="M51.397 64.9491C50.3259 65.1699 50.0259 64.5483 49.227 64.1499C47.4804 63.2771 45.5499 63.2796 43.8033 64.1499C43.4102 64.3453 42.949 64.8121 42.5558 64.9187C40.6353 65.4338 39.3449 63.1857 40.9756 61.6811C43.5992 59.2631 49.2522 59.2479 51.9262 61.5593C53.1587 62.625 53.0326 64.6091 51.397 64.9491Z" fill="#FC8002"/>
</g>
<defs>
<clipPath id="clip0_48_709">
<rect width="77" height="97" fill="white" transform="translate(8)"/>
</clipPath>
</defs>
</svg>
