<svg width="95" height="105" viewBox="0 0 95 105" fill="none" xmlns="http://www.w3.org/2000/svg">
<mask id="mask0_23_906" style="mask-type:alpha" maskUnits="userSpaceOnUse" x="0" y="0" width="95" height="105">
<rect width="95" height="105" fill="#D9D9D9"/>
</mask>
<g mask="url(#mask0_23_906)">
<path d="M72.8902 61.1705C73.5144 61.3617 74.1479 61.5505 74.763 61.774C80.9411 64.038 86.8544 67.35 91.9361 71.5257C92.611 72.0808 94.4723 73.6332 94.7787 74.3218C95.6379 76.2565 93.8527 78.2649 91.8762 77.6822C91.1068 77.4542 90.577 76.7379 89.9804 76.2427C88.2573 74.8101 86.4904 73.4051 84.6222 72.166C73.0952 64.5332 56.6845 60.5233 42.9138 61.5137C30.85 62.382 14.467 67.73 5.34025 75.835C4.80351 76.3118 4.03412 77.3436 3.41216 77.5901C1.01414 78.539 -1.02913 75.7982 0.564943 73.822C1.84803 72.2305 4.94864 70.0056 6.68553 68.7826C11.371 65.4844 16.584 62.9808 22.0135 61.1567C22.1701 60.9356 21.5919 59.4754 21.5044 59.1045C19.0649 48.7102 22.8612 37.6962 31.472 31.3233C43.5335 22.3961 60.3311 24.9112 69.1399 37.0214C73.8208 43.4543 75.3481 52.0452 73.3232 59.7034C73.2656 59.9199 72.8211 61.0968 72.8902 61.1682V61.1705ZM26.745 59.6757C29.6061 58.8742 32.5109 58.1303 35.4433 57.6167C44.4802 56.0321 53.5862 56.3223 62.5586 58.2109C64.4268 58.6047 66.2881 59.1184 68.1172 59.655C68.3752 59.6343 68.8727 57.5268 68.9464 57.1721C71.9849 42.3671 59.3797 28.9533 44.418 31.04C32.3473 32.7236 24.0936 44.1752 25.8305 56.1587C25.9987 57.3219 26.4271 58.5472 26.7427 59.678L26.745 59.6757Z" fill="#2CB7D9"/>
<path d="M44.9 73.9014C55.6761 73.3717 68.2559 76.785 77.1845 82.8655C78.5045 83.7637 80.808 85.4566 81.8101 86.6381C82.8743 87.8934 82.6947 89.8442 81.1398 90.5743C79.1909 91.4887 77.9332 89.5655 76.6294 88.483C69.7486 82.7642 57.6318 79.0537 48.7838 78.7013C39.1917 78.3213 25.3588 82.3242 18.0565 88.7133C16.7872 89.8235 15.8658 91.4657 13.8548 90.4983C12.7698 89.9755 12.3713 88.7916 12.6131 87.6446C12.855 86.4977 16.2712 83.8743 17.317 83.1442C24.6493 78.0311 35.9967 74.3413 44.8977 73.9037L44.9 73.9014Z" fill="#2CB7D9"/>
<path d="M46.0516 91.5925C50.5528 91.3346 56.2196 92.4516 59.7648 95.4251C61.9209 97.2331 60.0412 100.497 57.5026 99.6422C56.8715 99.428 56.0053 98.6841 55.3626 98.3294C50.9858 95.918 44.5658 95.812 40.1038 98.0738C38.4636 98.9052 37.0884 100.769 35.1488 99.3221C33.8127 98.3248 33.9924 96.5053 35.2018 95.4757C37.9868 93.1034 42.4442 91.7998 46.0493 91.5948L46.0516 91.5925Z" fill="#2CB7D9"/>
<path d="M47.0853 5.17544C48.79 4.91979 49.9118 6.23722 49.9948 7.84486C49.746 10.6271 50.3219 13.9645 49.9625 16.6799C49.5248 19.9735 45.2264 19.711 45.0375 16.4819C45.2747 13.6305 44.7334 10.307 45.0513 7.51319C45.1803 6.38232 45.9151 5.35048 47.0853 5.17544Z" fill="#2CB7D9"/>
<path d="M83.3347 50.2719C86.2211 49.878 89.8676 50.4861 92.8323 50.2696C95.9421 50.9721 95.5413 54.9727 92.3877 55.18C89.6465 55.0556 86.7094 55.3804 83.9912 55.1961C83.261 55.1455 82.5745 54.9981 81.9917 54.5489C80.2157 53.1808 81.2062 50.5621 83.3347 50.2719Z" fill="#2CB7D9"/>
<path d="M2.2005 50.2676H11.6981C12.3316 50.4035 12.9144 50.6614 13.3406 51.1612C14.3288 52.3197 13.9994 54.1208 12.6288 54.8256C12.2026 55.0444 11.5254 55.1619 11.0416 55.1964C8.75646 55.3531 5.13985 55.3623 2.85932 55.1964C-0.602949 54.9454 -1.0245 51.152 2.2005 50.2699V50.2676Z" fill="#2CB7D9"/>
<path d="M15.6721 18.4007C16.2572 18.3846 16.787 18.6149 17.2523 18.9489C19.1551 21.1968 22.0115 23.2444 23.8014 25.5153C24.4533 26.3445 24.7044 27.3188 24.193 28.3068C23.4443 29.7532 21.6567 30.0158 20.4243 29.007L13.8039 22.3945C12.6359 20.7592 13.6011 18.456 15.6721 18.3984V18.4007Z" fill="#2CB7D9"/>
<path d="M81.0261 19.1005C82.0604 20.1346 81.8278 21.7377 80.8925 22.7488C78.8078 24.5752 76.9442 27.0189 74.8502 28.7901C73.8367 29.6469 72.6526 30.0407 71.5078 29.1356C70.2984 28.1797 70.2799 26.6596 71.2198 25.5057C73.0834 23.2232 75.8822 21.1596 77.8449 18.8978C78.764 18.2023 80.1968 18.2714 81.0261 19.1005Z" fill="#2CB7D9"/>
</g>
</svg>
