<svg width="66" height="74" viewBox="0 0 66 74" fill="none" xmlns="http://www.w3.org/2000/svg">
<mask id="mask0_48_229" style="mask-type:alpha" maskUnits="userSpaceOnUse" x="0" y="0" width="66" height="74">
<rect width="66" height="74" fill="#D9D9D9"/>
</mask>
<g mask="url(#mask0_48_229)">
<path d="M29.1337 22.8164C28.4679 22.0712 27.9102 21.1984 27.232 20.4692C25.7003 18.8264 25.0469 19.8359 24.0199 21.241C17.64 29.9553 12.1755 44.2545 21.7906 52.7737C30.9416 60.8813 47.0269 57.4343 49.536 44.7708C51.2518 36.115 45.759 26.8187 40.5389 20.3397C39.8271 19.4562 38.5717 17.8329 37.7695 17.1339C37.2259 16.6602 36.5212 16.458 35.8979 16.9264L30.1484 23.9252L29.1355 22.8164H29.1337ZM38.6425 51.2231C35.5915 57.5194 25.7499 54.6986 27.4037 46.6087C28.1811 42.8051 30.7858 39.1362 33.1586 36.1558C33.3126 36.1185 33.8332 36.8211 33.9448 36.9612C36.5902 40.3018 40.716 46.944 38.6425 51.2249V51.2231ZM36.7815 19.9405C38.2122 21.5266 39.5544 23.2155 40.7886 24.9612C44.9463 30.8459 49.0827 38.7335 46.5063 46.0765C45.497 48.9523 43.404 51.209 40.8063 52.7258C41.0153 52.0339 41.3836 51.397 41.5606 50.6909C42.894 45.3544 38.2884 37.9529 34.8779 34.0748C34.2299 33.3385 33.4313 32.3078 32.36 33.1416C31.765 33.6046 30.5733 35.2244 30.0669 35.8967C28.56 37.9032 27.0159 40.3586 26.035 42.6685C24.7547 45.6862 23.9491 49.0871 25.4152 52.1936C25.3001 52.3036 23.8676 51.1912 23.6941 51.0404C15.0476 43.5821 20.3598 30.6809 25.9057 23.0399C26.019 23.0115 26.1802 23.2244 26.2563 23.3042C27.2072 24.2906 28.3086 26.2066 29.3037 26.9855C29.8137 27.3846 30.3449 27.4308 30.8921 27.0653L36.7797 19.9405H36.7815Z" fill="#00A4CC"/>
<path d="M54.5665 13.2434C51.2518 10.2558 47.0268 7.74903 42.7488 6.42733C42.1662 6.24814 40.6965 5.74608 40.183 5.88978C39.2445 6.15234 38.9027 7.35518 39.611 8.06304C39.9971 8.44802 41.7501 8.77623 42.3928 8.99799C63.5795 16.27 69.5043 43.568 52.7905 58.7542C47.9812 63.1238 42.4566 65.3095 36.0678 66.193C35.7969 66.2303 36.0076 65.9553 36.0802 65.8489C36.8133 64.7631 37.7748 63.798 38.5415 62.7318C38.97 62.1357 39.3561 61.7454 39.1914 60.9417C39.0125 60.0742 37.704 59.7744 37.0895 60.39L31.9757 66.963C31.6286 67.5218 31.7065 68.1765 32.1687 68.643C34.1732 70.0747 36.0023 71.7708 37.982 73.2309C38.7044 73.7649 39.6358 74.3947 40.3636 73.4154C40.9745 72.594 40.4929 71.9783 39.8731 71.423C38.9399 70.5857 37.6101 69.8388 36.7354 68.9854C36.6398 68.8932 36.5282 68.8311 36.5601 68.675C38.0864 68.5668 39.6889 68.235 41.1781 67.8518C65.5397 61.5857 73.3273 30.147 54.5648 13.2399L54.5665 13.2434Z" fill="#00A4CC"/>
<path d="M23.756 64.8925C6.58181 59.2385 -1.53872 39.3331 6.94657 23.1853C11.43 14.6519 20.2589 8.52421 29.9288 7.7099L26.7415 12.0032C26.1784 13.1989 27.4976 14.3858 28.606 13.6052C29.0487 13.2947 29.9252 12.0121 30.3183 11.51C31.3542 10.1883 32.7601 8.50469 33.6278 7.11735C34.0492 6.4432 34.2475 5.96419 33.6473 5.26875C31.8872 3.93995 30.1908 2.51358 28.4183 1.20252C27.6374 0.624167 26.5307 -0.55738 25.5905 0.30483C24.9158 0.923989 25.0168 1.70459 25.6418 2.30069C26.5608 3.17531 28.3422 4.12623 29.1018 4.99021C29.1355 5.02924 29.2329 5.2173 29.2205 5.22617C17.0397 6.49997 6.5216 15.1895 2.64726 26.7654C-2.92342 43.4118 6.10371 61.7222 22.6564 67.2325C23.4461 67.4951 24.8574 67.999 25.6383 68.0593C26.9203 68.1586 27.5525 66.6365 26.7007 65.8381C26.3094 65.4726 24.4059 65.1054 23.7543 64.8907L23.756 64.8925Z" fill="#00A4CC"/>
</g>
</svg>
