<svg width="110" height="108" viewBox="0 0 110 108" fill="none" xmlns="http://www.w3.org/2000/svg">
<path d="M5.18401 2.59889C2.68796 17.4879 7.927 32.9644 20.2065 42.1708C20.4135 42.3341 20.6508 42.4852 20.8675 42.6375C22.3575 37.5923 25.4233 33.0607 30.4392 29.9002C40.0625 23.8429 59.8948 27.856 58.6757 42.1166C57.227 59.0233 33.7102 54.4097 24.0672 49.2881C23.9175 49.2145 23.7982 49.1286 23.6583 49.0441C23.035 55.8695 25.3644 62.6881 29.3651 68.3876C38.7892 81.8431 54.7735 88.4677 70.7787 89.0812C70.9245 89.0929 71.0606 89.1156 71.1871 89.1492C72.6662 84.0943 74.1769 79.0477 75.6463 74.0038C76.0307 72.6847 77.6871 71.8256 78.8226 72.9261C88.1612 81.9936 98.0426 90.2918 108.673 97.8079C110.201 98.884 108.975 101.001 107.487 101.228C94.9257 103.188 82.3782 105.2 69.823 107.087C68.9294 107.215 68.3342 106.806 68.0481 106.202C67.3334 106.039 66.6841 105.427 66.9012 104.584C67.9606 100.447 69.105 96.3449 70.2908 92.2407C53.249 92.624 35.9572 84.6299 26.1082 70.5064C21.4558 63.8216 18.9778 54.9399 19.9965 46.8051C5.40596 36.9234 -1.62868 19.3927 1.3241 1.84353C1.73883 -0.658603 5.60001 0.117395 5.18401 2.59889ZM70.4223 103.05C81.0711 101.333 91.7154 99.7091 102.379 98.0635C93.9655 91.8813 85.9876 85.2058 78.4718 77.9628C75.937 86.3782 73.3596 94.7755 70.4223 103.05ZM43.8061 50.2918C49.3032 49.8784 56.2239 45.688 54.4673 39.0826C53.1691 34.1896 47.4362 31.4677 42.9298 30.9804C34.1769 30.0207 27.2159 36.0683 24.6677 44.1012C24.5714 44.3869 24.5068 44.681 24.4202 44.9558C30.2502 48.4073 37.1652 50.8073 43.8061 50.2918Z" fill="#2CB7D9"/>
</svg>
