<svg width="95" height="105" viewBox="0 0 95 105" fill="none" xmlns="http://www.w3.org/2000/svg">
<path d="M9.31348 36.2393H85.686" stroke="#2CB7D9" stroke-width="4"/>
<rect x="10.3828" y="21.5127" width="74.2353" height="74.0532" rx="4" stroke="#2CB7D9" stroke-width="4"/>
<rect x="2" y="13.1504" width="91" height="89.8497" rx="11" stroke="#2CB7D9" stroke-width="4"/>
<path d="M22.3535 28.8054V0" stroke="#2CB7D9" stroke-width="4"/>
<path d="M34.4609 28.8054V0" stroke="#2CB7D9" stroke-width="4"/>
<path d="M47.5 28.8054V0" stroke="#2CB7D9" stroke-width="4"/>
<path d="M59.6074 28.8054V0" stroke="#2CB7D9" stroke-width="4"/>
<path d="M72.6475 28.8054V0" stroke="#2CB7D9" stroke-width="4"/>
<mask id="path-9-inside-1_48_859" fill="white">
<rect x="15.832" y="43.2305" width="19.5588" height="19.5133" rx="3"/>
</mask>
<rect x="15.832" y="43.2305" width="19.5588" height="19.5133" rx="3" stroke="#2CB7D9" stroke-width="8" mask="url(#path-9-inside-1_48_859)"/>
<mask id="path-10-inside-2_48_859" fill="white">
<rect x="15.832" y="69.6025" width="19.5588" height="19.5133" rx="3"/>
</mask>
<rect x="15.832" y="69.6025" width="19.5588" height="19.5133" rx="3" stroke="#2CB7D9" stroke-width="8" mask="url(#path-10-inside-2_48_859)"/>
<mask id="path-11-inside-3_48_859" fill="white">
<rect x="37.2539" y="43.2305" width="19.5588" height="19.5133" rx="3"/>
</mask>
<rect x="37.2539" y="43.2305" width="19.5588" height="19.5133" rx="3" stroke="#2CB7D9" stroke-width="8" mask="url(#path-11-inside-3_48_859)"/>
<mask id="path-12-inside-4_48_859" fill="white">
<rect x="37.2539" y="69.6025" width="19.5588" height="19.5133" rx="3"/>
</mask>
<rect x="37.2539" y="69.6025" width="19.5588" height="19.5133" rx="3" stroke="#2CB7D9" stroke-width="8" mask="url(#path-12-inside-4_48_859)"/>
<mask id="path-13-inside-5_48_859" fill="white">
<rect x="58.6758" y="43.2305" width="19.5588" height="19.5133" rx="3"/>
</mask>
<rect x="58.6758" y="43.2305" width="19.5588" height="19.5133" rx="3" stroke="#2CB7D9" stroke-width="8" mask="url(#path-13-inside-5_48_859)"/>
<mask id="path-14-inside-6_48_859" fill="white">
<rect x="58.6758" y="69.6025" width="19.5588" height="19.5133" rx="3"/>
</mask>
<rect x="58.6758" y="69.6025" width="19.5588" height="19.5133" rx="3" stroke="#2CB7D9" stroke-width="8" mask="url(#path-14-inside-6_48_859)"/>
</svg>
