<svg width="80" height="83" viewBox="0 0 80 83" fill="none" xmlns="http://www.w3.org/2000/svg">
<g clip-path="url(#clip0_69_27)">
<path d="M23.2405 72.8654L22.0793 80.3244C21.7593 83.1203 18.7373 83.0754 16.5215 82.9611C14.7674 82.8692 13.4934 82.6672 12.9169 80.8387C12.3076 78.9061 12.2091 76.0612 11.8357 73.9633C11.6203 72.7573 11.3741 71.541 11.0458 70.3655C10.8366 70.2043 10.2026 70.8328 9.9872 70.9491C3.53698 74.449 -2.92556 66.839 1.41152 61.1963C1.65977 60.8739 2.23216 60.4473 2.38398 60.1249C2.64248 59.5759 2.45578 58.6351 2.56452 57.9617C3.02613 55.1107 5.41419 52.7292 8.27617 52.2761C7.78584 50.0374 7.32423 47.7926 7.14984 45.4967C7.04931 44.1865 6.98366 42.7274 7.04111 41.4172C7.06572 40.854 7.16215 39.2907 7.30781 38.8275C7.46579 38.3193 8.10383 37.9173 8.62904 37.8989L40.0205 37.9826C40.6299 38.1805 40.9458 38.9826 40.9745 39.5826V76.6918C41.0299 77.5286 40.4144 78.5836 39.4912 78.5775C38.9332 78.5734 37.6653 78.3408 37.0539 78.2367C32.1445 77.402 27.436 75.4776 23.2405 72.8634V72.8654ZM38.1002 40.758H10.0693C9.9236 40.8478 9.9277 40.9621 9.91129 41.1091C9.72665 42.6702 9.94001 45.211 10.1349 46.8089C10.178 47.162 10.5227 49.4354 10.6355 49.5231L12.923 47.9783C17.6786 45.5763 23.6283 47.3844 26.1353 52.0476C29.7564 52.2986 32.6779 55.0107 32.9774 58.6474C33.0184 59.1474 32.8235 60.2269 32.92 60.5351C32.9979 60.78 33.9047 61.7902 34.1448 62.2759C36.4856 67.0145 32.7169 72.2695 27.4832 71.7532C27.3745 71.743 27.2124 71.6756 27.2411 71.843C30.06 73.3511 33.0943 74.5021 36.2353 75.1796C36.6559 75.2694 37.5135 75.4756 37.8951 75.4715C38.0141 75.4715 38.0284 75.4653 38.1043 75.3613V40.756L38.1002 40.758ZM22.2804 51.5986C19.045 48.568 13.6042 49.3884 11.37 53.1639C11.0889 53.6373 10.9843 54.2414 10.5658 54.6046C10.02 55.0781 9.23837 54.9005 8.55724 55.0536C6.87082 55.4311 5.59473 56.9025 5.34854 58.5903C5.22954 59.4106 5.51472 59.8494 5.24801 60.7331C4.79666 62.2289 3.73803 62.5289 3.21282 63.7024C1.70695 67.0656 5.46343 70.3185 8.67007 68.4165C9.76563 67.7655 10.0098 66.4043 11.2428 66.0839C12.7179 65.7003 13.1323 67.1982 13.4708 68.2574C14.3489 71.0042 14.7838 74.3409 15.2311 77.2102C15.2926 77.6041 15.4937 80.053 15.7214 80.1081L19.1394 80.053L19.2891 79.8959C19.8041 76.6592 20.1488 73.3838 20.9099 70.194C21.2279 68.8635 21.7757 65.486 23.7555 66.0839C24.7423 66.3819 25.2347 67.8574 26.283 68.4635C30.0293 70.6247 33.7755 66.086 31.1289 62.8289C30.7432 62.3534 30.0621 62.0289 29.9246 61.3759C29.7728 60.6514 30.0436 60.2678 30.1072 59.6678C30.3473 57.3658 28.7019 55.1801 26.3548 54.9393C25.4337 54.8434 24.8264 55.2658 24.1166 54.3108C23.46 53.4251 23.1872 52.4516 22.2804 51.6006V51.5986Z" fill="#16C5C1"/>
<path d="M74.2555 77.1654L70.8294 73.7757C70.5668 73.7226 69.8631 74.2634 69.5307 74.4124C66.8247 75.6205 64.3196 74.9022 61.9295 73.4185C60.9345 73.8063 60.0359 74.443 59.0737 74.9205C55.8158 76.5307 51.7023 77.9184 48.0792 78.3592C46.8052 78.5143 45.6399 78.7041 45.3711 77.1041L45.4244 50.3395C45.6091 49.8844 45.8183 49.5477 46.3169 49.3926H77.1319C77.852 49.6518 78.1351 50.2538 78.0612 50.9946C77.9874 51.7354 77.454 53.3394 77.1996 54.1129C76.0363 57.6352 74.196 60.9005 72.126 63.9596C72.0583 64.3392 72.4255 64.5514 72.5753 64.831C73.7016 66.937 73.796 69.3717 72.6409 71.4961L76.301 75.2042C76.6477 75.294 77.5094 74.0512 77.8766 73.8471C79.2019 73.1063 80.6791 74.6675 79.6656 76.0327C79.0419 76.8715 75.9584 79.9122 75.1049 80.5673C74.4074 81.102 73.837 81.2081 73.1538 80.5673C72.5958 80.0428 72.5671 79.3878 72.9671 78.747C73.1949 78.3796 74.4115 77.5164 74.2576 77.1695L74.2555 77.1654ZM74.6392 52.0721H48.4013L48.2474 52.2252V75.4144C51.9895 74.8981 55.5573 73.5287 58.9075 71.8451C59.0019 71.7043 56.4538 70.3594 56.2097 70.1961C52.4512 67.6615 51.5669 62.4351 54.1683 58.725C57.137 54.4884 63.0087 54.0455 66.7508 57.574C67.9305 58.6862 68.8557 60.4494 69.978 61.5004C70.0539 61.5719 70.099 61.6882 70.2324 61.6555C71.9413 59.0372 73.6955 56.0394 74.5592 53.0129C74.6228 52.7905 74.9059 52.1476 74.6412 52.0741L74.6392 52.0721ZM64.8962 59.7719C60.5098 55.4332 53.7826 60.0229 55.9143 65.4942C57.1083 68.5595 62.7091 70.1125 65.2901 71.9696C68.7183 73.1002 71.7423 69.7329 70.2713 66.5064C69.7584 65.382 65.9117 60.7739 64.8982 59.7719H64.8962Z" fill="#16C5C1"/>
<path d="M24.4693 7.22452C27.2246 6.80412 30.0558 6.83881 32.3146 8.6551C34.3005 8.11837 36.6107 7.37554 38.6664 7.22656C40.0717 7.12452 40.8431 7.37349 40.9744 8.90407V31.8464C40.8923 32.7627 40.4677 33.3769 39.489 33.4259H10.2702C9.58085 33.4218 8.90177 32.9137 8.8074 32.2219C8.73764 31.7035 9.47006 29.8791 9.70805 29.2913C10.0979 28.3301 10.6128 27.3118 11.0908 26.3873C11.3473 25.8914 12.5249 24.1057 12.5782 23.7813C12.6418 23.3935 12.0694 22.565 11.8971 22.1242C10.3789 18.2671 10.1635 10.8877 13.9815 8.26327C16.1439 6.77555 18.9074 6.83473 21.4001 7.28778C21.7673 5.48374 22.1017 3.77154 23.1973 2.23893C23.9749 1.14508 25.4356 0.1451 26.804 0.00836838C27.8832 -0.0997922 28.7058 0.857327 28.3961 1.90628C28.1047 2.89809 27.2513 2.75116 26.5127 3.09197C25.1443 3.7246 24.4816 5.82863 24.4672 7.22452H24.4693ZM30.5769 10.9387C29.3972 9.8367 27.6185 9.75303 26.0716 9.88772C25.0766 9.97343 23.7082 10.5979 22.8814 10.5959C22.3438 10.5959 21.5519 10.2408 20.9898 10.1244C17.6703 9.44283 14.8022 9.66936 14.0451 13.4182C13.2881 17.1671 13.8769 22.9894 17.976 24.7425C18.8253 25.1057 20.1794 25.3241 21.0595 24.9812C21.6853 24.7384 21.9561 24.0853 22.6721 24.0364C23.8969 23.9527 24.2539 25.1547 25.7495 25.171C28.8864 25.2037 31.0877 22.2568 31.7155 19.4752C32.1895 17.3753 32.2469 12.4999 30.5769 10.9387ZM38.1001 30.5648V10.3326C38.0242 10.2306 38.0119 10.2183 37.8888 10.2204C37.4928 10.2244 36.2762 10.5081 35.8208 10.6163C35.5479 10.6816 34.0256 11.0591 34.0113 11.2489C35.2833 15.0509 35.232 19.9385 33.1578 23.4629C31.4386 26.3832 28.0555 28.6056 24.5288 27.9036C24.0303 27.8036 23.1911 27.2975 22.8773 27.2975C22.5634 27.2975 21.7468 27.7934 21.3139 27.8893C19.4572 28.2995 17.5308 27.8281 15.9285 26.8751C15.4546 26.5914 15.073 26.2057 14.5806 25.973C13.7292 27.4322 12.8367 28.9383 12.371 30.5668H38.096L38.1001 30.5648Z" fill="#16C5C1"/>
<path d="M45.7158 44.397C45.5578 44.2235 45.3752 43.7093 45.3711 43.4644V8.49584C45.4203 7.96524 45.9599 7.35301 46.4749 7.24689C47.2196 7.09383 49.5564 7.58565 50.4201 7.76116C66.6256 11.0386 78.2356 25.173 78.9906 41.5236C79.0378 42.5562 79.2512 44.3541 78.0243 44.7398L46.7539 44.8419C46.4769 44.8521 45.8881 44.5909 45.7137 44.399L45.7158 44.397ZM48.2474 10.2815V41.9807H76.1245C75.9276 36.8115 74.6371 31.8259 72.2142 27.2668C67.4319 18.265 58.4377 11.7651 48.2454 10.2815H48.2474Z" fill="#16C5C1"/>
<path d="M53.1384 16.8281C55.0915 16.4689 56.5461 18.2607 55.6475 20.0362C54.5683 22.1667 51.1155 21.1116 51.534 18.4933C51.6325 17.877 52.5065 16.9444 53.1404 16.8281H53.1384Z" fill="#16C5C1"/>
<path d="M62.4281 35.4949C63.2159 34.7766 64.6295 34.7011 65.4193 35.4541C67.1878 37.1398 65.3496 40.1315 63.0702 39.1152C61.6464 38.4785 61.2607 36.5602 62.4281 35.4949Z" fill="#16C5C1"/>
<path d="M58.2653 24.8809C61.5807 24.2544 61.8905 29.2155 58.7536 29.2175C56.1624 29.2175 55.7788 25.3503 58.2653 24.8809Z" fill="#16C5C1"/>
<path d="M55.5921 33.9646C57.7463 36.3482 53.7457 39.2298 52.0962 36.6768C50.6314 34.4095 53.8462 32.034 55.5921 33.9646Z" fill="#16C5C1"/>
<path d="M69.4281 31.3459C67.239 33.4275 64.1021 29.8399 66.5435 28.0174C68.7531 26.3685 71.3668 29.5011 69.4281 31.3459Z" fill="#16C5C1"/>
</g>
<defs>
<clipPath id="clip0_69_27">
<rect width="80" height="83" fill="white"/>
</clipPath>
</defs>
</svg>
