<svg width="80" height="83" viewBox="0 0 80 83" fill="none" xmlns="http://www.w3.org/2000/svg">
<mask id="mask0_69_51" style="mask-type:alpha" maskUnits="userSpaceOnUse" x="0" y="0" width="80" height="83">
<rect width="80" height="83" fill="#D9D9D9"/>
</mask>
<g mask="url(#mask0_69_51)">
</g>
<g clip-path="url(#clip0_69_51)">
<path d="M66.723 60.3222C64.1126 60.1889 60.9371 60.1536 58.0146 60.2297C57.9662 53.6525 58.2407 40.2506 57.9016 35.1118C57.584 30.272 56.7794 29.9865 54.1583 26.3865C52.8154 24.5431 52.1158 22.0987 52.1184 19.8148H55.1459C55.1809 19.8148 55.7191 19.5755 55.7999 19.5238C56.4053 19.1405 56.5883 18.3764 56.6933 17.7076C56.4376 13.3327 57.0324 8.57178 56.6987 4.24316C56.6126 3.11206 56.1255 2.06797 54.8822 2H13.1569C12.2015 2.00544 11.5046 2.64712 11.3431 3.56613L11.4077 18.5994C11.5099 18.9311 12.4303 19.8148 12.7613 19.8148H15.9233C15.7161 22.2918 15.186 24.3609 13.7489 26.3865C11.849 29.0647 10.264 30.3862 10.0029 34.0214L10.0325 79.5345C10.2963 80.4372 11.0767 80.8586 11.954 80.9918H57.1669C57.2665 80.9837 57.3607 80.9701 57.4549 80.9483C60.4312 80.9728 64.7773 80.9946 67.2639 80.9946C80.4018 79.8118 80.2753 61.0073 66.7257 60.3167L66.723 60.3222ZM58.8435 77.1853H54.0668C53.5985 77.1853 52.1696 76.5681 51.7094 76.3043C46.9381 73.5799 47.5571 66.5269 52.619 64.5746C52.8827 64.4713 53.8703 64.1342 54.0668 64.1342H58.8435V77.1853ZM45.2535 63.7263H22.6483V37.2163H45.2535V63.7263ZM14.9787 16.0082V5.81201H52.9231V16.0082H14.9787ZM13.7758 68.1392C13.7624 66.3719 13.7758 64.629 13.7758 62.8508C13.7839 54.1011 13.835 45.3487 13.7758 36.599C13.7678 35.3347 13.6386 34.4375 13.9427 33.1079C14.4755 30.7859 16.6284 29.1082 17.7802 27.0609C18.9723 24.9455 19.5213 22.2347 19.5536 19.812H48.3482C48.4424 22.4386 49.0345 25.2147 50.3908 27.4687C52.1077 30.3209 54.0264 31.0931 54.274 34.9649C54.6023 40.131 54.0964 53.6471 54.2175 60.4146C52.2288 60.6321 50.4607 61.3391 49.0102 62.3967L49.021 35.2423C48.9833 34.4864 48.3482 33.8801 47.7131 33.5728L20.2183 33.6082C19.271 33.9861 18.9481 34.655 18.8728 35.6474V65.2952C18.9912 66.8368 19.594 67.3997 21.0983 67.5329C24.3195 67.3045 39.0505 67.7423 45.275 67.6172C44.5565 69.9582 44.6534 72.6419 45.8267 75.3119C46.155 76.0596 46.5398 76.6687 46.9758 77.1853H13.7678C13.6682 74.1563 13.7974 71.1981 13.7731 68.1392H13.7758ZM69.9711 76.3968C69.659 76.5599 68.0335 77.188 67.794 77.188H62.6137V64.1369H67.6595C68.5744 64.1369 70.2994 65.0396 71.0206 65.635C74.4975 68.5036 73.9808 74.3086 69.9711 76.3995V76.3968Z" fill="#FC8002"/>
</g>
<defs>
<clipPath id="clip0_69_51">
<rect width="67" height="79" fill="white" transform="translate(10 2)"/>
</clipPath>
</defs>
</svg>
