<svg width="96" height="105" viewBox="0 0 96 105" fill="none" xmlns="http://www.w3.org/2000/svg">
<mask id="mask0_48_897" style="mask-type:alpha" maskUnits="userSpaceOnUse" x="0" y="0" width="96" height="105">
<rect x="0.820312" width="95" height="105" fill="#D9D9D9"/>
</mask>
<g mask="url(#mask0_48_897)">
</g>
<g clip-path="url(#clip0_48_897)">
<path d="M48.559 9.83657C43.7068 15.1951 40.3154 20.6159 38.6879 27.7813C32.5652 54.7393 56.069 79.2565 83.5594 72.1082C86.6066 71.3154 89.5219 69.994 92.5627 69.2291C94.9823 69.3924 96.4973 71.7558 95.5234 74.0011C94.9239 75.3805 92.6795 78.3025 91.6883 79.6411C80.313 95.0226 64.6243 102.689 45.0941 100.686C11.4767 97.2399 -8.69419 61.2086 5.33235 30.7356C12.522 15.1199 29.4573 2.77856 47.1479 3.00201C49.297 3.02994 50.7947 4.67574 50.5415 6.80925C50.3965 8.03178 49.3447 8.96855 48.559 9.83657ZM43.6765 64.0404C33.4547 52.161 30.9874 35.6988 36.6405 21.1337C38.5515 16.207 41.4733 11.68 45.0378 7.7847L44.8798 7.53332C25.356 8.975 8.90337 24.7841 5.68945 43.7558C1.56871 68.0797 17.8915 92.0275 42.5229 96.1527C59.4214 98.9824 74.9261 93.1641 85.7994 80.2362C87.1975 78.5754 88.5025 76.7899 89.6972 74.9808C89.7232 74.8326 89.6929 74.7767 89.537 74.8218C89.2708 74.8992 88.8748 75.142 88.5631 75.2494C72.2057 80.9474 55.0237 77.2239 43.6786 64.0404H43.6765Z" fill="#2CB7D9"/>
<path d="M66.0577 40.8552C66.681 41.6179 66.549 41.9273 65.85 42.617C64.0796 44.3638 60.9912 44.2241 59.6126 46.5145C58.7339 47.9734 58.3227 50.1219 57.0977 51.3165C56.1519 52.2382 55.6044 52.0707 54.8426 51.0694C53.6955 49.5611 53.2518 46.8088 51.9078 45.6164C50.3409 44.2284 47.8369 43.9878 46.3284 42.5676C45.7094 41.9853 45.5687 41.6265 46.0687 40.9067C47.2071 39.2695 50.1483 38.9215 51.6828 37.6775C52.9986 36.6118 53.3081 34.7039 54.0418 33.2557C54.3145 32.7186 55.3014 31.2834 55.9009 31.2296C56.5999 31.1673 57.312 32.0633 57.6669 32.6004C59.1191 34.7898 58.8508 36.8202 61.4652 38.2748C62.9867 39.1213 64.9215 39.4672 66.0556 40.8552H66.0577ZM60.3896 41.7576C60.3939 41.6394 60.409 41.5427 60.3398 41.4331C60.277 41.3343 58.6625 40.4534 58.3443 40.1934C57.8011 39.7487 57.2536 39.0332 56.8597 38.4467C56.6627 38.1544 56.3229 37.1876 56.0113 37.1425C55.7667 37.1081 55.8857 37.2048 55.8381 37.2972C54.8339 39.2094 53.7756 40.6747 51.6308 41.4396C51.4707 41.6523 53.2713 42.5676 53.5051 42.7438C54.5872 43.5602 55.349 44.9009 56.0113 46.0525C56.2342 46.1063 56.4831 45.3349 56.6043 45.1394C57.5566 43.5903 58.6279 42.3828 60.3896 41.7576Z" fill="#2CB7D9"/>
<path d="M73.3009 28.5094C72.3183 27.7489 71.6214 25.4155 71.0414 24.2617C70.4311 23.0457 70.1346 22.6396 68.9334 21.9542C67.1652 20.9465 64.6871 20.6307 63.75 18.6282C64.7088 16.0671 68.4854 16.1638 70.1237 14.3354C71.1063 13.2396 71.4807 11.2737 72.2166 9.97169C75.1145 4.84523 76.5364 12.7777 78.0103 14.3376C79.1508 15.545 81.6376 16.1166 83.0681 17.0447C84.7606 18.1427 84.8407 18.9054 83.1742 20.0978C81.3995 21.3698 78.7137 21.5116 77.5428 23.5248C76.7009 24.9729 76.4607 26.7412 75.3071 28.069C74.6059 28.8768 74.2445 29.24 73.3009 28.5073V28.5094ZM75.9975 16.8191C75.7313 16.5506 75.2119 15.921 75.0041 15.6052C74.844 15.3646 74.3137 14.1721 74.2337 14.1163C74.1254 14.0389 74.0259 14.0647 73.9069 14.0668C73.3441 15.747 72.1625 17.0641 70.6973 18.0202C70.4376 18.1899 70.0718 18.2845 69.8294 18.4435C69.7255 18.5101 69.6346 18.4306 69.6909 18.6819C70.9786 19.1997 72.2707 20.2375 73.0909 21.3741C73.4307 21.8446 73.6363 22.4763 73.909 22.9017C74.1817 23.3271 74.5886 22.1819 74.7055 21.9972C75.7595 20.3449 76.8264 19.4533 78.5578 18.5208C77.6467 18.1491 76.6923 17.5174 76.0019 16.8191H75.9975Z" fill="#2CB7D9"/>
<path d="M85.016 40.2758C85.1935 40.2328 85.2887 40.2672 85.4467 40.3359C87.1954 41.1008 87.7603 45.0112 89.1476 46.4293C90.3899 47.6991 92.7121 48.1524 94.2033 49.1386C98.0253 51.6674 91.6624 53.2015 90.0501 54.1898C88.2061 55.3221 88.0828 57.4578 87.098 59.2024C84.1719 64.3869 82.802 56.6929 81.3692 55.0084C80.1399 53.5646 77.3589 53.1564 75.8136 51.936C75.2011 51.4526 74.554 50.8875 75.0929 50.0754C75.9673 48.7561 78.454 48.118 79.8369 47.3789C82.0185 46.2165 81.8216 45.2991 82.75 43.2924C83.1115 42.5103 84.1308 40.4906 85.016 40.2736V40.2758ZM89.4722 50.7715C89.5415 50.6705 89.4614 50.5008 89.3662 50.3998C89.2147 50.2408 88.1715 49.7509 87.862 49.5318C87.0504 48.9538 86.5007 48.277 85.9466 47.4627C85.7648 47.1963 85.2779 46.1285 85.0939 46.0554C84.91 45.9824 84.9489 46.1263 84.91 46.1908C84.239 47.3231 83.7716 48.3909 82.6981 49.2546C82.4038 49.4909 80.7438 50.3955 80.7156 50.5094C80.6788 50.6555 80.8044 50.6963 80.8931 50.7607C81.3974 51.1281 82.1159 51.3817 82.6526 51.8049C83.6201 52.5677 84.5226 53.9148 84.9338 55.0708C85.1264 55.1116 85.1459 55.0127 85.2389 54.8924C86.1631 53.6914 86.2864 52.5763 87.7754 51.6159C88.046 51.4418 89.4159 50.851 89.47 50.7736L89.4722 50.7715Z" fill="#2CB7D9"/>
</g>
<defs>
<clipPath id="clip0_48_897">
<rect width="95" height="98" fill="white" transform="translate(0.820312 3)"/>
</clipPath>
</defs>
</svg>
