<svg width="80" height="83" viewBox="0 0 80 83" fill="none" xmlns="http://www.w3.org/2000/svg">
<mask id="mask0_69_46" style="mask-type:alpha" maskUnits="userSpaceOnUse" x="0" y="0" width="80" height="83">
<rect width="80" height="83" fill="#D9D9D9"/>
</mask>
<g mask="url(#mask0_69_46)">
</g>
<g clip-path="url(#clip0_69_46)">
<path d="M38.3133 4.7807C37.1176 6.15107 35.717 8.41433 34.5927 10.2335C34.414 10.5224 34.2425 10.7993 34.0829 11.0572C32.8348 13.0602 31.6676 15.1611 30.5385 17.1928L30.0812 18.0165L14.5554 18.0857C13.6312 18.2934 13 19.0693 13 19.998C14.1505 26.7926 15.2819 33.7113 16.3753 40.4008C18.3428 52.4381 20.377 64.8836 22.6018 77.0713C22.9472 77.6061 23.2687 77.8496 23.7594 77.9451L57.0953 78C58.0552 77.8592 58.5054 77.3339 58.8079 76.0089C60.0942 67.1206 61.6877 58.1225 63.2289 49.4228C64.8129 40.4748 66.4517 31.2236 67.757 22.0918C67.7809 21.9294 67.8047 21.7671 67.8309 21.6047C68.1215 19.7139 68.2072 18.6085 66.5732 18.0857L50.9664 18.0165L50.8283 17.7944C48.5225 14.1131 46.4883 11.1694 44.4231 8.52654C44.2445 8.29735 44.042 8.03234 43.8253 7.74824C42.9916 6.6572 41.953 5.30115 41.2217 4.62074C40.7573 4.19101 40.2451 3.97853 39.7401 4.00002C39.2304 4.02628 38.7349 4.29605 38.3133 4.7807ZM55.335 74.3019L25.8127 74.2494L22.566 54.6058H58.4006L55.335 74.3043V74.3019ZM53.2913 22.4236L53.0459 21.7766H63.2051C63.3551 21.7766 63.5004 21.8387 63.6124 21.9485C63.8601 22.1992 63.8673 22.6194 63.8673 22.6647C63.8673 22.9847 63.7744 23.4693 63.6838 23.9372C63.6434 24.1449 63.6076 24.3407 63.5838 24.4959C62.8692 29.2158 62.0331 34.0001 61.2233 38.6245C60.5468 42.4921 59.8465 46.4911 59.2248 50.4279L59.1605 50.8314L22.0063 50.8457L17.2709 21.7742H28.2304L28.1256 22.3377C28.0303 22.8605 27.8755 23.3619 27.7254 23.8489C27.5611 24.3813 27.4086 24.8826 27.3252 25.4007C26.4225 31.1066 29.7501 37.0011 35.2334 39.4172C40.2666 41.6351 45.9023 40.6276 49.9398 36.7863C53.9249 32.9951 55.2087 27.4897 53.2936 22.4165L53.2913 22.4236ZM48.7131 21.8865C49.1204 22.0942 49.5944 23.3093 49.7802 23.8226C50.621 26.1527 50.6473 28.034 49.866 30.3164C48.856 33.272 46.3811 35.5567 43.244 36.4281C42.3508 36.6764 41.4456 36.7982 40.5524 36.7982C38.3276 36.7982 36.1791 36.0462 34.4903 34.6209C30.6029 31.3382 29.8192 26.5156 32.4417 22.0345L32.5799 21.7981L48.6107 21.8363L48.7107 21.8865H48.7131ZM39.4329 9.72501C39.5186 9.61281 39.7783 9.26663 40.2142 9.37645L40.3738 9.41704L40.4738 9.54835C40.7263 9.87781 40.9812 10.2073 41.236 10.5343C42.4604 12.1172 43.7276 13.7526 44.8852 15.4261C44.9734 15.5551 45.0877 15.7102 45.2068 15.8726C45.4879 16.257 45.7809 16.6557 45.9381 16.9517C45.9476 16.9708 45.9595 16.9899 45.969 17.009C46.0476 17.1403 46.1763 17.3623 46.0977 17.7061L46.0119 18.0762H34.5284L34.6927 17.4745C34.7975 17.0925 35.0119 16.7249 35.2025 16.4002C35.2406 16.3357 35.2787 16.2713 35.3144 16.2092L35.6265 15.6601C36.6245 13.8982 38.2967 10.9474 39.3995 9.76321C39.4091 9.75366 39.4186 9.73934 39.4281 9.72501H39.4329Z" fill="#2CB7D9"/>
</g>
<defs>
<clipPath id="clip0_69_46">
<rect width="55" height="74" fill="white" transform="translate(13 4)"/>
</clipPath>
</defs>
</svg>
