<svg width="93" height="97" viewBox="0 0 93 97" fill="none" xmlns="http://www.w3.org/2000/svg">
<mask id="mask0_48_717" style="mask-type:alpha" maskUnits="userSpaceOnUse" x="0" y="0" width="93" height="97">
<rect width="93" height="97" fill="#D9D9D9"/>
</mask>
<g mask="url(#mask0_48_717)">
<path d="M73.4375 49.5103C83.9174 49.5103 92.5 58.0615 92.5 68.5103C92.5 78.959 83.9174 87.5103 73.4375 87.5103H20.5625C10.0826 87.5103 1.5 78.959 1.5 68.5103C1.5 58.0615 10.0826 49.5103 20.5625 49.5103H73.4375ZM20.5625 52.5923C11.7551 52.5923 4.50879 59.7398 4.50879 68.5903C4.50879 77.4425 11.6763 84.5884 20.5625 84.5884H73.4375C82.2449 84.5884 89.4912 77.4409 89.4912 68.5903C89.4912 59.7382 82.3237 52.5923 73.4375 52.5923H20.5625Z" fill="#FC8002" stroke="#FC8002"/>
<path d="M47 49.5103C47.8324 49.5103 48.5 50.2319 48.5 51.0493V85.9712C48.5 86.7886 47.8324 87.5103 47 87.5103C46.1676 87.5103 45.5 86.7886 45.5 85.9712V51.0493C45.5 50.2319 46.1676 49.5103 47 49.5103Z" fill="#FC8002" stroke="#FC8002"/>
<path d="M10.0498 67.5103C10.8911 67.5103 11.5996 68.2187 11.5996 69.0601C11.5997 74.1938 15.8165 78.4106 20.9502 78.4106C21.7915 78.4106 22.4999 79.1191 22.5 79.9604C22.5 80.8018 21.7916 81.5103 20.9502 81.5103H20.7432L20.6592 81.4263C13.9392 81.3134 8.50006 75.8062 8.5 69.0601C8.5 68.2187 9.20844 67.5103 10.0498 67.5103Z" fill="#FC8002" stroke="#FC8002"/>
<path d="M9.22266 11.2378C16.772 3.59889 29.1542 3.60294 36.7793 11.2397C44.4047 18.8772 44.4071 31.2786 36.7783 38.8394L36.7793 38.8403C33.0041 42.6215 27.9999 44.5103 23 44.5103C18.0001 44.5103 12.9959 42.6215 9.2207 38.8403C1.5947 31.2023 1.59198 18.7983 9.22266 11.2378ZM22.5 8.49951C18.474 8.62404 14.4186 10.2499 11.3662 13.3071C4.92829 19.7553 4.92845 30.2446 11.3662 36.6929C17.8051 43.1419 28.2757 43.1396 34.6318 36.6958L34.6338 36.6929C41.0728 30.2434 41.0697 19.7556 34.6357 13.3892L34.6338 13.3872C31.455 10.2034 27.1884 8.57178 23 8.57178H22.5V8.49951Z" fill="#FC8002" stroke="#FC8002"/>
<path d="M10.54 10.7339C10.7085 10.7665 10.8504 10.8527 10.9619 10.9673L36.1816 36.8696L36.2549 36.9448L36.292 37.0435V37.0444L36.293 37.0454C36.2933 37.0464 36.2934 37.0479 36.2939 37.0493C36.2951 37.0525 36.297 37.0569 36.2988 37.062C36.3025 37.0723 36.3075 37.0865 36.3135 37.104C36.3254 37.1394 36.3417 37.1893 36.3594 37.2495C36.3943 37.3687 36.4377 37.5358 36.4668 37.7212C36.4954 37.9032 36.5133 38.1234 36.4873 38.3423C36.4617 38.5579 36.3865 38.8233 36.1816 39.0337C36.0518 39.1669 35.8803 39.2806 35.7109 39.3608C35.5447 39.4396 35.3301 39.5102 35.1104 39.5103H35.0674L35.0254 39.5034L35.0234 39.5024H35.0205C35.0186 39.5021 35.0163 39.502 35.0137 39.5015C35.0078 39.5004 34.9995 39.4984 34.9902 39.4966C34.9718 39.4929 34.947 39.4871 34.917 39.48C34.8569 39.4657 34.7735 39.4444 34.6807 39.4126C34.5104 39.3543 34.2406 39.2416 34.0381 39.0337L8.90234 13.2153C8.82784 13.182 8.71724 13.1202 8.62891 13.0034C8.50182 12.8351 8.46892 12.6224 8.5293 12.4185C8.58102 12.2438 8.69423 12.0948 8.81836 11.9673C8.9009 11.8825 8.99831 11.7633 9.12793 11.6089C9.24881 11.4649 9.39269 11.2967 9.54199 11.1519C9.68225 11.0158 9.87511 10.8523 10.1025 10.772C10.2247 10.7289 10.3761 10.7022 10.54 10.7339Z" fill="#FC8002" stroke="#FC8002"/>
<path d="M62.626 10.9077C70.2341 9.08984 77.9882 13.6661 80.0107 21.27C82.0646 28.9927 77.4649 36.9624 69.7402 39.0171C68.507 39.346 67.194 39.5103 65.9619 39.5103C63.415 39.5102 60.9471 38.8524 58.7266 37.5366V37.5356C55.3631 35.566 52.9793 32.4446 51.9932 28.7466C51.0075 25.0502 51.5001 21.1046 53.4727 17.7349C55.4423 14.3703 58.5649 11.9858 62.2637 10.9995L62.626 10.9077ZM65.9619 13.5688C64.9828 13.5689 63.9933 13.7196 62.9863 13.9517C60.0251 14.7127 57.5219 16.6107 56.0039 19.2671C54.5748 21.7681 54.0877 24.6623 54.7197 27.4507L54.8613 28.0063L54.8643 28.0181L55.0195 28.5659C55.8624 31.2761 57.6854 33.5082 60.1904 35.0112H60.1895C62.8551 36.5316 65.9663 36.9819 68.9199 36.1489L68.9238 36.1479C75.0071 34.4748 78.6564 28.1615 77.0605 22.0815V22.0806C75.6913 16.99 71.0542 13.5688 65.9619 13.5688Z" fill="#FC8002" stroke="#FC8002"/>
<path d="M78.8408 20.5161C78.9044 20.5089 79.0274 20.4993 79.1572 20.5444C79.231 20.5701 79.3143 20.6162 79.3857 20.6938C79.4578 20.7722 79.4967 20.8603 79.5156 20.938C79.5483 21.0718 79.5248 21.1899 79.5166 21.23C79.4743 21.4355 79.4407 21.4782 79.4482 21.5776C79.4718 21.6355 79.5096 21.7093 79.5693 21.8022C79.6229 21.8856 79.7344 22.0452 79.7969 22.1519C79.8331 22.2137 79.8762 22.2941 79.9062 22.3833C79.935 22.4689 79.9678 22.6092 79.9307 22.769C79.8458 23.1328 79.5223 23.2361 79.333 23.269L79.334 23.271L53.5273 29.3911V29.5103H53.0273C52.95 29.5103 52.8526 29.5055 52.7568 29.479C52.6672 29.4542 52.4782 29.3813 52.3799 29.1704C52.2856 28.9678 52.3455 28.7853 52.3711 28.7192C52.4 28.6448 52.4403 28.581 52.46 28.5503C52.4958 28.4945 52.5132 28.4637 52.5273 28.4409V28.438H52.5293C52.5302 28.4366 52.5314 28.4355 52.5322 28.4341C52.5081 28.3846 52.4753 28.325 52.4297 28.2534C52.3724 28.1634 52.2649 28.0071 52.1982 27.8882C52.1611 27.8218 52.1187 27.738 52.0898 27.645C52.0613 27.553 52.0364 27.4206 52.0664 27.272C52.1394 26.9117 52.4478 26.7686 52.6592 26.7153L52.666 26.7144L78.6104 20.561V20.562C78.6885 20.5425 78.7669 20.5245 78.8408 20.5161Z" fill="#FC8002" stroke="#FC8002"/>
</g>
</svg>
