<svg width="83" height="84" viewBox="0 0 83 84" fill="none" xmlns="http://www.w3.org/2000/svg">
<ellipse cx="41.5" cy="42" rx="41.5" ry="42" fill="#FC8002"/>
<path d="M46.4264 34.5279C49.4184 34.5279 52.1142 34.5205 54.8174 34.5279C57.5576 34.5427 58.9129 35.7355 58.7574 38.4469C58.6463 40.3656 58.3056 42.3436 57.6613 44.1512C56.543 47.2774 55.0766 50.2777 53.8027 53.3521C53.0695 55.1153 51.7957 55.8931 49.922 55.8783C45.9153 55.8487 41.9013 55.8931 37.8946 55.8635C35.3766 55.8413 34.1768 54.6115 34.1694 52.0927C34.1546 46.8477 34.0954 41.6027 34.2213 36.3577C34.2435 35.3058 34.7545 34.0316 35.4729 33.2611C38.1168 30.4164 40.9385 27.742 43.6861 24.9862C44.6933 23.9787 45.8042 23.4675 47.1595 24.2602C48.4556 25.0232 48.463 26.1789 48.1297 27.4901C47.5447 29.7348 47.0411 32.0017 46.4412 34.5279H46.4264Z" fill="white"/>
<path d="M24.1711 45.025C24.1711 42.7433 24.1488 40.469 24.1711 38.1872C24.2007 36.0092 25.4079 34.6091 27.2594 34.535C29.1923 34.4609 30.5773 35.8759 30.5995 38.128C30.6439 42.81 30.6439 47.4845 30.5995 52.1665C30.5773 54.3815 29.1627 55.9002 27.3112 55.8558C25.4523 55.8039 24.1859 54.2926 24.1637 52.0406C24.1414 49.6996 24.1637 47.3586 24.1637 45.0176L24.1711 45.025Z" fill="white"/>
</svg>
