<svg width="186" height="51" viewBox="0 0 186 51" fill="none" xmlns="http://www.w3.org/2000/svg">
<path d="M0 0.215355H9.07318V39.6982H0V0.215355Z" fill="#28A8D0"/>
<path d="M29.7878 12.9549H39.1303L29.6428 39.7187H20.5282L11.02 12.9549H20.3625L25.0855 28.3048L29.8085 12.9549H29.7878Z" fill="#28A8D0"/>
<path d="M47.0438 29.5893C47.8931 31.7644 49.7782 32.8623 52.7404 32.8623C54.584 32.8623 56.0962 32.2202 57.3599 30.9773L63.4501 35.4724C60.9435 38.7868 57.2977 40.444 52.5333 40.444C48.2452 40.444 44.7858 39.1183 42.1965 36.446C39.6071 33.7738 38.3228 30.4179 38.3228 26.3578C38.3228 22.2977 39.5864 18.9625 42.1136 16.2489C44.6615 13.5352 47.8724 12.1887 51.8082 12.1887C55.7441 12.1887 58.727 13.5145 61.1921 16.2074C63.6572 18.9004 64.9001 22.2355 64.9001 26.2749C64.9001 27.4557 64.7758 28.5743 64.548 29.5893H47.0438ZM46.9402 23.437H56.697C56.0341 20.9512 54.439 19.6876 51.9325 19.6876C49.426 19.6876 47.6652 20.9305 46.9402 23.437Z" fill="#28A8D0"/>
<path d="M76.0661 17.9265C76.5425 16.1864 77.4954 14.8192 78.904 13.8663C80.3334 12.9134 81.9284 12.4163 83.6685 12.4163V22.2766C81.742 21.9452 79.9812 22.318 78.4276 23.3952C76.8532 24.4724 76.0868 26.2125 76.0868 28.6361V39.7187H67.6558V12.9549H76.0868V17.9265H76.0661Z" fill="#28A8D0"/>
<path d="M102.602 12.9549H111.944L103.265 39.3044C101.897 43.3439 100.012 46.244 97.5266 48.0255C95.0615 49.807 91.8507 50.5941 87.9355 50.4284V42.0802C89.717 42.0802 91.0842 41.8317 91.9957 41.3759C92.9071 40.9202 93.6529 40.0709 94.2329 38.8694L84.0825 12.9549H93.5286L98.6659 28.4912L102.643 12.9549H102.622H102.602Z" fill="#28A8D0"/>
<path d="M40.9951 0.256798H41.2023C46.8575 0.256798 51.4355 4.91768 51.4355 10.6143V10.8422H51.2283C45.5731 10.8422 40.9951 6.18129 40.9951 0.484663V0.256798Z" fill="#28A8D0"/>
<path d="M52.9674 10.8215H52.7603V10.5936C52.7603 4.89696 57.359 0.256798 62.9728 0.256798H63.1799V0.484663C63.1799 6.20201 58.6019 10.8422 52.9467 10.8422L52.9674 10.8215Z" fill="#28A8D0"/>
<path d="M118.904 39.6566V0.650234H121.535V39.6773H118.904V39.6566Z" fill="#1A1C3F"/>
<path d="M150.308 12.9553H153.001V39.6984H150.308V33.6496C148.05 37.7512 143.969 40.2991 138.956 40.2991C135.207 40.2991 131.996 38.9734 129.303 36.2804C126.61 33.5461 125.284 30.2316 125.284 26.3372C125.284 22.4428 126.61 19.1284 129.303 16.4354C131.996 13.7011 135.207 12.3753 138.956 12.3753C143.99 12.3753 148.029 14.8818 150.308 19.0248V12.976V12.9553ZM139.163 37.6891C142.27 37.6891 144.922 36.5704 147.076 34.3747C149.231 32.1996 150.287 29.4652 150.287 26.2958C150.287 23.1264 149.231 20.4127 147.076 18.2169C144.922 16.0419 142.27 14.9025 139.163 14.9025C136.056 14.9025 133.363 16.0211 131.188 18.2169C129.034 20.392 127.977 23.1264 127.977 26.2958C127.977 29.4652 129.034 32.1789 131.188 34.3747C133.342 36.5497 136.035 37.6891 139.163 37.6891Z" fill="#1A1C3F"/>
<path d="M181.982 16.4144C184.674 19.0867 186 22.4011 186 26.3162C186 30.2313 184.695 33.525 181.982 36.2594C179.351 38.9317 176.119 40.2781 172.328 40.2781C167.295 40.2781 163.131 37.7302 160.977 33.4836V39.6774H158.346V2.24536H160.977V19.1281C163.131 14.9022 167.315 12.3336 172.328 12.3336C176.119 12.3336 179.33 13.6593 181.982 16.3937V16.4144ZM172.163 37.6888C175.27 37.6888 177.921 36.5701 180.076 34.3744C182.23 32.1993 183.349 29.4649 183.349 26.2955C183.349 23.1261 182.251 20.4124 180.076 18.2166C177.901 16.0208 175.27 14.9022 172.163 14.9022C169.055 14.9022 166.362 16.0208 164.187 18.2166C162.033 20.3917 160.977 23.1261 160.977 26.2955C160.977 29.4649 162.033 32.1786 164.187 34.3744C166.342 36.5701 169.035 37.6888 172.163 37.6888Z" fill="#1A1C3F"/>
</svg>
