<svg width="80" height="83" viewBox="0 0 80 83" fill="none" xmlns="http://www.w3.org/2000/svg">
<mask id="mask0_211_958" style="mask-type:alpha" maskUnits="userSpaceOnUse" x="0" y="0" width="80" height="83">
<rect width="80" height="83" fill="#D9D9D9"/>
</mask>
<g mask="url(#mask0_211_958)">
<path d="M40.3388 57.0091C37.5241 59.4395 34.4284 62.002 31.7483 64.5525C30.9803 65.2852 30.5052 65.7657 30.3192 66.8748C29.9629 69.0049 29.9866 71.6114 29.8006 73.8016C29.6581 75.4792 29.5868 78.9706 28.9019 80.344C26.6534 84.8724 19.8126 83.2749 19.8007 78.0858C19.7968 75.6714 19.9987 73.217 20.066 70.8107C20.1729 66.9989 19.6464 63.8839 21.9741 60.5806C23.2647 58.7508 25.2243 57.1573 26.495 55.3915C26.5544 55.3075 26.6811 55.1593 26.6573 55.0592C24.3335 53.5137 21.9583 52.0322 19.5791 50.5708C19.2703 50.3826 18.9021 50.2785 18.6092 50.0944C16.5506 48.8171 15.739 46.0504 16.895 43.8803C19.8403 40.1926 22.7421 36.2688 25.822 32.6933C28.0666 30.0867 30.624 29.0898 33.0587 26.9957C36.3048 24.197 35.8852 19.0639 36.9976 15.2162C37.0293 14.6556 36.7561 14.031 36.3128 13.6827L26.1308 7.19231C22.5323 4.2134 25.6478 -1.43614 30.1173 0.337599C34.3017 2.67589 38.6801 4.69787 42.8328 7.08821C45.5208 8.63373 47.1321 10.4715 47.33 13.7587C46.9104 19.096 45.5881 24.4813 45.0537 29.7865C45.0062 30.2709 44.9508 30.7194 45.0854 31.1878L66.439 76.224C67.872 81.5051 61.1105 84.9245 57.892 80.332L42.5914 55.896C41.9065 55.2514 40.8693 56.5487 40.3388 57.0051V57.0091ZM43.3237 10.6637C42.9833 10.3194 42.4488 10.0551 42.0569 9.76283L28.9613 2.792C27.5956 2.41564 26.6613 3.96115 27.742 4.96613C30.8853 7.16829 34.4244 9.03012 37.536 11.2483C38.977 12.2773 39.7054 13.4625 39.7173 15.3043C38.7197 19.108 38.7949 24.0128 36.483 27.28C34.4719 30.1188 31.012 31.2839 28.5773 33.6743C25.8497 37.3899 22.5323 40.7092 19.8166 44.4248C19.1753 45.3017 18.815 45.8982 19.3178 46.9833C19.6384 47.672 20.8498 48.1324 21.503 48.5408C23.807 49.9742 26.0952 51.4357 28.3952 52.8811L28.704 52.9051L30.5686 50.763C29.1276 49.706 27.4649 48.9372 25.9725 47.9643C24.48 46.9913 23.7912 45.7821 24.8521 44.0404C26.4871 42.571 27.9756 40.8973 29.6383 39.4599C30.6676 38.5671 31.5029 38.1466 32.35 39.548C33.6762 41.7422 34.6224 44.4809 35.9248 46.7271C36.2811 47.8001 36.0554 48.4808 35.4339 49.3496C33.8662 51.5438 31.4039 53.8901 29.5987 55.9521C28.0429 57.7298 26.2812 59.5676 24.8165 61.3934C22.3858 64.4284 22.9005 66.2181 22.7857 69.8737C22.7144 72.0759 22.6471 74.258 22.6154 76.4682C22.6036 77.321 22.3502 78.0978 22.6827 78.9626C23.5101 81.1248 26.5227 80.5482 26.7603 78.1779C27.0374 75.3991 27.1957 72.5724 27.4372 69.7856C27.647 67.3673 27.3976 65.1972 29.1632 63.2633C32.7578 60.3564 36.0792 56.853 39.6777 53.9862C41.2414 52.7409 42.8091 52.5768 44.4203 53.8941C49.9745 62.2302 55.014 70.9628 60.5681 79.2789C62.4564 80.7244 64.6654 78.6984 63.6955 76.6243L42.5557 32.1408L42.342 31.2439C42.722 25.282 44.1788 19.3963 44.6182 13.4384C44.5351 12.5135 43.9769 11.3284 43.3277 10.6757L43.3237 10.6637ZM30.7309 42.3307C30.6398 42.3067 30.5646 42.3267 30.4815 42.3708C30.3746 42.4268 29.567 43.2236 29.381 43.3958C28.9217 43.8202 27.6431 44.9333 27.3462 45.3657C27.2986 45.4378 27.2313 45.4538 27.263 45.5819C28.0033 45.8462 32.0096 48.6329 32.4332 48.5488C32.5242 48.5288 33.3476 47.668 33.2566 47.4478L30.7309 42.3307Z" fill="#2C94D9"/>
<path d="M25.304 11.769C30.5731 11.6889 34.6309 16.6578 33.5976 21.8789C32.3427 28.2051 24.8329 30.8517 19.9834 26.6116C14.1997 21.5506 17.6478 11.8811 25.304 11.769ZM21.3848 24.2012C23.9422 26.8878 28.4116 26.3913 30.2683 23.1402C32.7109 18.868 29.2272 13.795 24.4489 14.5958C19.9834 15.3445 18.2416 20.906 21.3848 24.2012Z" fill="#2C94D9"/>
</g>
</svg>
