<svg width="66" height="74" viewBox="0 0 66 74" fill="none" xmlns="http://www.w3.org/2000/svg">
<mask id="mask0_48_238" style="mask-type:alpha" maskUnits="userSpaceOnUse" x="0" y="0" width="66" height="74">
<rect width="66" height="74" fill="#D9D9D9"/>
</mask>
<g mask="url(#mask0_48_238)">
<path d="M64.7527 11.6453C64.2417 9.7889 62.9441 7.30518 60.7888 4.04871C60.7103 3.93053 60.6209 3.79234 60.5205 3.63961C59.8672 2.64321 58.7758 0.974068 58.1498 0.401322C57.8268 0.104948 57.4417 -0.0332378 57.0366 0.00676347C56.5931 0.048583 56.1661 0.306773 55.8649 0.714059L53.268 4.42327C53.1767 4.52327 52.9924 4.50327 52.8281 4.48691L52.788 4.48327C52.3609 4.43963 51.8645 4.32145 51.3846 4.20872C51.0287 4.12508 50.6619 4.0378 50.3279 3.98144C45.5391 3.18868 40.6882 2.92322 36.9999 2.7814C30.5448 2.5323 24.0989 2.79776 17.8446 3.5687C15.1637 3.89962 8.04254 4.77783 5.70289 7.23791C4.79951 8.18339 4.96194 9.15979 5.13531 10.1944C5.17546 10.438 5.21744 10.6889 5.24846 10.9453C6.07702 18.1346 7.02237 25.4221 7.93487 32.4696C8.35827 35.7352 8.79627 39.1135 9.21602 42.4372C9.5792 45.3082 9.93507 48.2338 10.2782 51.063C10.9334 56.4595 11.6123 62.0397 12.3751 67.5017C12.4025 67.6962 12.4189 67.9017 12.4353 68.1199C12.5083 69.0526 12.5886 70.1109 13.6873 70.4127C14.5943 70.6618 15.9594 70.8527 17.0562 71.0072C17.2424 71.0327 17.4176 71.0582 17.5837 71.0818C21.845 71.6964 26.4514 72 31.5486 72C33.4265 72 35.3738 71.9582 37.3923 71.8764C41.5222 71.7073 46.6615 71.4982 50.8462 70.5327C51.693 70.3363 52.3628 70.1818 52.5562 69.1363C52.8464 67.5653 53.0198 65.8543 53.1858 64.1979C53.2807 63.2634 53.3775 62.2961 53.4943 61.3833L57.9016 26.844C57.9947 26.1167 58.0714 25.373 58.148 24.653C58.2539 23.6493 58.3615 22.6111 58.5112 21.602C58.5404 21.4111 58.5769 21.2129 58.6809 21.0547C60.7651 20.6765 62.6321 19.3983 63.8074 17.5437C64.9462 15.7491 65.2893 13.5999 64.7509 11.6453H64.7527ZM61.8199 15.6127C61.1319 17.0582 59.8215 18.0873 58.2265 18.4346C56.6424 18.7801 55.0346 18.3928 53.8136 17.3728C52.5179 16.2891 51.8116 14.58 51.9704 12.909C52.1748 10.7707 55.5018 5.79422 56.6497 4.21963L56.6844 4.17054C56.9727 3.7687 57.1059 3.62506 57.1589 3.57597C58.6499 5.69604 60.1847 7.88702 61.3107 10.2307C62.1849 12.049 62.7762 13.5999 61.8181 15.6127H61.8199ZM14.9356 66.2253C14.8973 65.9271 14.8407 65.6053 14.7805 65.2634C14.6655 64.5961 14.545 63.9052 14.5414 63.3252C14.5414 63.267 14.5414 63.2143 14.556 63.1688L14.6345 63.1306L18.3812 63.7125C28.9461 64.9543 39.2757 64.8434 49.0814 63.3834C49.2694 63.3561 49.4574 63.3143 49.6399 63.2761C49.9428 63.2106 50.2567 63.1434 50.5706 63.1343C50.6071 63.2924 50.4994 63.887 50.4575 64.1198C50.4356 64.2379 50.4191 64.3343 50.4118 64.3852C50.3772 64.6779 50.3516 64.978 50.3261 65.2689C50.2914 65.6653 50.2549 66.0762 50.1983 66.4707C50.1764 66.6271 50.1472 66.7817 50.1198 66.938C50.0687 67.2235 50.014 67.5199 49.9976 67.8199L49.9063 67.9017L47.01 68.3999C38.407 69.5436 29.1359 69.6127 19.4543 68.6035L15.171 67.9053L15.1309 67.8708C15.0341 67.529 15.0104 67.1653 14.9867 66.8126C14.9739 66.618 14.9611 66.4162 14.9356 66.2235V66.2253ZM45.5482 61.1033C45.4204 61.1269 45.2909 61.1524 45.1613 61.1669C35.6585 62.2506 25.8765 62.096 16.8701 60.7215C16.6292 60.6851 16.3883 60.6524 16.1474 60.6196C15.5032 60.5342 14.837 60.4451 14.2001 60.2669C14.1381 60.1978 14.0997 60.1196 14.0851 60.0287C13.9118 59.0123 13.8059 57.9177 13.7037 56.8577C13.6362 56.1686 13.5687 55.4577 13.4811 54.7813C13.1964 52.5448 12.8916 50.2684 12.5996 48.0683C11.9572 43.2482 11.2929 38.2644 10.7746 33.346C10.7618 33.2169 10.7326 33.0915 10.7071 32.9678C10.6541 32.726 10.6049 32.4951 10.6523 32.2478C10.6633 32.1878 10.7874 32.0387 11.3075 31.6769L11.344 31.6514C13.8789 29.8859 17.3409 28.7513 20.3832 28.6895C22.628 28.6441 24.9567 28.915 27.1193 29.475C29.3914 30.0623 31.5559 31.0459 33.6473 31.9969C35.872 33.0078 38.1715 34.0533 40.6207 34.6352C45.3821 35.7679 49.0303 35.5061 53.7242 34.6697C53.925 34.6333 54.0564 34.6224 54.1221 34.6242L50.8754 60.2996L46.4206 61.0287C46.1085 60.9906 45.8219 61.0451 45.5464 61.0978L45.5482 61.1033ZM36.8685 30.5023C36.5309 30.3605 36.1914 30.1987 35.8647 30.0441C35.4213 29.8332 34.9632 29.6168 34.4978 29.4404L34.5325 29.2768C34.8993 29.1604 35.2588 29.0095 35.6074 28.8641C35.8465 28.7641 36.0929 28.6604 36.3374 28.5695C41.6463 26.6113 47.6378 26.1749 53.6622 27.3058L53.768 27.3258C54.7827 27.5077 55.0273 27.6113 55.0747 27.6495L54.4779 31.7387C54.2918 31.7878 54.1075 31.8387 53.9213 31.8896C53.3829 32.0369 52.8281 32.1878 52.277 32.2914C47.2345 33.2406 41.9073 32.6224 36.8703 30.5023H36.8685ZM31.1161 27.9622C23.3014 25.0003 15.7258 25.4458 10.3256 29.1859L10.2453 29.2004L8.163 12.2781C8.40937 12.3653 8.65575 12.4544 8.90212 12.5435C9.60292 12.7981 10.3274 13.0617 11.0648 13.2526C13.6161 13.9163 16.2441 14.2618 18.7024 14.5345C28.1085 15.5818 37.8138 15.5782 46.7673 14.5254C47.1451 14.4818 47.5302 14.4181 47.9025 14.3563C48.3478 14.2836 48.8058 14.2072 49.2584 14.1636C49.3387 14.2581 49.4117 14.7818 49.4446 15.0091C49.4647 15.1582 49.4829 15.2764 49.4993 15.3382C49.8041 16.48 50.4118 17.5873 51.2605 18.5401C52.1967 19.5929 53.3738 20.3929 54.5728 20.7965C54.6568 20.8238 54.7973 20.8583 54.9579 20.8965C55.2171 20.9584 55.7427 21.0838 55.8467 21.1765L55.3266 24.9167C53.622 24.5457 51.6182 24.153 49.6088 24.0203C43.1538 23.593 36.7608 24.9567 31.1161 27.9622ZM28.3056 5.41421C33.2823 5.23602 42.8691 5.18693 51.1528 6.85608C51.6218 6.95062 51.6583 7.04154 51.6583 7.0379C51.6419 7.11972 51.3736 7.56701 51.213 7.83247C51.1072 8.00702 51.0177 8.15794 50.9812 8.22885C50.7093 8.75796 50.4648 9.26888 50.2531 9.74526C50.1801 9.90708 50.1034 10.138 50.0213 10.3835C49.9027 10.7344 49.7694 11.1308 49.6545 11.2962C49.5997 11.3744 49.5267 11.4253 49.4355 11.4471C48.773 11.5999 47.8459 11.7126 47.1013 11.8035L46.6852 11.8544C38.0328 12.9363 27.8639 12.9363 18.7882 11.8544C15.8499 11.5053 11.4097 10.9762 8.6886 9.65798C8.08634 9.36707 7.72864 9.05978 7.77062 8.95614C7.88012 8.69432 9.13207 8.14339 9.74527 7.93247C15.1582 6.07423 22.9309 5.60513 28.3056 5.41239V5.41421Z" fill="#00A4CC"/>
</g>
</svg>
