<svg width="66" height="74" viewBox="0 0 66 74" fill="none" xmlns="http://www.w3.org/2000/svg">
<mask id="mask0_48_221" style="mask-type:alpha" maskUnits="userSpaceOnUse" x="0" y="0" width="66" height="74">
<rect width="66" height="74" fill="#D9D9D9"/>
</mask>
<g mask="url(#mask0_48_221)">
<path d="M60.5557 42.0884C59.9307 39.6664 58.9758 37.4458 58.0521 35.2998C57.2725 33.4872 56.4669 31.6138 55.8679 29.638C53.6056 22.1601 53.3261 14.005 55.0328 5.40208C55.0606 5.26145 55.1144 5.07567 55.1752 4.86038C55.4304 3.96796 55.8176 2.61892 54.9391 2.18313C54.5397 1.9852 54.1855 1.947 53.8852 2.07201C53.4251 2.26473 53.2011 2.78386 53.0414 3.26653C51.991 6.45596 51.4996 10.7357 51.5812 15.9861C51.7114 24.4883 53.3174 31.6728 56.3541 37.3433C55.5797 37.6524 54.7133 37.9614 53.6473 38.3069C47.067 40.439 40.3183 41.5189 33.5888 41.5189C26.8592 41.5189 20.1105 40.439 13.5319 38.3069C13.341 38.2444 13.117 38.1767 12.8774 38.1038C12.1985 37.8972 11.353 37.6385 10.8773 37.4023C10.8651 37.3954 10.8512 37.3902 10.8356 37.3832C12.867 33.3778 14.2716 28.7803 15.0129 23.714C16.0026 16.9462 15.8185 9.99612 14.506 4.64335L14.4886 4.56869C14.1362 3.11895 13.8705 2.44877 13.5754 2.25605C13.1656 1.98867 12.6881 1.94874 12.301 2.14493C11.9242 2.33765 11.6933 2.71788 11.669 3.1884C11.6464 3.61551 11.8808 4.43327 12.1082 5.22498C12.2211 5.61911 12.327 5.99066 12.3791 6.24067C14.1934 15.0589 13.0423 26.6465 9.57857 34.4213C9.34939 34.9369 9.10111 35.4387 8.86325 35.9231C8.45524 36.7478 8.03507 37.602 7.69478 38.5413C4.92898 46.1789 4.35429 55.94 5.94293 68.3782C5.96897 68.5849 5.99502 68.8123 6.02106 69.0467C6.08877 69.6509 6.16517 70.335 6.27976 70.8524C6.39608 71.3819 6.78326 71.8073 7.26419 71.934C7.6722 72.0417 8.07674 71.9167 8.37364 71.5868C8.70873 71.217 8.66879 70.6336 8.64101 70.21L8.63581 70.137C8.58372 69.328 8.45177 68.4633 8.32502 67.6265C8.22779 66.9858 8.12536 66.3243 8.06285 65.701C7.71214 62.199 7.34059 57.5755 7.57498 52.8755C7.58539 52.6498 7.58018 52.4241 7.57498 52.2054C7.5715 52.0821 7.56803 51.9623 7.56803 51.8442C12.0787 52.1064 16.0425 54.7593 18.6468 56.7473C20.0792 57.8411 21.4699 59.0461 22.8155 60.2093C24.8955 62.0098 27.0449 63.8693 29.4149 65.385C29.3663 65.6159 29.3715 65.8399 29.3767 66.0569C29.3802 66.1906 29.3836 66.3191 29.3732 66.4424C29.3368 66.9007 29.2708 67.3643 29.2013 67.8556C29.0538 68.8956 28.9027 69.9704 29.0433 71.0069C29.1093 71.4843 29.4409 71.8489 29.9114 71.9583C30.4115 72.0729 30.9219 71.868 31.2119 71.434C31.4549 71.0711 31.4358 70.5885 31.4185 70.1631C31.4115 69.9877 31.4046 69.821 31.4167 69.6787C31.507 68.5536 31.6581 67.3921 31.7883 66.4649C31.9949 66.4875 32.2085 66.5396 32.429 66.5917C32.7172 66.6611 33.0141 66.7323 33.3283 66.7479C33.8978 66.7775 34.4065 66.6663 34.9013 66.5587C35.0593 66.524 35.2191 66.4892 35.3823 66.4597C35.4135 66.7219 35.4465 66.9841 35.4812 67.248C35.5559 67.8313 35.6323 68.4355 35.6826 69.0224C35.6948 69.1717 35.6931 69.3766 35.6913 69.5919C35.6826 70.4548 35.6705 71.7604 36.674 71.9653C36.7903 71.9896 36.9015 72 37.0056 72C37.2765 72 37.5039 71.9201 37.688 71.7621C38.2401 71.2847 38.1811 70.2291 38.1429 69.5311L38.1359 69.3974C38.1047 68.8019 38.0196 68.1768 37.9363 67.5726C37.839 66.8695 37.7383 66.1437 37.7279 65.4701C37.7279 65.3972 37.747 65.3242 37.7783 65.286C37.8477 65.2079 38.2522 64.9648 38.4936 64.819C38.7176 64.6836 38.9311 64.5551 39.0492 64.4683C40.617 63.3085 42.1622 61.9855 43.7977 60.5844C48.173 56.8376 52.6959 52.9641 57.9913 52.0092C58.5 51.9171 59.3421 51.8112 59.6112 51.8303C59.6112 51.8529 59.6147 51.8772 59.6164 51.8998C59.7206 52.7557 59.7015 53.7332 59.6824 54.6795C59.6685 55.4174 59.6529 56.1813 59.6963 56.8793C59.5522 60.9872 59.1598 65.3746 58.4584 70.6892L58.4549 70.7221L58.4601 70.7551C58.573 71.5816 59.1268 71.967 59.6269 71.9826C60.1373 72 60.7346 71.6267 60.9064 70.7638C61.2224 69.1752 61.4013 67.1386 61.5593 65.3416C61.5922 64.9718 61.6235 64.6124 61.6548 64.2721C62.4881 55.2646 62.1392 48.2155 60.5592 42.0884H60.5557ZM59.3386 49.4066C59.0869 49.4448 58.8334 49.4743 58.5851 49.5038C58.2292 49.5455 57.8628 49.5889 57.4982 49.6549C51.8 50.681 47.3431 54.4763 43.0338 58.1467C41.2247 59.6867 39.3547 61.2788 37.4518 62.6036C33.6061 65.2791 32.2224 64.5377 28.7864 61.9994C27.1335 60.7788 25.531 59.4124 23.9805 58.0894C19.4889 54.2576 14.8445 50.2973 8.46566 49.4656C8.42572 49.4604 8.37711 49.4587 8.31981 49.4587C8.28162 49.4587 8.24168 49.4587 8.19654 49.4587C8.09063 49.4587 7.87187 49.4639 7.74686 49.4448C8.0698 46.2553 8.6549 43.309 9.49003 40.6838L9.51781 40.5953C9.69143 40.0397 9.79213 39.7827 9.85116 39.6646C10.7488 39.9233 11.6481 40.2272 12.518 40.5206C13.4972 40.8505 14.5094 41.1908 15.5234 41.4738C21.4543 43.1197 27.4373 43.941 33.4429 43.941C40.4642 43.941 47.515 42.8159 54.5345 40.5692C54.8574 40.465 55.2169 40.3244 55.5953 40.1768C56.1544 39.9581 56.7326 39.7306 57.177 39.6369C57.2152 39.6282 57.2517 39.6212 57.2847 39.6178C58.4966 43.467 59.132 46.5036 59.3369 49.4066H59.3386Z" fill="#00A4CC"/>
<path d="M21.7392 28.294H21.7427C22.2618 28.294 22.6907 28.011 22.84 27.5717C22.9789 27.1585 22.8417 26.4779 22.7098 25.8199C22.6456 25.4987 22.5848 25.1948 22.5692 24.9813C22.3105 21.2154 24.1179 17.6075 27.4045 15.3331C30.6374 13.0951 34.589 12.6802 37.9712 14.2237C38.3497 14.3973 38.7941 14.6195 39.0702 14.7897C38.9348 14.807 38.7854 14.8261 38.6327 14.8435C37.5562 14.972 36.7697 15.0866 36.445 15.3765C36.0752 15.7081 35.9467 16.2047 36.1082 16.6752C36.2714 17.1492 36.6829 17.4634 37.1829 17.4982H37.2142L37.2437 17.4947C37.8878 17.3749 38.5788 17.2846 39.249 17.1961C40.1918 17.0728 41.1675 16.9443 42.0652 16.729C42.4697 16.6318 42.9749 16.512 43.1104 15.8488C43.2423 15.2081 42.751 12.5031 42.5305 11.3554C42.4141 10.7495 42.27 9.9977 41.7301 9.70254C41.4436 9.54628 41.0946 9.54975 40.6901 9.71296C39.756 10.0897 40.0251 11.3867 40.2196 12.3329C40.2491 12.477 40.2786 12.6159 40.3012 12.7444C40.0946 12.6402 39.8897 12.5308 39.69 12.4232C39.2455 12.1836 38.7872 11.9371 38.2941 11.7495C34.8772 10.4456 30.9221 10.7252 27.4445 12.5187C23.9807 14.3035 21.4684 17.3436 20.5551 20.8612C20.0933 22.6374 19.9909 25.7261 20.576 27.4918C20.7357 27.9763 21.1923 28.2905 21.7375 28.2922L21.7392 28.294Z" fill="#00A4CC"/>
<path d="M44.8636 23.2938C45.1588 27.2021 43.6674 30.7856 40.7713 33.1226C37.9743 35.3797 34.3005 36.0603 30.6891 34.9907C29.7793 34.7216 29.0553 34.3987 28.5293 34.0271C28.6803 34.008 28.847 33.9907 29.0171 33.9751C29.8731 33.8917 30.8419 33.7962 31.2725 33.2389C31.4531 33.0028 31.5173 32.7128 31.4635 32.376C31.3454 31.6503 30.7551 31.2718 29.887 31.3638C29.071 31.4506 28.2463 31.6207 27.4493 31.7874C26.6923 31.9454 25.9093 32.1069 25.1436 32.1937L25.0933 32.1989L25.0499 32.2249C24.2477 32.6868 24.3519 33.4264 24.4422 34.0775C24.4509 34.1452 24.4613 34.2129 24.47 34.2806C24.5811 35.1522 24.8398 37.1923 25.1419 38.3191C25.2843 38.8504 25.6714 39.1785 26.201 39.2167C26.2548 39.2202 26.3069 39.2219 26.3572 39.2219C26.741 39.2219 27.0344 39.1091 27.2271 38.8851C27.6577 38.3868 27.465 37.5169 27.2948 36.7513C27.2375 36.4943 27.1837 36.2495 27.1663 36.0672C31.5676 38.7653 37.2104 38.4962 41.6308 35.3536C45.6449 32.4975 47.7683 27.9764 47.3099 23.2591C47.1624 21.7364 46.7978 20.8336 46.23 20.5766C45.8967 20.4256 45.5234 20.4968 45.1223 20.7867C44.4348 21.2816 44.6136 22.0663 44.756 22.6966C44.8046 22.9119 44.8515 23.115 44.8636 23.2973V23.2938Z" fill="#00A4CC"/>
</g>
</svg>
