<svg width="38" height="137" viewBox="0 0 38 137" fill="none" xmlns="http://www.w3.org/2000/svg">
<path d="M19.6364 97.7328L37.7361 79.5503C38.0854 79.1915 38.0854 78.6221 37.7361 78.2633C37.3868 77.9122 36.8125 77.9122 36.4555 78.2633L19 95.8062L1.54452 78.2633C1.18749 77.9122 0.620907 77.9122 0.263882 78.2633C0.0853691 78.4427 -7.65897e-06 78.6767 -7.66886e-06 78.9029C-7.67875e-06 79.1291 0.0853691 79.3709 0.263882 79.5425L18.3636 97.7328C18.5343 97.9044 18.7594 97.998 19 97.998C19.2406 97.998 19.4734 97.9044 19.6364 97.7328Z" fill="#4C566F"/>
<path d="M19.6364 136.733L37.7361 118.55C38.0854 118.191 38.0854 117.622 37.7361 117.263C37.3868 116.912 36.8125 116.912 36.4555 117.263L19 134.806L1.54452 117.263C1.18749 116.912 0.620907 116.912 0.263882 117.263C0.0853691 117.443 -7.65897e-06 117.677 -7.66886e-06 117.903C-7.67875e-06 118.129 0.0853691 118.371 0.263882 118.543L18.3636 136.733C18.5343 136.904 18.7594 136.998 19 136.998C19.2406 136.998 19.4734 136.904 19.6364 136.733Z" fill="#4C566F"/>
<path d="M19.6364 19.7328L37.7361 1.55031C38.0854 1.1915 38.0854 0.622075 37.7361 0.263261C37.3868 -0.0877536 36.8125 -0.0877536 36.4555 0.26326L19 17.8062L1.54452 0.263259C1.18749 -0.0877551 0.620907 -0.0877552 0.263882 0.263259C0.0853691 0.442666 -7.65897e-06 0.676675 -7.66886e-06 0.902884C-7.67875e-06 1.12909 0.0853691 1.3709 0.263882 1.54251L18.3636 19.7328C18.5343 19.9044 18.7594 19.998 19 19.998C19.2406 19.998 19.4734 19.9044 19.6364 19.7328Z" fill="#4C566F"/>
<path d="M19.6364 58.7328L37.7361 40.5503C38.0854 40.1915 38.0854 39.6221 37.7361 39.2633C37.3868 38.9122 36.8125 38.9122 36.4555 39.2633L19 56.8062L1.54452 39.2633C1.18749 38.9122 0.620907 38.9122 0.263882 39.2633C0.0853691 39.4427 -7.65897e-06 39.6767 -7.66886e-06 39.9029C-7.67875e-06 40.1291 0.0853691 40.3709 0.263882 40.5425L18.3636 58.7328C18.5343 58.9044 18.7594 58.998 19 58.998C19.2406 58.998 19.4734 58.9044 19.6364 58.7328Z" fill="#4C566F"/>
</svg>
