<svg width="51" height="53" viewBox="0 0 51 53" fill="none" xmlns="http://www.w3.org/2000/svg">
<path d="M44.2504 2.38739C40.4978 2.38739 37.4504 5.42816 37.4504 9.17259C37.4504 10.5296 37.8533 11.8113 38.5837 12.917L32.6148 19.074C30.7763 17.6667 28.5852 16.9128 26.2681 16.9128C25.0341 16.9128 23.8 17.1389 22.6163 17.5913L19.6445 12.0123C21.2311 10.7307 22.1378 8.82077 22.1378 6.78521C22.1378 3.04078 19.0904 0 15.3378 0C11.5852 0 8.53778 3.04078 8.53778 6.78521C8.53778 10.5296 11.5852 13.5704 15.3378 13.5704C15.9926 13.5704 16.6474 13.4699 17.277 13.294L20.2237 18.8729C17.8311 20.5567 16.2696 23.1451 15.917 26.01H13.4489C12.8193 22.8435 10.0237 20.5567 6.8 20.5567C3.04741 20.5567 0 23.5974 0 27.3419C0 31.0863 3.04741 34.1271 6.8 34.1271C10.0489 34.1271 12.8193 31.8402 13.4489 28.6989H15.917C16.5718 33.8758 21.0044 37.771 26.243 37.771C28.2074 37.771 30.1215 37.2181 31.7837 36.1626L36.5185 41.9426C35.5363 43.1489 34.9822 44.6567 34.9822 46.2148C34.9822 49.9592 38.0296 53 41.7822 53C45.5348 53 48.5822 49.9592 48.5822 46.2148C48.5822 42.4704 45.5348 39.4296 41.7822 39.4296C40.6741 39.4296 39.5659 39.706 38.5837 40.2338L33.8237 34.4538C35.637 32.5187 36.6445 30.0057 36.6445 27.3419C36.6445 25.0299 35.8889 22.8435 34.4785 21.009L40.4474 14.8521C41.5555 15.606 42.8652 15.9829 44.2 15.9829C47.9526 15.9829 51 12.9422 51 9.19772C51 5.4533 47.9778 2.38739 44.2504 2.38739ZM37.7022 46.1394C37.7022 43.8777 39.5407 42.0431 41.8074 42.0431C44.0741 42.0431 45.9126 43.8777 45.9126 46.1394C45.9126 48.4011 44.0741 50.2357 41.8074 50.2357C39.5407 50.2357 37.7022 48.4011 37.7022 46.1394ZM34.0252 27.2916C34.0252 31.5638 30.5496 35.0318 26.2681 35.0318C21.9867 35.0318 18.5111 31.5638 18.5111 27.2916C18.5111 23.0194 21.9867 19.5514 26.2681 19.5514C30.5496 19.5514 34.0252 23.0446 34.0252 27.2916ZM19.4933 6.76008C19.4933 9.02181 17.6548 10.8563 15.3881 10.8563C13.1215 10.8563 11.283 9.02181 11.283 6.76008C11.283 4.49834 13.1215 2.66382 15.3881 2.66382C17.6548 2.66382 19.4933 4.49834 19.4933 6.76008ZM44.2504 13.2688C41.9837 13.2688 40.1452 11.4343 40.1452 9.17259C40.1452 6.91086 41.9837 5.07634 44.2504 5.07634C46.517 5.07634 48.3556 6.91086 48.3556 9.17259C48.3556 11.4343 46.517 13.2688 44.2504 13.2688ZM10.9304 27.2916C10.9304 29.5533 9.09186 31.3879 6.82519 31.3879C4.55853 31.3879 2.72 29.5533 2.72 27.2916C2.72 25.0299 4.55853 23.1954 6.82519 23.1954C9.09186 23.1954 10.9304 25.0299 10.9304 27.2916Z" fill="#D2D9E3"/>
</svg>
