<svg width="124" height="35" viewBox="0 0 124 35" fill="none" xmlns="http://www.w3.org/2000/svg">
<path d="M77.8482 0.969727H72.0898V10.6658H77.8482V0.969727Z" fill="#89CDFD"/>
<path d="M83.6067 0.969727H77.8483V10.6658H83.6067V0.969727Z" fill="#53B2F5"/>
<path d="M89.3651 0.969727H83.6067V10.6658H89.3651V0.969727Z" fill="#89CDFD"/>
<path d="M95.1192 0.969727H89.3607V10.6658H95.1192V0.969727Z" fill="#53B2F5"/>
<path d="M100.878 0.969727H95.1193V10.6658H100.878V0.969727Z" fill="#89CDFD"/>
<path d="M106.636 0.969727H100.878V10.6658H106.636V0.969727Z" fill="#53B2F5"/>
<path d="M112.395 0.969727H106.636V10.6658H112.395V0.969727Z" fill="#89CDFD"/>
<path d="M118.153 0.969727H112.395V10.6658H118.153V0.969727Z" fill="#53B2F5"/>
<path d="M116.581 8.22412H73.9728C70.6491 8.22412 67.9121 10.8188 67.5049 14.1704H53.2204C49.2793 14.1704 45.3863 13.2997 41.7911 11.6195C38.1959 9.93493 34.303 9.06859 30.3618 9.06859H0.540527V14.1748V23.6346V28.7407H67.5049C67.9078 32.0924 70.6447 34.687 73.9728 34.687H116.581C120.185 34.687 123.101 31.6417 123.101 27.8875V15.0236C123.101 11.2651 120.18 8.22412 116.581 8.22412Z" fill="#D60B52"/>
</svg>
