<svg width="89" height="73" viewBox="0 0 89 73" fill="none" xmlns="http://www.w3.org/2000/svg">
<path d="M61.16 51.6001V54.4201V56.8001" stroke="#4C566F" stroke-width="0.75" stroke-miterlimit="10" stroke-linecap="round" stroke-linejoin="round"/>
<path d="M62.18 49.8602V42.1802H61.16V49.8602" stroke="#4C566F" stroke-width="0.75" stroke-miterlimit="10" stroke-linecap="round" stroke-linejoin="round"/>
<path d="M62.1801 56.6202V54.4202V51.6602" stroke="#4C566F" stroke-width="0.75" stroke-miterlimit="10" stroke-linecap="round" stroke-linejoin="round"/>
<path d="M61.16 58.63V64.74C61.16 68.34 58.24 71.26 54.64 71.26H47.12V72.27H76.21V71.26H68.69C65.09 71.26 62.17 68.34 62.17 64.74V58.54" stroke="#4C566F" stroke-width="0.75" stroke-miterlimit="10" stroke-linecap="round" stroke-linejoin="round"/>
<path d="M61.67 42.15C53.99 42.15 47.82 35.43 48.03 27.76L48.99 13.79L74.34 13.77L75.3 27.75C75.52 35.43 69.35 42.15 61.67 42.15Z" fill="#FF2C3B"/>
<path d="M61.67 42.15C53.99 42.15 47.82 35.43 48.03 27.76L49.87 1H73.47L75.31 27.76C75.52 35.43 69.35 42.15 61.67 42.15Z" stroke="#4C566F" stroke-width="0.75" stroke-miterlimit="10" stroke-linecap="round" stroke-linejoin="round"/>
<path d="M87.92 72.2998H14.51" stroke="#4C566F" stroke-width="0.75" stroke-miterlimit="10" stroke-linecap="round" stroke-linejoin="round"/>
<path d="M10.97 72.2998H1" stroke="#4C566F" stroke-width="0.75" stroke-miterlimit="10" stroke-linecap="round" stroke-linejoin="round"/>
<path d="M48.88 72.26H19.42L14.42 27.46H53.88L48.88 72.26Z" fill="#4C566F"/>
<path d="M55.31 27.46H12.99L13.99 22.73H54.31L55.31 27.46Z" fill="#FAF9FE" stroke="#4C566F" stroke-width="0.75" stroke-miterlimit="10" stroke-linecap="round" stroke-linejoin="round"/>
<path d="M51.2 22.73H17.1L18.1 18H50.2L51.2 22.73Z" fill="#FAF9FE" stroke="#4C566F" stroke-width="0.75" stroke-miterlimit="10" stroke-linecap="round" stroke-linejoin="round"/>
<path d="M15.45 36.6699L18.32 62.4299H49.9799L52.85 36.6699H15.45Z" fill="#D2D9E3"/>
<path d="M47.19 72.2599H45.72C39.38 72.2599 34.25 67.1199 34.25 60.7899V49.8599H58.67V60.7799C58.67 67.1199 53.53 72.2599 47.19 72.2599Z" fill="#FAF9FE" stroke="#4C566F" stroke-width="0.75" stroke-miterlimit="10" stroke-linecap="round" stroke-linejoin="round"/>
<path d="M61.69 58.5399H58.67V56.7999V54.1999V51.5999V49.8599H61.69C64.07 49.8599 65.99 51.7899 65.99 54.1599V54.2299C66 56.6099 64.07 58.5399 61.69 58.5399Z" stroke="#4C566F" stroke-width="0.75" stroke-miterlimit="10" stroke-linecap="round" stroke-linejoin="round"/>
<path d="M61.6 56.8001H58.67V51.6001H61.6C63.03 51.6001 64.18 52.7601 64.18 54.1801V54.2201C64.18 55.6501 63.03 56.8001 61.6 56.8001Z" stroke="#4C566F" stroke-width="0.75" stroke-miterlimit="10" stroke-linecap="round" stroke-linejoin="round"/>
</svg>
