<svg width="169" height="137" viewBox="0 0 169 137" fill="none" xmlns="http://www.w3.org/2000/svg">
<path d="M36.7815 71.684C36.7815 71.684 58.9351 64.1538 95.0184 64.1538C127.708 64.1538 151.578 70.5201 153.593 71.684C154.175 72.0209 132.464 107.134 94.9834 107.134C66.6071 107.134 47.9875 87.6458 44.493 83.0471C40.4555 77.7528 36.7815 71.684 36.7815 71.684Z" fill="#FAF9FE"/>
<path d="M36.7815 71.684C36.7815 71.684 57.3236 64.1538 95.0184 64.1538C132.713 64.1538 153.593 71.684 153.593 71.684" stroke="#4C566F" stroke-width="0.75" stroke-miterlimit="10" stroke-linecap="round" stroke-linejoin="round"/>
<path d="M36.7815 71.6841C36.7815 71.6841 53.8948 107.134 94.979 107.134C136.063 107.134 153.588 71.6841 153.588 71.6841" stroke="#4C566F" stroke-width="0.75" stroke-miterlimit="10" stroke-linecap="round" stroke-linejoin="round"/>
<path d="M95.0098 56.1769C106.246 47.8066 109.469 44.1006 119.782 44.1006C135.017 44.1006 160.354 67.9032 168.118 69.859C168.118 69.859 152.91 136.099 95.0098 136.099" stroke="#4C566F" stroke-width="0.75" stroke-miterlimit="10" stroke-linecap="round" stroke-linejoin="round"/>
<path d="M95.0184 64.1538V83.0821C95.0184 84.5567 93.8229 85.7512 92.3472 85.7512H72.6108C71.135 85.7512 69.9396 84.5567 69.9396 83.0821V65.3571" stroke="#4C566F" stroke-width="0.75" stroke-miterlimit="10"/>
<path d="M120.084 65.5846V83.0821C120.084 84.5567 118.889 85.7512 117.413 85.7512H97.6765C96.2007 85.7512 95.0052 84.5567 95.0052 83.0821V64.1538" stroke="#4C566F" stroke-width="0.75" stroke-miterlimit="10"/>
<path d="M139.711 68.166V83.082C139.711 84.5566 138.774 85.7511 137.622 85.7511H122.177C121.021 85.7511 120.089 84.5566 120.089 83.082V65.5845" stroke="#4C566F" stroke-width="0.75" stroke-miterlimit="10"/>
<path d="M143.166 85.7511H141.8C140.644 85.7511 139.711 84.5566 139.711 83.082V68.166" stroke="#4C566F" stroke-width="0.75" stroke-miterlimit="10"/>
<path d="M50.3127 68.3498V83.082C50.3127 84.5565 51.2499 85.751 52.4016 85.751H67.8465C69.0025 85.751 69.9353 84.5565 69.9353 83.082V65.3569" stroke="#4C566F" stroke-width="0.75" stroke-miterlimit="10"/>
<path d="M47.0635 85.7514H48.2239C49.38 85.7514 50.3127 84.5569 50.3127 83.0823V68.3501" stroke="#4C566F" stroke-width="0.75" stroke-miterlimit="10"/>
<path d="M59.4695 96.4096V85.751" stroke="#4C566F" stroke-width="0.75" stroke-miterlimit="10"/>
<path d="M75.0763 104.071V85.751" stroke="#4C566F" stroke-width="0.75" stroke-miterlimit="10"/>
<path d="M95.0186 107.134V84.0312" stroke="#4C566F" stroke-width="0.75" stroke-miterlimit="10"/>
<path d="M114.956 104.001V85.751" stroke="#4C566F" stroke-width="0.75" stroke-miterlimit="10"/>
<path d="M130.559 96.4315V85.751" stroke="#4C566F" stroke-width="0.75" stroke-miterlimit="10"/>
<path d="M95.0099 56.1769C83.7732 47.8066 80.5502 44.1006 70.2375 44.1006C55.0028 44.1006 29.6657 67.9032 21.9016 69.859C21.9016 69.859 37.1101 136.099 95.0099 136.099" stroke="#4C566F" stroke-width="0.75" stroke-miterlimit="10" stroke-linecap="round" stroke-linejoin="round"/>
<path d="M77.8482 74.9697H72.0898V84.6658H77.8482V74.9697Z" fill="#D2D9E3"/>
<path d="M83.6067 74.9697H77.8483V84.6658H83.6067V74.9697Z" fill="#D2D9E3"/>
<path d="M89.3651 74.9697H83.6067V84.6658H89.3651V74.9697Z" fill="#D2D9E3"/>
<path d="M95.1192 74.9697H89.3607V84.6658H95.1192V74.9697Z" fill="#D2D9E3"/>
<path d="M100.878 74.9697H95.1193V84.6658H100.878V74.9697Z" fill="#D2D9E3"/>
<path d="M106.636 74.9697H100.878V84.6658H106.636V74.9697Z" fill="#D2D9E3"/>
<path d="M112.395 74.9697H106.636V84.6658H112.395V74.9697Z" fill="#D2D9E3"/>
<path d="M118.153 74.9697H112.395V84.6658H118.153V74.9697Z" fill="#D2D9E3"/>
<path d="M116.581 82.2241H73.9728C70.6491 82.2241 67.9121 84.8188 67.5049 88.1704H53.2204C49.2793 88.1704 45.3863 87.2997 41.7911 85.6195C38.1959 83.9349 34.303 83.0686 30.3618 83.0686H0.540527V88.1748V97.6346V102.741H67.5049C67.9078 106.092 70.6447 108.687 73.9728 108.687H116.581C120.185 108.687 123.101 105.642 123.101 101.888V89.0236C123.101 85.2651 120.18 82.2241 116.581 82.2241Z" fill="#FF2C3B"/>
<path d="M128.505 19.6115L115.464 27.8593L107.214 14.8247" stroke="#4C566F" stroke-miterlimit="10" stroke-linecap="round" stroke-linejoin="round"/>
<path d="M115.596 27.3779C118.875 19.2832 120.71 4.43721 110.174 1.40938C98.2414 -2.01662 91.8085 13.0394 91.8085 20.1058C91.8085 22.3154 92.483 25.5226 95.6227 25.5226C98.7625 25.5226 99.6164 22.4336 99.6164 19.957C99.6164 14.7065 96.192 -1.04089 84.2109 0.648043C72.2298 2.33698 74.2267 22.1185 77.9357 27.3735" stroke="#4C566F" stroke-miterlimit="10" stroke-linecap="round" stroke-linejoin="round"/>
</svg>
