<svg width="176" height="205" viewBox="0 0 176 205" fill="none" xmlns="http://www.w3.org/2000/svg">
<path d="M88.1142 1.0063C88.517 0.857531 88.9374 0.791899 89.3578 0.739393C89.6512 0.910037 89.8702 0.726266 90.0979 0.590627C91.1007 0.358726 92.1078 0.17058 93.1501 0.205584C93.6055 0.218711 94.061 0.0480669 94.5295 0.039316C100.091 -0.0919484 105.276 1.20757 110.189 3.82848C112.593 5.1105 114.857 6.55878 116.968 8.26084C119.022 9.91915 120.9 11.7569 122.665 13.7258C124.78 16.0842 126.676 18.5957 128.41 21.2341C130.206 23.9601 131.804 26.7998 133.21 29.7445C134.3 32.0241 135.294 34.3475 136.205 36.7015C137.453 39.9262 138.508 43.2166 139.371 46.5638C140.317 50.2348 141.061 53.9452 141.6 57.7038C141.95 60.1409 142.239 62.5824 142.406 65.0371C142.625 68.2224 142.703 71.4121 142.607 74.6062C142.528 77.1572 142.384 79.6993 142.099 82.2371C141.933 83.7466 141.723 85.2518 141.49 86.7526C141.416 87.247 141.521 87.6846 141.644 88.1396C142.712 92.1301 143.417 96.1817 143.794 100.29C144.078 103.388 144.175 106.49 144.096 109.601C144.004 113.29 143.702 116.957 143.141 120.601C142.638 123.9 141.981 127.169 141.105 130.389C140.107 134.065 138.937 137.683 137.514 141.214C135.824 145.415 133.871 149.488 131.598 153.409C130.42 155.434 129.176 157.412 127.863 159.346C126.313 161.626 124.644 163.827 122.871 165.94C120.905 168.281 118.833 170.53 116.604 172.626C114.533 174.577 112.387 176.45 110.106 178.156C108.056 179.692 105.941 181.14 103.726 182.427C102.504 183.136 101.291 183.871 99.9858 184.422C99.7012 184.479 99.3114 184.321 99.2151 184.785C99.1888 184.803 99.1582 184.816 99.1275 184.816C98.9918 184.768 98.9129 184.816 98.8823 184.951C98.8253 184.982 98.7727 185.008 98.7158 185.039C98.5625 184.969 98.4531 185.035 98.3612 185.157C98.2955 185.179 98.2341 185.205 98.1684 185.227C97.9626 185.214 97.7963 185.262 97.7219 185.481C97.5467 185.625 97.3408 185.704 97.1263 185.761C96.9642 185.726 96.811 185.7 96.7891 185.932C96.627 185.988 96.465 186.045 96.3073 186.102C96.1541 186.05 96.0009 185.997 95.9396 186.22C95.922 186.251 95.8958 186.269 95.8652 186.282C95.7206 186.247 95.5849 186.234 95.5148 186.409C95.2871 186.514 95.055 186.614 94.8273 186.719C94.5645 186.68 94.3061 186.667 94.1573 186.951C94.0522 186.995 93.9471 187.039 93.8464 187.082C93.715 186.955 93.6668 187.034 93.6362 187.165C90.365 188.391 87.0895 189.594 83.6695 190.36C81.1427 190.924 78.5854 191.252 76.0105 191.506C73.7728 191.725 71.5395 191.76 69.3105 191.585C65.6365 191.292 61.9888 190.753 58.4374 189.716C55.9238 188.981 53.4628 188.089 51.0105 187.161C50.9798 187.034 50.9273 186.955 50.8003 187.078C50.6952 187.034 50.5901 186.99 50.4894 186.947C50.3361 186.662 50.0821 186.671 49.8194 186.715C49.6223 186.623 49.4209 186.535 49.2239 186.444C49.1582 186.172 48.9567 186.264 48.7816 186.277C48.7509 186.264 48.7247 186.242 48.7072 186.216C48.6459 185.988 48.4925 186.041 48.3393 186.098C48.1773 186.041 48.0152 185.984 47.8576 185.927C47.8357 185.695 47.6824 185.717 47.5204 185.757C47.3058 185.695 47.1 185.621 46.9249 185.477C46.8504 185.258 46.684 185.21 46.4782 185.223C46.4125 185.201 46.3512 185.175 46.2855 185.153C46.198 185.03 46.0884 184.965 45.9308 185.035C45.8739 185.004 45.8213 184.978 45.7644 184.947C45.7337 184.807 45.6549 184.763 45.5192 184.811C45.4885 184.807 45.4579 184.798 45.4316 184.781C45.3352 184.317 44.9499 184.475 44.6609 184.418C43.369 183.875 42.1648 183.158 40.965 182.444C39.3579 181.49 37.7858 180.484 36.2619 179.399C33.6126 177.518 31.1209 175.448 28.7256 173.247C26.4178 171.129 24.2633 168.863 22.2402 166.483C20.4973 164.435 18.8727 162.295 17.3269 160.094C14.9666 156.73 12.834 153.229 10.951 149.58C9.08549 145.962 7.42588 142.247 6.06837 138.405C5.20132 135.955 4.41304 133.483 3.71677 130.976C2.91541 128.092 2.28484 125.178 1.76812 122.238C1.13315 118.641 0.769683 115.014 0.607658 111.36C0.493803 108.722 0.480683 106.088 0.625191 103.454C0.774079 100.767 1.04122 98.0982 1.46599 95.4379C1.89513 92.782 2.44251 90.1523 3.16068 87.562C3.27453 87.1551 3.1519 86.757 3.0906 86.3675C2.50818 82.7753 2.18414 79.1568 2.05715 75.5207C1.94767 72.436 1.99584 69.3513 2.16224 66.2622C2.38557 62.193 2.89351 58.1632 3.61168 54.1596C4.45246 49.4822 5.60415 44.8749 7.12368 40.3681C8.24034 37.0603 9.51468 33.8224 10.9948 30.6633C12.3217 27.8192 13.8017 25.0539 15.4964 22.4068C16.7269 20.4816 17.9837 18.5739 19.4026 16.7843C21.3337 14.3471 23.3831 12.015 25.7084 9.93665C28.1519 7.75766 30.7311 5.7712 33.6345 4.2354C36.5772 2.67773 39.6075 1.32571 42.9005 0.673761C43.4654 0.564374 44.0216 0.39373 44.604 0.415607C44.7091 0.533745 44.766 0.454987 44.8229 0.363102C44.9587 0.336849 45.0944 0.310596 45.2346 0.284343C45.4579 0.371852 45.6856 0.498741 45.8651 0.20996C45.9308 0.201209 46.0009 0.196833 46.0666 0.188082C46.3556 0.643132 46.5964 0.494366 46.8198 0.126826C47.0956 0.113699 47.3759 0.100573 47.6518 0.0830708C47.7262 0.183707 47.7919 0.17058 47.8488 0.0699443C47.9233 0.0699443 47.9977 0.0655689 48.0722 0.0655689C48.313 0.205584 48.5539 0.192458 48.7947 0.0743198C49.6224 0.030565 50.45 -0.0175653 51.2733 0.188082C51.6849 0.293094 52.1272 0.148703 52.5651 0.218711C53.2307 0.328098 53.9095 0.384979 54.5619 0.573125C54.794 0.704389 55.013 0.892535 55.3064 0.721891C55.7311 0.770021 56.1515 0.835653 56.55 0.988795C56.7208 1.40447 56.3748 1.35634 56.1603 1.42634C54.286 1.06755 52.4118 0.730642 50.5026 0.612504C50.4369 0.503117 50.3668 0.450611 50.2792 0.595002C49.5742 0.590627 48.8735 0.581876 48.1685 0.5775C47.9583 0.275592 47.7744 0.240588 47.6299 0.630006C47.354 0.651883 47.0781 0.673761 46.8022 0.691263C46.1804 0.507492 45.5892 0.62563 45.0112 0.857531C44.5558 0.936289 44.1048 1.01505 43.6493 1.09381C43.4742 0.975669 43.3209 0.936289 43.2333 1.19007C40.0892 1.81576 37.1464 3.02339 34.3219 4.49356C31.0814 6.17811 28.1607 8.3396 25.5464 10.8993C24.4866 11.9362 23.3568 12.9164 22.3978 14.0365C21.2242 15.4104 20.0944 16.8237 19.004 18.2719C17.7998 19.8777 16.67 21.5361 15.6322 23.2425C14.2966 25.4477 13.0748 27.723 11.9494 30.0507C9.98321 34.1112 8.36736 38.3073 7.04051 42.6084C5.60856 47.2507 4.51816 51.9719 3.79123 56.7805C3.32706 59.8346 2.98549 62.9062 2.80157 65.9866C2.53882 70.3839 2.53444 74.7857 2.90666 79.1786C3.12123 81.7383 3.32707 84.2979 3.91824 86.8095C3.97079 87.037 3.96201 87.2514 3.89194 87.4789C2.68333 91.5262 1.95642 95.6698 1.54916 99.8659C1.21636 103.274 1.12 106.687 1.20759 110.113C1.34772 115.526 2.06588 120.864 3.18254 126.149C3.9007 129.545 4.79407 132.905 5.95889 136.182C6.23915 136.97 6.48433 137.771 6.7821 138.55C7.83308 141.297 8.93663 144.023 10.2153 146.675C12.2954 150.98 14.6775 155.106 17.3619 159.066C19.5646 162.308 22.0431 165.332 24.618 168.272C25.8485 169.677 27.1885 170.985 28.546 172.267C30.6261 174.236 32.8024 176.104 35.097 177.819C38.1361 180.086 41.3285 182.116 44.7003 183.853C47.0825 185.083 49.5742 186.076 52.1359 186.89C53.2176 187.235 54.3298 187.529 55.3589 187.988C56.2873 188.399 57.2287 188.741 58.1921 189.012C61.8881 190.049 65.6409 190.745 69.4813 190.937C71.6314 191.042 73.7815 191.047 75.9229 190.911C78.3314 190.758 80.7136 190.368 83.0782 189.87C85.0269 189.458 86.9669 188.968 88.8368 188.312C90.5446 187.712 92.2524 187.087 93.9602 186.479C96.2111 185.673 98.3918 184.715 100.502 183.599C101.597 183.022 102.648 182.37 103.708 181.727C104.755 181.092 105.814 180.48 106.817 179.78C108.547 178.572 110.255 177.329 111.884 175.986C113.342 174.787 114.778 173.562 116.131 172.254C117.787 170.657 119.398 169.007 120.913 167.266C123.409 164.4 125.765 161.425 127.854 158.244C128.813 156.787 129.741 155.316 130.635 153.816C132.273 151.059 133.757 148.224 135.088 145.305C136.63 141.923 137.996 138.471 139.13 134.927C140.12 131.833 140.943 128.696 141.609 125.515C142.274 122.334 142.787 119.127 143.106 115.893C143.5 111.947 143.614 107.987 143.417 104.023C143.172 99.0739 142.541 94.1822 141.302 89.3779C141.017 88.2709 140.689 87.2076 140.917 85.9781C141.771 81.3795 142.029 76.7196 142.033 72.0466C142.038 67.518 141.722 63.0156 141.114 58.5264C140.676 55.3104 140.089 52.125 139.349 48.9616C138.758 46.4282 138.062 43.9166 137.26 41.4445C136.301 38.491 135.233 35.577 133.954 32.7373C132.995 30.6064 131.992 28.4974 130.858 26.4497C130.013 24.927 129.128 23.4306 128.196 21.9561C127.197 20.3766 126.137 18.8364 124.994 17.3706C123.939 16.0186 122.866 14.6709 121.675 13.4195C120.651 12.3432 119.604 11.2887 118.496 10.3042C115.812 7.91956 112.935 5.81933 109.685 4.22665C107.513 3.16341 105.328 2.18768 102.985 1.56198C99.5478 0.643132 96.0665 0.419983 92.537 0.756895C91.1751 0.888159 89.8483 1.21194 88.5039 1.41759C88.285 1.2557 88.1843 1.42634 88.0704 1.56636C87.834 1.61011 87.5974 1.65387 87.361 1.69762C87.3435 1.39571 87.558 1.32133 87.7857 1.32133C88.0397 1.34758 88.0966 1.20757 88.1142 1.0063Z" fill="#4C566F"/>
<path d="M64.6819 4.46742C67.432 6.09072 69.7967 8.16032 71.8548 10.5887C72.3453 11.1663 72.3234 11.1707 72.8182 10.5887C74.7581 8.31784 76.9433 6.327 79.5094 4.77808C79.6714 4.67744 79.8291 4.57243 79.9911 4.47179C80.1532 4.44991 80.4159 4.62493 80.3984 4.25739C80.4421 4.22676 80.4816 4.19176 80.5254 4.16113C80.7925 4.21364 80.7442 4.42804 80.7617 4.61181C79.5706 5.36877 78.3796 6.12135 77.298 7.03145C77.2104 7.10583 77.1053 7.18897 76.9695 7.12333C76.9651 7.11021 76.9608 7.09708 76.952 7.08395C76.9477 7.07958 76.9345 7.07958 76.9257 7.0752C76.9389 7.0927 76.9564 7.10583 76.9695 7.12333C76.9958 7.33773 76.8075 7.41649 76.6936 7.52588C76.1594 8.02468 75.612 8.50598 75.0647 8.99604C74.8369 8.85165 74.8895 9.01792 74.8982 9.14043C74.1013 10.0287 73.2298 10.8556 72.5861 11.8707C72.4153 12.1376 72.227 12.0239 72.0913 11.827C71.4169 10.8512 70.5849 10.0111 69.7879 9.14043C69.7966 9.01792 69.8448 8.84727 69.6215 8.99604C69.4376 8.83415 69.2274 8.69851 69.0785 8.51036C68.6756 7.99843 68.0056 7.74903 67.7166 7.12333C67.7297 7.11896 67.7429 7.11458 67.756 7.10583C67.7604 7.10146 67.7604 7.08833 67.7648 7.07958C67.7516 7.09708 67.7341 7.11021 67.721 7.12771C67.5852 7.19334 67.4758 7.11021 67.3926 7.03582C66.3109 6.12135 65.1198 5.36877 63.9287 4.61618C63.9462 4.43241 63.8981 4.21801 64.1652 4.16551C64.2046 4.19614 64.2484 4.23114 64.2878 4.26177C64.2572 4.62056 64.5243 4.44554 64.6819 4.46742Z" fill="#4C566F"/>
<path d="M64.1519 4.15671C63.8848 4.20922 63.933 4.42362 63.9155 4.60739C63.6922 4.60739 63.5214 4.47175 63.3418 4.37111C61.6121 3.38225 59.7861 2.62092 57.9031 1.98647C57.3294 1.78958 56.7032 1.76332 56.1689 1.44829C56.3879 1.37828 56.7295 1.42641 56.5587 1.01074C57.4783 1.18139 58.3629 1.48329 59.2387 1.79395C60.8326 2.35839 62.3741 3.04534 63.8367 3.90293C63.9505 3.96419 64.0468 4.0692 64.1519 4.15671Z" fill="#4C566F"/>
<path d="M80.7574 4.60742C80.7398 4.42365 80.788 4.20925 80.5209 4.15674C81.3879 3.51792 82.3206 3.01037 83.3541 2.69971C83.3497 2.89223 83.3979 3.05412 83.5862 3.14601C82.6622 3.67106 81.7339 4.18737 80.7574 4.60742Z" fill="#4C566F"/>
<path d="M83.5862 3.14577C83.3979 3.05388 83.3453 2.89199 83.3541 2.69947C83.3847 2.68634 83.4197 2.67759 83.4548 2.67759C83.5861 2.72572 83.6606 2.66884 83.6956 2.54633C83.8401 2.43257 84.0021 2.36693 84.1904 2.36256C84.3262 2.40194 84.405 2.34943 84.4269 2.20942C84.532 2.17004 84.6371 2.13066 84.7422 2.09565C84.8517 2.22254 84.913 2.14816 84.9611 2.03877C85.1319 1.89001 85.3378 1.855 85.5524 1.8375C85.7275 1.84188 85.9465 1.96001 85.9859 1.64935C86.3756 1.53122 86.7653 1.41308 87.155 1.29932C87.2032 1.6056 87.0807 1.78499 86.7741 1.84188C86.6559 1.86375 86.5332 1.88563 86.5157 2.03877C86.4238 2.06065 86.3274 2.0869 86.2354 2.10878C85.5785 2.10878 84.9962 2.31443 84.5232 2.7826C84.2036 2.90074 83.8927 3.02326 83.5862 3.14577Z" fill="#4C566F"/>
<path d="M86.5071 2.03865C86.5246 1.88551 86.6472 1.85926 86.7655 1.84176C87.072 1.78487 87.199 1.60548 87.1464 1.2992C87.4617 1.17668 87.7419 0.949157 88.1098 1.00604C88.0923 1.20731 88.0353 1.3517 87.7813 1.34733C87.5536 1.34733 87.3435 1.42171 87.3566 1.72362C87.1201 1.94677 86.8136 1.99052 86.5071 2.03865Z" fill="#4C566F"/>
<path d="M46.8329 0.139697C46.6096 0.507238 46.3687 0.656004 46.0797 0.200954C46.3293 0.179077 46.5702 0.0478124 46.8329 0.139697Z" fill="#4C566F"/>
<path d="M44.674 184.426C44.9586 184.483 45.3483 184.326 45.4447 184.789C45.1338 184.776 44.9017 184.606 44.674 184.426Z" fill="#4C566F"/>
<path d="M99.2281 184.789C99.3245 184.326 99.7098 184.483 99.9989 184.426C99.7712 184.606 99.5347 184.776 99.2281 184.789Z" fill="#4C566F"/>
<path d="M55.3107 0.739164C55.0173 0.909808 54.7984 0.726038 54.5663 0.590398C54.8422 0.511639 55.0874 0.577272 55.3107 0.739164Z" fill="#4C566F"/>
<path d="M90.1022 0.590398C89.8701 0.721662 89.6512 0.909808 89.3622 0.739164C89.5855 0.577272 89.8263 0.511639 90.1022 0.590398Z" fill="#4C566F"/>
<path d="M48.8035 0.0874251C48.5626 0.205563 48.3218 0.218689 48.0809 0.0786741C48.3218 -0.0175865 48.5626 -0.0350884 48.8035 0.0874251Z" fill="#4C566F"/>
<path d="M45.8782 0.222839C45.6987 0.51162 45.471 0.389107 45.2477 0.297222C45.4447 0.152831 45.668 0.244716 45.8782 0.222839Z" fill="#4C566F"/>
<path d="M49.8281 186.724C50.0952 186.684 50.3492 186.671 50.4981 186.956C50.2441 186.973 50.0164 186.912 49.8281 186.724Z" fill="#4C566F"/>
<path d="M94.1704 186.96C94.3237 186.676 94.5777 186.689 94.8404 186.728C94.6565 186.912 94.4244 186.973 94.1704 186.96Z" fill="#4C566F"/>
<path d="M85.9779 1.64941C85.9429 1.96007 85.7192 1.84194 85.5437 1.83756C85.6358 1.64941 85.8113 1.65817 85.9779 1.64941Z" fill="#4C566F"/>
<path d="M48.7903 186.29C48.9614 186.277 49.1675 186.185 49.2333 186.456C49.0622 186.456 48.8824 186.491 48.7903 186.29Z" fill="#4C566F"/>
<path d="M97.7393 185.485C97.8138 185.266 97.9805 185.218 98.1867 185.231C98.0989 185.424 97.9323 185.481 97.7393 185.485Z" fill="#4C566F"/>
<path d="M46.4869 185.231C46.6931 185.218 46.8598 185.271 46.9344 185.485C46.737 185.481 46.5703 185.424 46.4869 185.231Z" fill="#4C566F"/>
<path d="M80.3946 4.25293C80.4165 4.62047 80.149 4.44108 79.9867 4.46733C80.0613 4.27918 80.2323 4.27918 80.3946 4.25293Z" fill="#4C566F"/>
<path d="M64.6826 4.46733C64.5203 4.44545 64.2571 4.62047 64.2746 4.25293C64.4369 4.27918 64.608 4.27918 64.6826 4.46733Z" fill="#4C566F"/>
<path d="M95.957 186.225C96.0184 185.997 96.1719 186.05 96.3254 186.107C96.2377 186.264 96.0974 186.238 95.957 186.225Z" fill="#4C566F"/>
<path d="M96.8066 185.936C96.8286 185.704 96.9821 185.726 97.1444 185.766C97.0786 185.914 96.9558 185.954 96.8066 185.936Z" fill="#4C566F"/>
<path d="M48.348 186.107C48.5015 186.05 48.6551 186.002 48.7165 186.225C48.5761 186.238 48.4314 186.264 48.348 186.107Z" fill="#4C566F"/>
<path d="M47.5292 185.766C47.6915 185.726 47.845 185.704 47.8669 185.936C47.7178 185.954 47.595 185.914 47.5292 185.766Z" fill="#4C566F"/>
<path d="M95.5323 186.417C95.6025 186.242 95.7384 186.255 95.8832 186.29C95.8086 186.456 95.6815 186.47 95.5323 186.417Z" fill="#4C566F"/>
<path d="M98.3787 185.161C98.4664 185.039 98.576 184.973 98.7339 185.043C98.6462 185.183 98.5234 185.205 98.3787 185.161Z" fill="#4C566F"/>
<path d="M45.9396 185.043C46.0931 184.973 46.2028 185.039 46.2949 185.161C46.1501 185.205 46.0273 185.183 45.9396 185.043Z" fill="#4C566F"/>
<path d="M84.423 2.21377C84.4011 2.35379 84.3221 2.40192 84.1862 2.36692C84.2256 2.25753 84.3002 2.20065 84.423 2.21377Z" fill="#4C566F"/>
<path d="M47.8579 0.0829136C47.8009 0.18355 47.7351 0.201052 47.6605 0.09604C47.7219 0.00415491 47.7877 0.00415491 47.8579 0.0829136Z" fill="#4C566F"/>
<path d="M45.5323 184.82C45.6683 184.772 45.7473 184.82 45.778 184.956C45.6551 184.987 45.5806 184.93 45.5323 184.82Z" fill="#4C566F"/>
<path d="M98.8954 184.96C98.9261 184.82 99.0051 184.776 99.141 184.824C99.0928 184.93 99.0182 184.986 98.8954 184.96Z" fill="#4C566F"/>
<path d="M83.6917 2.54637C83.6522 2.66888 83.5776 2.72576 83.4504 2.67763C83.4943 2.56387 83.5689 2.51136 83.6917 2.54637Z" fill="#4C566F"/>
<path d="M44.8364 0.376413C44.7837 0.472674 44.7223 0.547057 44.6171 0.428919C44.6741 0.337034 44.7487 0.323907 44.8364 0.376413Z" fill="#4C566F"/>
<path d="M84.9572 2.03889C84.909 2.15265 84.8476 2.22266 84.7379 2.09577C84.7906 1.99951 84.8651 1.99951 84.9572 2.03889Z" fill="#4C566F"/>
<path d="M50.8135 187.087C50.9451 186.96 50.9933 187.039 51.024 187.17C50.9363 187.192 50.8617 187.174 50.8135 187.087Z" fill="#4C566F"/>
<path d="M93.6449 187.17C93.6756 187.043 93.7282 186.964 93.8554 187.087C93.8116 187.174 93.737 187.192 93.6449 187.17Z" fill="#4C566F"/>
<path d="M46.8066 0.704397C46.2155 0.822535 45.6199 0.896918 45.0156 0.870665C45.598 0.638764 46.1892 0.520627 46.8066 0.704397Z" fill="#4C566F"/>
<path d="M48.1738 0.590794C48.0071 0.722058 47.8229 0.717683 47.6343 0.6433C47.7834 0.258257 47.9676 0.288886 48.1738 0.590794Z" fill="#4C566F"/>
<path d="M43.6588 1.11151C43.5448 1.24715 43.3912 1.22964 43.2421 1.20777C43.3254 0.953989 43.4833 0.988993 43.6588 1.11151Z" fill="#4C566F"/>
<path d="M88.5047 1.44374C88.3775 1.54875 88.2503 1.63626 88.0704 1.5925C88.1845 1.45249 88.2854 1.28184 88.5047 1.44374Z" fill="#4C566F"/>
<path d="M50.5073 0.630099C50.4283 0.704482 50.3538 0.68698 50.2836 0.612597C50.3713 0.468206 50.4415 0.520712 50.5073 0.630099Z" fill="#4C566F"/>
<path d="M75.0605 8.99151C75.043 9.08339 74.9772 9.12277 74.8939 9.1359C74.8851 9.01338 74.8325 8.84274 75.0605 8.99151Z" fill="#4C566F"/>
<path d="M69.7794 9.1359C69.6916 9.12277 69.6258 9.08339 69.6127 8.99151C69.8364 8.84274 69.7881 9.01338 69.7794 9.1359Z" fill="#4C566F"/>
<path d="M76.9656 7.11957C76.9523 7.10183 76.9346 7.08853 76.9213 7.0708C76.9301 7.07523 76.9434 7.07523 76.9479 7.07967C76.9567 7.08853 76.9567 7.10627 76.9656 7.11957Z" fill="#4C566F"/>
<path d="M67.7078 7.11957C67.7211 7.10183 67.7388 7.08853 67.7521 7.0708C67.7477 7.07967 67.7521 7.09297 67.7432 7.0974C67.7344 7.10627 67.7211 7.1107 67.7078 7.11957Z" fill="#4C566F"/>
<path d="M86.2268 2.10889C85.6838 2.40204 85.0926 2.58144 84.5145 2.78271C84.9875 2.31453 85.5699 2.10889 86.2268 2.10889Z" fill="#4C566F"/>
<path d="M12.7026 72.449C13.0266 71.3857 13.3507 70.3225 13.6791 69.2592C14.0907 67.9291 14.5724 66.6296 15.0673 65.3301C15.5621 64.0349 16.0657 62.7398 16.67 61.4884C17.143 60.5083 17.5151 59.4844 18.0625 58.5393C18.207 58.5087 18.2421 58.4168 18.2027 58.2855C18.264 58.1586 18.3209 58.0361 18.3822 57.9092C18.7107 57.8042 18.772 57.5504 18.7413 57.2485C19.1091 56.5441 19.4595 55.8309 19.8448 55.1396C20.7951 53.4375 21.8417 51.8011 22.9452 50.1953C23.8166 48.922 24.6924 47.6531 25.6865 46.463C26.5053 45.4785 27.2673 44.4459 28.0949 43.4702C28.7124 42.7438 29.3867 42.0656 30.0524 41.3874C31.0946 40.3242 32.1325 39.2566 33.2141 38.2371C33.9935 37.502 34.8562 36.8544 35.6707 36.1587C36.9231 35.0867 38.2368 34.0891 39.5856 33.1484C40.4745 32.5315 41.3416 31.862 42.3531 31.4245C42.7166 31.2669 43.0625 30.9825 43.3603 30.7288C43.9427 30.2387 44.6346 29.9412 45.2739 29.5955C46.7234 28.8167 48.1948 28.0685 49.7143 27.4121C51.2513 26.7471 52.7972 26.1389 54.3824 25.6051C56.3748 24.9312 58.3936 24.3668 60.443 23.8811C62.0282 23.5048 63.6397 23.3561 65.2249 23.0498C67.5195 22.6122 69.8316 22.4941 72.1525 22.481C74.5479 22.4678 76.952 22.5116 79.3167 22.8791C80.8449 23.1198 82.4039 23.2379 83.8928 23.6711C84.9306 23.973 86.0166 24.0649 87.0282 24.4193C88.2061 24.835 89.4498 25.0231 90.584 25.5657C90.7854 25.6619 91.0175 25.7013 91.2321 25.7626C92.4232 26.0951 93.5529 26.5939 94.6871 27.0752C95.9308 27.6003 97.1525 28.1822 98.3437 28.8167C99.8676 29.6305 101.374 30.4837 102.845 31.3851C104.522 32.4177 106.112 33.5903 107.693 34.7673C108.774 35.5724 109.826 36.43 110.811 37.3489C112.567 38.9897 114.358 40.5998 115.947 42.4069C117.537 44.2184 119.074 46.0648 120.519 47.9988C121.645 49.5083 122.661 51.0835 123.668 52.663C124.281 53.6213 124.802 54.6451 125.354 55.6427C125.888 56.6097 126.431 57.5811 126.943 58.5612C127.499 59.6244 127.981 60.7183 128.445 61.8297C128.94 63.011 129.487 64.1749 129.938 65.3782C130.735 67.5178 131.493 69.6661 132.11 71.8714C132.675 73.906 133.188 75.9537 133.599 78.0233C134.278 81.4143 134.716 84.8403 134.952 88.2926C135.128 90.8391 135.206 93.3856 135.136 95.9322C135.031 99.9007 134.65 103.843 133.958 107.755C133.354 111.172 132.553 114.545 131.497 117.858C130.39 121.332 129.085 124.718 127.512 128.009C126.313 130.52 124.968 132.953 123.514 135.32C122.507 136.961 121.395 138.532 120.243 140.081C119.197 141.49 118.106 142.855 116.941 144.163C115.549 145.73 114.139 147.278 112.584 148.692C111.301 149.86 110.027 151.019 108.665 152.1C106.3 153.982 103.813 155.666 101.238 157.25C99.0705 158.585 96.7322 159.543 94.442 160.611C91.9897 161.753 89.406 162.54 86.8092 163.301C84.6065 163.945 82.3601 164.334 80.1092 164.693C78.5372 164.942 76.9476 165.025 75.358 165.087C74.7318 165.113 74.1056 165.227 73.4794 165.222C69.9762 165.214 66.4861 164.995 63.0354 164.4C61.5772 164.15 60.1014 163.932 58.6782 163.507C56.5631 162.873 54.4568 162.212 52.3724 161.459C51.339 161.087 50.3405 160.632 49.3289 160.204C48.0722 159.67 46.8504 159.044 45.6418 158.41C44.6609 157.893 43.6975 157.342 42.7648 156.747C41.0175 155.631 39.2878 154.48 37.6369 153.22C36.2794 152.179 34.9613 151.081 33.687 149.939C32.2726 148.67 30.915 147.327 29.6145 145.935C28.5153 144.763 27.4556 143.551 26.4484 142.304C25.415 141.026 24.4297 139.704 23.4926 138.348C22.5073 136.922 21.5395 135.482 20.6549 133.99C19.2142 131.553 17.8918 129.055 16.7357 126.469C15.7986 124.368 14.9228 122.242 14.1827 120.063C13.3638 117.674 12.6238 115.259 12.0764 112.787C11.7655 111.378 11.4152 109.973 11.1568 108.551C10.7758 106.473 10.4824 104.386 10.2547 102.285C9.84308 98.4918 9.74238 94.6852 9.8431 90.8785C9.93944 87.1199 10.2853 83.3789 11.0648 79.6904C11.4502 77.8746 11.8005 76.05 12.2297 74.2473C12.3085 74.221 12.3917 74.1948 12.4705 74.1729C12.4837 74.1816 12.4968 74.1904 12.5143 74.1992C12.5012 74.1904 12.4837 74.186 12.4705 74.1773C12.3961 73.8754 12.6588 73.5953 12.5143 73.2891C12.5581 73.1709 12.5975 73.0484 12.6413 72.9303C12.8471 72.7946 12.7639 72.6196 12.7026 72.449ZM49.9201 42.6257C50.4325 42.757 50.4325 42.757 50.5332 42.28C50.5419 42.1356 50.5507 41.9869 50.5595 41.8425C50.7346 41.8118 50.9054 41.7856 51.0806 41.755C51.0937 41.93 51.1069 42.105 51.1156 42.28C51.1244 42.3457 51.1594 42.3719 51.2251 42.3632C53.7956 43.3214 56.4624 43.8596 59.1862 44.0521C62.0282 44.2534 64.8702 44.1746 67.6772 43.6102C68.9602 43.352 70.2214 43.0107 71.4081 42.4288C71.8285 42.2231 72.0299 41.9869 72.0299 41.4749C72.0168 35.5374 72.0299 29.6043 72.0474 23.6667C72.0474 23.3342 71.9424 23.2511 71.6227 23.2686C70.4885 23.3298 69.3543 23.3911 68.2202 23.4042C67.1166 23.4173 66.0044 23.4698 64.9403 23.7105C63.2456 24.0955 61.5158 24.2705 59.8255 24.7125C58.1396 25.15 56.4712 25.6357 54.7984 26.1082C53.7999 26.3927 52.8541 26.874 51.8425 27.1496C51.5929 27.0971 51.4221 27.189 51.3214 27.4209C51.1375 27.5084 51.0631 27.6659 51.0499 27.8584C50.8047 28.0335 50.6339 27.5653 50.3843 27.7841C49.6968 28.1078 48.983 28.3835 48.3262 28.7598C47.0781 29.4686 45.7688 30.0593 44.5295 30.7944C43.172 31.5995 41.8495 32.4439 40.5358 33.319C39.1958 34.2116 37.9171 35.1655 36.6691 36.1806C35.732 36.9419 34.8212 37.7383 33.9059 38.5302C32.5134 39.7379 31.2785 41.0943 29.9692 42.3807C29.7108 42.6301 29.7196 42.7395 30.0611 42.8663C30.9632 43.2076 31.8916 43.4527 32.8287 43.6627C35.789 44.319 38.7842 44.5465 41.8189 44.3934C44.166 44.2752 46.4651 43.9208 48.6984 43.177C48.8298 43.3433 48.8823 43.2645 48.9086 43.107C49.2501 42.9582 49.5873 42.792 49.9201 42.6257ZM94.0302 42.28C93.7982 42.4813 93.8945 42.6169 94.1353 42.6607C94.2974 42.6869 94.477 42.6344 94.6434 42.6169C94.7091 42.6694 94.766 42.7351 94.8404 42.7745C95.9352 43.4045 97.1613 43.632 98.3743 43.8596C100.765 44.3102 103.191 44.4634 105.626 44.4503C105.718 44.5947 105.788 44.5421 105.849 44.424C106.086 44.4153 106.327 44.4065 106.563 44.3978C106.962 44.6734 107.448 44.6384 107.842 44.3059C109.878 44.0871 111.884 43.7283 113.837 43.1026C114.169 42.9976 114.498 42.8751 114.822 42.7482C114.94 42.7001 115.15 42.6169 114.975 42.4638C114.564 42.105 114.323 41.5887 113.902 41.2693C113.123 40.6786 112.479 39.9523 111.783 39.2872C110.64 38.2065 109.475 37.1651 108.232 36.2069C107.351 35.5287 106.467 34.8636 105.578 34.1985C104.194 33.1659 102.736 32.247 101.278 31.3369C100.31 30.7331 99.3158 30.1643 98.3042 29.648C97.1043 29.0354 95.8783 28.4798 94.6521 27.9197C94.096 27.6659 94.0829 27.6922 93.9953 28.2872C93.6844 28.4185 93.6975 28.0597 93.5311 27.9766C93.5223 27.9197 93.5135 27.8628 93.5048 27.8016C93.7412 27.6484 93.7063 27.5434 93.4523 27.4734C93.1107 27.3903 92.8742 27.1146 92.5283 27.0227C91.3853 26.7208 90.3256 26.1608 89.174 25.8807C88.8017 25.7888 88.4164 25.7232 88.066 25.5744C86.7786 25.0275 85.3948 24.835 84.0591 24.4806C82.7629 24.1393 81.4011 24.0561 80.0743 23.8111C77.7753 23.3867 75.4543 23.3473 73.1334 23.2729C72.7218 23.2598 72.6474 23.3955 72.6518 23.7805C72.6737 25.5088 72.6561 27.2415 72.6518 28.9698C72.643 33.214 72.643 37.4539 72.6255 41.6981C72.6255 41.9956 72.7131 42.1881 72.9583 42.35C73.405 42.6476 73.8954 42.8313 74.4078 42.967C75.4938 43.2514 76.5623 43.6714 77.6614 43.7983C79.4393 44.004 81.226 44.2009 83.0301 44.144C84.9876 44.0783 86.9275 43.934 88.8587 43.597C90.1855 43.3651 91.4598 42.932 92.7691 42.6344C93.2158 42.5338 93.5135 42.2713 93.4785 41.7593C93.6536 41.79 93.8245 41.8162 93.9997 41.8469C93.9865 41.8862 93.9734 41.9212 93.9602 41.9606C93.9339 41.9781 93.9121 41.9956 93.8858 42.0087C93.9121 42.0262 93.9339 42.0437 93.9602 42.0569C94.0434 42.1138 94.0434 42.1969 94.0302 42.28ZM72.9539 164.465C73.6152 164.465 74.2764 164.452 74.9376 164.47C76.1637 164.496 77.3855 164.426 78.5985 164.264C79.8772 164.093 81.1471 163.826 82.4214 163.621C83.9409 163.376 85.4342 163.008 86.9099 162.584C88.1273 162.234 89.3447 161.858 90.5402 161.42C91.5649 161.044 92.5939 160.667 93.6055 160.269C94.7966 159.797 95.9395 159.21 97.1043 158.677C97.3583 158.558 97.6342 158.488 97.8751 158.353C99.0443 157.688 100.209 157.018 101.37 156.336C102.118 155.898 102.872 155.465 103.59 154.979C104.619 154.288 105.613 153.548 106.624 152.831C107.207 152.42 107.745 151.951 108.31 151.518C109.129 150.888 109.878 150.171 110.649 149.484C111.489 148.731 112.365 148.013 113.145 147.204C114.564 145.729 116 144.277 117.287 142.675C117.905 141.905 118.57 141.166 119.153 140.374C120.458 138.606 121.745 136.821 122.906 134.944C123.887 133.36 124.828 131.754 125.695 130.109C126.685 128.232 127.587 126.311 128.406 124.351C129.365 122.067 130.214 119.744 130.95 117.381C131.874 114.401 132.605 111.369 133.192 108.297C133.24 108.043 133.192 107.943 132.978 107.864C131.436 107.317 129.851 107.09 128.235 107.387C125.45 107.899 123.173 109.251 121.386 111.487C120.37 112.756 119.591 114.134 119.048 115.652C118.641 116.781 118.351 117.932 118.22 119.14C118.111 120.146 118.093 121.161 118.168 122.15C118.242 123.1 118.413 124.066 118.754 124.985C118.921 125.432 118.711 125.594 118.242 125.515C118.076 125.489 117.892 125.502 117.721 125.537C116.609 125.773 115.54 126.132 114.524 126.635C112.405 127.676 110.552 129.081 108.91 130.783C107.759 131.973 106.651 133.185 105.876 134.668C105.087 136.173 104.212 137.639 103.936 139.363C103.888 139.678 103.712 139.879 103.318 139.893C102.696 139.906 102.092 140.094 101.497 140.273C98.7903 141.087 96.4124 142.47 94.3499 144.391C93.1194 145.537 91.9984 146.78 91.2102 148.285C90.7591 149.142 90.365 150.026 90.33 151.019C90.3168 151.396 90.0366 151.518 89.66 151.334C89.0819 151.054 88.5258 150.731 87.9346 150.486C84.1774 148.932 80.21 148.394 76.1988 148.197C72.424 148.014 68.6581 148.189 64.9183 148.788C61.5071 149.335 58.1615 150.114 55.0129 151.58C54.7108 151.72 54.5181 151.693 54.4699 151.308C54.3911 150.669 54.2554 150.048 54.0233 149.444C53.2088 147.313 51.663 145.73 50.0603 144.202C48.7684 142.973 47.2402 142.063 45.6287 141.315C44.2318 140.667 42.7998 140.107 41.2365 139.98C40.9606 139.958 40.873 139.788 40.8249 139.534C40.5446 138.007 39.8746 136.615 39.1783 135.25C38.3419 133.614 37.1552 132.214 35.8678 130.914C33.6914 128.713 31.1909 126.989 28.2526 125.952C27.6877 125.751 27.0922 125.554 26.4747 125.615C25.8792 125.677 25.8353 125.637 26.0061 125.042C26.374 123.738 26.6192 122.408 26.628 121.047C26.6324 120.129 26.4922 119.218 26.3477 118.308C25.7741 114.747 24.1232 111.811 21.2768 109.614C18.7545 107.663 15.8993 106.875 12.7245 107.685C11.6867 107.947 11.6911 107.956 11.9144 109.01C11.9582 109.216 11.9669 109.426 12.0063 109.632C12.3961 111.583 12.8996 113.504 13.4251 115.425C14.1652 118.133 15.0892 120.785 16.1314 123.388C16.9021 125.309 17.7604 127.195 18.7063 129.041C20.055 131.671 21.5132 134.231 23.1685 136.681C24.6705 138.908 26.2908 141.048 28.0074 143.117C29.4875 144.898 31.1121 146.535 32.7762 148.136C34.3614 149.663 36.0385 151.094 37.7726 152.446C38.9856 153.391 40.2687 154.257 41.5561 155.102C42.8392 155.942 44.1398 156.773 45.4929 157.5C46.6971 158.143 47.9101 158.79 49.1538 159.346C50.8879 160.12 52.657 160.816 54.4481 161.455C56.8171 162.304 59.2431 162.956 61.6998 163.463C63.3419 163.8 65.0234 163.923 66.6787 164.177C68.7675 164.492 70.8608 164.443 72.9539 164.465ZM127.272 106.683C127.123 106.6 127.018 106.538 126.913 106.486C123.93 104.968 120.843 103.712 117.655 102.71C117.226 102.574 117.169 102.408 117.292 102.027C117.445 101.546 117.568 101.056 117.681 100.566C118.281 97.9624 118.654 95.3327 118.671 92.6549C118.68 91.1148 118.544 89.5965 118.365 88.0694C118.137 86.153 117.953 84.2321 117.502 82.3463C116.67 78.859 115.558 75.4593 114.073 72.1952C112.304 68.3141 109.795 64.9538 106.506 62.2147C105.569 61.4359 104.667 60.5739 103.533 60.0926C100.038 58.6006 96.4081 58.4868 92.7472 59.2788C90.3694 59.7951 88.2455 60.9239 86.4589 62.5779C84.5802 64.3149 82.925 66.2139 82.2769 68.8261C81.8741 70.4494 81.3792 72.042 81.2434 73.7222C81.0946 75.5731 81.0376 77.4195 81.4405 79.2441C81.8127 80.933 82.0011 82.6438 81.6245 84.3284C81.1165 86.6168 79.8553 88.4851 78.0073 89.9334C76.1681 91.3773 73.9786 91.6967 71.7453 91.7973C70.2564 91.863 68.8858 91.3117 67.629 90.5853C63.8105 88.3888 62.7507 84.7222 63.1755 80.8411C63.3331 79.406 63.7185 78.0014 63.6397 76.5357C63.5915 75.6124 63.6003 74.6892 63.5434 73.766C63.4339 71.9414 63.1142 70.1781 62.4792 68.4629C61.1042 64.7481 58.6038 62.0747 55.0392 60.4076C52.2629 59.1125 49.3377 58.5524 46.2768 58.9681C43.9252 59.2831 41.7445 60.097 39.7783 61.4359C38.1799 62.5254 36.8531 63.908 35.5525 65.3344C33.8446 67.2071 32.439 69.2811 31.2654 71.5126C29.8422 74.221 28.9839 77.1351 28.2438 80.0842C27.7008 82.2457 27.403 84.4553 27.1491 86.6693C26.9827 88.1263 26.8644 89.5833 26.7856 91.0404C26.6937 92.6593 26.8469 94.2782 27.0703 95.8884C27.3593 97.9405 27.6176 99.9926 27.9942 102.027C28.0512 102.329 27.9723 102.447 27.6658 102.539C24.3246 103.576 21.0754 104.854 17.94 106.411C17.7692 106.495 17.4144 106.582 17.5239 106.775C17.6378 106.98 17.975 107.081 18.2728 106.971C18.3866 106.928 18.4917 106.862 18.6012 106.81C20.309 105.974 22.0519 105.199 23.8341 104.539C27.3549 103.235 30.9544 102.198 34.6504 101.52C37.4486 101.008 40.2643 100.631 43.1063 100.553C44.801 100.505 46.4957 100.491 48.1904 100.614C50.2617 100.763 52.3198 100.981 54.3605 101.367C56.7865 101.826 59.1512 102.482 61.4458 103.379C63.8411 104.32 66.127 105.462 68.2289 106.963C69.35 107.763 70.4447 108.604 71.3994 109.601C71.6271 109.837 71.8942 110.104 71.8066 110.468C71.6621 111.08 71.8197 111.68 71.8153 112.288C71.8066 113.723 71.811 115.162 71.811 116.598C71.811 118.663 71.811 120.724 71.8153 122.789C71.8153 124.329 71.8153 125.865 71.8197 127.405C71.8197 127.633 71.7891 127.904 72.1219 127.913C72.4897 127.921 72.4503 127.628 72.4591 127.383C72.4635 127.313 72.4591 127.243 72.4591 127.173C72.4591 125.965 72.4591 124.758 72.4547 123.555C72.4503 119.498 72.4985 115.438 72.4066 111.382C72.3847 110.415 72.7393 109.816 73.348 109.216C74.4165 108.157 75.6164 107.247 76.86 106.42C79.2422 104.841 81.8259 103.651 84.5233 102.723C88.5608 101.336 92.734 100.653 96.9861 100.452C99.3902 100.338 101.807 100.395 104.212 100.631C107.093 100.916 109.948 101.362 112.764 102.036C117.331 103.13 121.728 104.701 125.932 106.792C126.4 107.015 126.794 107.068 127.272 106.683ZM72.3233 134.366C72.3233 133.776 72.3277 133.373 72.3233 132.971C72.3233 132.822 72.2752 132.686 72.1044 132.66C71.9161 132.634 71.811 132.761 71.7541 132.914C71.7191 133.006 71.7234 133.119 71.719 133.224C71.7146 135.18 71.7103 137.136 71.7103 139.092C71.7103 139.179 71.7103 139.271 71.7322 139.35C71.7803 139.529 71.8723 139.665 72.0912 139.661C72.3058 139.656 72.3452 139.499 72.3759 139.346C72.4065 139.175 72.4284 139 72.424 138.829C72.4153 137.28 72.4722 135.727 72.3233 134.366Z" fill="#4C566F"/>
<path d="M12.5103 73.2891C12.6595 73.591 12.3919 73.8754 12.4665 74.1773L12.4709 74.1729C12.3919 74.1992 12.3086 74.2254 12.2296 74.2473C12.313 73.9235 12.3437 73.5866 12.5103 73.2891Z" fill="#4C566F"/>
<path d="M18.7375 57.2529C18.7682 57.5548 18.7068 57.8086 18.3778 57.9136C18.4129 57.6467 18.5883 57.4542 18.7375 57.2529Z" fill="#4C566F"/>
<path d="M12.7027 72.4492C12.7685 72.6199 12.8475 72.7949 12.6413 72.9305C12.5931 72.7599 12.5799 72.5936 12.7027 72.4492Z" fill="#4C566F"/>
<path d="M18.1985 58.2856C18.2379 58.4169 18.2072 58.5088 18.0581 58.5394C18.0493 58.4257 18.102 58.3425 18.1985 58.2856Z" fill="#4C566F"/>
<path d="M127.272 106.683C126.794 107.068 126.4 107.02 125.923 106.783C121.719 104.692 117.322 103.117 112.755 102.027C109.935 101.353 107.084 100.907 104.203 100.623C101.799 100.386 99.3858 100.33 96.9773 100.443C92.7297 100.645 88.5521 101.332 84.5146 102.714C81.8127 103.642 79.2335 104.832 76.8512 106.411C75.6032 107.238 74.4078 108.149 73.3393 109.207C72.7306 109.811 72.3759 110.406 72.3978 111.373C72.4898 115.429 72.4416 119.485 72.446 123.546C72.446 124.754 72.446 125.961 72.4503 127.164C72.4503 127.234 72.4547 127.304 72.4503 127.374C72.4416 127.615 72.481 127.913 72.1131 127.904C71.7847 127.895 71.811 127.619 71.811 127.396C71.8066 125.856 71.8066 124.32 71.8066 122.78C71.8066 120.715 71.8022 118.654 71.8022 116.589C71.8022 115.154 71.8023 113.714 71.8066 112.279C71.811 111.675 71.6534 111.071 71.7979 110.459C71.8854 110.096 71.6183 109.829 71.3906 109.592C70.436 108.595 69.3412 107.755 68.2202 106.954C66.1182 105.453 63.8324 104.307 61.437 103.371C59.1424 102.469 56.7733 101.813 54.3517 101.358C52.3111 100.973 50.2529 100.754 48.1816 100.605C46.4869 100.483 44.7879 100.496 43.0976 100.544C40.2556 100.623 37.4399 100.999 34.6417 101.511C30.9457 102.189 27.3461 103.226 23.8254 104.53C22.0431 105.191 20.3046 105.965 18.5924 106.801C18.483 106.853 18.3779 106.919 18.264 106.963C17.9662 107.077 17.629 106.976 17.5152 106.766C17.4101 106.578 17.7604 106.49 17.9312 106.403C21.0666 104.845 24.3158 103.567 27.657 102.53C27.9636 102.434 28.0424 102.32 27.9855 102.019C27.6089 99.9839 27.3505 97.9274 27.0615 95.8797C26.8338 94.2695 26.6849 92.6506 26.7769 91.0317C26.8601 89.5747 26.9739 88.1176 27.1403 86.6606C27.3943 84.4422 27.6921 82.237 28.2351 80.0755C28.9752 77.1264 29.8334 74.2123 31.2566 71.5039C32.4302 69.268 33.8359 67.1984 35.5437 65.3257C36.8399 63.8993 38.1712 62.5167 39.7695 61.4272C41.7357 60.0927 43.9164 59.2788 46.268 58.9594C49.329 58.5481 52.2585 59.1038 55.0305 60.3989C58.595 62.066 61.0955 64.7394 62.4705 68.4542C63.1054 70.1738 63.4251 71.9327 63.5346 73.7573C63.5915 74.6805 63.5828 75.6037 63.6309 76.527C63.7054 77.9884 63.32 79.3973 63.1667 80.8324C62.7463 84.7179 63.8061 88.3801 67.6202 90.5766C68.8814 91.303 70.2477 91.8543 71.7366 91.7886C73.9699 91.688 76.1594 91.3686 77.9986 89.9247C79.8465 88.472 81.1121 86.6037 81.6157 84.3197C81.9879 82.6351 81.8039 80.9243 81.4317 79.2354C81.0288 77.4108 81.0858 75.5644 81.2347 73.7135C81.3704 72.0334 81.8653 70.4407 82.2682 68.8174C82.9163 66.2052 84.5716 64.3063 86.4502 62.5692C88.2368 60.9153 90.3606 59.7864 92.7384 59.2701C96.395 58.4781 100.03 58.5919 103.524 60.0839C104.658 60.5696 105.56 61.4272 106.497 62.206C109.786 64.9494 112.295 68.3054 114.064 72.1865C115.549 75.4462 116.657 78.846 117.493 82.3376C117.944 84.2234 118.128 86.1399 118.356 88.0607C118.535 89.5878 118.676 91.1061 118.662 92.6462C118.645 95.324 118.273 97.9537 117.673 100.557C117.559 101.047 117.436 101.542 117.283 102.019C117.16 102.399 117.217 102.57 117.647 102.701C120.834 103.703 123.926 104.959 126.904 106.477C127.018 106.538 127.123 106.6 127.272 106.683ZM27.495 91.968C27.5213 92.5368 27.5301 93.3244 27.5695 94.1077C27.6921 96.6542 28.1344 99.157 28.5416 101.664C28.6336 102.242 28.6949 102.277 29.2642 102.084C30.9545 101.515 32.7061 101.192 34.449 100.868C36.0867 100.566 37.7376 100.312 39.406 100.155C41.2583 99.9795 43.1151 99.857 44.9718 99.8045C46.3512 99.7651 47.7262 99.8964 49.1012 99.9752C51.2995 100.102 53.4671 100.443 55.6216 100.885C58.1089 101.393 60.5043 102.202 62.8427 103.178C64.8921 104.031 66.8232 105.125 68.6449 106.385C69.7747 107.168 70.852 108.035 71.8416 109.006C72.0343 109.194 72.1964 109.343 72.446 109.072C72.9802 108.494 73.6108 108.017 74.2107 107.514C75.9711 106.044 77.9242 104.871 79.9648 103.839C81.6376 102.994 83.3892 102.36 85.1627 101.765C86.9887 101.152 88.863 100.754 90.7503 100.417C92.3312 100.137 93.9252 99.9664 95.528 99.8614C97.354 99.7389 99.1801 99.6339 101.006 99.7301C102.394 99.8045 103.782 99.9402 105.171 100.067C107.553 100.29 109.896 100.715 112.225 101.209C113.434 101.467 114.634 101.782 115.82 102.145C116.451 102.338 116.569 102.268 116.749 101.651C117.616 98.6538 117.997 95.5822 118.097 92.4756C118.133 91.4342 117.997 90.3885 117.9 89.3471C117.773 87.9601 117.668 86.5687 117.454 85.1948C117.077 82.8189 116.468 80.4955 115.689 78.2159C114.55 74.8905 113.346 71.6046 111.38 68.6467C109.751 66.1921 107.776 64.0787 105.521 62.2016C103.909 60.8584 102.079 60.0314 100.043 59.6376C98.5976 59.3576 97.1394 59.3488 95.668 59.4713C94.4638 59.572 93.2815 59.712 92.1254 60.0752C89.879 60.7796 87.939 61.9785 86.2443 63.593C85.097 64.6869 84.0723 65.9208 83.4461 67.3603C82.2857 70.0381 81.7295 72.8778 81.6945 75.8006C81.677 77.1264 81.896 78.4347 82.1456 79.7386C82.5353 81.7819 82.6097 83.8121 81.7821 85.7942C80.9851 87.7019 79.8641 89.3778 78.1562 90.5635C75.7215 92.2524 72.9934 92.6462 70.1119 92.1343C67.721 91.7099 65.8292 90.441 64.3753 88.5552C62.4573 86.0699 62.2033 83.1821 62.6237 80.1892C62.7989 78.9335 63.0748 77.6908 63.0967 76.4132C63.1274 74.7987 62.904 73.2147 62.6632 71.6308C62.199 68.5811 60.9334 65.8814 58.7351 63.7024C55.7968 60.7927 52.1272 59.5676 48.0678 59.397C46.7584 59.3401 45.471 59.6507 44.2099 60.0139C42.4626 60.5171 40.8555 61.3047 39.4148 62.416C37.939 63.5537 36.6866 64.9101 35.4824 66.3233C33.6125 68.5198 32.0536 70.9176 30.9632 73.5866C28.5898 79.406 27.5125 85.4792 27.495 91.968Z" fill="#D2D9E3"/>
<path d="M50.5595 41.8425C50.4325 41.1906 50.4938 40.5255 50.4938 39.8692C50.485 36.08 50.5025 32.2909 50.5025 28.5017C50.5025 28.2611 50.5507 28.0073 50.3887 27.7929C50.6383 27.5741 50.8091 28.0423 51.0543 27.8673C51.1813 28.8211 51.0937 29.7794 51.0981 30.7332C51.1156 34.2336 51.1112 37.734 51.1156 41.2344C51.1156 41.405 51.0937 41.58 51.0805 41.7507C50.9054 41.7857 50.7346 41.8163 50.5595 41.8425Z" fill="#4C566F"/>
<path d="M93.9953 28.2872C94.1442 29.0967 94.0478 29.9193 94.0522 30.7331C94.0741 34.1635 94.0609 37.5939 94.0522 41.0286C94.0522 41.2999 94.1661 41.5843 94.0041 41.8468C93.8289 41.8162 93.658 41.79 93.4829 41.7593C93.3865 40.613 93.4523 39.4622 93.4479 38.3114C93.4348 35.0517 93.4479 31.7964 93.4567 28.5366C93.4567 28.3485 93.4129 28.1516 93.5311 27.9766C93.7019 28.0597 93.6844 28.4185 93.9953 28.2872Z" fill="#4C566F"/>
<path d="M72.3233 134.367C72.4678 135.727 72.4152 137.281 72.424 138.83C72.424 139 72.4065 139.175 72.3758 139.346C72.3452 139.499 72.3058 139.657 72.0912 139.661C71.8678 139.665 71.7803 139.53 71.7321 139.35C71.7102 139.267 71.7102 139.18 71.7102 139.092C71.7102 137.136 71.7146 135.18 71.719 133.225C71.719 133.12 71.7146 133.01 71.754 132.914C71.811 132.761 71.9204 132.634 72.1043 132.66C72.2751 132.682 72.3233 132.818 72.3233 132.971C72.3277 133.373 72.3233 133.776 72.3233 134.367Z" fill="#D2D9E3"/>
<path d="M106.568 44.3979C106.997 44.3892 107.413 44.2316 107.846 44.306C107.448 44.6386 106.966 44.6736 106.568 44.3979Z" fill="#4C566F"/>
<path d="M94.0302 42.2803C94.2798 42.3109 94.4769 42.4378 94.6477 42.6172C94.4769 42.6347 94.3017 42.6916 94.1397 42.6609C93.8944 42.6216 93.7981 42.4815 94.0302 42.2803Z" fill="#4C566F"/>
<path d="M49.92 42.6259C50.0777 42.429 50.2835 42.3153 50.5331 42.2803C50.4324 42.7572 50.4324 42.7572 49.92 42.6259Z" fill="#4C566F"/>
<path d="M51.8478 27.1585C51.7732 27.4342 51.5451 27.4298 51.3258 27.4298C51.4267 27.1979 51.5977 27.1017 51.8478 27.1585Z" fill="#4C566F"/>
<path d="M93.5049 27.8018C93.4873 27.6924 93.4698 27.583 93.4523 27.4736C93.7067 27.5436 93.7417 27.6487 93.5049 27.8018Z" fill="#4C566F"/>
<path d="M105.63 44.4502C105.696 44.3889 105.775 44.3846 105.854 44.4239C105.793 44.5421 105.722 44.5946 105.63 44.4502Z" fill="#4C566F"/>
<path d="M48.7072 43.1905C48.7554 43.103 48.8343 43.1074 48.9177 43.1205C48.8914 43.2824 48.8387 43.3568 48.7072 43.1905Z" fill="#4C566F"/>
<path d="M12.4705 74.1773C12.4838 74.1861 12.5015 74.1906 12.5148 74.1994C12.5015 74.1906 12.4882 74.1817 12.4705 74.1773C12.4705 74.1773 12.4749 74.1728 12.4705 74.1773Z" fill="#4C566F"/>
<path d="M51.1156 42.2847C51.1506 42.3108 51.1899 42.3412 51.2249 42.3673C51.1637 42.376 51.1243 42.3455 51.1156 42.2847Z" fill="#4C566F"/>
<path d="M93.9652 41.9565C93.974 41.9917 93.974 42.0224 93.9652 42.0575C93.9387 42.04 93.9166 42.0224 93.8901 42.0092C93.9166 41.9917 93.9387 41.9741 93.9652 41.9565Z" fill="#4C566F"/>
<path d="M27.495 91.9681C27.5081 85.4792 28.5898 79.4061 30.9632 73.5867C32.0536 70.9176 33.6125 68.5199 35.4824 66.3234C36.6866 64.9101 37.939 63.5493 39.4148 62.4161C40.8555 61.3047 42.4626 60.5171 44.2098 60.0139C45.471 59.6508 46.7584 59.3445 48.0678 59.397C52.1228 59.5676 55.7924 60.7928 58.7351 63.7025C60.9378 65.8815 62.2034 68.5811 62.6632 71.6308C62.904 73.2104 63.1273 74.7987 63.0967 76.4132C63.0704 77.6953 62.7989 78.9335 62.6237 80.1893C62.2077 83.1821 62.4617 86.0656 64.3753 88.5552C65.8292 90.441 67.7166 91.7099 70.1119 92.1343C72.9977 92.6463 75.7215 92.2525 78.1562 90.5635C79.8684 89.3778 80.9851 87.702 81.782 85.7943C82.6097 83.8122 82.5353 81.782 82.1455 79.7386C81.8959 78.4347 81.677 77.1264 81.6945 75.8007C81.7295 72.8779 82.2813 70.0338 83.4461 67.3604C84.0723 65.9208 85.097 64.687 86.2443 63.5931C87.939 61.9785 89.8789 60.7753 92.1254 60.0752C93.2815 59.712 94.4681 59.572 95.668 59.4714C97.1393 59.3489 98.5976 59.3576 100.043 59.6377C102.079 60.0314 103.909 60.8584 105.521 62.2017C107.78 64.0831 109.751 66.1921 111.38 68.6468C113.346 71.609 114.55 74.8906 115.689 78.2159C116.468 80.4956 117.077 82.819 117.454 85.1948C117.673 86.5687 117.773 87.9601 117.9 89.3472C117.997 90.3885 118.128 91.4343 118.097 92.4756C117.997 95.5822 117.616 98.6538 116.749 101.651C116.569 102.268 116.451 102.338 115.82 102.145C114.634 101.782 113.438 101.467 112.225 101.209C109.891 100.71 107.553 100.29 105.171 100.067C103.782 99.9358 102.394 99.8002 101.006 99.7302C99.1801 99.6339 97.354 99.7389 95.5279 99.8614C93.9252 99.9708 92.3312 100.137 90.7503 100.417C88.8629 100.754 86.9887 101.152 85.1627 101.765C83.3891 102.36 81.6332 102.994 79.9648 103.839C77.9241 104.871 75.9711 106.044 74.2107 107.514C73.6064 108.017 72.9802 108.494 72.4459 109.072C72.1963 109.343 72.0343 109.194 71.8416 109.006C70.8563 108.039 69.7747 107.168 68.6449 106.385C66.8232 105.125 64.8964 104.036 62.8427 103.178C60.5042 102.202 58.1089 101.397 55.6216 100.885C53.4671 100.443 51.3039 100.102 49.1012 99.9752C47.7262 99.8965 46.3468 99.7608 44.9718 99.8046C43.1151 99.8571 41.2627 99.9796 39.406 100.155C37.7376 100.312 36.0867 100.562 34.4489 100.868C32.7061 101.187 30.9545 101.515 29.2641 102.084C28.6949 102.277 28.6336 102.242 28.5416 101.664C28.1343 99.157 27.6921 96.6542 27.5695 94.1077C27.5344 93.3201 27.5256 92.5369 27.495 91.9681Z" fill="#4C566F"/>
<path d="M30.3314 137.153L32.8835 142.311L39.2741 139.154L36.7219 133.996L30.3314 137.153Z" fill="#D2D9E3"/>
<path d="M27.7827 131.995L30.3348 137.153L36.7254 133.996L34.1732 128.838L27.7827 131.995Z" fill="#D2D9E3"/>
<path d="M25.2302 126.839L27.7823 131.997L34.1729 128.84L31.6207 123.682L25.2302 126.839Z" fill="#D2D9E3"/>
<path d="M22.6777 121.682L25.2299 126.84L31.6204 123.683L29.0682 118.525L22.6777 121.682Z" fill="#D2D9E3"/>
<path d="M20.1233 116.522L22.6754 121.68L29.0659 118.523L26.5138 113.365L20.1233 116.522Z" fill="#D2D9E3"/>
<path d="M17.5747 111.363L20.1268 116.521L26.5173 113.364L23.9652 108.206L17.5747 111.363Z" fill="#D2D9E3"/>
<path d="M15.0221 106.207L17.5742 111.365L23.9647 108.208L21.4126 103.05L15.0221 106.207Z" fill="#D2D9E3"/>
<path d="M12.4696 101.051L15.0217 106.208L21.4122 103.051L18.8601 97.8938L12.4696 101.051Z" fill="#D2D9E3"/>
<path d="M17.3662 100.369L36.2531 138.536C37.7244 141.516 41.2671 142.816 44.455 141.691L50.7871 154.485C52.5344 158.012 53.4802 161.888 53.5634 165.852C53.6466 169.817 54.5925 173.689 56.3397 177.22L69.9849 205.004L74.5653 202.742L83.052 198.55L87.6325 196.288L57.5264 135.237C60.3553 133.391 61.472 129.785 59.9962 126.81L41.1094 88.6427C39.511 85.418 35.4867 84.1491 32.1193 85.8162L20.5804 91.5174C17.2042 93.1757 15.7679 97.1399 17.3662 100.369Z" fill="#FF2C3B"/>
<path d="M175.047 32.103L164.134 43.0067L153.222 32.103" stroke="#4C566F" stroke-miterlimit="10" stroke-linecap="round" stroke-linejoin="round"/>
<path d="M164.135 43.0066V3.02783" stroke="#4C566F" stroke-miterlimit="10" stroke-linecap="round" stroke-linejoin="round"/>
<path d="M153.222 13.9315L164.134 3.02783L175.047 13.9315" stroke="#4C566F" stroke-miterlimit="10" stroke-linecap="round" stroke-linejoin="round"/>
</svg>
