<svg width="172" height="200" viewBox="0 0 172 200" fill="none" xmlns="http://www.w3.org/2000/svg">
<path d="M160.759 42.6917V2.27979" stroke="#4C566F" stroke-miterlimit="10" stroke-linecap="round" stroke-linejoin="round"/>
<path d="M171.672 32.2212L160.759 43.1249L149.846 32.2212" stroke="#4C566F" stroke-miterlimit="10" stroke-linecap="round" stroke-linejoin="round"/>
<path d="M87.8873 1.0063C88.2902 0.857531 88.7105 0.791899 89.1309 0.739393C89.4243 0.910037 89.6433 0.726266 89.871 0.590627C90.8738 0.358726 91.881 0.17058 92.9232 0.205584C93.383 0.218711 93.834 0.0480669 94.3025 0.039316C99.8639 -0.0919484 105.049 1.20757 109.962 3.82848C112.366 5.1105 114.63 6.55878 116.741 8.26084C118.795 9.91915 120.673 11.7569 122.438 13.7258C124.553 16.0842 126.449 18.5957 128.183 21.2341C129.979 23.9601 131.577 26.7998 132.983 29.7445C134.073 32.0241 135.067 34.3475 135.978 36.7015C137.226 39.9262 138.281 43.2166 139.144 46.5638C140.09 50.2348 140.834 53.9452 141.373 57.7038C141.723 60.1409 142.012 62.5824 142.179 65.0371C142.398 68.2224 142.476 71.4121 142.38 74.6062C142.301 77.1572 142.152 79.6993 141.872 82.2371C141.706 83.7466 141.496 85.2518 141.263 86.7526C141.189 87.247 141.294 87.6846 141.417 88.1396C142.485 92.1301 143.19 96.1817 143.567 100.29C143.851 103.388 143.948 106.49 143.869 109.601C143.777 113.29 143.475 116.957 142.914 120.601C142.411 123.9 141.754 127.169 140.878 130.389C139.88 134.065 138.711 137.683 137.287 141.214C135.597 145.415 133.644 149.488 131.371 153.409C130.193 155.434 128.95 157.412 127.636 159.346C126.086 161.626 124.417 163.827 122.644 165.94C120.678 168.281 118.606 170.53 116.377 172.626C114.306 174.577 112.16 176.45 109.879 178.156C107.829 179.692 105.714 181.14 103.499 182.427C102.277 183.136 101.064 183.871 99.7588 184.422C99.4742 184.479 99.0844 184.321 98.9881 184.785C98.9618 184.803 98.9312 184.816 98.9005 184.816C98.7648 184.768 98.6859 184.816 98.6553 184.951C98.5984 184.982 98.5459 185.008 98.4889 185.039C98.3357 184.969 98.2262 185.035 98.1342 185.157C98.0685 185.179 98.0072 185.205 97.9416 185.227C97.7357 185.214 97.5693 185.262 97.4949 185.481C97.3197 185.625 97.114 185.704 96.8994 185.761C96.7374 185.726 96.5841 185.7 96.5622 185.932C96.4002 185.988 96.2381 186.045 96.0805 186.102C95.9272 186.05 95.7739 185.997 95.7126 186.22C95.6951 186.251 95.6688 186.269 95.6382 186.282C95.4937 186.247 95.3579 186.234 95.2878 186.409C95.0601 186.514 94.8281 186.614 94.6004 186.719C94.3377 186.68 94.0793 186.667 93.9304 186.951C93.8253 186.995 93.7201 187.039 93.6194 187.082C93.488 186.955 93.4399 187.034 93.4092 187.165C90.1381 188.391 86.8625 189.594 83.4425 190.36C80.9158 190.924 78.3584 191.252 75.7835 191.506C73.5458 191.725 71.3126 191.76 69.0837 191.585C65.4097 191.292 61.7619 190.753 58.2105 189.716C55.6969 188.981 53.2359 188.089 50.7836 187.161C50.753 187.034 50.7004 186.955 50.5734 187.078C50.4683 187.034 50.3633 186.99 50.2625 186.947C50.1093 186.662 49.8553 186.671 49.5925 186.715C49.3955 186.623 49.194 186.535 48.9969 186.444C48.9312 186.172 48.7298 186.264 48.5546 186.277C48.524 186.264 48.4977 186.242 48.4802 186.216C48.4189 185.988 48.2656 186.041 48.1124 186.098C47.9503 186.041 47.7884 185.984 47.6307 185.927C47.6088 185.695 47.4556 185.717 47.2935 185.757C47.079 185.695 46.8731 185.621 46.6979 185.477C46.6235 185.258 46.4571 185.21 46.2513 185.223C46.1856 185.201 46.1243 185.175 46.0586 185.153C45.971 185.03 45.8615 184.965 45.7039 185.035C45.6469 185.004 45.5945 184.978 45.5375 184.947C45.5069 184.807 45.428 184.763 45.2923 184.811C45.2616 184.807 45.231 184.798 45.2047 184.781C45.1084 184.317 44.723 184.475 44.434 184.418C43.1422 183.875 41.938 183.158 40.7381 182.444C39.131 181.49 37.5588 180.484 36.0349 179.399C33.3856 177.518 30.8939 175.448 28.4986 173.247C26.1908 171.129 24.0364 168.863 22.0133 166.483C20.2704 164.435 18.6457 162.295 17.0999 160.094C14.7396 156.73 12.6071 153.229 10.7241 149.58C8.85862 145.962 7.19889 142.247 5.84139 138.405C4.97434 135.955 4.18617 133.483 3.4899 130.976C2.68853 128.092 2.05797 125.178 1.54124 122.238C0.906279 118.641 0.542754 115.014 0.380729 111.36C0.266874 108.722 0.253754 106.088 0.398263 103.454C0.54715 100.767 0.814238 98.0982 1.23901 95.4379C1.66815 92.782 2.21558 90.1523 2.93375 87.562C3.0476 87.1551 2.92492 86.757 2.86362 86.3675C2.2812 82.7753 1.95721 79.1568 1.83022 75.5207C1.72074 72.436 1.76891 69.3513 1.93531 66.2622C2.15864 62.193 2.66664 58.1632 3.3848 54.1596C4.22558 49.4822 5.37728 44.8749 6.89681 40.3681C8.01347 37.0603 9.2877 33.8224 10.7678 30.6633C12.0947 27.8192 13.5748 25.0539 15.2695 22.4068C16.5 20.4816 17.7568 18.5739 19.1756 16.7843C21.1067 14.3471 23.1562 12.015 25.4815 9.93665C27.925 7.75766 30.5042 5.7712 33.4075 4.2354C36.3502 2.67773 39.3806 1.32571 42.6736 0.673761C43.2385 0.564374 43.7946 0.39373 44.377 0.415607C44.4821 0.533745 44.539 0.454987 44.596 0.363102C44.7317 0.336849 44.8675 0.310596 45.0077 0.284343C45.231 0.371852 45.4587 0.498741 45.6382 0.20996C45.7039 0.201209 45.774 0.196833 45.8397 0.188082C46.1287 0.643132 46.3695 0.494366 46.5928 0.126826C46.8687 0.113699 47.1489 0.100573 47.4248 0.0830708C47.4993 0.183707 47.565 0.17058 47.622 0.0699443C47.6964 0.0699443 47.7708 0.0655689 47.8453 0.0655689C48.0861 0.205584 48.3269 0.192458 48.5678 0.0743198C49.3954 0.030565 50.223 -0.0175653 51.0463 0.188082C51.4579 0.293094 51.9003 0.148703 52.3382 0.218711C53.0038 0.328098 53.6825 0.384979 54.335 0.573125C54.5671 0.704389 54.7861 0.892535 55.0795 0.721891C55.5043 0.770021 55.9246 0.835653 56.3231 0.988795C56.4939 1.40447 56.148 1.35634 55.9334 1.42634C54.0591 1.06755 52.1848 0.730642 50.2756 0.612504C50.2099 0.503117 50.1398 0.450611 50.0522 0.595002C49.3472 0.590627 48.6466 0.581876 47.9416 0.5775C47.7314 0.275592 47.5475 0.240588 47.4074 0.630006C47.1315 0.651883 46.8556 0.673761 46.5797 0.691263C45.9579 0.507492 45.3668 0.62563 44.7887 0.857531C44.3333 0.936289 43.8822 1.01505 43.4268 1.09381C43.2516 0.975669 43.0984 0.936289 43.0108 1.19007C39.8666 1.81576 36.9239 3.02339 34.0994 4.49356C30.8589 6.17811 27.9381 8.3396 25.3238 10.8993C24.264 11.9362 23.1343 12.9164 22.1753 14.0365C21.0017 15.4104 19.8719 16.8237 18.7815 18.2719C17.5773 19.8777 16.4475 21.5361 15.4097 23.2425C14.074 25.4477 12.8523 27.723 11.7269 30.0507C9.76072 34.1112 8.14476 38.3073 6.81791 42.6084C5.38596 47.2507 4.29561 51.9719 3.56869 56.7805C3.10451 59.8346 2.76294 62.9062 2.57902 65.9866C2.31628 70.3839 2.31189 74.7857 2.68411 79.1786C2.89869 81.7383 3.10453 84.2979 3.6957 86.8095C3.74825 87.037 3.73946 87.2514 3.6694 87.4789C2.46078 91.5262 1.73392 95.6698 1.32667 99.8659C0.993865 103.274 0.897513 106.687 0.985094 110.113C1.12522 115.526 1.84339 120.864 2.96005 126.149C3.67821 129.545 4.57147 132.905 5.7363 136.182C6.01656 136.97 6.26184 137.771 6.55961 138.55C7.61058 141.297 8.71404 144.023 9.99272 146.675C12.0728 150.98 14.455 155.106 17.1394 159.066C19.342 162.308 21.8206 165.332 24.3955 168.272C25.626 169.677 26.966 170.985 28.3235 172.267C30.4035 174.236 32.5799 176.104 34.8745 177.819C37.9136 180.086 41.1059 182.116 44.4777 183.853C46.8599 185.083 49.3516 186.076 51.9133 186.89C52.995 187.235 54.1073 187.529 55.1364 187.988C56.0647 188.399 57.0062 188.741 57.9696 189.012C61.6655 190.049 65.4184 190.745 69.2588 190.937C71.4089 191.042 73.559 191.047 75.7004 190.911C78.1088 190.758 80.4911 190.368 82.8558 189.87C84.8044 189.458 86.7443 188.968 88.6142 188.312C90.322 187.712 92.0298 187.087 93.7376 186.479C95.9885 185.673 98.1693 184.715 100.28 183.599C101.375 183.022 102.426 182.37 103.485 181.727C104.532 181.092 105.592 180.48 106.595 179.78C108.324 178.572 110.032 177.329 111.661 175.986C113.119 174.787 114.556 173.562 115.909 172.254C117.564 170.657 119.176 169.007 120.691 167.266C123.187 164.4 125.543 161.425 127.632 158.244C128.591 156.787 129.519 155.316 130.412 153.816C132.05 151.059 133.534 148.224 134.866 145.305C136.407 141.923 137.773 138.471 138.908 134.927C139.897 131.833 140.72 128.696 141.386 125.515C142.052 122.334 142.564 119.127 142.884 115.893C143.278 111.947 143.392 107.987 143.195 104.023C142.949 99.0739 142.319 94.1822 141.08 89.3779C140.795 88.2709 140.466 87.2076 140.694 85.9781C141.548 81.3795 141.806 76.7196 141.811 72.0466C141.815 67.518 141.5 63.0156 140.891 58.5264C140.453 55.3104 139.867 52.125 139.127 48.9616C138.535 46.4282 137.839 43.9166 137.038 41.4445C136.079 38.491 135.01 35.577 133.732 32.7373C132.772 30.6064 131.77 28.4974 130.635 26.4497C129.79 24.927 128.906 23.4306 127.977 21.9561C126.979 20.3766 125.919 18.8364 124.776 17.3706C123.721 16.0186 122.648 14.6709 121.457 13.4195C120.432 12.3432 119.386 11.2887 118.278 10.3042C115.593 7.91956 112.716 5.81933 109.467 4.22665C107.295 3.16341 105.11 2.18768 102.767 1.56198C99.3297 0.643132 95.8483 0.419983 92.3188 0.756895C90.9569 0.888159 89.6301 1.21194 88.2857 1.41759C88.0668 1.2557 87.9661 1.42634 87.8522 1.56636C87.6157 1.61011 87.3793 1.65387 87.1429 1.69762C87.1254 1.39571 87.3399 1.32133 87.5676 1.32133C87.8128 1.34758 87.8698 1.20757 87.8873 1.0063Z" fill="#4C566F"/>
<path d="M64.455 4.46742C67.205 6.09072 69.5696 8.16032 71.6278 10.5887C72.1182 11.1663 72.0964 11.1707 72.5913 10.5887C74.5312 8.31784 76.7162 6.327 79.2824 4.77808C79.4444 4.67744 79.6021 4.57243 79.7641 4.47179C79.9261 4.44991 80.1888 4.62493 80.1713 4.25739C80.2107 4.22676 80.2545 4.19176 80.2983 4.16113C80.5655 4.21364 80.5173 4.42804 80.5348 4.61181C79.3437 5.36877 78.1527 6.12135 77.071 7.03145C76.9834 7.10583 76.8784 7.18897 76.7426 7.12333C76.7382 7.11021 76.7338 7.09708 76.7251 7.08395C76.7207 7.07958 76.7075 7.07958 76.6988 7.0752C76.7119 7.0927 76.7295 7.10583 76.7426 7.12333C76.7689 7.33773 76.5805 7.41649 76.4667 7.52588C75.9324 8.02468 75.3851 8.50598 74.8377 8.99604C74.61 8.85165 74.6626 9.01792 74.6713 9.14043C73.8743 10.0287 73.0029 10.8556 72.3592 11.8707C72.1884 12.1376 72 12.0239 71.8643 11.827C71.1899 10.8512 70.3579 10.0111 69.5609 9.14043C69.5697 9.01792 69.6179 8.84727 69.3945 8.99604C69.2106 8.83415 69.0004 8.69851 68.8515 8.51036C68.4487 7.99843 67.7786 7.74903 67.4896 7.12333C67.5028 7.11896 67.5159 7.11458 67.5291 7.10583C67.5334 7.10146 67.5335 7.08833 67.5378 7.07958C67.5247 7.09708 67.5071 7.11021 67.494 7.12771C67.3582 7.19334 67.2488 7.11021 67.1656 7.03582C66.0839 6.12135 64.8929 5.36877 63.7018 4.61618C63.7193 4.43241 63.6711 4.21801 63.9383 4.16551C63.9821 4.19614 64.0214 4.23114 64.0608 4.26177C64.0301 4.62056 64.2973 4.44554 64.455 4.46742Z" fill="#4C566F"/>
<path d="M63.9251 4.15671C63.658 4.20922 63.7062 4.42362 63.6886 4.60739C63.4653 4.60739 63.2945 4.47175 63.115 4.37111C61.3852 3.38225 59.5592 2.62092 57.6762 1.98647C57.1026 1.78958 56.4764 1.76332 55.9421 1.44829C56.1611 1.37828 56.5026 1.42641 56.3318 1.01074C57.2514 1.18139 58.136 1.48329 59.0119 1.79395C60.6058 2.35839 62.1473 3.04534 63.6099 3.90293C63.7237 3.96419 63.82 4.0692 63.9251 4.15671Z" fill="#4C566F"/>
<path d="M80.5304 4.60742C80.5129 4.42365 80.5611 4.20925 80.2939 4.15674C81.161 3.51792 82.0937 3.01037 83.1272 2.69971C83.1228 2.89223 83.171 3.05412 83.3593 3.14601C82.4353 3.67106 81.507 4.18737 80.5304 4.60742Z" fill="#4C566F"/>
<path d="M83.3592 3.14577C83.1709 3.05388 83.1184 2.89199 83.1271 2.69947C83.1578 2.68634 83.1928 2.67759 83.2278 2.67759C83.3592 2.72572 83.4337 2.66884 83.4687 2.54633C83.6132 2.43257 83.7753 2.36693 83.9636 2.36256C84.0994 2.40194 84.1782 2.34943 84.2001 2.20942C84.3052 2.17004 84.4103 2.13066 84.5154 2.09565C84.6248 2.22254 84.6861 2.14816 84.7343 2.03877C84.9051 1.89001 85.1109 1.855 85.3254 1.8375C85.5006 1.84188 85.7195 1.96001 85.7589 1.64935C86.1487 1.53122 86.5385 1.41308 86.9282 1.29932C86.9764 1.6056 86.8537 1.78499 86.5472 1.84188C86.429 1.86375 86.3063 1.88563 86.2888 2.03877C86.1968 2.06065 86.1005 2.0869 86.0086 2.10878C85.3517 2.10878 84.7693 2.31443 84.2964 2.7826C83.9767 2.90074 83.6658 3.02326 83.3592 3.14577Z" fill="#4C566F"/>
<path d="M86.2802 2.03865C86.2977 1.88551 86.4202 1.85926 86.5384 1.84176C86.845 1.78487 86.972 1.60548 86.9195 1.2992C87.2348 1.17668 87.515 0.949157 87.8828 1.00604C87.8653 1.20731 87.8084 1.3517 87.5544 1.34733C87.3267 1.34733 87.1165 1.42171 87.1297 1.72362C86.8932 1.94677 86.5867 1.99052 86.2802 2.03865Z" fill="#4C566F"/>
<path d="M46.6016 0.139697C46.3782 0.507238 46.1374 0.656004 45.8484 0.200954C46.1024 0.179077 46.3432 0.0478124 46.6016 0.139697Z" fill="#4C566F"/>
<path d="M44.447 184.426C44.7317 184.483 45.1214 184.326 45.2177 184.789C44.9068 184.776 44.6747 184.606 44.447 184.426Z" fill="#4C566F"/>
<path d="M99.0012 184.789C99.0976 184.326 99.4829 184.483 99.7719 184.426C99.5442 184.606 99.3078 184.776 99.0012 184.789Z" fill="#4C566F"/>
<path d="M55.0837 0.739164C54.7903 0.909808 54.5713 0.726038 54.3392 0.590398C54.6151 0.511639 54.8603 0.577272 55.0837 0.739164Z" fill="#4C566F"/>
<path d="M89.8753 0.590398C89.6432 0.721662 89.4241 0.909808 89.1351 0.739164C89.3585 0.577272 89.5994 0.511639 89.8753 0.590398Z" fill="#4C566F"/>
<path d="M48.5765 0.0874251C48.3357 0.205563 48.0949 0.218689 47.854 0.0786741C48.0949 -0.0175865 48.3357 -0.0350884 48.5765 0.0874251Z" fill="#4C566F"/>
<path d="M45.6513 0.222839C45.4718 0.51162 45.244 0.389107 45.0206 0.297222C45.2177 0.152831 45.4411 0.244716 45.6513 0.222839Z" fill="#4C566F"/>
<path d="M49.6012 186.724C49.8639 186.684 50.1222 186.671 50.2711 186.956C50.0171 186.973 49.7895 186.912 49.6012 186.724Z" fill="#4C566F"/>
<path d="M93.9435 186.96C94.0967 186.676 94.3506 186.689 94.6134 186.728C94.4295 186.912 94.1975 186.973 93.9435 186.96Z" fill="#4C566F"/>
<path d="M85.7509 1.64941C85.7158 1.96007 85.4921 1.84194 85.3167 1.83756C85.4088 1.64941 85.5842 1.65817 85.7509 1.64941Z" fill="#4C566F"/>
<path d="M48.5634 186.29C48.7344 186.277 48.9406 186.185 49.0064 186.456C48.8353 186.456 48.6555 186.491 48.5634 186.29Z" fill="#4C566F"/>
<path d="M97.5123 185.485C97.5869 185.266 97.7536 185.218 97.9597 185.231C97.872 185.424 97.7053 185.481 97.5123 185.485Z" fill="#4C566F"/>
<path d="M46.26 185.231C46.4662 185.218 46.6329 185.271 46.7074 185.485C46.51 185.481 46.3434 185.424 46.26 185.231Z" fill="#4C566F"/>
<path d="M80.1675 4.25293C80.1895 4.62047 79.9219 4.44108 79.7596 4.46733C79.8342 4.27918 80.0053 4.27918 80.1675 4.25293Z" fill="#4C566F"/>
<path d="M64.4556 4.46733C64.2933 4.44545 64.0302 4.62047 64.0477 4.25293C64.21 4.27918 64.381 4.27918 64.4556 4.46733Z" fill="#4C566F"/>
<path d="M95.7301 186.225C95.7915 185.997 95.9451 186.05 96.0986 186.107C96.0109 186.264 95.8705 186.238 95.7301 186.225Z" fill="#4C566F"/>
<path d="M96.5796 185.936C96.6015 185.704 96.7551 185.726 96.9173 185.766C96.8516 185.914 96.7287 185.954 96.5796 185.936Z" fill="#4C566F"/>
<path d="M48.1211 186.107C48.2746 186.05 48.4282 186.002 48.4896 186.225C48.3492 186.238 48.2044 186.264 48.1211 186.107Z" fill="#4C566F"/>
<path d="M47.3022 185.766C47.4645 185.726 47.618 185.704 47.6399 185.936C47.4908 185.954 47.368 185.914 47.3022 185.766Z" fill="#4C566F"/>
<path d="M95.3053 186.417C95.3755 186.242 95.5115 186.255 95.6562 186.29C95.5817 186.456 95.4544 186.47 95.3053 186.417Z" fill="#4C566F"/>
<path d="M98.1517 185.161C98.2395 185.039 98.3535 184.973 98.5071 185.043C98.4193 185.183 98.2965 185.205 98.1517 185.161Z" fill="#4C566F"/>
<path d="M45.7125 185.043C45.866 184.973 45.9757 185.039 46.0678 185.161C45.9231 185.205 45.8003 185.183 45.7125 185.043Z" fill="#4C566F"/>
<path d="M84.1961 2.21377C84.1742 2.35379 84.0952 2.40192 83.9592 2.36692C83.9987 2.25753 84.0733 2.20065 84.1961 2.21377Z" fill="#4C566F"/>
<path d="M47.6309 0.0829136C47.5695 0.18355 47.508 0.201052 47.4335 0.09604C47.4949 0.00415491 47.5608 0.00415491 47.6309 0.0829136Z" fill="#4C566F"/>
<path d="M45.3054 184.82C45.4414 184.772 45.5204 184.82 45.5511 184.956C45.4283 184.987 45.3537 184.93 45.3054 184.82Z" fill="#4C566F"/>
<path d="M98.6683 184.96C98.699 184.82 98.778 184.776 98.914 184.824C98.8657 184.93 98.7912 184.986 98.6683 184.96Z" fill="#4C566F"/>
<path d="M83.4648 2.54637C83.4253 2.66888 83.3507 2.72576 83.2235 2.67763C83.2674 2.56387 83.342 2.51136 83.4648 2.54637Z" fill="#4C566F"/>
<path d="M44.6095 0.376413C44.5568 0.472674 44.4954 0.547057 44.3901 0.428919C44.4472 0.337034 44.5217 0.323907 44.6095 0.376413Z" fill="#4C566F"/>
<path d="M84.7303 2.03889C84.6821 2.15265 84.6206 2.22266 84.511 2.09577C84.5636 1.99951 84.6382 1.99951 84.7303 2.03889Z" fill="#4C566F"/>
<path d="M50.5865 187.087C50.7181 186.96 50.7664 187.039 50.7971 187.17C50.7094 187.192 50.6348 187.174 50.5865 187.087Z" fill="#4C566F"/>
<path d="M93.418 187.17C93.4487 187.043 93.5013 186.964 93.6285 187.087C93.5846 187.174 93.5101 187.192 93.418 187.17Z" fill="#4C566F"/>
<path d="M46.5797 0.704397C45.9885 0.822535 45.393 0.896918 44.7887 0.870665C45.3711 0.638764 45.9622 0.520627 46.5797 0.704397Z" fill="#4C566F"/>
<path d="M47.9469 0.590794C47.7802 0.722058 47.596 0.717683 47.4073 0.6433C47.5565 0.258257 47.7407 0.288886 47.9469 0.590794Z" fill="#4C566F"/>
<path d="M43.4318 1.11151C43.3178 1.24715 43.1643 1.22964 43.0151 1.20777C43.0985 0.953989 43.2564 0.988993 43.4318 1.11151Z" fill="#4C566F"/>
<path d="M88.2776 1.44374C88.1504 1.54875 88.0232 1.63626 87.8434 1.5925C87.9574 1.45249 88.0583 1.28184 88.2776 1.44374Z" fill="#4C566F"/>
<path d="M50.2802 0.630099C50.2013 0.704482 50.1267 0.68698 50.0565 0.612597C50.1442 0.468206 50.2144 0.520712 50.2802 0.630099Z" fill="#4C566F"/>
<path d="M74.8336 8.99151C74.816 9.08339 74.7503 9.12277 74.6669 9.1359C74.6582 9.01338 74.6055 8.84274 74.8336 8.99151Z" fill="#4C566F"/>
<path d="M69.5524 9.1359C69.4646 9.12277 69.4033 9.08339 69.3857 8.99151C69.6094 8.84274 69.5611 9.01338 69.5524 9.1359Z" fill="#4C566F"/>
<path d="M76.7387 7.11957C76.7254 7.10183 76.7076 7.08853 76.6943 7.0708C76.7032 7.07523 76.7165 7.07523 76.7209 7.07967C76.7298 7.08853 76.7298 7.10627 76.7387 7.11957C76.7387 7.11957 76.7343 7.11957 76.7387 7.11957Z" fill="#4C566F"/>
<path d="M67.4808 7.11957C67.4941 7.10183 67.5119 7.08853 67.5252 7.0708C67.5208 7.07967 67.5252 7.09297 67.5163 7.0974C67.5075 7.10627 67.4941 7.1107 67.4808 7.11957Z" fill="#4C566F"/>
<path d="M85.9998 2.10889C85.4568 2.40204 84.8656 2.58144 84.2876 2.78271C84.7605 2.31453 85.3429 2.10889 85.9998 2.10889Z" fill="#4C566F"/>
<path d="M12.2834 73.2891C12.4325 73.591 12.165 73.8754 12.2396 74.1773L12.244 74.1729C12.165 74.1992 12.0816 74.2254 12.0027 74.2473C12.086 73.9235 12.1167 73.5866 12.2834 73.2891Z" fill="#4C566F"/>
<path d="M18.5106 57.2529C18.5413 57.5548 18.4799 57.8086 18.1509 57.9136C18.186 57.6467 18.3571 57.4542 18.5106 57.2529Z" fill="#4C566F"/>
<path d="M12.4714 72.4492C12.5372 72.6199 12.6161 72.7949 12.4099 72.9305C12.3661 72.7599 12.353 72.5936 12.4714 72.4492Z" fill="#4C566F"/>
<path d="M17.9714 58.2856C18.0109 58.4169 17.9803 58.5088 17.8311 58.5394C17.8224 58.4257 17.8749 58.3425 17.9714 58.2856Z" fill="#4C566F"/>
<path d="M127.04 106.683C126.563 107.068 126.169 107.02 125.692 106.783C121.488 104.692 117.091 103.117 112.524 102.027C109.704 101.353 106.853 100.907 103.971 100.623C101.567 100.386 99.1545 100.33 96.746 100.443C92.4984 100.645 88.3208 101.332 84.2833 102.714C81.5814 103.642 79.0021 104.832 76.6199 106.411C75.3719 107.238 74.1764 108.149 73.1079 109.207C72.4992 109.811 72.1445 110.406 72.1664 111.373C72.2583 115.429 72.2102 119.485 72.2146 123.546C72.2146 124.754 72.2146 125.961 72.219 127.164C72.219 127.234 72.2234 127.304 72.219 127.374C72.2102 127.615 72.2496 127.913 71.8818 127.904C71.5533 127.895 71.5796 127.619 71.5796 127.396C71.5753 125.856 71.5753 124.32 71.5753 122.78C71.5753 120.715 71.5709 118.654 71.5709 116.589C71.5709 115.154 71.5709 113.714 71.5753 112.279C71.5796 111.675 71.422 111.071 71.5665 110.459C71.6541 110.096 71.387 109.829 71.1593 109.592C70.2046 108.595 69.1099 107.755 67.9888 106.954C65.8869 105.453 63.601 104.307 61.2057 103.371C58.9111 102.469 56.5419 101.813 54.1203 101.358C52.0797 100.973 50.0216 100.754 47.9503 100.605C46.2556 100.483 44.5565 100.496 42.8662 100.544C40.0242 100.623 37.2084 100.999 34.4102 101.511C30.7143 102.189 27.1148 103.226 23.594 104.53C21.8117 105.191 20.0733 105.965 18.3611 106.801C18.2516 106.853 18.1465 106.919 18.0326 106.963C17.7349 107.077 17.3977 106.976 17.2838 106.766C17.1787 106.578 17.529 106.49 17.6998 106.403C20.8352 104.845 24.0845 103.567 27.4257 102.53C27.7322 102.434 27.811 102.32 27.7541 102.019C27.3775 99.9839 27.1192 97.9274 26.8302 95.8797C26.6025 94.2695 26.4535 92.6506 26.5455 91.0317C26.6287 89.5747 26.7426 88.1176 26.909 86.6606C27.163 84.4422 27.4607 82.237 28.0037 80.0755C28.7438 77.1264 29.602 74.2123 31.0252 71.5039C32.1988 69.268 33.6045 67.1984 35.3123 65.3257C36.6085 63.8993 37.9397 62.5167 39.5381 61.4272C41.5043 60.0927 43.6851 59.2788 46.0366 58.9594C49.0976 58.5481 52.0272 59.1038 54.7991 60.3989C58.3637 62.066 60.8641 64.7394 62.2391 68.4542C62.8741 70.1738 63.1937 71.9327 63.3032 73.7573C63.3601 74.6805 63.3514 75.6037 63.3996 76.527C63.4741 77.9884 63.0887 79.3973 62.9354 80.8324C62.515 84.7179 63.5747 88.3801 67.3889 90.5766C68.65 91.303 70.0163 91.8543 71.5095 91.7886C73.7428 91.688 75.9324 91.3686 77.7716 89.9247C79.6195 88.472 80.8851 86.6037 81.3887 84.3197C81.7609 82.6351 81.577 80.9243 81.2048 79.2354C80.8019 77.4108 80.8589 75.5644 81.0078 73.7135C81.1435 72.0334 81.6383 70.4407 82.0411 68.8174C82.6892 66.2052 84.3446 64.3063 86.2232 62.5692C88.0098 60.9153 90.1337 59.7864 92.5115 59.2701C96.168 58.4781 99.8026 58.5919 103.297 60.0839C104.431 60.5696 105.333 61.4272 106.266 62.206C109.555 64.9494 112.064 68.3054 113.833 72.1865C115.318 75.4462 116.426 78.846 117.262 82.3376C117.713 84.2234 117.897 86.1399 118.125 88.0607C118.304 89.5878 118.444 91.1061 118.431 92.6462C118.414 95.324 118.041 97.9537 117.441 100.557C117.328 101.047 117.205 101.542 117.052 102.019C116.929 102.399 116.986 102.57 117.415 102.701C120.603 103.703 123.695 104.959 126.672 106.477C126.791 106.538 126.896 106.6 127.04 106.683ZM27.2681 91.968C27.2944 92.5368 27.3031 93.3244 27.3425 94.1077C27.4651 96.6542 27.9074 99.157 28.3146 101.664C28.4066 102.242 28.4679 102.277 29.0371 102.084C30.7274 101.515 32.4791 101.192 34.222 100.868C35.8597 100.566 37.5107 100.312 39.1791 100.155C41.0314 99.9795 42.8881 99.857 44.7448 99.8045C46.1242 99.7651 47.4992 99.8964 48.8742 99.9752C51.0725 100.102 53.2402 100.443 55.3947 100.885C57.882 101.393 60.2773 102.202 62.6157 103.178C64.6651 104.031 66.5963 105.125 68.418 106.385C69.5478 107.168 70.6249 108.035 71.6146 109.006C71.8073 109.194 71.9694 109.343 72.219 109.072C72.7532 108.494 73.3838 108.017 73.9837 107.514C75.7441 106.044 77.6971 104.871 79.7378 103.839C81.4106 102.994 83.1622 102.36 84.9357 101.765C86.7618 101.152 88.636 100.754 90.5234 100.417C92.1043 100.137 93.6982 99.9664 95.3009 99.8614C97.127 99.7389 98.953 99.6339 100.779 99.7301C102.167 99.8045 103.555 99.9402 104.944 100.067C107.326 100.29 109.669 100.715 111.998 101.209C113.207 101.467 114.407 101.782 115.593 102.145C116.224 102.338 116.342 102.268 116.522 101.651C117.389 98.6538 117.77 95.5822 117.871 92.4756C117.906 91.4342 117.77 90.3885 117.674 89.3471C117.547 87.9601 117.441 86.5687 117.227 85.1948C116.85 82.8189 116.242 80.4955 115.462 78.2159C114.324 74.8905 113.119 71.6046 111.153 68.6467C109.524 66.1921 107.549 64.0787 105.294 62.2016C103.682 60.8584 101.852 60.0314 99.8157 59.6376C98.3707 59.3576 96.9124 59.3488 95.4411 59.4713C94.2368 59.572 93.0545 59.712 91.8984 60.0752C89.6519 60.7796 87.7121 61.9785 86.0174 63.593C84.87 64.6869 83.8453 65.9208 83.2191 67.3603C82.0586 70.0381 81.5025 72.8778 81.4675 75.8006C81.45 77.1264 81.6689 78.4347 81.9185 79.7386C82.3083 81.7819 82.3828 83.8121 81.5551 85.7942C80.7581 87.7019 79.6371 89.3778 77.9293 90.5635C75.4945 92.2524 72.7663 92.6462 69.8849 92.1343C67.4939 91.7099 65.6023 90.441 64.1484 88.5552C62.2304 86.0699 61.9764 83.1821 62.3968 80.1892C62.572 78.9335 62.8478 77.6908 62.8697 76.4132C62.9003 74.7987 62.677 73.2147 62.4361 71.6308C61.972 68.5811 60.7064 65.8814 58.5081 63.7024C55.5698 60.7927 51.9002 59.5676 47.8408 59.397C46.5315 59.3401 45.244 59.6507 43.9829 60.0139C42.2356 60.5171 40.6285 61.3047 39.1878 62.416C37.7121 63.5537 36.4597 64.9101 35.2555 66.3233C33.3856 68.5198 31.8266 70.9176 30.7363 73.5866C28.3628 79.406 27.2856 85.4792 27.2681 91.968Z" fill="#D2D9E3"/>
<path d="M50.3325 41.8425C50.2055 41.1906 50.2667 40.5255 50.2667 39.8692C50.258 36.08 50.2755 32.2909 50.2755 28.5017C50.2755 28.2611 50.3236 28.0073 50.1616 27.7929C50.4112 27.5741 50.582 28.0423 50.8272 27.8673C50.9542 28.8211 50.8667 29.7794 50.8711 30.7332C50.8886 34.2336 50.8842 37.734 50.8886 41.2344C50.8886 41.405 50.8667 41.58 50.8535 41.7507C50.6784 41.7857 50.5076 41.8163 50.3325 41.8425Z" fill="#4C566F"/>
<path d="M72.0963 134.367C72.2408 135.727 72.1883 137.281 72.197 138.83C72.197 139 72.1796 139.175 72.1489 139.346C72.1182 139.499 72.0788 139.657 71.8642 139.661C71.6409 139.665 71.5533 139.53 71.5051 139.35C71.4832 139.267 71.4833 139.18 71.4833 139.092C71.4833 137.136 71.4877 135.18 71.492 133.225C71.492 133.12 71.4876 133.01 71.527 132.914C71.5839 132.761 71.6934 132.634 71.8773 132.66C72.0481 132.682 72.0963 132.818 72.0963 132.971C72.1007 133.373 72.0963 133.776 72.0963 134.367Z" fill="#D2D9E3"/>
<path d="M106.34 44.3979C106.77 44.3892 107.186 44.2316 107.619 44.306C107.221 44.6386 106.739 44.6736 106.34 44.3979Z" fill="#4C566F"/>
<path d="M93.8033 42.2803C94.0529 42.3109 94.2499 42.4378 94.4207 42.6172C94.2499 42.6347 94.0748 42.6916 93.9127 42.6609C93.6675 42.6216 93.5712 42.4815 93.8033 42.2803Z" fill="#4C566F"/>
<path d="M49.6931 42.6259C49.8508 42.429 50.0565 42.3153 50.3061 42.2803C50.2054 42.7572 50.2055 42.7572 49.6931 42.6259Z" fill="#4C566F"/>
<path d="M51.6208 27.1585C51.5463 27.4342 51.3182 27.4298 51.0989 27.4298C51.1998 27.1979 51.3708 27.1017 51.6208 27.1585Z" fill="#4C566F"/>
<path d="M134.721 88.3014C134.485 84.8491 134.047 81.4231 133.368 78.0321C132.956 75.9625 132.444 73.9148 131.879 71.8802C131.266 69.6793 130.504 67.5266 129.707 65.387C129.26 64.1837 128.709 63.0198 128.214 61.8385C127.75 60.7271 127.268 59.6332 126.712 58.57C126.199 57.5899 125.656 56.6185 125.122 55.6515C124.57 54.6539 124.045 53.6301 123.436 52.6718C122.429 51.0923 121.409 49.5171 120.288 48.0076C118.847 46.0736 117.306 44.2228 115.716 42.4157C114.126 40.6086 112.335 38.9985 110.579 37.3576C109.594 36.4388 108.543 35.5812 107.466 34.7761C105.889 33.5991 104.3 32.4265 102.618 31.3939C101.147 30.4881 99.6405 29.6349 98.1166 28.8255C96.9255 28.191 95.7038 27.6091 94.4601 27.084C93.326 26.6071 92.1961 26.1039 91.005 25.7714C90.7861 25.7101 90.5584 25.6707 90.3569 25.5745C89.2227 25.0319 87.9748 24.8394 86.8012 24.4281C85.7896 24.0737 84.7036 23.9774 83.6657 23.6799C82.1768 23.2467 80.6179 23.1286 79.0896 22.8879C76.725 22.5204 74.3209 22.4766 71.9256 22.4898C69.6047 22.5029 67.2925 22.621 64.9979 23.0586C63.4127 23.3605 61.8012 23.5136 60.216 23.8899C58.1666 24.3756 56.1522 24.94 54.1554 25.6139C52.5702 26.152 51.02 26.7602 49.4873 27.4209C47.9678 28.0773 46.4964 28.8211 45.0469 29.6043C44.4032 29.95 43.7158 30.2475 43.1333 30.7375C42.8312 30.9913 42.4896 31.2757 42.1261 31.4332C41.1146 31.8708 40.2475 32.5359 39.3585 33.1572C38.0098 34.0979 36.6961 35.0955 35.4437 36.1675C34.6292 36.8676 33.7709 37.5152 32.987 38.2459C31.901 39.2654 30.8676 40.333 29.8254 41.3962C29.1554 42.0744 28.4854 42.7526 27.8679 43.4789C27.0403 44.4547 26.2783 45.4873 25.4595 46.4718C24.4698 47.6619 23.594 48.9308 22.7182 50.2041C21.6146 51.8099 20.568 53.4463 19.6178 55.1483C19.2324 55.8397 18.8822 56.5529 18.5143 57.2573C18.545 57.5592 18.4837 57.813 18.1552 57.918C18.0939 58.0449 18.0369 58.1674 17.9756 58.2943C18.015 58.4256 17.9845 58.5175 17.8356 58.5481C17.2882 59.4932 16.9115 60.5171 16.443 61.4972C15.843 62.7486 15.3351 64.0393 14.8403 65.3388C14.3454 66.6384 13.8638 67.9423 13.4521 69.268C13.1237 70.3313 12.7997 71.3945 12.4756 72.4578C12.5413 72.6284 12.6201 72.8034 12.4143 72.939C12.3705 73.0572 12.331 73.1797 12.2872 73.2978C12.4361 73.5998 12.1735 73.8842 12.2435 74.1817C12.1647 74.2079 12.0859 74.2298 12.007 74.2561C11.5779 76.0631 11.2232 77.8833 10.8422 79.6992C10.0628 83.3921 9.71681 87.1287 9.62047 90.8873C9.52413 94.6939 9.62045 98.5006 10.0321 102.294C10.2598 104.394 10.5532 106.486 10.9342 108.56C11.1969 109.982 11.5428 111.382 11.8537 112.795C12.3967 115.267 13.1412 117.683 13.9601 120.072C14.7045 122.246 15.576 124.373 16.5131 126.477C17.6692 129.068 18.9916 131.562 20.4323 133.999C21.3125 135.491 22.2803 136.93 23.2699 138.361C24.207 139.718 25.1923 141.039 26.2258 142.317C27.2373 143.564 28.2927 144.776 29.3918 145.948C30.6968 147.34 32.0499 148.679 33.4644 149.952C34.7387 151.094 36.0568 152.192 37.4143 153.233C39.0608 154.494 40.7905 155.644 42.5421 156.76C43.4749 157.355 44.4383 157.911 45.4192 158.423C46.6278 159.057 47.8495 159.687 49.1063 160.217C50.1135 160.646 51.1119 161.096 52.1497 161.473C54.2298 162.225 56.3362 162.886 58.4556 163.52C59.8788 163.945 61.3545 164.163 62.8128 164.413C66.2634 165.008 69.7535 165.231 73.2567 165.235C73.8829 165.235 74.5091 165.122 75.1354 165.1C76.7249 165.039 78.319 164.955 79.8867 164.706C82.1419 164.347 84.384 163.958 86.5866 163.315C89.1834 162.553 91.767 161.766 94.2193 160.624C96.5095 159.556 98.8479 158.598 101.016 157.263C103.59 155.679 106.078 153.995 108.442 152.113C109.8 151.033 111.079 149.869 112.362 148.705C113.916 147.287 115.326 145.743 116.719 144.176C117.879 142.868 118.974 141.498 120.021 140.094C121.168 138.545 122.28 136.974 123.292 135.333C124.746 132.966 126.09 130.538 127.29 128.022C128.862 124.732 130.167 121.345 131.275 117.871C132.33 114.559 133.131 111.185 133.736 107.768C134.428 103.856 134.809 99.9139 134.914 95.9453C134.975 93.39 134.896 90.8435 134.721 88.3014ZM93.7375 41.9563C93.7507 41.9169 93.7638 41.8819 93.777 41.8425C93.939 41.58 93.8252 41.2956 93.8252 41.0243C93.8383 37.5939 93.8471 34.1635 93.8252 30.7288C93.8208 29.915 93.9171 29.0967 93.7682 28.2829C93.8558 27.6878 93.8646 27.666 94.4251 27.9154C95.6512 28.471 96.8774 29.0267 98.0772 29.6437C99.0932 30.1644 100.083 30.7332 101.051 31.3326C102.513 32.2427 103.967 33.1572 105.351 34.1942C106.24 34.8592 107.124 35.5243 108.005 36.2025C109.248 37.1607 110.413 38.2021 111.556 39.2829C112.257 39.9436 112.9 40.6743 113.675 41.2649C114.1 41.5844 114.341 42.1007 114.748 42.4595C114.923 42.6126 114.713 42.6957 114.595 42.7439C114.271 42.8708 113.943 42.9933 113.61 43.0983C111.657 43.724 109.651 44.0828 107.615 44.3015C107.221 44.6341 106.735 44.6691 106.336 44.3934C106.1 44.4022 105.859 44.4109 105.622 44.4197C105.561 44.5378 105.491 44.5903 105.399 44.4459C102.964 44.4591 100.543 44.3103 98.1473 43.8552C96.9343 43.6277 95.7081 43.3958 94.6133 42.7701C94.5433 42.7307 94.482 42.6651 94.4163 42.6126C94.2455 42.6301 94.0704 42.687 93.9084 42.6564C93.6632 42.617 93.5712 42.477 93.7989 42.2757C93.812 42.1926 93.812 42.1094 93.7332 42.0525C93.7069 42.035 93.685 42.0175 93.6587 42.0044C93.6894 41.9913 93.7113 41.9738 93.7375 41.9563ZM72.4247 23.7805C72.4204 23.3955 72.4949 23.2598 72.9065 23.273C75.2274 23.343 77.5526 23.3824 79.8472 23.8112C81.1697 24.0562 82.536 24.1393 83.8322 24.4806C85.1678 24.835 86.5515 25.0232 87.839 25.5745C88.1893 25.7232 88.5747 25.7933 88.9469 25.8808C90.0986 26.1608 91.1584 26.7209 92.3013 27.0228C92.6472 27.1146 92.8837 27.3903 93.2252 27.4734C93.2427 27.5828 93.2603 27.6922 93.2778 27.8016C93.2866 27.8585 93.2953 27.9154 93.304 27.9766C93.1858 28.1516 93.2296 28.3485 93.2296 28.5367C93.2252 31.7964 93.2121 35.0518 93.2208 38.3115C93.2252 39.4579 93.1596 40.6086 93.2559 41.7594C93.3304 41.7725 93.4048 41.7856 93.4792 41.7944C93.4048 41.7813 93.3304 41.7681 93.2559 41.7594C93.2909 42.2713 92.9931 42.5338 92.5464 42.6345C91.2371 42.932 89.9628 43.3652 88.636 43.5971C86.7048 43.934 84.7649 44.0784 82.8074 44.144C81.0033 44.2009 79.2166 44.004 77.4387 43.7984C76.3352 43.6715 75.2668 43.2514 74.1851 42.967C73.6684 42.8314 73.1823 42.6476 72.7356 42.3501C72.4904 42.1882 72.4028 41.9957 72.4028 41.6981C72.4203 37.4539 72.4204 33.2141 72.4291 28.9699C72.4291 27.2372 72.4423 25.5088 72.4247 23.7805ZM29.7509 42.3938C31.0603 41.1118 32.2952 39.751 33.6877 38.5434C34.6029 37.7514 35.5094 36.9551 36.4509 36.1938C37.6946 35.1787 38.9775 34.2248 40.3175 33.3322C41.6312 32.4571 42.9538 31.6126 44.3113 30.8076C45.5505 30.0725 46.8598 29.4818 48.1079 28.773C48.7647 28.401 49.4785 28.121 50.166 27.7972C50.4156 27.5784 50.5864 28.0466 50.8316 27.8716C50.8448 27.6791 50.9193 27.5216 51.1032 27.4341C51.2039 27.2022 51.3747 27.1059 51.6243 27.1628C52.6358 26.8871 53.5773 26.4058 54.5801 26.1214C56.2529 25.6489 57.9213 25.1632 59.6073 24.7256C61.2976 24.2881 63.0273 24.1087 64.722 23.7237C65.7861 23.483 66.8983 23.4305 68.0019 23.4174C69.136 23.4042 70.2702 23.343 71.4044 23.2817C71.7241 23.2642 71.8293 23.3474 71.8293 23.6799C71.8117 29.6174 71.7986 35.5506 71.8117 41.4881C71.8117 41.9957 71.6102 42.2319 71.1898 42.442C70.0031 43.0283 68.7419 43.3652 67.4589 43.6233C64.6519 44.1878 61.8099 44.2665 58.9679 44.0653C56.2442 43.8684 53.5774 43.3346 51.0069 42.3763C50.9412 42.3851 50.9061 42.3544 50.8974 42.2932C50.8842 42.1182 50.8711 41.9431 50.8623 41.7681C50.6872 41.7988 50.5164 41.825 50.3412 41.8556C50.3325 42 50.3237 42.1488 50.3149 42.2932C50.2142 42.7701 50.2143 42.7701 49.7019 42.6388C49.3691 42.8051 49.0319 42.9714 48.6991 43.1377C48.6728 43.2952 48.6203 43.3696 48.4889 43.2077C46.2556 43.9515 43.9566 44.3059 41.6094 44.424C38.5791 44.5728 35.5795 44.3497 32.6192 43.6933C31.6821 43.4833 30.7537 43.2383 29.8517 42.897C29.5013 42.7482 29.4926 42.6432 29.7509 42.3938ZM17.7042 106.403C20.8396 104.845 24.0888 103.563 27.43 102.53C27.7366 102.434 27.8154 102.32 27.7585 102.018C27.3819 99.9839 27.1236 97.9274 26.8345 95.8797C26.6068 94.2695 26.4579 92.6506 26.5498 91.0317C26.633 89.5746 26.7469 88.1176 26.9133 86.6606C27.1673 84.4422 27.4651 82.2369 28.0081 80.0755C28.7481 77.1264 29.6064 74.2123 31.0296 71.5039C32.2032 69.268 33.6089 67.1984 35.3167 65.3257C36.6129 63.8993 37.9441 62.5167 39.5424 61.4272C41.5086 60.0926 43.6894 59.2788 46.041 58.9594C49.1019 58.5481 52.0315 59.1038 54.8035 60.3989C58.368 62.066 60.8684 64.7394 62.2435 68.4542C62.8784 70.1737 63.1981 71.9327 63.3075 73.7573C63.3645 74.6805 63.3557 75.6037 63.4039 76.5269C63.4783 77.9884 63.093 79.3973 62.9398 80.8324C62.5194 84.7178 63.5791 88.3801 67.3932 90.5766C68.6544 91.3029 70.0206 91.8542 71.5095 91.7886C73.7428 91.688 75.9323 91.3686 77.7715 89.9247C79.6195 88.472 80.8807 86.6037 81.3886 84.3197C81.7609 82.6351 81.577 80.9243 81.2048 79.2354C80.8019 77.4108 80.8588 75.5643 81.0077 73.7135C81.1435 72.0333 81.6382 70.4407 82.0411 68.8173C82.6892 66.2052 84.3445 64.3062 86.2231 62.5692C88.0098 60.9152 90.1337 59.7864 92.5115 59.2701C96.168 58.4781 99.8026 58.5919 103.297 60.0839C104.431 60.5696 105.333 61.4272 106.27 62.206C109.559 64.9494 112.068 68.3054 113.837 72.1865C115.322 75.4462 116.43 78.8459 117.266 82.3376C117.717 84.2234 117.901 86.1399 118.129 88.0607C118.308 89.5878 118.449 91.106 118.435 92.6462C118.418 95.324 118.046 97.9537 117.446 100.557C117.332 101.047 117.209 101.542 117.056 102.018C116.933 102.399 116.99 102.57 117.419 102.701C120.607 103.703 123.699 104.959 126.677 106.477C126.786 106.53 126.887 106.591 127.036 106.674C126.559 107.059 126.164 107.011 125.687 106.775C121.483 104.683 117.087 103.108 112.519 102.018C109.699 101.345 106.848 100.898 103.967 100.614C101.563 100.378 99.1501 100.321 96.7416 100.435C92.4939 100.636 88.3163 101.323 84.2789 102.705C81.577 103.633 78.9977 104.823 76.6155 106.403C75.3675 107.23 74.172 108.14 73.1035 109.199C72.4948 109.802 72.1401 110.398 72.162 111.365C72.2539 115.421 72.2058 119.477 72.2102 123.537C72.2102 124.745 72.2102 125.952 72.2146 127.156C72.2146 127.226 72.2189 127.296 72.2146 127.366C72.2058 127.606 72.2452 127.904 71.8774 127.895C71.5489 127.886 71.5752 127.611 71.5752 127.388C71.5709 125.847 71.5709 124.312 71.5709 122.771C71.5709 120.706 71.5665 118.645 71.5665 116.58C71.5665 115.145 71.5665 113.705 71.5709 112.27C71.5752 111.666 71.4176 111.063 71.5621 110.45C71.6497 110.087 71.3826 109.82 71.1549 109.584C70.2002 108.586 69.1055 107.746 67.9844 106.945C65.8825 105.444 63.5966 104.298 61.2013 103.362C58.9067 102.46 56.5375 101.804 54.1159 101.349C52.0753 100.964 50.0172 100.745 47.9459 100.596C46.2512 100.474 44.5521 100.487 42.8618 100.535C40.0198 100.614 37.204 100.99 34.4058 101.502C30.7099 102.18 27.1103 103.217 23.5896 104.526C21.8073 105.186 20.0689 105.961 18.3567 106.797C18.2472 106.849 18.1421 106.915 18.0282 106.958C17.7304 107.072 17.3933 106.972 17.2794 106.762C17.1787 106.573 17.5334 106.486 17.7042 106.403ZM72.197 138.829C72.197 139 72.1796 139.175 72.1489 139.346C72.1183 139.499 72.0788 139.656 71.8642 139.661C71.6409 139.665 71.5533 139.529 71.5051 139.35C71.4832 139.267 71.4833 139.179 71.4833 139.092C71.4833 137.136 71.4877 135.18 71.4921 133.224C71.4921 133.119 71.4876 133.01 71.527 132.914C71.5839 132.761 71.6934 132.634 71.8774 132.66C72.0481 132.682 72.0963 132.817 72.0963 132.971C72.1007 133.373 72.0963 133.776 72.0963 134.366C72.2452 135.727 72.1883 137.28 72.197 138.829ZM132.965 108.297C132.378 111.365 131.647 114.397 130.723 117.381C129.987 119.744 129.138 122.067 128.179 124.351C127.36 126.311 126.458 128.232 125.468 130.109C124.601 131.754 123.66 133.356 122.679 134.944C121.518 136.821 120.231 138.606 118.926 140.374C118.339 141.166 117.678 141.905 117.06 142.675C115.777 144.277 114.337 145.734 112.918 147.204C112.138 148.014 111.263 148.731 110.422 149.484C109.651 150.175 108.902 150.893 108.083 151.518C107.518 151.951 106.98 152.42 106.397 152.831C105.386 153.549 104.392 154.288 103.363 154.979C102.645 155.465 101.891 155.898 101.143 156.336C99.9821 157.018 98.8173 157.688 97.6481 158.353C97.4073 158.488 97.1314 158.563 96.8774 158.677C95.7126 159.21 94.5696 159.797 93.3785 160.269C92.367 160.672 91.3379 161.044 90.3132 161.42C89.1177 161.858 87.9047 162.234 86.683 162.584C85.2072 163.008 83.714 163.376 82.1944 163.621C80.9201 163.827 79.6502 164.093 78.3715 164.264C77.1585 164.426 75.9367 164.496 74.7106 164.47C74.0494 164.457 73.3881 164.465 72.7269 164.465C70.6337 164.443 68.5406 164.487 66.4518 164.168C64.7965 163.914 63.1149 163.792 61.4727 163.455C59.0117 162.947 56.5901 162.291 54.221 161.446C52.43 160.807 50.6565 160.112 48.9268 159.337C47.6832 158.782 46.4701 158.138 45.2659 157.491C43.9128 156.769 42.6166 155.938 41.3291 155.093C40.0417 154.249 38.7587 153.387 37.5457 152.437C35.8116 151.085 34.1343 149.654 32.5491 148.127C30.8851 146.526 29.2561 144.885 27.7804 143.109C26.0638 141.043 24.4435 138.904 22.9415 136.672C21.2862 134.222 19.828 131.662 18.4793 129.033C17.5334 127.186 16.6751 125.3 15.9043 123.38C14.8621 120.776 13.9382 118.125 13.1981 115.416C12.6726 113.5 12.169 111.575 11.7793 109.623C11.7399 109.417 11.7312 109.207 11.6874 109.002C11.464 107.947 11.4596 107.939 12.4974 107.676C15.6766 106.867 18.5274 107.654 21.0497 109.606C23.8917 111.806 25.5427 114.742 26.1207 118.3C26.2696 119.214 26.4097 120.12 26.4009 121.039C26.3922 122.399 26.147 123.725 25.7791 125.034C25.6127 125.629 25.6522 125.668 26.2477 125.607C26.8652 125.545 27.4607 125.742 28.0256 125.944C30.9596 126.981 33.4644 128.705 35.6407 130.905C36.9282 132.205 38.1149 133.609 38.9513 135.242C39.6476 136.602 40.3176 137.994 40.5979 139.525C40.646 139.783 40.7336 139.95 41.0095 139.971C42.5684 140.098 44.0047 140.654 45.4017 141.306C47.0131 142.054 48.5414 142.964 49.8332 144.194C51.4359 145.721 52.9818 147.305 53.7963 149.431C54.0283 150.035 54.1641 150.661 54.2429 151.295C54.2911 151.68 54.4794 151.706 54.7859 151.566C57.9388 150.101 61.2801 149.322 64.6914 148.775C68.4311 148.175 72.1971 148 75.9718 148.184C79.983 148.381 83.9547 148.919 87.7076 150.473C88.2988 150.718 88.855 151.041 89.433 151.321C89.8096 151.505 90.0899 151.378 90.103 151.006C90.1424 150.009 90.5322 149.129 90.9832 148.272C91.7714 146.767 92.8924 145.524 94.1229 144.378C96.1855 142.457 98.5633 141.07 101.27 140.26C101.865 140.081 102.469 139.893 103.091 139.88C103.485 139.871 103.66 139.665 103.709 139.35C103.985 137.631 104.86 136.165 105.649 134.655C106.428 133.172 107.536 131.96 108.683 130.77C110.325 129.068 112.173 127.668 114.297 126.622C115.313 126.123 116.386 125.76 117.494 125.524C117.66 125.489 117.844 125.475 118.015 125.502C118.484 125.58 118.694 125.419 118.527 124.972C118.181 124.053 118.015 123.086 117.941 122.137C117.862 121.148 117.884 120.137 117.993 119.127C118.125 117.919 118.413 116.768 118.821 115.639C119.364 114.125 120.143 112.747 121.159 111.474C122.941 109.242 125.223 107.89 128.008 107.374C129.624 107.077 131.209 107.304 132.751 107.851C132.961 107.943 133.013 108.048 132.965 108.297Z" fill="#4C566F"/>
<path d="M105.403 44.4502C105.469 44.3889 105.548 44.3846 105.627 44.4239C105.566 44.5421 105.496 44.5946 105.403 44.4502Z" fill="#4C566F"/>
<path d="M48.4802 43.1905C48.5285 43.103 48.6074 43.1074 48.6908 43.1205C48.6644 43.2824 48.6118 43.3568 48.4802 43.1905Z" fill="#4C566F"/>
<path d="M12.2435 74.1773C12.2568 74.1861 12.2745 74.1906 12.2878 74.1994C12.2745 74.1906 12.2613 74.1817 12.2435 74.1773C12.2435 74.1773 12.248 74.1728 12.2435 74.1773Z" fill="#4C566F"/>
<path d="M50.8887 42.2847C50.9237 42.3108 50.963 42.3412 50.998 42.3673C50.9368 42.376 50.8974 42.3455 50.8887 42.2847Z" fill="#4C566F"/>
<path d="M93.7382 41.9565C93.7471 41.9917 93.7471 42.0224 93.7382 42.0575C93.7118 42.04 93.6897 42.0224 93.6632 42.0092C93.6897 41.9917 93.7118 41.9741 93.7382 41.9565Z" fill="#4C566F"/>
<path d="M27.2681 91.9681C27.2812 85.4792 28.3628 79.4061 30.7362 73.5867C31.8266 70.9176 33.3856 68.5199 35.2554 66.3234C36.4597 64.9101 37.7121 63.5493 39.1878 62.4161C40.6285 61.3047 42.2356 60.5171 43.9829 60.0139C45.244 59.6508 46.5315 59.3445 47.8408 59.397C51.8958 59.5676 55.5654 60.7928 58.5081 63.7025C60.7108 65.8815 61.9763 68.5811 62.4361 71.6308C62.677 73.2104 62.9003 74.7987 62.8696 76.4132C62.8434 77.6953 62.5719 78.9335 62.3968 80.1893C61.9808 83.1821 62.2304 86.0656 64.1484 88.5552C65.6022 90.441 67.4895 91.7099 69.8849 92.1343C72.7707 92.6463 75.4945 92.2525 77.9292 90.5635C79.6415 89.3778 80.7581 87.702 81.5551 85.7943C82.3827 83.8122 82.3082 81.782 81.9185 79.7386C81.6689 78.4347 81.4499 77.1264 81.4674 75.8007C81.5025 72.8779 82.0542 70.0338 83.2191 67.3604C83.8453 65.9208 84.87 64.687 86.0173 63.5931C87.712 61.9785 89.6519 60.7753 91.8984 60.0752C93.0544 59.712 94.2412 59.572 95.4411 59.4714C96.9124 59.3489 98.3706 59.3576 99.8157 59.6377C101.852 60.0314 103.682 60.8584 105.294 62.2017C107.553 64.0831 109.524 66.1921 111.153 68.6468C113.119 71.609 114.323 74.8906 115.462 78.2159C116.242 80.4956 116.85 82.819 117.227 85.1948C117.446 86.5687 117.546 87.9601 117.673 89.3472C117.77 90.3885 117.901 91.4343 117.871 92.4756C117.77 95.5822 117.389 98.6538 116.522 101.651C116.342 102.268 116.224 102.338 115.593 102.145C114.407 101.782 113.211 101.467 111.998 101.209C109.664 100.71 107.326 100.29 104.944 100.067C103.555 99.9358 102.167 99.8002 100.779 99.7302C98.953 99.6339 97.127 99.7389 95.3009 99.8614C93.6982 99.9708 92.1042 100.137 90.5234 100.417C88.636 100.754 86.7618 101.152 84.9357 101.765C83.1622 102.36 81.4062 102.994 79.7377 103.839C77.6971 104.871 75.7441 106.044 73.9837 107.514C73.3794 108.017 72.7532 108.494 72.2189 109.072C71.9693 109.343 71.8073 109.194 71.6146 109.006C70.6293 108.039 69.5478 107.168 68.418 106.385C66.5963 105.125 64.6695 104.036 62.6157 103.178C60.2773 102.202 57.882 101.397 55.3947 100.885C53.2402 100.443 51.0769 100.102 48.8742 99.9752C47.4992 99.8965 46.1198 99.7608 44.7448 99.8046C42.8881 99.8571 41.0358 99.9796 39.1791 100.155C37.5106 100.312 35.8597 100.562 34.2219 100.868C32.4791 101.187 30.7274 101.515 29.0371 102.084C28.4678 102.277 28.4066 102.242 28.3146 101.664C27.9074 99.157 27.4651 96.6542 27.3425 94.1077C27.3074 93.3201 27.2987 92.5369 27.2681 91.9681Z" fill="#4C566F"/>
<path d="M83.409 43.8115L75.496 67.1853C74.4319 70.3313 76.0128 73.7573 79.065 75.21L74.4888 88.7302C73.2277 92.4581 71.1521 95.8666 68.4064 98.7282C65.6607 101.59 63.585 104.998 62.3238 108.726L33.6718 193.453L38.5106 195.089L47.4789 198.122L52.3178 199.758L92.8721 79.8786C96.1783 80.5699 99.5195 78.811 100.584 75.665L111.334 43.9122" fill="#FF2C3B"/>
<path d="M72.3207 61.317L70.4751 66.7676L93.6764 74.6109L95.522 69.1603L72.3207 61.317Z" fill="#D2D9E3"/>
<path d="M74.1677 55.8692L72.3221 61.3198L95.5234 69.1631L97.369 63.7125L74.1677 55.8692Z" fill="#D2D9E3"/>
<path d="M76.0109 50.4201L74.1653 55.8706L97.3666 63.7139L99.2121 58.2634L76.0109 50.4201Z" fill="#D2D9E3"/>
<path d="M77.8552 44.9665L76.0096 50.417L99.2109 58.2603L101.057 52.8098L77.8552 44.9665Z" fill="#D2D9E3"/>
<path d="M79.7023 39.5187L77.8567 44.9692L101.058 52.8125L102.904 47.362L79.7023 39.5187Z" fill="#D2D9E3"/>
<path d="M81.5467 34.0656L79.7012 39.5161L102.902 47.3594L104.748 41.9089L81.5467 34.0656Z" fill="#D2D9E3"/>
<path d="M114.753 42.4638C114.341 42.105 114.1 41.5887 113.68 41.2693C112.9 40.6786 112.261 39.9523 111.56 39.2872C110.417 38.2065 109.253 37.1651 108.009 36.2069C107.129 35.5331 106.244 34.8636 105.355 34.1985C103.971 33.1659 102.513 32.2471 101.055 31.337C100.087 30.7332 99.0932 30.1644 98.0816 29.648C96.8817 29.0355 95.6556 28.4798 94.4294 27.9197C93.8733 27.666 93.8602 27.6922 93.7726 28.2873C93.9215 29.0967 93.8252 29.9193 93.8296 30.7332C93.8515 34.1635 93.8383 37.5939 93.8296 41.0287L93.847 41.7287C93.8558 42.105 94.0616 42.4507 94.3856 42.6432C94.4995 42.7089 94.5958 42.7657 94.6221 42.7789C95.7169 43.4089 96.943 43.6365 98.156 43.864C100.547 44.3147 102.973 44.4678 105.408 44.4547L106.345 44.4022C106.932 44.3628 107.19 44.3497 107.624 44.3103C109.66 44.0915 111.665 43.7327 113.618 43.107C113.951 43.002 114.28 42.8795 114.604 42.7526C114.713 42.7001 114.928 42.617 114.753 42.4638Z" fill="#FAF9FE"/>
<path d="M72.3984 41.6941C72.3984 41.9916 72.486 42.1841 72.7312 42.346C73.1779 42.6436 73.6684 42.8273 74.1807 42.963C75.2667 43.2474 76.3352 43.6674 77.4343 43.7943C79.2122 43.9999 80.9989 44.1968 82.8031 44.14C84.7605 44.0743 86.7004 43.9299 88.6316 43.593C89.9585 43.3611 91.2327 42.928 92.5421 42.6304C92.9887 42.5298 93.2865 42.2673 93.2515 41.7553C93.326 41.7685 93.4004 41.7816 93.4749 41.7903C93.4004 41.7772 93.326 41.7641 93.2515 41.7553C93.1552 40.609 93.2208 39.4582 93.2164 38.3075C93.2033 35.0477 93.2165 31.7924 93.2252 28.5326C93.2252 28.3445 93.1814 28.1476 93.2996 27.9726C93.2909 27.9157 93.2822 27.8588 93.2734 27.7975C93.2559 27.6882 93.2383 27.5788 93.2208 27.4694C92.8793 27.3863 92.6429 27.1106 92.2969 27.0187C91.154 26.7168 90.0942 26.1567 88.9425 25.8767C88.5703 25.7848 88.1849 25.7192 87.8346 25.5704C86.5471 25.0235 85.1634 24.831 83.8278 24.4766C82.5316 24.1353 81.1697 24.0521 79.8428 23.8071C77.5438 23.3827 75.223 23.3433 72.9021 23.2689C72.4905 23.2558 72.416 23.3914 72.4204 23.7765C72.4422 25.5048 72.4247 27.2375 72.4204 28.9658C72.4204 33.21 72.416 37.4542 72.3984 41.6941Z" fill="#FAF9FE"/>
<path d="M114.753 42.4638C114.341 42.105 114.1 41.5887 113.68 41.2693C112.9 40.6786 112.261 39.9523 111.56 39.2872C110.417 38.2065 109.253 37.1651 108.009 36.2069C107.129 35.5331 106.244 34.8636 105.355 34.1985C103.971 33.1659 102.513 32.2471 101.055 31.337C100.087 30.7332 99.0932 30.1644 98.0816 29.648C96.8817 29.0355 95.6556 28.4798 94.4294 27.9197C93.8733 27.666 93.8602 27.6922 93.7726 28.2873C93.9215 29.0967 93.8252 29.9193 93.8296 30.7332C93.8515 34.1635 93.8383 37.5939 93.8296 41.0287L93.8514 41.8906C93.8601 42.2232 94.0573 42.5207 94.3594 42.6563C94.4864 42.7132 94.5958 42.7614 94.6221 42.7789C95.7169 43.4089 96.943 43.6365 98.156 43.864C100.547 44.3147 102.973 44.4678 105.408 44.4547L106.345 44.4022C106.923 44.3759 107.164 44.3453 107.624 44.3103C109.66 44.0915 111.665 43.7327 113.618 43.107C113.951 43.002 114.28 42.8795 114.604 42.7526C114.713 42.7001 114.928 42.617 114.753 42.4638Z" fill="#FAF9FE"/>
<path d="M72.3984 41.6941C72.3984 41.9916 72.486 42.1841 72.7312 42.346C73.1779 42.6436 73.6684 42.8273 74.1807 42.963C75.2667 43.2474 76.3352 43.6674 77.4343 43.7943C79.2122 43.9999 80.9989 44.1968 82.8031 44.14C84.7605 44.0743 86.7004 43.9299 88.6316 43.593C89.9585 43.3611 91.2327 42.928 92.5421 42.6304C92.9887 42.5298 93.2865 42.2673 93.2515 41.7553C93.326 41.7685 93.4004 41.7816 93.4749 41.7903C93.4004 41.7772 93.326 41.7641 93.2515 41.7553C93.1552 40.609 93.2208 39.4582 93.2164 38.3075C93.2033 35.0477 93.2165 31.7924 93.2252 28.5326C93.2252 28.3445 93.1814 28.1476 93.2996 27.9726C93.2909 27.9157 93.2822 27.8588 93.2734 27.7975C93.2559 27.6882 93.2383 27.5788 93.2208 27.4694C92.8793 27.3863 92.6429 27.1106 92.2969 27.0187C91.154 26.7168 90.0942 26.1567 88.9425 25.8767C88.5703 25.7848 88.1849 25.7192 87.8346 25.5704C86.5471 25.0235 85.1634 24.831 83.8278 24.4766C82.5316 24.1353 81.1697 24.0521 79.8428 23.8071C77.5438 23.3827 75.223 23.3433 72.9021 23.2689C72.4905 23.2558 72.416 23.3914 72.4204 23.7765C72.4422 25.5048 72.4247 27.2375 72.4204 28.9658C72.4204 33.21 72.416 37.4542 72.3984 41.6941Z" fill="#FAF9FE"/>
</svg>
