<svg width="47" height="57" viewBox="0 0 47 57" fill="none" xmlns="http://www.w3.org/2000/svg">
<path d="M46.9746 14.2646C46.9746 14.2142 46.9746 13.8866 46.9746 13.8866C46.9746 13.5338 46.9493 13.1809 46.9239 12.8281C46.9239 12.7273 46.9239 12.6013 46.8986 12.5005C46.6958 10.6355 46.1127 8.87129 45.2508 7.30873C45.0734 6.9811 44.8705 6.67867 44.6931 6.40144C44.6424 6.32583 44.5917 6.25023 44.541 6.17462C44.3889 5.9478 44.2114 5.74618 44.0593 5.51935C43.9579 5.36814 43.8565 5.24212 43.7298 5.09091C43.603 4.93969 43.4763 4.81368 43.3495 4.68767C43.1721 4.48605 42.9946 4.28443 42.8172 4.10801C42.7664 4.05761 42.6904 4.0072 42.6397 3.93159C40.7638 2.14221 38.3808 0.831683 35.719 0.30243C35.4401 0.252025 35.1613 0.226823 34.8824 0.176418C34.705 0.151215 34.5022 0.10081 34.3247 0.10081C33.843 0.0252025 33.3614 0 32.8797 0C29.356 0 26.0858 1.26013 23.5 3.55356C20.9396 1.26013 17.644 0 14.1203 0C13.157 0 12.219 0.10081 11.3064 0.277228C11.0529 0.327633 10.7994 0.40324 10.5205 0.478848C10.343 0.529253 10.1402 0.579658 9.96278 0.630063C9.83603 0.655266 9.73463 0.705671 9.63322 0.756076C4.1068 2.62106 0.0760518 7.81278 0.0253506 14.0126C0.0253506 14.0126 0.0253506 14.1134 0.0253506 14.189L0 14.8695C0 15.3735 0 15.8776 0.0253506 16.4068V16.6841L0.43096 20.5653C1.29288 29.5626 3.34628 36.9721 5.01942 42.441C7.85868 51.6904 10.9261 56 14.6019 56C14.678 56 14.754 56 14.8047 56C14.8808 56 14.9315 56 14.9822 56L15.9202 55.8236C16.0723 55.7732 16.2244 55.7228 16.4272 55.622C16.5539 55.5716 16.6807 55.496 16.9342 55.3447C17.0356 55.2943 17.1117 55.2187 17.2638 55.0927L17.644 54.7399C17.7201 54.6391 17.8215 54.5383 17.9482 54.4122C18.0243 54.3114 18.1257 54.1854 18.2524 53.9838C18.3031 53.883 18.3792 53.8074 18.5059 53.5806C18.658 53.3285 18.7848 53.0513 18.8862 52.7489C19.4439 51.3879 19.6721 49.8254 19.5707 48.2628C19.52 47.7336 19.52 47.2043 19.52 46.7003C19.52 42.2646 21.0156 39.3159 23.5253 38.9127C25.9844 39.2151 27.5054 42.189 27.5054 46.7003C27.5054 47.2295 27.48 47.7588 27.4547 48.2628C27.3279 49.8254 27.5561 51.3627 28.1392 52.7489C28.2659 53.0513 28.3927 53.3033 28.6208 53.7318L28.8236 54.0342C28.8997 54.1602 29.0011 54.2862 29.1278 54.4375C29.2039 54.5383 29.2799 54.6139 29.356 54.7147L29.8123 55.1431C29.8883 55.2187 29.9644 55.2691 30.2433 55.4455C30.3447 55.5212 30.4714 55.5716 30.6742 55.6724C30.801 55.748 30.9531 55.7984 31.308 55.8992L32.1699 56.0252H32.3727C36.0992 56.0252 39.1667 51.7156 42.0059 42.4663C43.6791 36.9973 45.7071 29.5626 46.5944 20.6409L46.8986 17.6418L46.9239 17.3393L46.9746 16.432C47 15.9028 47 15.3735 47 14.7939L46.9746 14.2646ZM16.706 46.6751C16.706 47.2547 16.7314 47.8596 16.7821 48.4645C16.8835 49.5986 16.706 50.7075 16.3004 51.6904C16.2244 51.892 16.1483 52.0432 16.0469 52.2196L15.8948 52.4716L15.7427 52.6733L15.4385 52.9757L15.2104 53.1269L14.9061 53.2277H14.6273C13.6133 53.2277 10.8754 52.0936 7.65588 41.6346C6.33765 37.3753 4.81661 31.856 3.82794 25.3537C8.36569 31.6796 15.7934 35.712 19.9509 37.577C18.1257 39.1143 16.706 41.9874 16.706 46.6751ZM39.3188 41.6346C36.0992 52.0936 33.3867 53.2277 32.246 53.2277H32.1446L31.891 53.1773L31.6629 53.0513L31.4601 52.9001L31.2573 52.6985L31.1052 52.4969L30.9531 52.2448C30.8517 52.0684 30.7756 51.892 30.6996 51.7156C30.294 50.7327 30.1419 49.6238 30.2179 48.4897C30.2686 47.91 30.294 47.3051 30.294 46.7003C30.294 41.9118 28.8236 39.0387 26.9223 37.5014C29.2039 36.3924 32.6516 34.5023 36.0992 31.8812C39.116 29.5878 41.4989 27.1935 43.2481 24.7237C42.2594 31.478 40.6623 37.2241 39.3188 41.6346ZM44.1861 14.2394C44.0847 19.5824 40.7891 24.7741 34.3754 29.6634C29.6602 33.2421 24.8436 35.4347 23.4746 36.0144C21.117 35.1575 2.99137 28.0252 2.78857 14.2394C2.78857 14.2394 2.78857 13.9622 2.78857 13.937C2.78857 13.5842 2.86462 13.2565 2.88997 12.9037C2.94067 12.5005 2.94067 12.072 3.01672 11.6688C3.04207 11.5176 3.11812 11.3915 3.14347 11.2655C4.43635 6.40144 8.87271 2.77228 14.1203 2.77228C17.3398 2.77228 20.3058 4.08281 22.4606 6.42664L23.5 7.56076L24.5394 6.42664C26.6942 4.08281 29.6602 2.77228 32.8797 2.77228C33.6656 2.77228 34.4008 2.84789 35.1359 2.9991C37.2907 3.42754 39.2427 4.51125 40.7638 5.9982C40.7891 6.0234 40.8145 6.0234 40.8398 6.04861C41.2201 6.42664 41.5496 6.85509 41.8792 7.28353C41.9806 7.43474 42.1327 7.53555 42.2341 7.68677C42.4876 8.0396 42.665 8.41764 42.8679 8.79568C42.9946 9.04771 43.1721 9.29973 43.2988 9.57696C43.4256 9.87939 43.5016 10.1818 43.603 10.4842C43.7298 10.8875 43.8819 11.2655 43.9833 11.6688C44.034 11.946 44.11 12.4248 44.1607 12.7021C44.2114 13.1557 44.2368 13.4329 44.2368 13.9118V14.2394H44.1861Z" fill="#D2D9E3"/>
</svg>
