<?xml version="1.0" encoding="utf-8"?>
<!-- Generator: Adobe Illustrator 27.0.0, SVG Export Plug-In . SVG Version: 6.00 Build 0)  -->
<svg version="1.1" id="Слой_1" xmlns="http://www.w3.org/2000/svg" xmlns:xlink="http://www.w3.org/1999/xlink" x="0px" y="0px"
	 viewBox="0 0 289 83" style="enable-background:new 0 0 289 83;" xml:space="preserve">
<style type="text/css">
	.st0{fill:#DA4700;}
	.st1{fill:#FF7B7B;}
</style>
<path class="st0" d="M269.3,3H21.3c-1.8,0-3.6,0.7-4.9,2C-4.7,25.6-4.9,59.6,16,80.5l0.4,0.4c1.3,1.3,3.1,2.1,5,2.1h247.5
	c2.6,0,5-1.2,6.5-3.3l1.2-1.6c16.1-21.6,15.6-51.3-1.3-72.2C273.9,4.1,271.6,3,269.3,3z"/>
<path class="st1" d="M269.3,0H21.3c-1.8,0-3.6,0.7-4.9,2C-4.7,22.6-4.9,56.6,16,77.5l0.4,0.4c1.3,1.3,3.1,2.1,5,2.1h247.5
	c2.6,0,5-1.2,6.5-3.3l1.2-1.6c16.1-21.6,15.6-51.3-1.3-72.2C273.9,1.1,271.6,0,269.3,0z"/>
</svg>
