<svg width="208" height="85" viewBox="0 0 208 85" fill="none" xmlns="http://www.w3.org/2000/svg">
<path d="M206.974 76.3712C207.519 75.7438 207.492 74.6662 206.674 74.2318C200.074 70.8452 193.473 67.4586 186.872 64.0719C185.545 63.388 184.118 65.13 185.26 66.2138C189.077 69.8562 193.276 72.529 198.03 74.4043C177.678 79.9044 158.046 67.8784 143.259 54.4135C128.907 41.3511 116.134 27.2777 99.1045 17.5611C69.6652 0.773597 32.7139 -4.98711 0.720851 7.86088C-0.0497912 8.16416 0.236239 9.43675 1.06354 9.13689C38.1216 -3.92954 79.0475 4.52531 110.298 27.6725C136.742 47.2618 163.704 90.4702 202.552 75.7232C202.744 75.6474 202.892 75.5251 203.025 75.4107C203.28 75.5355 203.522 75.6681 203.776 75.7929C201.065 78.6118 198.126 80.634 194.296 82.1912C192.66 82.8533 193.362 85.5594 195.004 84.8758C199.89 82.8489 203.483 80.3545 206.958 76.344L206.974 76.3712Z" fill="black"/>
</svg>
