<svg width="76" height="83" viewBox="0 0 76 83" fill="none" xmlns="http://www.w3.org/2000/svg">
<g clip-path="url(#clip0_845_437)">
<path d="M51.6 71.8L49.55 81.96" stroke="black" stroke-width="2" stroke-miterlimit="10" stroke-linecap="round"/>
<path d="M43.52 68.7701C46.23 70.2601 48.67 71.2501 51.6 71.8001C54.47 72.3401 57.82 72.4501 62.37 72.2101C64.17 72.1201 65.62 70.7301 65.79 68.9401L67.18 54.7301C67.26 53.9101 67.88 53.2501 68.7 53.1101L72.99 52.4301C73.56 52.4101 74.08 52.1201 74.38 51.6401C74.68 51.1601 74.73 50.5601 74.5 50.0401L70.02 39.7401C69.32 38.1201 69.02 36.3501 69.17 34.5801C69.15 16.9401 55.42 2.40011 37.67 1.10011C17.68 -0.37989 1 15.4101 1 35.0901C1 43.2401 4.51 50.1301 8.95 56.3001C14.41 63.7201 14.76 70.6701 11.94 81.9501" stroke="black" stroke-width="2" stroke-miterlimit="10" stroke-linecap="round"/>
<path d="M37.65 20.72L43.74 34.26H36.3L44.54 50.1L25.21 30.62H32.96L25.21 20.72H37.65Z" stroke="black" stroke-width="2" stroke-miterlimit="10" stroke-linecap="round"/>
<path d="M49.77 47.16L47.89 43.75" stroke="black" stroke-width="2" stroke-miterlimit="10" stroke-linecap="round"/>
<path d="M58.7 48.01L56.35 43.75" stroke="black" stroke-width="2" stroke-miterlimit="10" stroke-linecap="round"/>
<path d="M56.59 52.57L51.96 43.75" stroke="black" stroke-width="2" stroke-miterlimit="10" stroke-linecap="round"/>
<path d="M27.14 38.61H19.21C13.77 38.61 9.32999 34.18 9.32999 28.74C9.32999 23.78 13 19.67 17.77 18.97" stroke="black" stroke-width="2" stroke-miterlimit="10" stroke-linecap="round"/>
<path d="M53.28 19.0598C53.34 19.0698 53.4 19.0798 53.46 19.0998C57.88 20.0798 61.2 24.0298 61.2 28.7398C61.2 34.1798 56.77 38.6098 51.33 38.6098H43.92" stroke="black" stroke-width="2" stroke-miterlimit="10" stroke-linecap="round"/>
<path d="M18.64 23.0699C18.19 21.6399 17.86 20.4699 17.77 18.9699C17.74 18.6599 17.73 18.3599 17.73 18.0499C17.73 12.6099 22.16 8.17993 27.61 8.17993C30.59 8.17993 33.3 9.49993 35.13 11.6499" stroke="black" stroke-width="2" stroke-miterlimit="10" stroke-linecap="round"/>
<path d="M32.86 13.7099C33.6 12.9699 34.24 12.3699 35.13 11.6399C37.07 10.2099 39.43 9.41992 41.93 9.41992C47.64 9.41992 52.38 13.5999 53.28 19.0499C53.46 20.6199 53.55 21.7099 53.54 23.3999" stroke="black" stroke-width="2" stroke-miterlimit="10" stroke-linecap="round"/>
</g>
<defs>
<clipPath id="clip0_845_437">
<rect width="75.65" height="82.96" fill="white"/>
</clipPath>
</defs>
</svg>
