<svg width="85" height="85" viewBox="0 0 85 85" fill="none" xmlns="http://www.w3.org/2000/svg">
<g clip-path="url(#clip0_845_450)">
<path d="M63.34 73.5398L61.87 82.6498" stroke="#333333" stroke-width="2" stroke-miterlimit="10" stroke-linecap="round"/>
<path d="M56.04 71.1199C58.51 72.3499 60.71 73.1499 63.34 73.5299C65.92 73.9099 68.9 73.8999 72.95 73.5299C74.55 73.3899 75.79 72.0999 75.88 70.4999L76.62 57.7999C76.66 57.0699 77.19 56.4499 77.92 56.3099L81.72 55.5499C82.23 55.5099 82.68 55.2299 82.93 54.7899C83.18 54.3499 83.2 53.8199 82.98 53.3599L78.63 44.3399C77.95 42.9199 77.62 41.3499 77.69 39.7699C77.06 24.0599 64.32 11.5899 48.46 11.0499C30.6 10.4399 16.3 25.0799 16.98 42.5999C17.26 49.8599 20.63 55.8699 24.8 61.2199C29.92 67.6399 30.48 73.8099 28.36 83.9599" stroke="#333333" stroke-width="2" stroke-miterlimit="10" stroke-linecap="round"/>
<path d="M48.34 6.49992C62.42 1.34992 73.58 -0.530079 75.37 2.34992C76.18 3.64992 74.97 5.74992 72.21 8.29992C72.08 8.41992 71.96 8.53992 71.82 8.65992C70.93 9.45992 69.91 10.2899 68.75 11.1499C67.96 11.7399 67.11 12.3499 66.2 12.9699C65.18 13.6599 64.1 14.3699 62.95 15.0799C61.87 15.7499 60.74 16.4299 59.55 17.1199C58.75 17.5899 57.92 18.0499 57.07 18.5199L52.94 20.7099" stroke="#333333" stroke-width="2" stroke-miterlimit="10" stroke-linecap="round"/>
<path d="M8.06 28.1399C5.3 30.6999 4.09 32.7999 4.91 34.0999C5.86 35.6299 9.44 35.8199 14.68 34.8899C15.89 34.6799 17.19 34.4099 18.56 34.0799C19.8 33.7899 21.1 33.4399 22.46 33.0599C23.3 32.8199 24.16 32.5699 25.03 32.2999L30.12 30.6099" stroke="#333333" stroke-width="2" stroke-miterlimit="10" stroke-linecap="round"/>
<path d="M73.24 12.02C77.06 12.97 79.27 14.23 79.28 15.74C79.28 17.36 76.76 19.02 72.44 20.53C71.3 20.93 70.04 21.32 68.67 21.69C67.45 22.02 66.15 22.34 64.77 22.65C61.59 23.36 57.99 24 54.09 24.54" stroke="#333333" stroke-width="2" stroke-miterlimit="10" stroke-linecap="round"/>
<path d="M29.13 26.3099C27.39 26.3199 25.7 26.3099 24.07 26.2599C22.69 26.2299 21.35 26.1699 20.05 26.0999C18.86 26.0299 17.71 25.9599 16.61 25.8599C16.44 25.8499 16.28 25.8299 16.12 25.8099C14.48 25.6599 12.94 25.4799 11.52 25.2699C5 24.3099 1.01 22.7199 0.999996 20.6899C0.979996 17.2799 12.23 13.6699 27.84 11.6699C27.99 11.6499 28.14 11.6299 28.29 11.6199" stroke="#333333" stroke-width="2" stroke-miterlimit="10" stroke-linecap="round"/>
<path d="M35.73 28.58L39.63 26.72" stroke="#333333" stroke-width="2" stroke-miterlimit="10"/>
<path d="M43.59 24.83L47.49 22.98" stroke="#333333" stroke-width="2" stroke-miterlimit="10"/>
<path d="M44.41 31.66L42.56 27.76" stroke="#333333" stroke-width="2" stroke-miterlimit="10"/>
<path d="M40.67 23.7999L38.81 19.8999" stroke="#333333" stroke-width="2" stroke-miterlimit="10"/>
<path d="M25.1 44.25L27.77 42.97" stroke="#333333" stroke-width="2" stroke-miterlimit="10"/>
<path d="M30.49 41.6802L33.16 40.4102" stroke="#333333" stroke-width="2" stroke-miterlimit="10"/>
<path d="M31.05 46.3499L29.78 43.6899" stroke="#333333" stroke-width="2" stroke-miterlimit="10"/>
<path d="M28.48 40.9701L27.21 38.3" stroke="#333333" stroke-width="2" stroke-miterlimit="10"/>
<path d="M41.52 43.9499L44.19 42.6799" stroke="#333333" stroke-width="2" stroke-miterlimit="10"/>
<path d="M46.9 41.3901L49.57 40.1201" stroke="#333333" stroke-width="2" stroke-miterlimit="10"/>
<path d="M47.46 46.0599L46.19 43.3899" stroke="#333333" stroke-width="2" stroke-miterlimit="10"/>
<path d="M44.9 40.68L43.62 38.01" stroke="#333333" stroke-width="2" stroke-miterlimit="10"/>
<path d="M57.52 36.3299L60.07 35.1099" stroke="#333333" stroke-width="2" stroke-miterlimit="10"/>
<path d="M62.67 33.8699L65.23 32.6599" stroke="#333333" stroke-width="2" stroke-miterlimit="10"/>
<path d="M63.21 38.3498L61.99 35.7898" stroke="#333333" stroke-width="2" stroke-miterlimit="10"/>
<path d="M60.75 33.1899L59.54 30.6399" stroke="#333333" stroke-width="2" stroke-miterlimit="10"/>
</g>
<defs>
<clipPath id="clip0_845_450">
<rect width="84.14" height="84.97" fill="white"/>
</clipPath>
</defs>
</svg>
