<svg width="77" height="85" viewBox="0 0 77 85" fill="none" xmlns="http://www.w3.org/2000/svg">
<g clip-path="url(#clip0_845_480)">
<path d="M31.73 17.9699C33.35 15.7399 35.98 14.1999 39.04 13.9599C44.46 13.5399 49.21 17.3799 49.65 22.5299C49.73 23.4299 49.67 24.3199 49.48 25.1599" stroke="#333333" stroke-width="2" stroke-miterlimit="10" stroke-linecap="round"/>
<path d="M49.32 20.7798C52.98 21.0798 55.95 23.5998 56.22 26.8798C56.5 30.1898 53.94 33.1598 50.31 33.9698" stroke="#333333" stroke-width="2" stroke-miterlimit="10" stroke-linecap="round"/>
<path d="M40.6 25.34C39.67 26.55 38.2 27.36 36.51 27.46C33.8 27.62 31.43 25.89 30.83 23.46" stroke="#333333" stroke-width="2" stroke-miterlimit="10" stroke-linecap="round"/>
<path d="M31.24 34.8098C28.99 31.8898 30.91 27.1898 35.7 27.4498" stroke="#333333" stroke-width="2" stroke-miterlimit="10" stroke-linecap="round"/>
<path d="M19.04 25.5898C9.7 28.0098 12.58 41.3198 22.17 40.0698" stroke="#333333" stroke-width="2" stroke-miterlimit="10" stroke-linecap="round"/>
<path d="M20.22 29.0698C19.4 27.6798 18.93 26.0898 18.93 24.3798C18.93 19.0798 23.46 14.7898 29.05 14.7898C30.76 14.7898 32.37 15.1898 33.78 15.8998" stroke="#333333" stroke-width="2" stroke-miterlimit="10" stroke-linecap="round"/>
<path d="M24.98 39.1299C20.48 39.9499 17.89 42.6899 17.52 47.5699" stroke="#333333" stroke-width="2" stroke-miterlimit="10" stroke-linecap="round"/>
<path d="M40.46 33.9698C40.56 31.7998 42.68 30.0398 45.52 30.2698C48.84 30.7398 51.12 33.6798 50.62 36.8298C50.12 39.9798 47.57 41.7498 43.71 41.6798C42.28 41.6498 39.01 41.5698 36.92 41.4798C31.51 41.2498 26.53 44.3398 24.64 49.1598" stroke="#333333" stroke-width="2" stroke-miterlimit="10" stroke-linecap="round"/>
<path d="M52.4 72.9299L50.32 83.2399" stroke="#333333" stroke-width="2" stroke-miterlimit="10" stroke-linecap="round"/>
<path d="M44.2 69.85C46.96 71.36 49.43 72.37 52.41 72.93C55.33 73.48 58.73 73.59 63.35 73.35C65.18 73.26 66.65 71.85 66.83 70.03L68.24 55.6C68.32 54.77 68.95 54.09 69.78 53.96L74.14 53.26C74.72 53.24 75.25 52.94 75.56 52.45C75.87 51.96 75.91 51.35 75.68 50.83L71.13 40.36C70.42 38.71 70.11 36.91 70.26 35.12C70.24 17.2 56.29 2.43004 38.26 1.10004C17.94 -0.399962 1 15.63 1 35.63C1 43.91 4.57 50.91 9.07 57.18C14.61 64.72 14.98 71.77 12.1 83.24" stroke="#333333" stroke-width="2" stroke-miterlimit="10" stroke-linecap="round"/>
<path d="M11.47 46.86L7.31 44.8L9.48 40.67C9.8 40.07 9.68 39.33 9.19 38.85L5.85 35.59L9.19 32.33C9.68 31.85 9.79 31.11 9.48 30.51L7.31 26.38L11.49 24.31C12.1 24.01 12.44 23.34 12.33 22.67L11.55 18.07L16.17 17.4C16.84 17.3 17.37 16.77 17.47 16.1L18.14 11.48L22.74 12.26C23.41 12.37 24.08 12.03 24.38 11.42L26.45 7.24003L30.58 9.41003C31.18 9.73003 31.92 9.61003 32.4 9.12003L35.66 5.78003L38.92 9.12003C39.4 9.61003 40.14 9.72003 40.74 9.41003L44.87 7.24003L46.94 11.42C47.24 12.03 47.91 12.37 48.58 12.26L53.18 11.48L53.85 16.1C53.95 16.77 54.48 17.3 55.15 17.4L59.77 18.07L58.85 23.49" stroke="#333333" stroke-width="2" stroke-miterlimit="10" stroke-linecap="round"/>
</g>
<defs>
<clipPath id="clip0_845_480">
<rect width="76.82" height="84.24" fill="white"/>
</clipPath>
</defs>
</svg>
