<svg width="83" height="85" viewBox="0 0 83 85" fill="none" xmlns="http://www.w3.org/2000/svg">
<g clip-path="url(#clip0_845_494)">
<path d="M56.99 72.9202L54.91 83.2402" stroke="#333333" stroke-width="2" stroke-linecap="round" stroke-linejoin="round"/>
<path d="M6.87 26.3301C11.14 10.9101 25.8 -0.159897 42.85 1.1001C57.4 2.1701 69.3 12.0101 73.35 25.1801" stroke="#333333" stroke-width="2" stroke-linecap="round" stroke-linejoin="round"/>
<path d="M5.59 35.6401C5.59 43.9201 9.15 50.9001 13.66 57.1801C19.2 64.7101 19.56 71.7701 16.7 83.2401" stroke="#333333" stroke-width="2" stroke-linecap="round" stroke-linejoin="round"/>
<path d="M48.78 69.85C51.54 71.36 54.01 72.36 56.99 72.92C59.9 73.47 63.31 73.58 67.93 73.34C69.76 73.25 71.24 71.84 71.4 70.02L72.81 55.58C72.89 54.75 73.53 54.07 74.36 53.94L78.73 53.24C79.3 53.23 79.84 52.93 80.14 52.44C80.45 51.95 80.49 51.35 80.27 50.81L75.72 40.35C75.01 38.7 74.71 36.9 74.86 35.1C74.86 34.9 74.86 34.69 74.85 34.49" stroke="#333333" stroke-width="2" stroke-linecap="round" stroke-linejoin="round"/>
<path d="M14.15 26.34C15.48 22.99 18.54 20.48 22.22 19.95" stroke="#333333" stroke-width="2" stroke-linecap="round" stroke-linejoin="round"/>
<path d="M37.51 40.4099H23.71C20.07 40.4099 16.86 38.5099 15.04 35.6499" stroke="#333333" stroke-width="2" stroke-linecap="round" stroke-linejoin="round"/>
<path d="M66.51 34.4199C64.87 37.9499 61.28 40.4199 57.15 40.4199H49.57" stroke="#333333" stroke-width="2" stroke-linecap="round" stroke-linejoin="round"/>
<path d="M59.2 20.04L59.37 20.07C62.27 20.71 64.71 22.58 66.12 25.1" stroke="#333333" stroke-width="2" stroke-linecap="round" stroke-linejoin="round"/>
<path d="M23.12 24.22C22.65 22.73 22.3 21.51 22.21 19.95C22.18 19.63 22.17 19.32 22.17 18.99C22.17 13.32 26.79 8.70996 32.46 8.70996C35.56 8.70996 38.39 10.08 40.29 12.32" stroke="#333333" stroke-width="2" stroke-linecap="round" stroke-linejoin="round"/>
<path d="M37.92 14.47C38.7 13.69 39.36 13.07 40.29 12.31C42.31 10.82 44.77 9.98999 47.38 9.98999C53.32 9.98999 58.27 14.34 59.2 20.02C59.38 21.66 59.48 22.79 59.47 24.55" stroke="#333333" stroke-width="2" stroke-linecap="round" stroke-linejoin="round"/>
<path d="M1 30.9801L27.05 31.0201L30.37 24.2201L34.31 35.4301L39.44 17.8201L43.93 46.8001L49.57 24.8501L53.39 33.5101L56.08 29.6501L81.82 29.9201" stroke="#333333" stroke-width="2" stroke-linecap="round" stroke-linejoin="round"/>
</g>
<defs>
<clipPath id="clip0_845_494">
<rect width="82.82" height="84.24" fill="white"/>
</clipPath>
</defs>
</svg>
