<svg width="66" height="66" viewBox="0 0 66 66" fill="none" xmlns="http://www.w3.org/2000/svg">
<circle cx="33" cy="33" r="33" fill="#B2A5D2"/>
<path d="M32.5 4C16.79 4 4 16.79 4 32.5C4 48.21 16.79 61 32.5 61C48.21 61 61 48.21 61 32.5C61 16.79 48.21 4 32.5 4ZM32.5 6C47.11 6 59 17.89 59 32.5C59 47.11 47.11 59 32.5 59C17.89 59 6 47.11 6 32.5C6 17.89 17.89 6 32.5 6Z" fill="white"/>
<path d="M19.48 33.4097H42.26L35.51 40.5897C35.33 40.7797 35.23 41.0497 35.24 41.3297C35.25 41.6097 35.37 41.8697 35.56 42.0397C35.75 42.2197 36 42.3197 36.25 42.3197C36.52 42.3197 36.79 42.2097 37.01 41.9997L45.41 33.0697C45.78 32.6297 45.69 32.0497 45.41 31.7197L37 22.7797C36.61 22.3797 35.94 22.3597 35.55 22.7397C35.15 23.1297 35.13 23.7897 35.51 24.1897L42.27 31.3697H19.48C18.92 31.3697 18.46 31.8297 18.46 32.3897C18.46 32.9497 18.91 33.4097 19.48 33.4097Z" fill="white"/>
</svg>
